<svg width="10" height="12" viewBox="0 0 10 12" fill="none" xmlns="http://www.w3.org/2000/svg">
<path fill-rule="evenodd" clip-rule="evenodd" d="M9.04183 4.82399C9.23015 3.56313 8.27015 2.88533 6.95748 2.43316L7.38329 0.725182L6.34334 0.466083L5.92879 2.12906C5.65577 2.06095 5.37505 1.99669 5.09611 1.93303L5.51363 0.259099L4.47457 0L4.04846 1.70739C3.82223 1.65587 3.60015 1.60494 3.38458 1.55134L3.38576 1.54601L1.95198 1.18801L1.67541 2.29843C1.67541 2.29843 2.44679 2.47521 2.4305 2.48617C2.85157 2.59129 2.92797 2.86993 2.91494 3.09083L2.42991 5.03659C2.45893 5.044 2.49653 5.05466 2.53799 5.07124L2.42843 5.044L1.74825 7.76972C1.69673 7.89764 1.56614 8.08952 1.27181 8.01668C1.28217 8.03178 0.516126 7.82806 0.516126 7.82806L0 9.01843L1.35324 9.35571C1.50599 9.39399 1.6569 9.43336 1.80614 9.47229L1.80616 9.4723C1.90282 9.49751 1.99879 9.52255 2.09411 9.547L1.66386 11.2748L2.70233 11.5339L3.12874 9.82475C3.41212 9.90174 3.6875 9.97281 3.95696 10.0397L3.53234 11.7409L4.57199 12L5.00225 10.2757C6.77508 10.6112 8.10848 10.4759 8.66902 8.87274C9.12119 7.58169 8.64681 6.83696 7.71405 6.35104C8.39334 6.19381 8.90502 5.74697 9.04153 4.82399H9.04183ZM6.66616 8.15492C6.37101 9.33986 4.51588 8.84958 3.66782 8.62545L3.66779 8.62544C3.59186 8.60537 3.524 8.58744 3.46606 8.57303L4.03697 6.28437C4.1078 6.30205 4.19433 6.32146 4.29235 6.34346C5.1697 6.54034 6.9677 6.94381 6.66646 8.15492H6.66616ZM4.46899 5.2815C5.17661 5.47028 6.71903 5.88177 6.98773 4.80534C7.26244 3.70412 5.76259 3.37221 5.03008 3.21011C4.94773 3.19189 4.87508 3.17581 4.81574 3.16103L4.29814 5.23678C4.34711 5.24898 4.4046 5.26432 4.46899 5.2815Z" fill="#F7931A"/>
</svg>
