<svg width="24" height="24" viewBox="0 0 24 24" fill="none" xmlns="http://www.w3.org/2000/svg">
<path d="M23.9785 11.9958C23.9785 18.5905 18.6328 23.9361 12.0382 23.9361C5.44381 23.9361 0.0979004 18.5905 0.0979004 11.9958C0.0979004 5.40133 5.44381 0.055542 12.0382 0.055542C18.6328 0.055542 23.9785 5.40133 23.9785 11.9958Z" fill="#1BA27A"/>
<path d="M17.6422 6.07654H6.33594V8.80609H10.6243V12.818H13.3538V8.80609H17.6422V6.07654Z" fill="white"/>
<path d="M12.0149 13.2454C8.46744 13.2454 5.59138 12.684 5.59138 11.9913C5.59138 11.2988 8.46732 10.7372 12.0149 10.7372C15.5624 10.7372 18.4383 11.2988 18.4383 11.9913C18.4383 12.684 15.5624 13.2454 12.0149 13.2454ZM19.2274 12.2004C19.2274 11.3073 15.9983 10.5833 12.0149 10.5833C8.03162 10.5833 4.80225 11.3073 4.80225 12.2004C4.80225 12.9869 7.30625 13.6422 10.6243 13.7874V19.5467H13.3536V13.7896C16.6973 13.649 19.2274 12.991 19.2274 12.2004Z" fill="white"/>
</svg>
