<svg width="14" height="22" viewBox="0 0 14 22" fill="none" xmlns="http://www.w3.org/2000/svg">
<path fill-rule="evenodd" clip-rule="evenodd" d="M0 0L6.50135 5.65244V12.7944C6.20584 12.8484 5.89164 12.9743 5.63319 13.1355C5.00511 12.5255 1.21893 8.82862 0.0183686 7.64419C0 7.42878 0 0 0 0ZM11.5801 10.0669C10.4538 9.1159 9.03136 8.48768 7.44296 8.41614V12.7766C7.7939 12.8303 8.12647 12.9743 8.40328 13.1536L11.5801 10.0669ZM9.49333 14.7508H13.9814C13.8705 13.2071 13.2239 11.8256 12.2825 10.7308L9.10566 13.8173C9.30852 14.0866 9.43758 14.4097 9.49333 14.7508ZM4.87589 13.7993L0 9.06198V14.7507H4.48789C4.54348 14.4096 4.6914 14.0865 4.87589 13.7993ZM0 15.6835H4.48789C4.54332 16.0067 4.67271 16.3295 4.87589 16.581L1.69893 19.7033C0.738771 18.6267 0.110856 17.227 0 15.6835ZM2.38257 20.3491C3.50917 21.3003 4.93129 21.9281 6.51936 21.9999V17.6395C6.16875 17.5856 5.83618 17.4422 5.55953 17.2628L2.38257 20.3491ZM7.44296 21.9999V17.6395C7.79418 17.5866 8.12873 17.4579 8.42197 17.2628L11.5801 20.3311C10.472 21.2822 9.03152 21.8924 7.44296 21.9999ZM9.14273 16.5451L12.3381 19.6314C13.28 18.537 13.8896 17.1733 14.0001 15.6658H9.4753C9.42302 15.9768 9.31014 16.2752 9.14273 16.5451Z" fill="#F6543E"/>
</svg>
