<svg width="16" height="16" viewBox="0 0 16 16" fill="none" xmlns="http://www.w3.org/2000/svg">
<path d="M8 0C12.4187 0 16 3.58204 16 8C16 12.4187 12.4187 16 8 16C3.58204 16 0 12.4183 0 8C0 3.58204 3.58204 0 8 0Z" fill="#F5AC37"/>
<path d="M8.29232 8.56491H11.3322C11.397 8.56491 11.4276 8.56491 11.4323 8.47995C11.4571 8.17071 11.4571 7.85966 11.4323 7.55006C11.4323 7.48994 11.4024 7.4651 11.3372 7.4651H5.28737C5.21249 7.4651 5.19233 7.48994 5.19233 7.56014V8.45007C5.19233 8.56491 5.19233 8.56491 5.31221 8.56491H8.29232V8.56491ZM11.0928 6.42505C11.1014 6.40237 11.1014 6.37753 11.0928 6.35521C11.042 6.24469 10.9819 6.13921 10.9121 6.04021C10.8069 5.871 10.6831 5.71512 10.542 5.57508C10.4754 5.49048 10.3983 5.41452 10.3119 5.35008C9.87921 4.9818 9.36477 4.72115 8.8118 4.59011C8.5328 4.52747 8.24768 4.49759 7.96183 4.50011H5.27693C5.20204 4.50011 5.19196 4.52999 5.19196 4.59515V6.36997C5.19196 6.44485 5.19196 6.46501 5.28701 6.46501H11.0568C11.0568 6.46501 11.1068 6.45493 11.1169 6.42505H11.0924H11.0928ZM11.0928 9.60496C11.0078 9.5956 10.9221 9.5956 10.8372 9.60496H5.29241C5.21753 9.60496 5.19233 9.60496 5.19233 9.70504V11.4403C5.19233 11.5202 5.19232 11.5403 5.29241 11.5403H7.85239C7.97479 11.5497 8.09719 11.5411 8.21708 11.5155C8.5886 11.4889 8.954 11.4082 9.30249 11.2754C9.42921 11.2315 9.55161 11.1742 9.66717 11.1055H9.70209C10.3022 10.7933 10.7897 10.303 11.0971 9.70108C11.0971 9.70108 11.132 9.62548 11.0928 9.60568V9.60496ZM4.18755 12.44V12.4101V11.2451V10.8502V9.67516C4.18755 9.61 4.18755 9.60028 4.10763 9.60028H3.02258C2.96246 9.60028 2.93762 9.60028 2.93762 9.52036V8.57031H4.09755C4.16235 8.57031 4.18755 8.57031 4.18755 8.48535V7.54538C4.18755 7.48526 4.18755 7.4705 4.10763 7.4705H3.02258C2.96246 7.4705 2.93762 7.4705 2.93762 7.39058V6.51073C2.93762 6.45565 2.93762 6.44089 3.01754 6.44089H4.09251C4.16739 6.44089 4.18755 6.44089 4.18755 6.34585V3.65086C4.18755 3.57094 4.18755 3.55078 4.28764 3.55078H8.03743C8.3096 3.56158 8.57996 3.59146 8.84744 3.64078C9.39861 3.74266 9.92817 3.93959 10.4124 4.22075C10.7335 4.40975 11.0291 4.63799 11.2922 4.9008C11.4902 5.10636 11.6688 5.32884 11.8272 5.56572C11.9845 5.80584 12.1152 6.06253 12.2178 6.33073C12.2304 6.40057 12.2974 6.44773 12.3672 6.43585H13.2622C13.377 6.43585 13.377 6.43585 13.382 6.54601V7.3661C13.382 7.44602 13.3522 7.46618 13.2719 7.46618H12.5818C12.5119 7.46618 12.4918 7.46618 12.4968 7.55618C12.5242 7.86074 12.5242 8.16639 12.4968 8.47095C12.4968 8.55591 12.4968 8.56599 12.5922 8.56599H13.3817C13.4166 8.61099 13.3817 8.65599 13.3817 8.70135C13.3867 8.75931 13.3867 8.81799 13.3817 8.87595V9.48112C13.3817 9.56608 13.3568 9.59128 13.2816 9.59128H12.3366C12.2707 9.57868 12.2066 9.6208 12.1915 9.68632C11.9665 10.2713 11.6065 10.7959 11.1414 11.2163C10.9715 11.3693 10.7929 11.5133 10.6064 11.6462C10.4063 11.7614 10.2115 11.8813 10.0063 11.9763C9.62865 12.1462 9.23265 12.2715 8.8262 12.3511C8.44028 12.4202 8.04895 12.4515 7.65619 12.4461H4.18611V12.4411L4.18755 12.44Z" fill="#FEFEFD"/>
</svg>
