<svg viewBox="0 0 20 20" fill="none" xmlns="http://www.w3.org/2000/svg">
<path d="M10 0C4.47328 0 0 4.47254 0 10C0 15.5267 4.47254 20 10 20C15.5267 20 20 15.5275 20 10C20 4.47332 15.5275 0 10 0ZM10 18.8281C5.12102 18.8281 1.17188 14.8798 1.17188 10C1.17188 5.12102 5.12023 1.17188 10 1.17188C14.879 1.17188 18.8281 5.12023 18.8281 10C18.8281 14.879 14.8798 18.8281 10 18.8281Z" fill="white"/>
<path d="M10 3.90625C6.62891 3.90625 3.90625 6.64977 3.90625 10C3.90625 13.3397 6.61836 16.0938 10 16.0938C13.3759 16.0938 16.0938 13.3464 16.0938 10C16.0938 6.65242 13.3728 3.90625 10 3.90625ZM10.5859 5.11316C11.9528 5.27602 13.1496 6.00105 13.9375 7.05012L11.531 8.43953C11.2707 8.1841 10.947 7.9934 10.5859 7.89285V5.11316ZM9.41406 5.11312V7.89281C9.05305 7.99332 8.72934 8.18406 8.46902 8.43949L6.0625 7.05012C6.85043 6.00105 8.04719 5.27602 9.41406 5.11312ZM5.47512 11.9359C5.2198 11.3414 5.07812 10.687 5.07812 10C5.07812 9.31305 5.2198 8.65863 5.47512 8.06414L7.8816 9.45355C7.83652 9.62824 7.8125 9.81137 7.8125 10C7.8125 10.1886 7.83652 10.3718 7.8816 10.5465L5.47512 11.9359ZM9.41406 14.8868C8.04719 14.724 6.85043 13.9989 6.0625 12.9499L8.46902 11.5605C8.72934 11.8159 9.05301 12.0066 9.41406 12.1071V14.8868ZM8.98438 10C8.98438 9.43996 9.44 8.98438 10 8.98438C10.56 8.98438 11.0156 9.43996 11.0156 10C11.0156 10.56 10.56 11.0156 10 11.0156C9.44 11.0156 8.98438 10.56 8.98438 10ZM10.5859 14.8869V12.1072C10.947 12.0067 11.2707 11.8159 11.531 11.5605L13.9375 12.9499C13.1496 13.9989 11.9528 14.724 10.5859 14.8869ZM12.1184 10.5465C12.1635 10.3718 12.1875 10.1886 12.1875 10C12.1875 9.81137 12.1635 9.62824 12.1184 9.45352L14.5249 8.06414C14.7802 8.65863 14.9219 9.31305 14.9219 10C14.9219 10.687 14.7802 11.3414 14.5249 11.9359L12.1184 10.5465Z" fill="white"/>
</svg>
