<svg width="20" height="20" viewBox="0 0 20 20" fill="none" xmlns="http://www.w3.org/2000/svg">
<path opacity="0.2" d="M19.9458 10.0002C19.9458 15.494 15.4923 19.9476 9.99858 19.9476C4.5048 19.9476 0.0512695 15.494 0.0512695 10.0002C0.0512695 4.50651 4.5048 0.0529785 9.99858 0.0529785C15.4922 0.0529785 19.9458 4.50651 19.9458 10.0002Z" fill="#505050"/>
<g opacity="0.8">
<path d="M9.99897 3L9.91162 3.29688V11.9115L9.99897 11.9987L13.9978 9.63502L9.99897 3Z" fill="white"/>
<path d="M9.99882 3L6 9.63502L9.99882 11.9987V7.81745V3Z" fill="white"/>
<path d="M9.99893 13.2998L9.94971 13.3598V16.4285L9.99893 16.5722L14.0002 10.9373L9.99893 13.2998Z" fill="white"/>
<path d="M9.99882 16.5723V13.2998L6 10.9373L9.99882 16.5723Z" fill="white"/>
<path d="M9.99878 11.9987L13.9975 9.63507L9.99878 7.8175V11.9987Z" fill="white"/>
<path d="M6 9.63507L9.99876 11.9988V7.8175L6 9.63507Z" fill="white"/>
</g>
</svg>
