<svg viewBox="0 0 599 416" fill="none" xmlns="http://www.w3.org/2000/svg">
<mask id="mask0" mask-type="alpha" maskUnits="userSpaceOnUse" x="120" y="0" width="240" height="416">
<path d="M240.081 103.782L180.305 0L120.386 103.782L179.888 207.563L239.389 311.345L299.308 415.126L359.226 311.345L299.583 207.563L240.081 103.782Z" fill="#C4C4C4"/>
</mask>
<g mask="url(#mask0)">
<rect x="-59.5022" y="593.63" width="597.782" height="597.782" transform="rotate(-90 -59.5022 593.63)" fill="url(#paint0_linear)"/>
</g>
<mask id="mask1" mask-type="alpha" maskUnits="userSpaceOnUse" x="360" y="0" width="239" height="416">
<path d="M479.695 103.782L419.918 0L360 103.782L419.501 207.563L479.003 311.345L538.921 415.126L598.84 311.345L539.196 207.563L479.695 103.782Z" fill="#C4C4C4"/>
</mask>
<g mask="url(#mask1)">
<rect x="99" y="593.63" width="597.782" height="597.782" transform="rotate(-90 99 593.63)" fill="url(#paint1_linear)"/>
</g>
<mask id="mask2" mask-type="alpha" maskUnits="userSpaceOnUse" x="0" y="207" width="120" height="209">
<path d="M119.837 311.345L59.9183 207.563L0 311.345L59.9183 415.126L119.837 311.345Z" fill="#C4C4C4"/>
</mask>
<g mask="url(#mask2)">
<rect y="464.942" width="597.782" height="597.782" transform="rotate(-90 0 464.942)" fill="url(#paint2_linear)"/>
</g>
<defs>
<linearGradient id="paint0_linear" x1="239.389" y1="593.63" x2="239.389" y2="1191.41" gradientUnits="userSpaceOnUse">
<stop stop-color="#46D329"/>
<stop offset="1" stop-color="#B8F907"/>
</linearGradient>
<linearGradient id="paint1_linear" x1="397.891" y1="593.63" x2="397.891" y2="1191.41" gradientUnits="userSpaceOnUse">
<stop stop-color="#46D329"/>
<stop offset="1" stop-color="#B8F907"/>
</linearGradient>
<linearGradient id="paint2_linear" x1="298.891" y1="464.942" x2="298.891" y2="1062.72" gradientUnits="userSpaceOnUse">
<stop stop-color="#46D329"/>
<stop offset="1" stop-color="#B8F907"/>
</linearGradient>
</defs>
</svg>
