<svg width="24" height="24" viewBox="0 0 24 24" fill="none" xmlns="http://www.w3.org/2000/svg">
<g clip-path="url(#clip0)">
<path d="M18.5206 4.89429H21.1488L15.6793 10.3098C13.6986 12.2699 10.4872 12.2699 8.50506 10.3098L3.03345 4.89429H5.66377L9.81915 9.00812C10.4246 9.60482 11.2405 9.93933 12.0906 9.93933C12.9407 9.93933 13.7566 9.60482 14.362 9.00812L18.5206 4.89429Z" fill="#23292F"/>
<path d="M5.62997 19.9531H3L8.50499 14.5042C10.4857 12.544 13.6971 12.544 15.6792 14.5042L21.1842 19.9531H18.556L14.3652 15.8058C13.7597 15.2091 12.9438 14.8746 12.0937 14.8746C11.2437 14.8746 10.4277 15.2091 9.82229 15.8058L5.62997 19.9531Z" fill="#23292F"/>
</g>
<defs>
<clipPath id="clip0">
<rect width="18.8235" height="16" fill="white" transform="translate(3 4)"/>
</clipPath>
</defs>
</svg>
