<?xml version="1.0" standalone="no"?>
<!DOCTYPE svg PUBLIC "-//W3C//DTD SVG 20010904//EN"
 "http://www.w3.org/TR/2001/REC-SVG-20010904/DTD/svg10.dtd">
<svg version="1.0" xmlns="http://www.w3.org/2000/svg"
 width="500.000000pt" height="500.000000pt" viewBox="0 0 500.000000 500.000000"
 preserveAspectRatio="xMidYMid meet">

<g transform="translate(0.000000,500.000000) scale(0.100000,-0.100000)"
fill="rgb(174,10,34)" stroke="none">
<path d="M3084 4875 c-457 -106 -818 -339 -1070 -691 -34 -49 -80 -121 -101
-161 l-38 -72 -87 -37 c-104 -43 -268 -139 -376 -219 -108 -81 -305 -283 -384
-395 -169 -239 -272 -487 -324 -780 -28 -158 -26 -463 4 -625 84 -449 327
-851 682 -1129 35 -27 61 -45 59 -40 -2 5 -71 143 -153 306 -83 164 -147 300
-145 303 3 3 28 -28 55 -68 76 -113 280 -310 407 -395 192 -128 417 -220 632
-258 140 -25 432 -25 570 0 203 37 433 128 600 237 167 109 344 277 441 420
26 38 50 67 53 64 2 -3 -62 -139 -145 -303 -82 -163 -151 -301 -153 -306 -9
-21 130 96 224 189 302 299 487 686 534 1117 62 562 -150 1133 -567 1529 -171
162 -382 298 -591 379 -107 42 -110 44 -104 69 12 53 74 197 118 273 l44 79
-32 -7 c-125 -27 -374 -157 -478 -251 l-42 -38 7 30 c12 50 86 216 129 290 92
159 216 328 336 457 53 58 53 58 25 57 -16 0 -74 -11 -130 -24z m-434 -1635
c705 -87 1117 -844 802 -1475 -138 -277 -370 -464 -677 -548 -116 -31 -374
-31 -490 0 -207 57 -364 149 -505 299 -518 550 -280 1454 444 1685 138 44 279
57 426 39z"/>
<path d="M2388 2671 c-201 -66 -328 -241 -328 -451 0 -266 204 -470 470 -470
266 0 470 204 470 470 0 74 -29 202 -48 214 -5 3 -16 -8 -25 -24 -20 -33 -90
-70 -133 -70 -41 1 -107 33 -132 65 -55 69 -50 158 11 222 l30 32 -29 12 c-16
7 -74 14 -129 16 -78 2 -113 -1 -157 -16z"/>
<path d="M1770 429 c288 -260 752 -350 1132 -220 113 39 167 64 235 107 64 40
196 145 190 150 -2 2 -50 -12 -108 -32 -251 -85 -445 -118 -689 -118 -244 0
-438 33 -689 119 -58 19 -107 35 -110 35 -4 -1 14 -19 39 -41z"/>
</g>
</svg>
