<svg width="24" height="24" fill="none" xmlns="http://www.w3.org/2000/svg"><g clip-path="url(#clip0)" fill="#fff"><path d="M22.904 15.593a2.071 2.071 0 00-2.13.103l-3.347 2.232a2.112 2.112 0 00-2.099-1.897h-3.515l-.46-.344a5.313 5.313 0 00-5.92-.305l-.183.11v-.633a.703.703 0 00-.703-.703H.703A.703.703 0 000 14.86v8.438c0 .388.315.703.703.703h3.844a.703.703 0 00.703-.703v-.235h11.075a3.5 3.5 0 002-.625l4.781-3.31a2.075 2.075 0 00-.202-3.534zm-19.06 7H1.406v-7.03h2.438v7.03zm18.462-4.622l-4.78 3.31a2.1 2.1 0 01-1.201.375H5.25v-4.523l.908-.545a3.906 3.906 0 014.352.224l.646.485c.122.091.27.14.422.14h3.75a.704.704 0 010 1.407h-5.156a.703.703 0 100 1.406h5.526c.51 0 1.005-.15 1.43-.433l4.427-2.951c.3-.2.58-.09.686-.033a.654.654 0 01.353.589.67.67 0 01-.288.55zM10.64 11.719a5.869 5.869 0 005.78-4.898 7.848 7.848 0 011.402 2.234h-.619a.703.703 0 00-.54 1.153l3.047 3.656a.703.703 0 001.08 0l3.047-3.656a.703.703 0 00-.54-1.153h-1.024a12.048 12.048 0 00-3.987-6.303A12.011 12.011 0 0010.641 0a5.866 5.866 0 00-5.86 5.86 5.867 5.867 0 005.86 5.859zm4.866-9.129c.667.345 1.3.762 1.883 1.245a10.626 10.626 0 013.634 6.062.703.703 0 00.69.564h.083l-1.546 1.855-1.546-1.855h.1a.703.703 0 00.678-.889 9.24 9.24 0 00-3.064-4.695 5.828 5.828 0 00-.914-2.282l.002-.005zM10.64 1.406a4.458 4.458 0 014.453 4.453 4.458 4.458 0 01-4.453 4.454 4.458 4.458 0 01-4.454-4.454 4.458 4.458 0 014.454-4.453z"/><path d="M10.64 6.563a.47.47 0 11-.459.563.703.703 0 00-1.378.28 1.88 1.88 0 001.134 1.362v.138a.703.703 0 001.407 0V8.77a1.878 1.878 0 001.172-1.738 1.877 1.877 0 00-1.875-1.875.47.47 0 11.459-.563.703.703 0 001.378-.28 1.88 1.88 0 00-1.134-1.363v-.138a.703.703 0 00-1.406 0v.138a1.878 1.878 0 00-1.172 1.737c0 1.034.84 1.875 1.875 1.875z"/></g><defs><clipPath id="clip0"><path fill="#fff" d="M0 0h24v24H0z"/></clipPath></defs></svg>