<svg width="146" height="146" fill="none" xmlns="http://www.w3.org/2000/svg"><path d="M73.187 5.713a67.106 67.106 0 110 134.212 67.106 67.106 0 010-134.212h0z" stroke="#05050F" stroke-width="4.899"/><path d="M73.5 23.45a49.051 49.051 0 110 98.102 49.051 49.051 0 010-98.103h0z" stroke="#05050F" stroke-width="4.899"/><path d="M73 24a48.998 48.998 0 0143.214 72.098 49 49 0 11-77.862-57.746" stroke="url(#paint0_linear)" stroke-width="10" stroke-linecap="round"/><path d="M73 5a68 68 0 11-51.032 112.942" stroke="url(#paint1_linear)" stroke-width="10" stroke-linecap="round"/><path d="M9.603 97.593a68 68 0 0138.805-87.99" stroke="url(#paint2_linear)" stroke-width="10" stroke-linecap="round"/><path d="M73 5a68.003 68.003 0 0138.269 11.79" stroke="url(#paint3_linear)" stroke-width="10" stroke-linecap="round"/><circle cx="73.5" cy="72.5" r="29" fill="#05050F" stroke="#05050F"/><g clip-path="url(#clip0)" fill="#6A6A9F"><path d="M74.01 60c-6.63-.006-12.005 5.363-12.01 11.99-.006 6.628 5.363 12.004 11.99 12.01 6.628-.006 12-5.373 12.01-12 0-6.624-5.367-11.995-11.99-12zm-.02 22.003c-5.524 0-10.002-4.479-10.002-10.003 0-5.525 4.478-10.003 10.003-10.003 5.522.005 9.997 4.48 10.003 10.003 0 5.524-4.479 10.003-10.003 10.003z"/><path d="M77.232 71.416a2.192 2.192 0 001.087-2.267c-.186-1.402-1.858-1.932-3.177-2.043v-2.108h-1.3v2.09h-.873v-2.09h-1.3v2.09h-2.62v1.346h.976c.436 0 .65.13.65.483v5.787c0 .483-.242.631-.502.631h-.994v1.375h2.527v2.136h1.31V76.71h.872v2.136h1.273V76.71h.278c2.675 0 3.567-1.31 3.567-3.093a2.313 2.313 0 00-1.774-2.201zm-4.263-2.898h.929c.65 0 1.931.111 1.931 1.17a1.31 1.31 0 01-1.142 1.384H72.97v-2.554zm1.44 6.687v-.01h-1.44V72.41h1.672c.39 0 1.857.13 1.857 1.17s-.696 1.626-2.09 1.626z"/></g><defs><linearGradient id="paint0_linear" x1="46" y1="19" x2="46.09" y2="124.308" gradientUnits="userSpaceOnUse"><stop stop-color="#E323FF"/><stop offset="1" stop-color="#7517F8"/></linearGradient><linearGradient id="paint1_linear" x1="0" y1="0" x2="0" y2="140.677" gradientUnits="userSpaceOnUse"><stop stop-color="#4DFFDF"/><stop offset="1" stop-color="#4DA1FF"/></linearGradient><linearGradient id="paint2_linear" x1="36.5" y1="0" x2="36.621" y2="142.36" gradientUnits="userSpaceOnUse"><stop stop-color="#FFD422"/><stop offset="1" stop-color="#FF7D05"/></linearGradient><linearGradient id="paint3_linear" x1="0" y1="0" x2="0" y2="140.677" gradientUnits="userSpaceOnUse"><stop stop-color="#4DFFDF"/><stop offset="1" stop-color="#4DA1FF"/></linearGradient><clipPath id="clip0"><path fill="#fff" transform="translate(62 60)" d="M0 0h24v24H0z"/></clipPath></defs></svg>