<svg width="24" height="24" fill="none" xmlns="http://www.w3.org/2000/svg"><path d="M0 3.54c0 1.847 3.183 2.813 6.328 2.813 3.145 0 6.328-.966 6.328-2.812C12.656-.152 0-.152 0 3.54z" fill="#fff"/><path d="M6.328 7.76C4.052 7.76 0 7.093 0 4.947v1.407c0 1.842 3.178 2.812 6.328 2.812 3.15 0 6.328-.97 6.328-2.812V4.947c0 2.144-4.033 2.813-6.328 2.813zm0 5.625c-3.15 0-6.328-.97-6.328-2.813v1.407c0 1.842 3.178 2.812 6.328 2.812 3.15 0 6.328-.97 6.328-2.812v-1.407c0 1.843-3.178 2.813-6.328 2.813z" fill="#fff"/><path d="M6.328 16.197c-3.15 0-6.328-.97-6.328-2.812v1.406c0 1.842 3.178 2.813 6.328 2.813 3.15 0 6.328-.97 6.328-2.813v-1.406c0 1.842-3.178 2.812-6.328 2.812z" fill="#fff"/><path d="M6.328 19.01C3.178 19.01 0 18.04 0 16.197v1.407c0 1.842 3.178 2.812 6.328 2.812 3.15 0 6.328-.97 6.328-2.813v-1.406c0 1.842-3.178 2.813-6.328 2.813z" fill="#fff"/><path d="M6.328 21.822c-3.15 0-6.328-.97-6.328-2.812v1.406c0 1.842 3.178 2.813 6.328 2.813 3.15 0 6.328-.97 6.328-2.813V19.01c0 1.842-3.178 2.812-6.328 2.812zm0-11.25C3.178 10.572 0 9.602 0 7.76v1.406c0 2.146 4.052 2.813 6.328 2.813 2.728 0 5.47-.732 6.16-2.11.112-.21.168-.45.168-.703V7.76c0 1.842-3.178 2.812-6.328 2.812zm11.25 11.25c-1.294 0-2.58-.172-3.662-.493-.14.437-.382.827-.704 1.174 1.19.479 2.78.726 4.366.726 3.15 0 6.422-.97 6.422-2.813V19.01c0 1.842-3.272 2.812-6.422 2.812zm0-5.625c-1.236 0-2.466-.157-3.515-.45v1.41c1.05.293 2.28.447 3.515.447 3.15 0 6.422-.97 6.422-2.813v-1.406c0 2.146-4.146 2.812-6.422 2.812z" fill="#fff"/><path d="M17.578 19.01a13.24 13.24 0 01-3.515-.463v1.413c1.048.296 2.276.456 3.515.456 2.295 0 6.422-.669 6.422-2.813v-1.406c0 1.842-3.272 2.813-6.422 2.813zm-3.515-9.365v4.68c1.05.298 2.273.466 3.515.466 3.145 0 6.422-.966 6.422-2.813 0-2.57-6.213-3.344-9.938-2.333z" fill="#fff"/></svg>