<svg width="24" height="25" fill="none" xmlns="http://www.w3.org/2000/svg"><path d="M22.435 10.916V8.434a2.35 2.35 0 00-2.348-2.348h-3.029l-5.06-4.498a.783.783 0 00-1.04 0l-5.06 4.498H3.913A3.917 3.917 0 000 9.999v9.391a3.917 3.917 0 003.913 3.913h16.174a2.35 2.35 0 002.348-2.348v-2.482A2.352 2.352 0 0024 16.26v-3.13c0-1.021-.654-1.89-1.565-2.214zM11.478 3.22l3.225 2.866H8.254l3.224-2.866zm9.391 17.735a.783.783 0 01-.782.783H3.913a2.35 2.35 0 01-2.348-2.348V10a2.35 2.35 0 012.348-2.35h16.174c.431 0 .782.351.782.783v2.348h-2.347a3.917 3.917 0 00-3.913 3.912 3.917 3.917 0 003.913 3.914h2.348v2.347zm1.566-4.695a.784.784 0 01-.783.782h-3.13a2.35 2.35 0 01-2.348-2.348 2.35 2.35 0 012.348-2.347h3.13c.432 0 .783.35.783.782v3.13z" fill="#fff"/><path d="M18.521 15.477a.783.783 0 100-1.565.783.783 0 000 1.565z" fill="#fff"/></svg>