<svg width="16" height="16" fill="none" xmlns="http://www.w3.org/2000/svg"><g clip-path="url(#clip0)" fill="#FFA63F"><path d="M6.011 6.48a.469.469 0 100-.938.469.469 0 000 .938zm3.978 3.978a.469.469 0 100-.938.469.469 0 000 .938z"/><path d="M14.868 8l.74-2.177a.469.469 0 00-.173-.534l-1.878-1.326-.682-2.195a.468.468 0 00-.453-.33l-2.299.029L8.28.093a.469.469 0 00-.56 0L5.877 1.467l-2.298-.03a.469.469 0 00-.454.33l-.681 2.196L.565 5.29a.469.469 0 00-.173.534L1.132 8l-.74 2.177a.469.469 0 00.173.534l1.878 1.325.682 2.196a.47.47 0 00.454.33l2.298-.03 1.843 1.375a.469.469 0 00.56 0l1.843-1.374 2.299.029a.468.468 0 00.453-.33l.682-2.195 1.878-1.326c.17-.12.24-.338.173-.534L14.868 8zM4.605 6.01a1.408 1.408 0 012.813 0 1.408 1.408 0 01-2.813 0zm1.296 4.751a.467.467 0 01-.663 0 .469.469 0 010-.663l4.862-4.86a.469.469 0 01.662.663l-4.861 4.861zm4.088.633a1.408 1.408 0 010-2.813 1.408 1.408 0 010 2.813z"/></g><defs><clipPath id="clip0"><path fill="#fff" d="M0 0h16v16H0z"/></clipPath></defs></svg>