<svg width="24" height="24" fill="none" xmlns="http://www.w3.org/2000/svg"><rect width="24" height="24" rx="12" fill="#5A5A89"/><path fill-rule="evenodd" clip-rule="evenodd" d="M14.552 16.108c.36.456.792.972.792.972 2.652-.084 3.672-1.824 3.672-1.824 0-3.864-1.728-6.996-1.728-6.996C15.56 6.964 13.916 7 13.916 7l-.168.192c2.04.624 2.988 1.524 2.988 1.524A9.784 9.784 0 0010.7 7.588a.741.741 0 00-.104.008c-.032.004-.065.01-.1.016a5.173 5.173 0 00-.252.028c-.508.07-1.398.256-2.472.728-.444.204-.708.348-.708.348s.996-.948 3.156-1.572L10.1 7s-1.644-.036-3.372 1.26c0 0-1.728 3.132-1.728 6.996 0 0 1.008 1.74 3.66 1.824 0 0 .444-.54.804-.996-1.524-.456-2.1-1.416-2.1-1.416s.12.084.336.204a.169.169 0 00.048.036c.036.024.072.036.108.06.3.168.6.3.876.408.492.192 1.08.384 1.764.516.9.168 1.956.228 3.108.012a7.908 7.908 0 001.74-.516c.42-.156.888-.384 1.38-.708 0 0-.6.984-2.172 1.428zm-4.788-4.632c-.684 0-1.224.6-1.224 1.332 0 .732.552 1.332 1.224 1.332.684 0 1.224-.6 1.224-1.332.012-.732-.54-1.332-1.224-1.332zm4.38 0c-.684 0-1.224.6-1.224 1.332 0 .732.552 1.332 1.224 1.332.684 0 1.224-.6 1.224-1.332 0-.732-.54-1.332-1.224-1.332z" fill="#000"/></svg>