<svg width="334" height="273" fill="none" xmlns="http://www.w3.org/2000/svg"><circle cx="188.659" cy="148.153" r="53.969" fill="#F1F1F1" fill-opacity=".1"/><path d="M204.793 204.335a24.985 24.985 0 00-4.997-49.472h-6.297a39.969 39.969 0 00-45.263-29.438 39.98 39.98 0 00-33.303 42.5 39.97 39.97 0 0020.499 31.912" stroke="#36363D" stroke-width="6.599" stroke-linecap="round" stroke-linejoin="round"/><path d="M174.81 174.853l-19.988 29.982h29.982l-19.988 29.983" stroke="#36363D" stroke-width="6.599" stroke-linecap="round" stroke-linejoin="round"/><path d="M102.874 208.298a8.143 8.143 0 004.938-3.174 8.243 8.243 0 00-1.099-10.952 8.117 8.117 0 00-5.469-2.115h-2.053a13.148 13.148 0 00-3.057-5.635 13.021 13.021 0 00-5.346-3.501 12.948 12.948 0 00-6.356-.528 12.983 12.983 0 00-5.844 2.57 13.117 13.117 0 00-3.933 5.054 13.204 13.204 0 00.948 12.415 13.074 13.074 0 004.654 4.39" fill="#EEE" fill-opacity=".2"/><path d="M253.939 137.656a8.14 8.14 0 004.938-3.174 8.244 8.244 0 00-1.099-10.952 8.116 8.116 0 00-5.468-2.115h-2.053a13.157 13.157 0 00-3.057-5.635 13.023 13.023 0 00-5.347-3.501 12.956 12.956 0 00-12.199 2.042 13.111 13.111 0 00-3.934 5.054 13.201 13.201 0 00.948 12.415 13.074 13.074 0 004.655 4.39" fill="#404047"/></svg>