<svg width="24" height="24" fill="none" xmlns="http://www.w3.org/2000/svg"><rect width="24" height="24" rx="12" fill="#5A5A89"/><path fill-rule="evenodd" clip-rule="evenodd" d="M0 12.331v.095c0 .968.125 1.909.36 2.807A12.617 12.617 0 010 12.331zM8.982 23.56c.964.24 1.976.367 3.018.367 1.043 0 2.055-.128 3.019-.367a.716.716 0 01-.043-.246l.004-.685c.004-.634.01-1.591.01-2.692 0-1.148-.383-1.896-.814-2.278 2.672-.305 5.48-1.345 5.48-6.07 0-1.344-.466-2.442-1.235-3.303.124-.31.535-1.562-.118-3.257 0 0-1.006-.33-3.297 1.262A11.265 11.265 0 0012 5.876a11.2 11.2 0 00-3.004.414c-2.293-1.592-3.3-1.262-3.3-1.262-.652 1.695-.241 2.947-.117 3.257-.767.861-1.236 1.959-1.236 3.302 0 4.715 2.802 5.77 5.467 6.08-.343.308-.654.85-.762 1.646-.684.314-2.421.858-3.492-1.023 0 0-.634-1.181-1.84-1.268 0 0-1.17-.015-.081.748 0 0 .786.378 1.332 1.8 0 0 .705 2.196 4.043 1.452.003.559.007 1.1.011 1.525l.005.766a.7.7 0 01-.044.246zm14.66-8.337A12.625 12.625 0 0024 12.427c0 .964-.124 1.901-.357 2.796zM4.29 17.49c.085.042.179.024.205-.037.03-.061-.02-.146-.106-.186-.087-.042-.181-.024-.207.039-.028.06.02.144.108.184zm.55.446c.077.086.188.111.246.057.06-.055.044-.169-.034-.256-.079-.085-.187-.111-.246-.057-.059.056-.044.17.035.256zm.383.642c.074.11.194.158.268.106.075-.054.075-.185.001-.296-.075-.109-.193-.156-.268-.104-.075.053-.075.184-.001.294zm.644.859c.103.101.243.121.309.047.07-.074.038-.215-.066-.314-.104-.101-.245-.122-.311-.047-.066.074-.037.215.068.314zm.894.416c.136.041.27-.002.3-.099.028-.098-.061-.21-.197-.252-.137-.044-.272.002-.3.099-.028.097.061.21.197.252zm1.052.203c.143-.002.258-.086.255-.187 0-.101-.117-.183-.26-.18-.143.003-.256.086-.256.189.002.1.118.181.261.178zm1.02.002c.142-.027.242-.13.224-.228-.018-.1-.145-.16-.286-.135-.14.026-.24.128-.223.23.017.098.146.159.286.133z" fill="#000"/></svg>