<svg width="599" height="416" fill="none" xmlns="http://www.w3.org/2000/svg"><mask id="a" maskUnits="userSpaceOnUse" x="120" y="0" width="240" height="416"><path d="M240.081 103.782L180.305 0l-59.919 103.782 59.502 103.781 59.501 103.782 59.919 103.781 59.918-103.781-59.643-103.782-59.502-103.781z" fill="#C4C4C4"/></mask><g mask="url(#a)"><path transform="rotate(-90 -59.502 593.63)" fill="url(#paint0_linear)" d="M-59.502 593.63H538.28v597.782H-59.502z"/></g><mask id="b" maskUnits="userSpaceOnUse" x="360" y="0" width="239" height="416"><path d="M479.695 103.782L419.918 0 360 103.782l59.501 103.781 59.502 103.782 59.918 103.781 59.919-103.781-59.644-103.782-59.501-103.781z" fill="#C4C4C4"/></mask><g mask="url(#b)"><path transform="rotate(-90 99 593.63)" fill="url(#paint1_linear)" d="M99 593.63h597.782v597.782H99z"/></g><mask id="c" maskUnits="userSpaceOnUse" x="0" y="207" width="120" height="209"><path d="M119.837 311.345L59.918 207.563 0 311.345l59.918 103.781 59.919-103.781z" fill="#C4C4C4"/></mask><g mask="url(#c)"><path transform="rotate(-90 0 464.942)" fill="url(#paint2_linear)" d="M0 464.942h597.782v597.782H0z"/></g><defs><linearGradient id="paint0_linear" x1="239.389" y1="593.63" x2="239.389" y2="1191.41" gradientUnits="userSpaceOnUse"><stop stop-color="#46D329"/><stop offset="1" stop-color="#B8F907"/></linearGradient><linearGradient id="paint1_linear" x1="397.891" y1="593.63" x2="397.891" y2="1191.41" gradientUnits="userSpaceOnUse"><stop stop-color="#46D329"/><stop offset="1" stop-color="#B8F907"/></linearGradient><linearGradient id="paint2_linear" x1="298.891" y1="464.942" x2="298.891" y2="1062.72" gradientUnits="userSpaceOnUse"><stop stop-color="#46D329"/><stop offset="1" stop-color="#B8F907"/></linearGradient></defs></svg>