<svg width="24" height="24" fill="none" xmlns="http://www.w3.org/2000/svg"><path d="M24 14.766v2.672c0 .517-.42.937-.938.937h-2.625a.937.937 0 110-1.875h1.688v-1.734a.937.937 0 111.875 0zm-12.938-4.594c.518 0 .938-.42.938-.938V7.125h.938c.517 0 .937-.42.937-.937V.938A.938.938 0 0012.903 0 .952.952 0 0012 .96v.727h-.938a.937.937 0 100 1.875H12V5.25h-.938a.937.937 0 00-.937.938v3.046c0 .518.42.938.938.938zM.938 13.828c.517 0 .937-.42.937-.937v-.938h.984a.937.937 0 100-1.875H.938a.937.937 0 00-.938.938v1.875c0 .518.42.937.938.937zm13.874-1.875h2.532v2.79c0 .509.395.941.903.96a.938.938 0 00.972-.937v-.938h.984a.937.937 0 100-1.875h-.984v-.937a.937.937 0 00-.938-.938h-3.468a.937.937 0 100 1.875zm8.25-1.875a.937.937 0 100 1.875.937.937 0 000-1.875zm-8.25 3.75a.937.937 0 00-.937.938V16.5h-.469a.937.937 0 100 1.875h1.406c.518 0 .938-.42.938-.937v-2.672a.937.937 0 00-.938-.938zm0 8.297h-.937v-.937a.937.937 0 00-.938-.938H12v-.937a.937.937 0 10-1.875 0v1.875c0 .517.42.937.938.937H12v.938c0 .517.42.937.938.937h1.874a.937.937 0 100-1.875zm3.75-1.875a.937.937 0 00-.937-.937h-.469a.937.937 0 100 1.875h.469c.518 0 .938-.42.938-.938zm4.5 1.875h-.75v-.937a.937.937 0 10-1.875 0v.937h-1.875a.937.937 0 100 1.875h4.5a.937.937 0 100-1.875zm-12-6.562c.518 0 .938-.42.938-.938v-1.734a.937.937 0 00-.938-.938H7.688v-.915a.954.954 0 00-.904-.96.938.938 0 00-.971.938v.937h-.47a.937.937 0 100 1.875h4.782v.797c0 .518.42.938.938.938zM0 5.625V2.813A2.816 2.816 0 012.813 0h2.812a2.816 2.816 0 012.813 2.813v2.812a2.816 2.816 0 01-2.813 2.813H2.812A2.816 2.816 0 010 5.625zm1.875 0c0 .517.42.938.938.938h2.812a.94.94 0 00.938-.938V2.813a.939.939 0 00-.938-.938H2.812a.939.939 0 00-.937.938v2.812zm2.344-.469a.937.937 0 100-1.875.937.937 0 000 1.875zM24 2.813v2.812a2.816 2.816 0 01-2.813 2.813h-2.812a2.816 2.816 0 01-2.813-2.813V2.813A2.816 2.816 0 0118.375 0h2.813A2.816 2.816 0 0124 2.813zm-1.875 0a.939.939 0 00-.938-.938h-2.812a.939.939 0 00-.938.938v2.812a.94.94 0 00.938.938h2.813a.94.94 0 00.937-.938V2.813zm-2.344.468a.937.937 0 100 1.875.937.937 0 000-1.875zM8.438 18.375v2.813A2.816 2.816 0 015.624 24H2.812A2.816 2.816 0 010 21.188v-2.813a2.816 2.816 0 012.813-2.812h2.812a2.816 2.816 0 012.813 2.812zm-1.876 0a.939.939 0 00-.937-.937H2.812a.939.939 0 00-.937.937v2.813c0 .517.42.937.938.937h2.812c.517 0 .938-.42.938-.937v-2.813zm-2.343.469a.937.937 0 100 1.875.937.937 0 000-1.875z" fill="#9CA3AF"/></svg>