<svg width="24" height="24" fill="none" xmlns="http://www.w3.org/2000/svg"><rect width="24" height="24" rx="12" fill="#5A5A89"/><path d="M9.032 18c6.037 0 9.34-5.001 9.34-9.34 0-.141 0-.283-.01-.424A6.678 6.678 0 0020 6.537a6.55 6.55 0 01-1.885.517 3.294 3.294 0 001.443-1.816 6.577 6.577 0 01-2.085.797 3.286 3.286 0 00-5.594 2.994 9.32 9.32 0 01-6.765-3.43A3.285 3.285 0 006.13 9.98a3.254 3.254 0 01-1.49-.41v.04a3.284 3.284 0 002.634 3.219c-.484.131-.99.15-1.483.056a3.287 3.287 0 003.067 2.28A6.584 6.584 0 014 16.526a9.295 9.295 0 005.032 1.472" fill="#05050F"/></svg>