<svg width="18" height="18" fill="none" xmlns="http://www.w3.org/2000/svg"><g clip-path="url(#clip0)" fill="#48A68E"><path d="M7.407.124a19.646 19.646 0 00-1.556 4.249c.857.191 1.734.305 2.62.338V0c-.359.02-.714.062-1.064.124zm4.961 5.283c-.93.207-1.88.328-2.84.36v2.705h3.16a19.817 19.817 0 00-.32-3.065zM10.593.124A9.083 9.083 0 009.528 0v4.71a14.378 14.378 0 002.62-.336 19.665 19.665 0 00-1.555-4.25zM9.528 13.29V18a9.11 9.11 0 001.065-.124 19.601 19.601 0 001.558-4.25 14.384 14.384 0 00-2.623-.336zm4.218-3.762a20.922 20.922 0 01-.351 3.33c1.05.312 2.061.734 3.026 1.265A8.933 8.933 0 0018 9.528h-4.254zm-7.897 4.099c.341 1.422.853 2.85 1.558 4.249.35.062.705.103 1.065.124v-4.71c-.887.032-1.764.145-2.623.337zm-.217-8.221a19.812 19.812 0 00-.32 3.066h3.16V5.768a15.511 15.511 0 01-2.84-.362zM1.579 3.877A8.933 8.933 0 000 8.472h4.254a20.87 20.87 0 01.353-3.332 15.343 15.343 0 01-3.028-1.263zm3.248 10.018c-.88.267-1.74.618-2.587 1.07a9 9 0 003.832 2.566 20.64 20.64 0 01-1.245-3.636zM2.24 3.035c.828.441 1.695.799 2.589 1.07A20.706 20.706 0 016.074.467 8.998 8.998 0 002.24 3.035zm2.014 6.493H0a8.933 8.933 0 001.579 4.595c.964-.53 1.974-.952 3.026-1.265a20.928 20.928 0 01-.35-3.33zm7.672-9.06a20.75 20.75 0 011.244 3.638c.9-.273 1.76-.628 2.59-1.071A9 9 0 0011.926.468zm1.247 13.427a20.643 20.643 0 01-1.245 3.636 9 9 0 003.832-2.566 14.232 14.232 0 00-2.587-1.07zM5.311 9.528c.027 1.032.134 2.057.32 3.065.93-.207 1.88-.328 2.84-.36V9.528h-3.16zm11.11-5.65c-.945.52-1.954.946-3.028 1.264.206 1.095.324 2.208.353 3.33H18a8.933 8.933 0 00-1.579-4.594zm-6.893 5.65v2.705c.961.032 1.911.153 2.842.36.185-1.008.292-2.033.319-3.065h-3.16z"/></g><defs><clipPath id="clip0"><path fill="#fff" d="M0 0h18v18H0z"/></clipPath></defs></svg>