<svg width="16" height="16" fill="none" xmlns="http://www.w3.org/2000/svg"><g clip-path="url(#clip0)" fill="#FFA63F"><path d="M1.625 16H.469A.469.469 0 010 15.531V9.906c0-.259.21-.469.469-.469h1.156a.47.47 0 01.469.47v5.624c0 .26-.21.469-.469.469zm13.789-5.1a1.13 1.13 0 00-1.15.036l-1.716 1.086a2.014 2.014 0 01-.564 1.178 2.016 2.016 0 01-1.453.613h-2.33a.478.478 0 01-.482-.447.469.469 0 01.468-.491h2.344c.612 0 1.108-.505 1.094-1.12a1.107 1.107 0 00-1.114-1.068H7.875l-.306-.229a3.542 3.542 0 00-3.946-.204l-.592.356v4.765h7.88c.455 0 .9-.133 1.282-.382l3.295-2.155a1.131 1.131 0 00-.074-1.938zM6.625 0a3.91 3.91 0 00-3.906 3.906 3.91 3.91 0 003.906 3.906 3.91 3.91 0 003.906-3.906A3.91 3.91 0 006.625 0zm.469 5.846v.091a.469.469 0 01-.938 0v-.091a1.253 1.253 0 01-.756-.909.469.469 0 01.919-.187.313.313 0 10.306-.375 1.251 1.251 0 01-.469-2.409v-.091a.469.469 0 01.938 0v.092c.379.154.67.49.756.908a.469.469 0 01-.919.187.313.313 0 10-.306.376 1.251 1.251 0 01.469 2.408z"/><path d="M15.956 6.306a.469.469 0 00-.425-.27h-.682a8.033 8.033 0 00-2.658-4.201A7.973 7.973 0 0010.18.62a4.825 4.825 0 011.154 4.417c.217.312.401.647.546.998h-.412a.469.469 0 00-.36.77l2.03 2.437a.469.469 0 00.721 0l2.031-2.438a.469.469 0 00.065-.499z"/></g><defs><clipPath id="clip0"><path fill="#fff" d="M0 0h16v16H0z"/></clipPath></defs></svg>