<svg width="24" height="24" viewBox="0 0 24 24" fill="none" xmlns="http://www.w3.org/2000/svg">
<g clip-path="url(#clip0)">
<path d="M22.9043 15.593C22.2285 15.2312 21.4124 15.2707 20.7746 15.6959L17.4268 17.9278C17.3197 16.8642 16.4194 16.0312 15.3281 16.0312H11.8125L11.3539 15.6873C10.4405 15.0022 9.30877 14.625 8.16703 14.625C7.20459 14.625 6.25964 14.8868 5.43431 15.3819L5.24995 15.4925V14.8594C5.24995 14.4711 4.93514 14.1562 4.54683 14.1562H0.703125C0.314812 14.1562 0 14.4711 0 14.8594V23.2969C0 23.6852 0.314812 24 0.703125 24H4.54688C4.93519 24 5.25 23.6852 5.25 23.2969V23.0625H16.3246C17.043 23.0625 17.7351 22.8464 18.3257 22.4374L23.1062 19.1278C23.6659 18.7403 24 18.1028 24 17.422C24 16.6555 23.5802 15.9546 22.9043 15.593ZM3.84375 22.5938H1.40625V15.5625H3.84375V22.5938ZM22.3058 17.9715L17.5252 21.2812C17.1708 21.5265 16.7557 21.6562 16.3246 21.6562H5.25V17.1325L6.15788 16.5878C6.76467 16.2237 7.45941 16.0312 8.16703 16.0312C9.00642 16.0312 9.83855 16.3086 10.5101 16.8123L11.1562 17.2969C11.278 17.3881 11.426 17.4375 11.5781 17.4375H15.3281C15.7158 17.4375 16.0312 17.7529 16.0312 18.1406C16.0312 18.5283 15.7158 18.8438 15.3281 18.8438H10.1719C9.78356 18.8438 9.46875 19.1586 9.46875 19.5469C9.46875 19.9352 9.78356 20.25 10.1719 20.25H15.6979C16.2085 20.25 16.703 20.1003 17.128 19.817L21.5547 16.866C21.8552 16.6655 22.1346 16.776 22.2408 16.8328C22.347 16.8896 22.5938 17.0607 22.5938 17.422C22.5938 17.6413 22.4861 17.8468 22.3058 17.9715Z" fill="white"/>
<path d="M10.6406 11.7188C13.5441 11.7188 15.9607 9.59578 16.4207 6.82069C17.0097 7.48078 17.4859 8.238 17.822 9.05475H17.2031C16.9303 9.05475 16.6821 9.21258 16.5664 9.45966C16.4506 9.70673 16.4883 9.99844 16.663 10.208L19.7099 13.8643C19.8435 14.0246 20.0413 14.1173 20.25 14.1173C20.4587 14.1173 20.6566 14.0245 20.7901 13.8643L23.837 10.208C24.0117 9.99844 24.0493 9.70673 23.9336 9.45966C23.8179 9.21258 23.5697 9.05475 23.2969 9.05475H22.2734C21.652 6.60038 20.2509 4.37925 18.2863 2.75227C16.1432 0.977438 13.428 0 10.6406 0C7.40977 0 4.78125 2.62852 4.78125 5.85938C4.78125 9.09023 7.40977 11.7188 10.6406 11.7188ZM15.5059 2.59036C16.1732 2.93513 16.8054 3.35166 17.3894 3.83536C19.2564 5.38148 20.5469 7.53417 21.0231 9.89686C21.0893 10.225 21.3776 10.461 21.7124 10.461H21.7957L20.25 12.3158L18.7043 10.461H18.8037C19.023 10.461 19.2297 10.3587 19.3627 10.1843C19.4957 10.01 19.5398 9.78356 19.4818 9.57206C18.9793 7.73794 17.896 6.08123 16.4175 4.87673C16.4174 4.87664 16.4172 4.8765 16.4171 4.87641C16.2757 4.04339 15.9583 3.26958 15.5041 2.595C15.5048 2.59341 15.5053 2.59191 15.5059 2.59036ZM10.6406 1.40625C13.0961 1.40625 15.0938 3.40392 15.0938 5.85938C15.0938 8.31483 13.0961 10.3125 10.6406 10.3125C8.18517 10.3125 6.1875 8.31483 6.1875 5.85938C6.1875 3.40392 8.18517 1.40625 10.6406 1.40625Z" fill="white"/>
<path d="M10.6406 6.5625C10.8991 6.5625 11.1094 6.77278 11.1094 7.03125C11.1094 7.28972 10.8991 7.5 10.6406 7.5C10.4186 7.5 10.2255 7.34259 10.1814 7.1257C10.1042 6.74517 9.73308 6.49941 9.35241 6.57656C8.97183 6.65386 8.72602 7.02502 8.80327 7.40559C8.93081 8.03353 9.36928 8.53702 9.93745 8.76839V8.90625C9.93745 9.29456 10.2523 9.60938 10.6406 9.60938C11.0289 9.60938 11.3437 9.29456 11.3437 8.90625V8.76895C12.0301 8.49019 12.5156 7.81655 12.5156 7.03125C12.5156 5.99738 11.6745 5.15625 10.6406 5.15625C10.3821 5.15625 10.1718 4.94597 10.1718 4.6875C10.1718 4.42903 10.3821 4.21875 10.6406 4.21875C10.8626 4.21875 11.0557 4.37616 11.0998 4.59305C11.177 4.97358 11.5484 5.21944 11.9288 5.14219C12.3093 5.06489 12.5552 4.69373 12.4779 4.31316C12.3504 3.68522 11.912 3.18178 11.3437 2.95041V2.8125C11.3437 2.42419 11.0289 2.10938 10.6406 2.10938C10.2523 2.10938 9.9375 2.42419 9.9375 2.8125V2.9498C9.25111 3.22856 8.76562 3.9022 8.76562 4.6875C8.76562 5.72137 9.60675 6.5625 10.6406 6.5625Z" fill="white"/>
</g>
<defs>
<clipPath id="clip0">
<rect width="24" height="24" fill="white"/>
</clipPath>
</defs>
</svg>
