<svg width="24" height="24" viewBox="0 0 24 24" fill="none" xmlns="http://www.w3.org/2000/svg">
<rect width="24" height="24" rx="12" fill="#5A5A89"/>
<path d="M12.9777 12.4654C12.9777 14.8698 11.0419 16.8189 8.65404 16.8189C6.26619 16.8189 4.3302 14.8698 4.3302 12.4654C4.3302 10.061 6.26604 8.11176 8.65404 8.11176C11.042 8.11176 12.9777 10.061 12.9777 12.4654Z" fill="black"/>
<path d="M17.7212 12.4654C17.7212 14.7286 16.7533 16.564 15.5593 16.564C14.3653 16.564 13.3973 14.7286 13.3973 12.4654C13.3973 10.2022 14.3651 8.36676 15.5591 8.36676C16.7531 8.36676 17.721 10.2016 17.721 12.4654" fill="black"/>
<path d="M19.6612 12.4654C19.6612 14.4927 19.3208 16.1371 18.9008 16.1371C18.4808 16.1371 18.1406 14.4931 18.1406 12.4654C18.1406 10.4377 18.481 8.7937 18.9008 8.7937C19.3207 8.7937 19.6612 10.4376 19.6612 12.4654Z" fill="black"/>
</svg>
