<svg width="146" height="146" viewBox="0 0 146 146" fill="none" xmlns="http://www.w3.org/2000/svg">
<path d="M73.1868 5.71266C81.9992 5.71266 90.7253 7.44839 98.8669 10.8207C107.008 14.1931 114.406 19.136 120.637 25.3673C126.869 31.5986 131.812 38.9962 135.184 47.1378C138.556 55.2793 140.292 64.0054 140.292 72.8178C140.292 81.6302 138.556 90.3563 135.184 98.4978C131.812 106.639 126.869 114.037 120.637 120.268C114.406 126.5 107.008 131.443 98.8669 134.815C90.7253 138.187 81.9992 139.923 73.1868 139.923C64.3745 139.923 55.6484 138.187 47.5068 134.815C39.3652 131.443 31.9676 126.5 25.7363 120.268C19.505 114.037 14.5621 106.639 11.1898 98.4978C7.81741 90.3563 6.08169 81.6302 6.08169 72.8178C6.08169 64.0054 7.81741 55.2793 11.1898 47.1378C14.5621 38.9962 19.505 31.5986 25.7363 25.3673C31.9676 19.136 39.3652 14.1931 47.5068 10.8207C55.6484 7.44838 64.3745 5.71266 73.1868 5.71266L73.1868 5.71266Z" stroke="#05050F" stroke-width="4.89873"/>
<path d="M73.5 23.4494C79.9414 23.4494 86.3198 24.7181 92.2709 27.1831C98.222 29.6482 103.629 33.2612 108.184 37.816C112.739 42.3707 116.352 47.778 118.817 53.7291C121.282 59.6802 122.551 66.0586 122.551 72.5C122.551 78.9414 121.282 85.3198 118.817 91.2709C116.352 97.222 112.739 102.629 108.184 107.184C103.629 111.739 98.222 115.352 92.2709 117.817C86.3198 120.282 79.9414 121.551 73.5 121.551C67.0586 121.551 60.6802 120.282 54.7291 117.817C48.778 115.352 43.3707 111.739 38.816 107.184C34.2612 102.629 30.6481 97.222 28.1831 91.2709C25.7181 85.3198 24.4494 78.9414 24.4494 72.5C24.4494 66.0586 25.7181 59.6802 28.1831 53.7291C30.6481 47.778 34.2612 42.3707 38.816 37.816C43.3707 33.2612 48.778 29.6481 54.7291 27.1831C60.6802 24.7181 67.0586 23.4494 73.5 23.4494L73.5 23.4494Z" stroke="#05050F" stroke-width="4.89873"/>
<path d="M73 24C84.3364 24 95.3221 27.9307 104.085 35.1225C112.848 42.3142 118.847 52.322 121.058 63.4406C123.27 74.5592 121.558 86.1006 116.214 96.0984C110.87 106.096 102.225 113.932 91.7515 118.27C81.278 122.608 69.6243 123.181 58.7761 119.89C47.9278 116.599 38.5562 109.649 32.258 100.223C25.9598 90.7971 23.1248 79.479 24.2359 68.1972C25.3471 56.9153 30.3357 46.3678 38.3518 38.3518" stroke="url(#paint0_linear)" stroke-width="10" stroke-linecap="round"/>
<path d="M73 5.00001C84.365 5.00001 95.5488 7.84852 105.529 13.2852C115.509 18.7218 123.968 26.5732 130.131 36.1217C136.295 45.6702 139.967 56.6112 140.812 67.9448C141.657 79.2783 139.648 90.6429 134.968 101C130.288 111.357 123.087 120.375 114.023 127.232C104.96 134.088 94.3218 138.563 83.0824 140.248C71.8431 141.933 60.3606 140.775 49.6845 136.878C39.0085 132.981 29.4793 126.471 21.9681 117.942" stroke="url(#paint1_linear)" stroke-width="10" stroke-linecap="round"/>
<path d="M9.60279 97.5926C6.37325 89.2671 4.81515 80.3871 5.01745 71.4595C5.21975 62.5319 7.1785 53.7316 10.7818 45.561C14.3852 37.3904 19.5626 30.0095 26.0184 23.8398C32.4742 17.6701 40.082 12.8323 48.4075 9.6028" stroke="url(#paint2_linear)" stroke-width="10" stroke-linecap="round"/>
<path d="M73 5.00001C86.6504 5.00001 99.9849 9.10831 111.269 16.7904" stroke="url(#paint3_linear)" stroke-width="10" stroke-linecap="round"/>
<circle cx="73.5" cy="72.5" r="29" fill="#05050F" stroke="#05050F"/>
<g clip-path="url(#clip0)">
<path d="M74.0093 59.9999C67.3814 59.9943 62.0056 65.3628 62 71.9906C61.9944 78.6184 67.3629 83.9943 73.9907 83.9999C80.6177 83.9943 85.9898 78.6268 86 71.9999C86 65.3757 80.6334 60.0055 74.0093 59.9999ZM73.9907 82.003C68.4663 82.003 63.9876 77.5243 63.9876 71.9999C63.9876 66.4754 68.4663 61.9968 73.9907 61.9968C79.5133 62.0024 83.9882 66.4773 83.9938 71.9999C83.9938 77.5243 79.5152 82.003 73.9907 82.003Z" fill="#6A6A9F"/>
<path d="M77.232 71.4156C78.0345 70.9633 78.4683 70.0577 78.3187 69.1494C78.133 67.7469 76.4612 67.2174 75.1422 67.106V64.9977H73.8419V67.0875H72.9689V64.9977H71.6686V67.0875H69.0493V68.4342H70.0246C70.4611 68.4342 70.6747 68.5643 70.6747 68.9172V74.7036C70.6747 75.1865 70.4332 75.3352 70.1731 75.3352H69.1793V76.7098H71.7057V78.846H73.0153V76.7098H73.8883V78.846H75.1608V76.7098H75.4394C78.1144 76.7098 79.006 75.4002 79.006 73.6169C78.9846 72.5655 78.2555 71.6608 77.232 71.4156ZM72.9688 68.5178H73.8976C74.5478 68.5178 75.8295 68.6293 75.8295 69.6881C75.8741 70.3791 75.3735 70.9847 74.6871 71.072H72.9688V68.5178ZM74.4085 75.2051V75.1958H72.9688V72.4094H74.6407C75.0308 72.4094 76.4982 72.5394 76.4982 73.5797C76.4982 74.6199 75.8017 75.2051 74.4085 75.2051Z" fill="#6A6A9F"/>
</g>
<defs>
<linearGradient id="paint0_linear" x1="45.9997" y1="19" x2="46.0897" y2="124.308" gradientUnits="userSpaceOnUse">
<stop stop-color="#E323FF"/>
<stop offset="1" stop-color="#7517F8"/>
</linearGradient>
<linearGradient id="paint1_linear" x1="1.74103e-06" y1="8.70228e-06" x2="6.34739e-08" y2="140.677" gradientUnits="userSpaceOnUse">
<stop stop-color="#4DFFDF"/>
<stop offset="1" stop-color="#4DA1FF"/>
</linearGradient>
<linearGradient id="paint2_linear" x1="36.4997" y1="5.07257e-06" x2="36.6213" y2="142.36" gradientUnits="userSpaceOnUse">
<stop stop-color="#FFD422"/>
<stop offset="1" stop-color="#FF7D05"/>
</linearGradient>
<linearGradient id="paint3_linear" x1="1.74103e-06" y1="8.70228e-06" x2="6.34739e-08" y2="140.677" gradientUnits="userSpaceOnUse">
<stop stop-color="#4DFFDF"/>
<stop offset="1" stop-color="#4DA1FF"/>
</linearGradient>
<clipPath id="clip0">
<rect width="24" height="24" fill="white" transform="translate(62 60)"/>
</clipPath>
</defs>
</svg>
