<svg width="147" height="146" viewBox="0 0 147 146" fill="none" xmlns="http://www.w3.org/2000/svg">
<path d="M73.6866 5.71269C82.499 5.71269 91.225 7.44842 99.3666 10.8208C107.508 14.1931 114.906 19.136 121.137 25.3673C127.368 31.5986 132.311 38.9962 135.684 47.1378C139.056 55.2794 140.792 64.0055 140.792 72.8178C140.792 81.6302 139.056 90.3563 135.684 98.4979C132.311 106.639 127.368 114.037 121.137 120.268C114.906 126.5 107.508 131.443 99.3666 134.815C91.225 138.187 82.499 139.923 73.6866 139.923C64.8742 139.923 56.1481 138.187 48.0066 134.815C39.865 131.443 32.4674 126.5 26.2361 120.268C20.0048 114.037 15.0619 106.639 11.6895 98.4979C8.31717 90.3563 6.58144 81.6302 6.58144 72.8178C6.58144 64.0055 8.31717 55.2794 11.6895 47.1378C15.0619 38.9962 20.0048 31.5986 26.2361 25.3673C32.4674 19.136 39.865 14.1931 48.0066 10.8208C56.1481 7.44841 64.8742 5.71269 73.6866 5.71269L73.6866 5.71269Z" stroke="#05050F" stroke-width="4.89873"/>
<path d="M74 23.4494C80.4414 23.4494 86.8198 24.7181 92.7709 27.1831C98.722 29.6482 104.129 33.2612 108.684 37.816C113.239 42.3707 116.852 47.778 119.317 53.7291C121.782 59.6802 123.051 66.0586 123.051 72.5C123.051 78.9414 121.782 85.3198 119.317 91.2709C116.852 97.222 113.239 102.629 108.684 107.184C104.129 111.739 98.722 115.352 92.7709 117.817C86.8198 120.282 80.4414 121.551 74 121.551C67.5586 121.551 61.1802 120.282 55.2291 117.817C49.278 115.352 43.8707 111.739 39.316 107.184C34.7612 102.629 31.1481 97.222 28.6831 91.2709C26.2181 85.3198 24.9494 78.9414 24.9494 72.5C24.9494 66.0586 26.2181 59.6802 28.6831 53.7291C31.1481 47.778 34.7612 42.3707 39.316 37.816C43.8707 33.2612 49.278 29.6481 55.2291 27.1831C61.1802 24.7181 67.5586 23.4494 74 23.4494L74 23.4494Z" stroke="#05050F" stroke-width="4.89873"/>
<path d="M73.5 24C84.8364 24 95.8221 27.9307 104.585 35.1225C113.348 42.3142 119.347 52.322 121.558 63.4406C123.77 74.5592 122.058 86.1006 116.714 96.0984C111.37 106.096 102.725 113.932 92.2515 118.27C81.778 122.608 70.1243 123.181 59.2761 119.89C48.4278 116.599 39.0562 109.649 32.758 100.223C26.4598 90.7971 23.6248 79.479 24.7359 68.1972C25.8471 56.9153 30.8357 46.3678 38.8518 38.3518" stroke="url(#paint0_linear)" stroke-width="10" stroke-linecap="round"/>
<path d="M73.5 5.00001C84.865 5.00001 96.0488 7.84852 106.029 13.2852C116.009 18.7218 124.468 26.5732 130.631 36.1217C136.795 45.6702 140.467 56.6112 141.312 67.9448C142.157 79.2783 140.148 90.6429 135.468 101C130.788 111.357 123.587 120.375 114.523 127.232C105.46 134.088 94.8218 138.563 83.5824 140.248C72.3431 141.933 60.8606 140.775 50.1845 136.878C39.5085 132.981 29.9793 126.471 22.4681 117.942" stroke="url(#paint1_linear)" stroke-width="10" stroke-linecap="round"/>
<path d="M10.1028 97.5926C6.87325 89.2671 5.31515 80.3871 5.51745 71.4595C5.71975 62.5319 7.6785 53.7316 11.2818 45.561C14.8852 37.3904 20.0626 30.0095 26.5184 23.8398C32.9742 17.6701 40.582 12.8323 48.9075 9.6028" stroke="url(#paint2_linear)" stroke-width="10" stroke-linecap="round"/>
<path d="M73.5 5.00001C87.1504 5.00001 100.485 9.10831 111.769 16.7904" stroke="url(#paint3_linear)" stroke-width="10" stroke-linecap="round"/>
<circle cx="74" cy="72.5" r="29" fill="#05050F" stroke="#05050F"/>
<g clip-path="url(#clip0)">
<path d="M74.5093 59.9999C67.8814 59.9943 62.5056 65.3628 62.5 71.9906C62.4944 78.6185 67.8629 83.9943 74.4907 83.9999C81.1177 83.9943 86.4898 78.6269 86.5 71.9999C86.5 65.3758 81.1334 60.0055 74.5093 59.9999ZM74.4907 82.003C68.9663 82.003 64.4876 77.5244 64.4876 71.9999C64.4876 66.4755 68.9663 61.9968 74.4907 61.9968C80.0133 62.0024 84.4882 66.4773 84.4938 71.9999C84.4938 77.5244 80.0152 82.003 74.4907 82.003Z" fill="#6A6A9F"/>
<mask id="mask0" mask-type="alpha" maskUnits="userSpaceOnUse" x="70" y="67" width="6" height="10">
<path d="M73.102 69.4216L71.7072 67L70.3091 69.4216L71.6974 71.8431L73.0858 74.2647L74.4839 76.6863L75.882 74.2647L74.4903 71.8431L73.102 69.4216Z" fill="#C4C4C4"/>
</mask>
<g mask="url(#mask0)">
<rect x="66.1118" y="80.8514" width="13.9482" height="13.9482" transform="rotate(-90 66.1118 80.8514)" fill="#FF4646"/>
<rect x="66.1118" y="80.8514" width="13.9482" height="13.9482" transform="rotate(-90 66.1118 80.8514)" fill="#6A6A9F"/>
</g>
<mask id="mask1" mask-type="alpha" maskUnits="userSpaceOnUse" x="75" y="67" width="7" height="10">
<path d="M78.7199 69.4216L77.3251 67L75.927 69.4216L77.3154 71.8431L78.7037 74.2647L80.1018 76.6863L81.4999 74.2647L80.1082 71.8431L78.7199 69.4216Z" fill="#C4C4C4"/>
</mask>
<g mask="url(#mask1)">
<path d="M67.5969 80.8514L67.5969 66.9032L81.5451 66.9032L81.5451 80.8514L67.5969 80.8514Z" fill="#FF4646"/>
<path d="M67.5969 80.8514L67.5969 66.9032L81.5451 66.9032L81.5451 80.8514L67.5969 80.8514Z" fill="#6A6A9F"/>
</g>
<mask id="mask2" mask-type="alpha" maskUnits="userSpaceOnUse" x="67" y="71" width="4" height="6">
<path d="M70.2962 74.2647L68.8981 71.8431L67.5 74.2647L68.8981 76.6862L70.2962 74.2647Z" fill="#C4C4C4"/>
</mask>
<g mask="url(#mask2)">
<rect x="67.5" y="77.8486" width="13.9482" height="13.9482" transform="rotate(-90 67.5 77.8486)" fill="#FF4646"/>
<rect x="67.5" y="77.8486" width="13.9482" height="13.9482" transform="rotate(-90 67.5 77.8486)" fill="#6A6A9F"/>
</g>
</g>
<defs>
<linearGradient id="paint0_linear" x1="46.4997" y1="19" x2="46.5897" y2="124.308" gradientUnits="userSpaceOnUse">
<stop stop-color="#E323FF"/>
<stop offset="1" stop-color="#7517F8"/>
</linearGradient>
<linearGradient id="paint1_linear" x1="0.500002" y1="8.70228e-06" x2="0.5" y2="140.677" gradientUnits="userSpaceOnUse">
<stop stop-color="#4DFFDF"/>
<stop offset="1" stop-color="#4DA1FF"/>
</linearGradient>
<linearGradient id="paint2_linear" x1="36.9997" y1="5.07257e-06" x2="37.1213" y2="142.36" gradientUnits="userSpaceOnUse">
<stop stop-color="#FFD422"/>
<stop offset="1" stop-color="#FF7D05"/>
</linearGradient>
<linearGradient id="paint3_linear" x1="0.500002" y1="8.70228e-06" x2="0.5" y2="140.677" gradientUnits="userSpaceOnUse">
<stop stop-color="#4DFFDF"/>
<stop offset="1" stop-color="#4DA1FF"/>
</linearGradient>
<clipPath id="clip0">
<rect width="24" height="24" fill="white" transform="translate(62.5 60)"/>
</clipPath>
</defs>
</svg>
