<svg width="24" height="24" viewBox="0 0 24 24" fill="none" xmlns="http://www.w3.org/2000/svg">
<path d="M0 3.54081C0 5.38721 3.18327 6.3533 6.32811 6.3533C9.47295 6.3533 12.6562 5.38721 12.6562 3.54081C12.6562 -0.151948 0 -0.151948 0 3.54081Z" fill="white"/>
<path d="M6.32811 7.75988C4.05238 7.75988 0 7.09318 0 4.94739V6.35364C0 8.19582 3.17812 9.16613 6.32811 9.16613C9.47811 9.16613 12.6562 8.19582 12.6562 6.35364V4.94739C12.6562 7.09117 8.62297 7.75988 6.32811 7.75988Z" fill="white"/>
<path d="M6.32811 13.3849C3.17812 13.3849 0 12.4146 0 10.5724V11.9786C0 13.8208 3.17812 14.7911 6.32811 14.7911C9.47811 14.7911 12.6562 13.8208 12.6562 11.9786V10.5724C12.6562 12.4146 9.47811 13.3849 6.32811 13.3849Z" fill="white"/>
<path d="M6.32811 16.1974C3.17812 16.1974 0 15.2271 0 13.3849V14.7911C0 16.6333 3.17812 17.6036 6.32811 17.6036C9.47811 17.6036 12.6562 16.6333 12.6562 14.7911V13.3849C12.6562 15.2271 9.47811 16.1974 6.32811 16.1974Z" fill="white"/>
<path d="M6.32811 19.0098C3.17812 19.0098 0 18.0394 0 16.1973V17.6035C0 19.4457 3.17812 20.416 6.32811 20.416C9.47811 20.416 12.6562 19.4457 12.6562 17.6035V16.1973C12.6562 18.0394 9.47811 19.0098 6.32811 19.0098Z" fill="white"/>
<path d="M6.32811 21.8223C3.17812 21.8223 0 20.8519 0 19.0098V20.416C0 22.2582 3.17812 23.2285 6.32811 23.2285C9.47811 23.2285 12.6562 22.2582 12.6562 20.416V19.0098C12.6562 20.8519 9.47811 21.8223 6.32811 21.8223Z" fill="white"/>
<path d="M6.32811 10.5724C3.17812 10.5724 0 9.60207 0 7.75989V9.16614C0 11.3119 4.05238 11.9786 6.32811 11.9786C9.05614 11.9786 11.7984 11.2473 12.4875 9.86926C12.5999 9.65832 12.6562 9.41926 12.6562 9.16614V7.75989C12.6562 9.60207 9.47811 10.5724 6.32811 10.5724Z" fill="white"/>
<path d="M17.5778 21.8223C16.2835 21.8223 14.9971 21.6496 13.9156 21.3287C13.7757 21.7662 13.5338 22.1561 13.2122 22.5031C14.4028 22.9819 15.9929 23.2285 17.5779 23.2285C20.7279 23.2285 23.9997 22.2582 23.9997 20.416V19.0098C23.9997 20.8519 20.7278 21.8223 17.5778 21.8223Z" fill="white"/>
<path d="M17.5781 16.1973C16.3418 16.1973 15.1122 16.0396 14.0625 15.747C14.0625 16.5372 14.0625 16.3674 14.0625 17.1576C15.1125 17.4496 16.3439 17.6036 17.5781 17.6036C20.7281 17.6036 24 16.6333 24 14.7911V13.3849C24 15.5306 19.8538 16.1973 17.5781 16.1973Z" fill="white"/>
<path d="M17.5781 19.0098C16.338 19.0098 15.1148 18.8426 14.0625 18.5469C14.0625 19.068 14.0625 18.7524 14.0625 19.9602C15.1107 20.2562 16.3387 20.416 17.5781 20.416C19.873 20.416 24 19.7472 24 17.6035V16.1973C24 18.0394 20.7281 19.0098 17.5781 19.0098Z" fill="white"/>
<path d="M14.0625 9.64467V14.3247C15.1127 14.6233 16.3363 14.791 17.5781 14.791C20.723 14.791 24 13.8249 24 11.9785C24 9.40763 17.7865 8.6342 14.0625 9.64467Z" fill="white"/>
</svg>
