<svg width="31" height="31" viewBox="0 0 31 31" fill="none" xmlns="http://www.w3.org/2000/svg">
<path fill-rule="evenodd" clip-rule="evenodd" d="M16.5625 10.2993V11.6251C16.5625 13.176 17.8241 14.4376 19.375 14.4376H20.2925C18.6047 13.5533 17.2717 12.0841 16.5625 10.2993ZM25 20.7657V23.4376C25 23.9554 24.5803 24.3751 24.0625 24.3751H21.4375C20.9197 24.3751 20.5 23.9554 20.5 23.4376C20.5 22.9197 20.9197 22.5001 21.4375 22.5001H23.125V20.7657C23.125 20.2479 23.5447 19.8282 24.0625 19.8282C24.5803 19.8282 25 20.2479 25 20.7657ZM12.0625 16.1719C12.5803 16.1719 13 15.7523 13 15.2344V13.1251H13.9375C14.4553 13.1251 14.875 12.7054 14.875 12.1876V6.93755C14.875 6.40838 14.4366 5.98174 13.9033 6.0006C13.3953 6.01873 13 6.45159 13 6.96007V7.68755H12.0625C11.5447 7.68755 11.125 8.10723 11.125 8.62505C11.125 9.14287 11.5447 9.56255 12.0625 9.56255H13V11.2501H12.0625C11.5447 11.2501 11.125 11.6697 11.125 12.1876V15.2344C11.125 15.7523 11.5447 16.1719 12.0625 16.1719ZM1.9375 19.8282C2.45532 19.8282 2.875 19.4085 2.875 18.8907V17.9532H3.85938C4.3772 17.9532 4.79688 17.5335 4.79688 17.0157C4.79688 16.4979 4.3772 16.0782 3.85938 16.0782H1.9375C1.41968 16.0782 1 16.4979 1 17.0157V18.8907C1 19.4085 1.41968 19.8282 1.9375 19.8282ZM15.8125 17.9532H18.3438V20.7432C18.3438 21.2516 18.7391 21.6845 19.247 21.7026C19.7804 21.7215 20.2188 21.2949 20.2188 20.7657V19.8282H21.2031C21.7209 19.8282 22.1406 19.4085 22.1406 18.8907C22.1406 18.3729 21.7209 17.9532 21.2031 17.9532H20.2188V17.0157C20.2188 16.4979 19.7991 16.0782 19.2812 16.0782H15.8125C15.2947 16.0782 14.875 16.4979 14.875 17.0157C14.875 17.5335 15.2947 17.9532 15.8125 17.9532ZM24.0625 16.0782C23.5447 16.0782 23.125 16.4979 23.125 17.0157C23.125 17.5335 23.5447 17.9532 24.0625 17.9532C24.5803 17.9532 25 17.5335 25 17.0157C25 16.4979 24.5803 16.0782 24.0625 16.0782ZM15.8125 19.8282C15.2947 19.8282 14.875 20.2479 14.875 20.7657V22.5001H14.4062C13.8884 22.5001 13.4688 22.9197 13.4688 23.4376C13.4688 23.9554 13.8884 24.3751 14.4062 24.3751H15.8125C16.3303 24.3751 16.75 23.9554 16.75 23.4376V20.7657C16.75 20.2479 16.3303 19.8282 15.8125 19.8282ZM15.8125 28.1251H14.875V27.1876C14.875 26.6697 14.4553 26.2501 13.9375 26.2501H13V25.3126C13 24.7947 12.5803 24.3751 12.0625 24.3751C11.5447 24.3751 11.125 24.7947 11.125 25.3126V27.1876C11.125 27.7054 11.5447 28.1251 12.0625 28.1251H13V29.0626C13 29.5804 13.4197 30.0001 13.9375 30.0001H15.8125C16.3303 30.0001 16.75 29.5804 16.75 29.0626C16.75 28.5447 16.3303 28.1251 15.8125 28.1251ZM19.5625 26.2501C19.5625 25.7322 19.1428 25.3126 18.625 25.3126H18.1562C17.6384 25.3126 17.2188 25.7322 17.2188 26.2501C17.2188 26.7679 17.6384 27.1876 18.1562 27.1876H18.625C19.1428 27.1876 19.5625 26.7679 19.5625 26.2501ZM24.0625 28.1251H23.3125V27.1876C23.3125 26.6697 22.8928 26.2501 22.375 26.2501C21.8572 26.2501 21.4375 26.6697 21.4375 27.1876V28.1251H19.5625C19.0447 28.1251 18.625 28.5447 18.625 29.0626C18.625 29.5804 19.0447 30.0001 19.5625 30.0001H24.0625C24.5803 30.0001 25 29.5804 25 29.0626C25 28.5447 24.5803 28.1251 24.0625 28.1251ZM12.0625 21.5626C12.5803 21.5626 13 21.1429 13 20.6251V18.8907C13 18.3729 12.5803 17.9532 12.0625 17.9532H8.6875V17.0382C8.6875 16.5297 8.29218 16.0969 7.78424 16.0787C7.25085 16.0599 6.8125 16.4865 6.8125 17.0157V17.9532H6.34375C5.82593 17.9532 5.40625 18.3729 5.40625 18.8907C5.40625 19.4085 5.82593 19.8282 6.34375 19.8282H11.125V20.6251C11.125 21.1429 11.5447 21.5626 12.0625 21.5626ZM1 11.6251V8.81255C1 7.26165 2.2616 6.00005 3.8125 6.00005H6.625C8.1759 6.00005 9.4375 7.26165 9.4375 8.81255V11.6251C9.4375 13.176 8.1759 14.4376 6.625 14.4376H3.8125C2.2616 14.4376 1 13.176 1 11.6251ZM2.875 11.6251C2.875 12.142 3.29559 12.5626 3.8125 12.5626H6.625C7.14191 12.5626 7.5625 12.142 7.5625 11.6251V8.81255C7.5625 8.29565 7.14191 7.87505 6.625 7.87505H3.8125C3.29559 7.87505 2.875 8.29565 2.875 8.81255V11.6251ZM5.21875 11.1563C5.73657 11.1563 6.15625 10.7366 6.15625 10.2188C6.15625 9.70098 5.73657 9.2813 5.21875 9.2813C4.70093 9.2813 4.28125 9.70098 4.28125 10.2188C4.28125 10.7366 4.70093 11.1563 5.21875 11.1563ZM9.4375 24.3751V27.1876C9.4375 28.7385 8.1759 30.0001 6.625 30.0001H3.8125C2.2616 30.0001 1 28.7385 1 27.1876V24.3751C1 22.8242 2.2616 21.5626 3.8125 21.5626H6.625C8.1759 21.5626 9.4375 22.8242 9.4375 24.3751ZM7.5625 24.3751C7.5625 23.8581 7.14191 23.4376 6.625 23.4376H3.8125C3.29559 23.4376 2.875 23.8581 2.875 24.3751V27.1876C2.875 27.7045 3.29559 28.1251 3.8125 28.1251H6.625C7.14191 28.1251 7.5625 27.7045 7.5625 27.1876V24.3751ZM5.21875 24.8438C4.70093 24.8438 4.28125 25.2635 4.28125 25.7813C4.28125 26.2991 4.70093 26.7188 5.21875 26.7188C5.73657 26.7188 6.15625 26.2991 6.15625 25.7813C6.15625 25.2635 5.73657 24.8438 5.21875 24.8438Z" fill="#EB5757"/>
<path fill-rule="evenodd" clip-rule="evenodd" d="M30 7C30 10.3137 27.3137 13 24 13C20.6863 13 18 10.3137 18 7C18 3.68629 20.6863 1 24 1C27.3137 1 30 3.68629 30 7ZM24 2.6665C24.5523 2.6665 25 3.11422 25 3.6665V6.99984C25 7.55212 24.5523 7.99984 24 7.99984C23.4477 7.99984 23 7.55212 23 6.99984V3.6665C23 3.11422 23.4477 2.6665 24 2.6665ZM24 9.3335C23.4477 9.3335 23 9.78121 23 10.3335C23 10.8858 23.4477 11.3335 24 11.3335H24.0083C24.5606 11.3335 25.0083 10.8858 25.0083 10.3335C25.0083 9.78121 24.5606 9.3335 24.0083 9.3335H24Z" fill="#EB5757"/>
</svg>
