<svg width="24" height="25" viewBox="0 0 24 25" fill="none" xmlns="http://www.w3.org/2000/svg">
<path d="M22.4348 10.916V8.43359C22.4348 7.13899 21.3816 6.08576 20.087 6.08576H17.0584L11.9982 1.58782C11.7017 1.32424 11.2548 1.32424 10.9583 1.58782L5.89809 6.0858H3.91303C1.75537 6.0858 0 7.84118 0 9.99884V19.3901C0 21.5478 1.75537 23.3032 3.91303 23.3032H20.0869C21.3815 23.3032 22.4347 22.2499 22.4347 20.9554V18.4729C23.3457 18.1498 24 17.2799 24 16.2597V13.1292C24 12.109 23.3457 11.2391 22.4348 10.916ZM11.4783 3.21982L14.7025 6.0858H8.25408L11.4783 3.21982ZM20.8695 20.9554C20.8695 21.3869 20.5185 21.738 20.0869 21.738H3.91303C2.61844 21.738 1.5652 20.6847 1.5652 19.3901V9.99884C1.5652 8.70424 2.61844 7.65101 3.91303 7.65101H20.0869C20.5185 7.65101 20.8695 8.0021 20.8695 8.43363V10.7815H18.5217C16.3641 10.7815 14.6087 12.5368 14.6087 14.6945C14.6087 16.8521 16.3641 18.6075 18.5217 18.6075H20.8695V20.9554ZM22.4348 16.2597C22.4348 16.6912 22.0837 17.0423 21.6522 17.0423H18.5217C17.2271 17.0423 16.1739 15.9891 16.1739 14.6945C16.1739 13.3999 17.2271 12.3467 18.5217 12.3467H21.6522C22.0837 12.3467 22.4348 12.6978 22.4348 13.1293V16.2597Z" fill="white"/>
<path d="M18.5214 15.477C18.9536 15.477 19.304 15.1266 19.304 14.6944C19.304 14.2621 18.9536 13.9117 18.5214 13.9117C18.0892 13.9117 17.7388 14.2621 17.7388 14.6944C17.7388 15.1266 18.0892 15.477 18.5214 15.477Z" fill="white"/>
</svg>
