<svg width="24" height="24" viewBox="0 0 24 24" fill="none" xmlns="http://www.w3.org/2000/svg">
<rect width="24" height="24" rx="12" fill="#5A5A89"/>
<path fill-rule="evenodd" clip-rule="evenodd" d="M14.552 16.108C14.9121 16.5641 15.344 17.0802 15.344 17.0802C17.9961 16.996 19.016 15.256 19.016 15.256C19.016 11.3919 17.2881 8.26011 17.2881 8.26011C15.5601 6.96397 13.916 7.0001 13.916 7.0001L13.748 7.192C15.7881 7.81602 16.7361 8.71617 16.7361 8.71617C15.488 8.03208 14.2639 7.69615 13.124 7.56407C12.6375 7.51011 12.1624 7.494 11.7092 7.50743C11.3579 7.51792 11.0198 7.546 10.7 7.58799C10.6633 7.58799 10.6299 7.59117 10.5964 7.5958C10.564 7.6002 10.5315 7.60606 10.4961 7.61216C10.4275 7.61802 10.3428 7.62705 10.2437 7.64048C9.73584 7.70982 8.84644 7.8961 7.77197 8.36802C7.32812 8.57212 7.06396 8.71617 7.06396 8.71617C7.06396 8.71617 8.06006 7.76817 10.22 7.14414L10.1001 7.0001C10.1001 7.0001 8.45605 6.96397 6.72803 8.26011C6.72803 8.26011 5 11.3919 5 15.256C5 15.256 6.00806 16.996 8.66016 17.0802C8.66016 17.0802 9.104 16.5401 9.46411 16.0841C7.93994 15.628 7.36401 14.6681 7.36401 14.6681C7.36401 14.6681 7.48413 14.7521 7.69995 14.8722C7.71191 14.8841 7.72412 14.8961 7.74805 14.9081C7.78394 14.932 7.82007 14.9439 7.85596 14.9681C8.15601 15.1361 8.45605 15.2682 8.73193 15.3761C9.22412 15.568 9.81201 15.7601 10.4961 15.8919C11.396 16.0602 12.4521 16.12 13.604 15.9042C14.168 15.808 14.7441 15.64 15.344 15.388C15.7639 15.232 16.2319 15.004 16.7241 14.68C16.7241 14.68 16.124 15.6642 14.552 16.108ZM9.76392 11.4762C9.08008 11.4762 8.54004 12.076 8.54004 12.808C8.54004 13.5401 9.09204 14.14 9.76392 14.14C10.448 14.14 10.988 13.5401 10.988 12.808C11 12.076 10.448 11.4762 9.76392 11.4762ZM14.144 11.4762C13.46 11.4762 12.9199 12.076 12.9199 12.808C12.9199 13.5401 13.4719 14.14 14.144 14.14C14.8281 14.14 15.3679 13.5401 15.3679 12.808C15.3679 12.076 14.8281 11.4762 14.144 11.4762Z" fill="black"/>
</svg>
