<svg width="17" height="16" viewBox="0 0 17 16" fill="none" xmlns="http://www.w3.org/2000/svg">
<g clip-path="url(#clip0)">
<path d="M6.51123 6.47949C6.77011 6.47949 6.97998 6.26963 6.97998 6.01074C6.97998 5.75186 6.77011 5.54199 6.51123 5.54199C6.25235 5.54199 6.04248 5.75186 6.04248 6.01074C6.04248 6.26963 6.25235 6.47949 6.51123 6.47949Z" fill="#FFA63F"/>
<path d="M10.4888 10.458C10.7477 10.458 10.9575 10.2481 10.9575 9.98926C10.9575 9.73037 10.7477 9.52051 10.4888 9.52051C10.2299 9.52051 10.02 9.73037 10.02 9.98926C10.02 10.2481 10.2299 10.458 10.4888 10.458Z" fill="#FFA63F"/>
<path d="M15.3677 7.99955L16.1082 5.82274C16.1751 5.62599 16.1045 5.40868 15.9347 5.28883L14.0567 3.96299L13.375 1.76752C13.3135 1.56936 13.1285 1.43455 12.9215 1.4378L10.6229 1.46643L8.78009 0.0924883C8.61384 -0.0314805 8.38594 -0.0314805 8.21972 0.0924883L6.37706 1.46643L4.07853 1.43768C3.8715 1.43483 3.68656 1.56921 3.625 1.76739L2.94328 3.96283L1.06515 5.28871C0.895372 5.40855 0.82481 5.62586 0.891716 5.82258L1.63222 7.99955L0.891716 10.1764C0.824779 10.3731 0.895372 10.5904 1.06515 10.7103L2.94318 12.0361L3.62484 14.2316C3.68637 14.4297 3.87122 14.5635 4.07834 14.5613L6.37697 14.5327L8.21978 15.9066C8.3029 15.9686 8.40144 15.9996 8.49997 15.9996C8.5985 15.9996 8.69706 15.9686 8.78015 15.9066L10.6228 14.5327L12.9214 14.5615C13.1288 14.5646 13.3134 14.43 13.3749 14.2317L14.0566 12.0363L15.9347 10.7104C16.1045 10.5906 16.1751 10.3733 16.1082 10.1766L15.3677 7.99955ZM5.10494 6.01083C5.10494 5.23543 5.73578 4.60458 6.51119 4.60458C7.28659 4.60458 7.91744 5.23543 7.91744 6.01083C7.91744 6.78624 7.28659 7.41708 6.51119 7.41708C5.73578 7.41708 5.10494 6.78624 5.10494 6.01083ZM6.40072 10.7617C6.30919 10.8532 6.18922 10.899 6.06928 10.899C5.94934 10.899 5.82934 10.8532 5.73784 10.7617C5.55478 10.5787 5.55478 10.2819 5.73784 10.0988L10.5992 5.23743C10.7822 5.05439 11.0791 5.05439 11.2621 5.23743C11.4452 5.42046 11.4452 5.71727 11.2621 5.90033L6.40072 10.7617ZM10.4887 11.3946C9.71328 11.3946 9.08244 10.7637 9.08244 9.9883C9.08244 9.2129 9.71328 8.58205 10.4887 8.58205C11.2641 8.58205 11.8949 9.2129 11.8949 9.9883C11.8949 10.7637 11.2641 11.3946 10.4887 11.3946Z" fill="#FFA63F"/>
</g>
<defs>
<clipPath id="clip0">
<rect width="16" height="16" fill="white" transform="translate(0.5)"/>
</clipPath>
</defs>
</svg>
