<svg width="16" height="16" viewBox="0 0 16 16" fill="none" xmlns="http://www.w3.org/2000/svg">
<g clip-path="url(#clip0)">
<path d="M6.01147 6.47974C6.27036 6.47974 6.48022 6.26987 6.48022 6.01099C6.48022 5.7521 6.27036 5.54224 6.01147 5.54224C5.75259 5.54224 5.54272 5.7521 5.54272 6.01099C5.54272 6.26987 5.75259 6.47974 6.01147 6.47974Z" fill="#FFA63F"/>
<path d="M9.98853 10.4579C10.2474 10.4579 10.4573 10.248 10.4573 9.98914C10.4573 9.73025 10.2474 9.52039 9.98853 9.52039C9.72964 9.52039 9.51978 9.73025 9.51978 9.98914C9.51978 10.248 9.72964 10.4579 9.98853 10.4579Z" fill="#FFA63F"/>
<path d="M14.8679 7.99979L15.6084 5.82298C15.6754 5.62623 15.6048 5.40892 15.435 5.28908L13.557 3.96323L12.8753 1.76776C12.8137 1.56961 12.6288 1.43479 12.4218 1.43804L10.1231 1.46667L8.28034 0.0927324C8.11409 -0.0312363 7.88618 -0.0312363 7.71996 0.0927324L5.8773 1.46667L3.57877 1.43792C3.37174 1.43508 3.1868 1.56945 3.12524 1.76764L2.44352 3.96308L0.565398 5.28895C0.395617 5.4088 0.325054 5.62611 0.39196 5.82283L1.13246 7.99979L0.39196 10.1766C0.325023 10.3734 0.395617 10.5907 0.565398 10.7105L2.44343 12.0364L3.12509 14.2318C3.18662 14.43 3.37146 14.5637 3.57859 14.5615L5.87721 14.5329L7.72002 15.9069C7.80315 15.9688 7.90168 15.9998 8.00021 15.9998C8.09874 15.9998 8.1973 15.9689 8.2804 15.9069L10.1231 14.533L12.4216 14.5617C12.629 14.5649 12.8136 14.4302 12.8751 14.232L13.5569 12.0365L15.435 10.7107C15.6047 10.5908 15.6753 10.3735 15.6084 10.1768L14.8679 7.99979ZM4.60518 6.01108C4.60518 5.23567 5.23602 4.60483 6.01143 4.60483C6.78684 4.60483 7.41768 5.23567 7.41768 6.01108C7.41768 6.78648 6.78684 7.41733 6.01143 7.41733C5.23602 7.41733 4.60518 6.78648 4.60518 6.01108ZM5.90096 10.762C5.80943 10.8535 5.68946 10.8993 5.56952 10.8993C5.44959 10.8993 5.32959 10.8535 5.23809 10.762C5.05502 10.5789 5.05502 10.2821 5.23809 10.099L10.0995 5.23767C10.2825 5.05464 10.5793 5.05464 10.7624 5.23767C10.9454 5.4207 10.9454 5.71751 10.7624 5.90058L5.90096 10.762ZM9.98893 11.3948C9.21352 11.3948 8.58268 10.764 8.58268 9.98855C8.58268 9.21314 9.21352 8.5823 9.98893 8.5823C10.7643 8.5823 11.3952 9.21314 11.3952 9.98855C11.3952 10.764 10.7643 11.3948 9.98893 11.3948Z" fill="#FFA63F"/>
</g>
<defs>
<clipPath id="clip0">
<rect width="16" height="16" fill="white"/>
</clipPath>
</defs>
</svg>
