<svg width="188" height="146" viewBox="0 0 188 146" fill="none" xmlns="http://www.w3.org/2000/svg">
<circle cx="115.659" cy="54.1536" r="53.9693" fill="#F1F1F1" fill-opacity="0.1"/>
<path d="M131.793 110.335C137.865 109.102 143.263 105.657 146.938 100.668C150.613 95.6792 152.303 89.5028 151.68 83.338C151.057 77.1731 148.166 71.4595 143.568 67.3064C138.969 63.1533 132.992 60.857 126.796 60.8632H120.499C118.844 54.4535 115.622 48.5552 111.124 43.6979C106.626 38.8407 100.992 35.1765 94.7279 33.0344C88.464 30.8923 81.7661 30.3393 75.2356 31.425C68.7051 32.5108 62.5465 35.2013 57.3126 39.2551C52.0788 43.3088 47.9336 48.5989 45.2491 54.6503C42.5647 60.7018 41.4251 67.3251 41.9326 73.9258C42.4401 80.5264 44.5789 86.8977 48.1569 92.4676C51.7349 98.0375 56.6401 102.632 62.4322 105.838" stroke="#36363D" stroke-width="6.59918" stroke-linecap="round" stroke-linejoin="round"/>
<path d="M101.81 80.8527L81.8215 110.836H111.804L91.8159 140.819" stroke="#36363D" stroke-width="6.59918" stroke-linecap="round" stroke-linejoin="round"/>
<path d="M29.8737 114.298C31.8537 113.894 33.6136 112.762 34.8119 111.125C36.0102 109.487 36.5613 107.459 36.3582 105.435C36.1552 103.412 35.2125 101.536 33.7131 100.172C32.2137 98.809 30.2647 98.0551 28.2443 98.0571H26.1912C25.6514 95.9529 24.601 94.0165 23.1343 92.4219C21.6676 90.8273 19.8306 89.6244 17.7881 88.9211C15.7457 88.2179 13.5617 88.0364 11.4324 88.3928C9.30299 88.7493 7.29487 89.6325 5.58829 90.9633C3.88172 92.2942 2.5301 94.0308 1.6548 96.0175C0.779502 98.0041 0.407913 100.179 0.5734 102.345C0.738887 104.512 1.43627 106.604 2.60293 108.433C3.76959 110.261 5.36902 111.769 7.25761 112.822" fill="#EEEEEE" fill-opacity="0.2"/>
<path d="M180.939 43.6561C182.919 43.2513 184.679 42.1203 185.877 40.4825C187.076 38.8447 187.627 36.8171 187.424 34.7932C187.221 32.7693 186.278 30.8936 184.779 29.5302C183.279 28.1667 181.33 27.4129 179.31 27.4149H177.257C176.717 25.3106 175.666 23.3743 174.2 21.7797C172.733 20.1851 170.896 18.9822 168.854 18.2789C166.811 17.5757 164.627 17.3941 162.498 17.7506C160.368 18.107 158.36 18.9903 156.654 20.3211C154.947 21.652 153.596 23.3886 152.72 25.3753C151.845 27.3619 151.473 29.5363 151.639 31.7032C151.804 33.8702 152.502 35.9618 153.668 37.7904C154.835 39.6189 156.435 41.1272 158.323 42.1797" fill="#404047"/>
</svg>
