<svg width="24" height="24" viewBox="0 0 24 24" fill="none" xmlns="http://www.w3.org/2000/svg">
<rect width="24" height="24" rx="12" fill="#5A5A89"/>
<path fill-rule="evenodd" clip-rule="evenodd" d="M0.0003991 12.3311C0.000133203 12.3627 0 12.3943 0 12.4259C0 13.3944 0.124924 14.3349 0.360171 15.2334C0.132607 14.3035 0.00827616 13.3315 0.0003991 12.3311ZM8.98225 23.5592C9.94645 23.7985 10.9577 23.9259 12 23.9259C13.0428 23.9259 14.0545 23.7984 15.019 23.5589C14.9896 23.4791 14.9763 23.3943 14.9763 23.3128C14.9763 23.1785 14.9778 22.9429 14.9799 22.6281C14.984 21.9935 14.9902 21.0367 14.9902 19.9364C14.9902 18.7885 14.6067 18.0397 14.1762 17.6579C16.8484 17.3533 19.6557 16.3128 19.6557 11.5871C19.6557 10.2438 19.1901 9.14619 18.4206 8.28455C18.5452 7.97465 18.9562 6.72325 18.303 5.02849C18.303 5.02849 17.2967 4.69781 15.0063 6.28968C14.0473 6.01706 13.0199 5.88035 12.0001 5.87566C10.9803 5.88035 9.95372 6.01706 8.9965 6.28968C6.70331 4.69781 5.69562 5.02849 5.69562 5.02849C5.04402 6.72325 5.45477 7.97465 5.57937 8.28455C4.81172 9.14619 4.34295 10.2438 4.34295 11.5871C4.34295 16.3015 7.14486 17.3565 9.81024 17.6677C9.46706 17.9749 9.15607 18.5177 9.04836 19.3129C8.36359 19.6273 6.6266 20.1711 5.55632 18.2901C5.55632 18.2901 4.92181 17.109 3.7168 17.0222C3.7168 17.0222 2.54596 17.0065 3.63473 17.7701C3.63473 17.7701 4.42125 18.1483 4.96712 19.5704C4.96712 19.5704 5.67157 21.7664 9.01001 21.0221C9.01282 21.5809 9.01739 22.1223 9.02097 22.5472C9.02399 22.9041 9.02631 23.1789 9.02631 23.3128C9.02631 23.3943 9.01246 23.4794 8.98225 23.5592ZM23.6427 15.2225C23.8684 14.2959 23.9918 13.3276 23.9996 12.3311C23.9999 12.3627 24 12.3943 24 12.4259C24 13.3904 23.8761 14.3272 23.6427 15.2225ZM4.28876 17.4904C4.3742 17.5324 4.468 17.514 4.49443 17.4529C4.52463 17.3916 4.47495 17.3074 4.38772 17.2673C4.30088 17.2251 4.20688 17.2426 4.18105 17.3056C4.15283 17.3669 4.20172 17.4503 4.28876 17.4904ZM4.83968 17.9361C4.91559 18.0221 5.02747 18.0473 5.0847 17.9929C5.14451 17.9379 5.12921 17.824 5.05072 17.7372C4.97203 17.6515 4.86353 17.626 4.80451 17.6804C4.74648 17.7356 4.76119 17.8503 4.83968 17.9361ZM5.22158 18.5777C5.2959 18.6871 5.41612 18.7362 5.48965 18.6839C5.56476 18.6303 5.56476 18.4991 5.49144 18.3878C5.41612 18.2792 5.29769 18.232 5.22317 18.2845C5.14805 18.3371 5.14805 18.4683 5.22158 18.5777ZM5.86609 19.437C5.96863 19.5385 6.10873 19.5584 6.1745 19.4841C6.24465 19.4105 6.21285 19.2687 6.10873 19.1697C6.00539 19.069 5.8645 19.0481 5.79793 19.1226C5.73196 19.197 5.76117 19.3378 5.86609 19.437ZM6.75975 19.8534C6.89567 19.8944 7.0306 19.8506 7.05961 19.7542C7.08783 19.6562 6.9988 19.5442 6.86328 19.5022C6.72636 19.4584 6.59084 19.504 6.56262 19.601C6.5352 19.6984 6.62402 19.8113 6.75975 19.8534ZM7.81235 20.0562C7.95502 20.0544 8.07028 19.9703 8.0669 19.8688C8.0669 19.7679 7.95006 19.6864 7.80738 19.6893C7.6639 19.6917 7.55123 19.7751 7.55123 19.8776C7.55282 19.9774 7.66887 20.0595 7.81235 20.0562ZM8.8327 20.0577C8.97438 20.0306 9.07354 19.9289 9.05645 19.8299C9.03837 19.7293 8.91139 19.6698 8.7695 19.695C8.6304 19.7213 8.52946 19.823 8.54674 19.9244C8.56443 20.0227 8.6934 20.0838 8.8327 20.0577Z" fill="black"/>
</svg>
