<svg width="44" height="31" viewBox="0 0 44 31" fill="none" xmlns="http://www.w3.org/2000/svg">
<mask id="mask0" mask-type="alpha" maskUnits="userSpaceOnUse" x="8" y="0" width="19" height="31">
<path d="M17.606 7.61065L13.2223 0L8.82834 7.61065L13.1918 15.2213L17.5552 22.8319L21.9492 30.4426L26.3432 22.8319L21.9694 15.2213L17.606 7.61065Z" fill="#C4C4C4"/>
</mask>
<g mask="url(#mask0)">
<rect x="-4.36349" y="43.5327" width="43.8373" height="43.8373" transform="rotate(-90 -4.36349 43.5327)" fill="#FF4646"/>
<rect x="-4.36349" y="43.5327" width="43.8373" height="43.8373" transform="rotate(-90 -4.36349 43.5327)" fill="url(#paint0_linear)"/>
</g>
<mask id="mask1" mask-type="alpha" maskUnits="userSpaceOnUse" x="26" y="0" width="18" height="31">
<path d="M35.2627 7.61065L30.8791 0L26.4851 7.61065L30.8485 15.2213L35.212 22.8319L39.606 30.4426L44 22.8319L39.6262 15.2213L35.2627 7.61065Z" fill="#C4C4C4"/>
</mask>
<g mask="url(#mask1)">
<path d="M0.304352 43.5327L0.304352 -0.304611L44.1417 -0.304611L44.1417 43.5327L0.304352 43.5327Z" fill="#FF4646"/>
<path d="M0.304352 43.5327L0.304352 -0.304611L44.1417 -0.304611L44.1417 43.5327L0.304352 43.5327Z" fill="url(#paint1_linear)"/>
</g>
<mask id="mask2" mask-type="alpha" maskUnits="userSpaceOnUse" x="0" y="15" width="9" height="16">
<path d="M8.78802 22.8318L4.39401 15.2212L0 22.8318L4.39401 30.4425L8.78802 22.8318Z" fill="#C4C4C4"/>
</mask>
<g mask="url(#mask2)">
<rect y="34.0952" width="43.8373" height="43.8373" transform="rotate(-90 0 34.0952)" fill="#FF4646"/>
<rect y="34.0952" width="43.8373" height="43.8373" transform="rotate(-90 0 34.0952)" fill="url(#paint2_linear)"/>
</g>
<defs>
<linearGradient id="paint0_linear" x1="17.5552" y1="43.5327" x2="17.5552" y2="87.37" gradientUnits="userSpaceOnUse">
<stop stop-color="#46D329"/>
<stop offset="1" stop-color="#B8F907"/>
</linearGradient>
<linearGradient id="paint1_linear" x1="0.304352" y1="21.6141" x2="44.1417" y2="21.6141" gradientUnits="userSpaceOnUse">
<stop stop-color="#46D329"/>
<stop offset="1" stop-color="#B8F907"/>
</linearGradient>
<linearGradient id="paint2_linear" x1="21.9187" y1="34.0952" x2="21.9187" y2="77.9325" gradientUnits="userSpaceOnUse">
<stop stop-color="#46D329"/>
<stop offset="1" stop-color="#B8F907"/>
</linearGradient>
</defs>
</svg>
