<svg width="530" height="342" viewBox="0 0 530 342" fill="none" xmlns="http://www.w3.org/2000/svg">
<ellipse cx="265" cy="171" rx="265" ry="171" fill="url(#paint0_radial)"/>
<path opacity="0.4" d="M266.002 212C243.84 212 221.659 207.143 204.79 197.43C188.38 187.973 179.338 175.401 179.338 162.003C179.338 148.606 188.38 136.034 204.79 126.577C238.547 107.132 293.456 107.15 327.214 126.577C343.624 136.034 352.665 148.606 352.665 162.003C352.665 175.401 343.624 187.991 327.214 197.43L327.049 197.155L327.214 197.43C310.344 207.143 288.182 212 266.002 212ZM266.002 112.63C243.95 112.63 221.898 117.468 205.102 127.127C188.894 136.455 179.982 148.845 179.982 162.003C179.982 175.162 188.913 187.552 205.121 196.88C238.694 216.215 293.328 216.215 326.902 196.88C343.11 187.552 352.022 175.162 352.022 162.003C352.022 148.845 343.091 136.455 326.883 127.127C310.105 117.45 288.054 112.63 266.002 112.63Z" fill="#98EF10"/>
<path opacity="0.2" d="M266.002 226C237.929 226 209.856 219.832 188.494 207.478C167.737 195.473 156.295 179.503 156.295 162.505C156.295 145.506 167.737 129.518 188.494 117.531C231.236 92.823 300.768 92.823 343.51 117.531C364.267 129.536 375.709 145.506 375.709 162.505C375.709 179.503 364.267 195.491 343.51 207.478C322.148 219.814 294.075 226 266.002 226ZM266.002 99.5966C238.039 99.5966 210.094 105.746 188.805 118.045C168.25 129.922 156.918 145.708 156.918 162.468C156.918 179.246 168.232 195.014 188.805 206.891C231.364 231.489 300.621 231.489 343.18 206.891C363.735 195.014 375.067 179.227 375.067 162.468C375.067 145.69 363.754 129.922 343.18 118.045C321.91 105.746 293.965 99.5966 266.002 99.5966Z" fill="#98EF10"/>
<path d="M266.002 202C248.443 202 230.902 198.166 217.535 190.497C204.536 183.03 197.372 173.086 197.372 162.5C197.372 151.914 204.536 141.97 217.535 134.503C244.27 119.166 287.752 119.166 314.469 134.503C327.467 141.97 334.631 151.914 334.631 162.5C334.631 173.086 327.467 183.03 314.469 190.497L314.303 190.222L314.469 190.497C301.12 198.166 283.561 202 266.002 202ZM266.002 123.66C248.572 123.66 231.124 127.477 217.849 135.09C205.053 142.429 198 152.171 198 162.537C198 172.902 205.053 182.626 217.849 189.983C244.399 205.211 287.604 205.211 314.155 189.983C326.95 182.644 334.004 172.902 334.004 162.555C334.004 152.208 326.95 142.466 314.155 135.109C300.88 127.458 283.45 123.66 266.002 123.66Z" fill="#98EF10"/>
<path opacity="0.5" d="M322.428 194.62C290.799 212.85 239.502 212.85 207.872 194.62C176.243 176.39 176.233 146.83 207.872 128.61C239.502 110.38 290.799 110.38 322.428 128.61C354.068 146.83 354.068 176.39 322.428 194.62Z" fill="url(#paint1_radial)"/>
<path d="M290.538 172.52C275.73 181.06 251.715 181.06 236.897 172.52C222.089 163.98 222.089 150.15 236.897 141.61C251.705 133.07 275.72 133.07 290.538 141.61C305.346 150.14 305.346 163.98 290.538 172.52Z" fill="url(#paint2_radial)"/>
<path d="M236.897 146.24C251.705 137.7 275.72 137.7 290.538 146.24C296.92 149.92 300.547 154.58 301.429 159.38C302.591 153.04 298.974 146.47 290.538 141.61C275.73 133.07 251.715 133.07 236.897 141.61C228.471 146.47 224.844 153.04 226.006 159.38C226.888 154.58 230.515 149.92 236.897 146.24Z" fill="#42E8E0"/>
<g opacity="0.3">
<path opacity="0.3" d="M183.396 183.15V176.96L181.683 176.01C181.202 178.93 177.755 180.86 174.87 181.26L155.253 192.71L146.697 195.8L119.375 181.73L120.006 181.37C117.672 180.28 116.41 177.79 115.147 175.52L113.304 176.62L112.212 176.93V183.28C112.212 184.49 113.013 185.71 114.616 186.63L141.988 202.41C145.194 204.26 150.404 204.26 153.61 202.41L180.981 186.64C182.554 185.73 183.356 184.54 183.386 183.35C183.396 183.25 183.396 183.2 183.396 183.15Z" fill="url(#paint3_linear)"/>
<path opacity="0.3" d="M174.87 181.25L155.253 192.7L147.799 195.39V203.76C149.903 203.76 152.007 203.3 153.61 202.37L180.981 186.6C182.554 185.69 183.356 184.5 183.386 183.31C183.386 183.26 183.386 183.2 183.386 183.15V176.96L181.823 176.09H181.663C181.132 178.96 177.725 180.85 174.87 181.25Z" fill="#0F054C"/>
<g opacity="0.3">
<path opacity="0.3" d="M141.988 196.08L114.616 180.3C111.41 178.45 111.41 175.45 114.616 173.6L141.988 157.83C145.194 155.98 150.404 155.98 153.61 157.83L180.981 173.61C184.188 175.46 184.188 178.46 180.981 180.31L153.61 196.08C150.414 197.93 145.194 197.93 141.988 196.08Z" fill="url(#paint4_linear)"/>
</g>
<g opacity="0.3">
<path opacity="0.3" d="M141.988 196.08L114.616 180.3C111.41 178.45 111.41 175.45 114.616 173.6L141.988 157.83C145.194 155.98 150.404 155.98 153.61 157.83L180.981 173.61C184.188 175.46 184.188 178.46 180.981 180.31L153.61 196.08C150.414 197.93 145.194 197.93 141.988 196.08Z" fill="#0F054C"/>
</g>
</g>
<path d="M147.799 176.19C145.925 176.19 144.062 175.78 142.639 174.96L115.268 159.18C113.845 158.36 113.063 157.26 113.063 156.07C113.063 154.88 113.845 153.78 115.268 152.96L142.639 137.18C145.485 135.54 150.113 135.54 152.959 137.18L180.33 152.96C181.753 153.78 182.534 154.88 182.534 156.07C182.534 157.26 181.753 158.36 180.33 159.18L152.959 174.96C151.536 175.78 149.673 176.19 147.799 176.19ZM142.88 174.55C145.595 176.11 150.003 176.11 152.718 174.55L180.09 158.77C181.352 158.04 182.054 157.08 182.054 156.07C182.054 155.06 181.352 154.1 180.09 153.37L152.718 137.59C150.003 136.03 145.595 136.03 142.88 137.59L115.508 153.37C114.246 154.1 113.544 155.06 113.544 156.07C113.544 157.08 114.246 158.04 115.508 158.77L142.88 174.55Z" fill="#B8F907"/>
<path opacity="0.4" d="M183.396 150.02V140.66L181.683 139.71C181.202 142.63 177.755 144.56 174.87 144.96L155.253 156.41L146.697 159.5L119.375 145.43L120.006 145.07C117.672 143.98 116.41 141.49 115.147 139.22L113.304 140.32L112.212 140.63V150.14C112.212 151.35 113.013 152.57 114.616 153.49L141.988 169.27C145.194 171.12 150.404 171.12 153.61 169.27L180.981 153.5C182.554 152.59 183.356 151.4 183.386 150.21C183.396 150.13 183.396 150.07 183.396 150.02Z" fill="#B8F907"/>
<path d="M183.396 141.71V135.52L181.683 134.57C181.202 137.49 177.755 139.42 174.87 139.82L155.253 151.27L146.697 154.36L119.375 140.29L120.006 139.93C117.672 138.84 116.41 136.35 115.147 134.08L113.304 135.18L112.212 135.49V141.84C112.212 143.05 113.013 144.27 114.616 145.19L141.988 160.97C145.194 162.82 150.404 162.82 153.61 160.97L180.981 145.2C182.554 144.29 183.356 143.1 183.386 141.91C183.396 141.81 183.396 141.76 183.396 141.71Z" fill="url(#paint5_linear)"/>
<path opacity="0.3" d="M174.87 139.81L155.253 151.26L147.799 153.95V162.32C149.903 162.32 152.007 161.86 153.61 160.93L180.981 145.16C182.554 144.25 183.356 143.06 183.386 141.87C183.386 141.82 183.386 141.76 183.386 141.71V135.52L181.823 134.65H181.663C181.132 137.52 177.725 139.41 174.87 139.81Z" fill="#0F054C"/>
<path d="M174.87 139.81L155.253 151.26L147.799 153.95V162.32C149.903 162.32 152.007 161.86 153.61 160.93L180.981 145.16C182.554 144.25 183.356 143.06 183.386 141.87C183.386 141.82 183.386 141.76 183.386 141.71V135.52L181.823 134.65H181.663C181.132 137.52 177.725 139.41 174.87 139.81Z" fill="url(#paint6_linear)"/>
<path d="M141.988 154.64L114.616 138.86C111.41 137.01 111.41 134.01 114.616 132.16L141.988 116.39C145.194 114.54 150.404 114.54 153.61 116.39L180.981 132.17C184.188 134.02 184.188 137.02 180.981 138.87L153.61 154.65C150.414 156.49 145.194 156.49 141.988 154.64Z" fill="url(#paint7_linear)"/>
<path d="M147.799 151.77C146.116 151.77 144.423 151.4 143.14 150.66L121.75 138.34C120.457 137.6 119.756 136.59 119.756 135.52C119.756 134.45 120.467 133.44 121.75 132.7L143.14 120.38C145.715 118.9 149.893 118.9 152.468 120.38L173.858 132.7C175.15 133.44 175.852 134.45 175.852 135.52C175.852 136.59 175.14 137.6 173.858 138.34L152.468 150.66C151.175 151.4 149.492 151.77 147.799 151.77ZM147.799 119.73C146.196 119.73 144.593 120.08 143.381 120.78L121.99 133.1C120.858 133.75 120.227 134.61 120.227 135.51C120.227 136.41 120.848 137.27 121.99 137.92L143.381 150.24C145.815 151.64 149.783 151.64 152.227 150.24L173.618 137.92C174.75 137.27 175.371 136.41 175.371 135.51C175.371 134.61 174.75 133.75 173.618 133.1L152.227 120.78C151.005 120.08 149.402 119.73 147.799 119.73Z" fill="#5351AF"/>
<path d="M180.991 138.86L153.62 154.64C150.414 156.49 145.204 156.49 141.998 154.64L114.626 138.86C113.194 138.03 112.402 136.98 112.252 135.9C112.061 137.24 112.853 138.61 114.626 139.64L141.998 155.42C145.204 157.27 150.414 157.27 153.62 155.42L180.991 139.65C182.765 138.63 183.556 137.25 183.366 135.91C183.216 136.98 182.424 138.04 180.991 138.86Z" fill="white"/>
<g opacity="0.3">
<path opacity="0.3" d="M410.334 131.61V125.42L408.621 124.47C408.14 127.39 404.694 129.32 401.808 129.72L382.191 141.17L373.635 144.26L346.313 130.19L346.945 129.83C344.61 128.74 343.348 126.25 342.085 123.98L340.242 125.08L339.15 125.39V131.74C339.15 132.95 339.951 134.17 341.554 135.09L368.926 150.87C372.132 152.72 377.342 152.72 380.548 150.87L407.92 135.1C409.493 134.19 410.294 133 410.324 131.81C410.334 131.71 410.334 131.66 410.334 131.61Z" fill="url(#paint8_linear)"/>
<path opacity="0.3" d="M401.808 129.71L382.191 141.16L374.737 143.85V152.22C376.841 152.22 378.945 151.76 380.548 150.83L407.92 135.06C409.493 134.15 410.294 132.96 410.324 131.77C410.324 131.72 410.324 131.66 410.324 131.61V125.42L408.761 124.55H408.601C408.07 127.42 404.664 129.32 401.808 129.71Z" fill="#0F054C"/>
<g opacity="0.3">
<path opacity="0.3" d="M368.926 144.54L341.554 128.76C338.348 126.91 338.348 123.91 341.554 122.06L368.926 106.29C372.132 104.44 377.342 104.44 380.548 106.29L407.92 122.07C411.126 123.92 411.126 126.92 407.92 128.77L380.548 144.54C377.352 146.39 372.132 146.39 368.926 144.54Z" fill="url(#paint9_linear)"/>
</g>
<g opacity="0.3">
<path opacity="0.3" d="M368.926 144.54L341.554 128.76C338.348 126.91 338.348 123.91 341.554 122.06L368.926 106.29C372.132 104.44 377.342 104.44 380.548 106.29L407.92 122.07C411.126 123.92 411.126 126.92 407.92 128.77L380.548 144.54C377.352 146.39 372.132 146.39 368.926 144.54Z" fill="#0F054C"/>
</g>
</g>
<path d="M374.747 124.66C372.874 124.66 371.01 124.25 369.587 123.43L342.216 107.65C340.793 106.83 340.012 105.73 340.012 104.54C340.012 103.35 340.793 102.25 342.216 101.43L369.587 85.6597C372.433 84.0197 377.061 84.0197 379.907 85.6597L407.278 101.44C408.701 102.26 409.483 103.36 409.483 104.55C409.483 105.74 408.701 106.84 407.278 107.66L379.907 123.43C378.484 124.25 376.611 124.66 374.747 124.66ZM374.747 84.8997C372.964 84.8997 371.18 85.2897 369.828 86.0697L342.456 101.84C341.194 102.57 340.492 103.53 340.492 104.54C340.492 105.55 341.194 106.51 342.456 107.24L369.828 123.02C372.543 124.58 376.951 124.58 379.666 123.02L407.038 107.25C408.3 106.52 409.002 105.56 409.002 104.55C409.002 103.54 408.3 102.58 407.038 101.85L379.666 86.0697C378.304 85.2897 376.52 84.8997 374.747 84.8997Z" fill="#B8F907"/>
<path opacity="0.4" d="M410.334 98.4899V89.1299L408.621 88.1799C408.14 91.0999 404.694 93.0299 401.808 93.4299L382.191 104.88L373.635 107.97L346.313 93.8999L346.945 93.5399C344.61 92.4499 343.348 89.9599 342.085 87.6899L340.242 88.7899L339.15 89.0999V98.6099C339.15 99.8199 339.951 101.04 341.554 101.96L368.926 117.74C372.132 119.59 377.342 119.59 380.548 117.74L407.92 101.96C409.493 101.05 410.294 99.8599 410.324 98.6699C410.334 98.5899 410.334 98.5399 410.334 98.4899Z" fill="#B8F907"/>
<path d="M410.334 90.1698V83.9798L408.621 83.0298C408.14 85.9498 404.694 87.8798 401.808 88.2798L382.191 99.7298L373.635 102.82L346.313 88.7498L346.945 88.3898C344.61 87.2998 343.348 84.8098 342.085 82.5398L340.242 83.6398L339.15 83.9498V90.2998C339.15 91.5098 339.951 92.7298 341.554 93.6498L368.926 109.43C372.132 111.28 377.342 111.28 380.548 109.43L407.92 93.6598C409.493 92.7498 410.294 91.5598 410.324 90.3698C410.334 90.2698 410.334 90.2198 410.334 90.1698Z" fill="url(#paint10_linear)"/>
<path d="M410.334 90.1698V83.9798L408.621 83.0298C408.14 85.9498 404.694 87.8798 401.808 88.2798L382.191 99.7298L373.635 102.82L346.313 88.7498L346.945 88.3898C344.61 87.2998 343.348 84.8098 342.085 82.5398L340.242 83.6398L339.15 83.9498V90.2998C339.15 91.5098 339.951 92.7298 341.554 93.6498L368.926 109.43C372.132 111.28 377.342 111.28 380.548 109.43L407.92 93.6598C409.493 92.7498 410.294 91.5598 410.324 90.3698C410.334 90.2698 410.334 90.2198 410.334 90.1698Z" fill="url(#paint11_linear)"/>
<path opacity="0.3" d="M401.808 88.2699L382.191 99.7199L374.737 102.41V110.78C376.841 110.78 378.945 110.32 380.548 109.39L407.92 93.6199C409.493 92.7099 410.294 91.5199 410.324 90.3299C410.324 90.2799 410.324 90.2199 410.324 90.1699V83.9799L408.761 83.1099H408.601C408.07 85.9799 404.664 87.8799 401.808 88.2699Z" fill="#0F054C"/>
<path d="M368.926 103.1L341.554 87.3199C338.348 85.4699 338.348 82.4699 341.554 80.6199L368.926 64.8499C372.132 62.9999 377.342 62.9999 380.548 64.8499L407.92 80.6299C411.126 82.4799 411.126 85.4799 407.92 87.3299L380.548 103.1C377.352 104.95 372.132 104.95 368.926 103.1Z" fill="url(#paint12_linear)"/>
<path d="M374.747 100.24C373.064 100.24 371.371 99.87 370.088 99.13L348.698 86.8C347.406 86.06 346.704 85.05 346.704 83.98C346.704 82.9 347.416 81.9 348.698 81.16L370.088 68.83C372.663 67.35 376.841 67.35 379.416 68.83L400.806 81.15C402.099 81.89 402.8 82.9 402.8 83.97C402.8 85.04 402.089 86.05 400.806 86.79L379.416 99.11C378.124 99.87 376.43 100.24 374.747 100.24ZM370.319 98.71C372.753 100.11 376.721 100.11 379.165 98.71L400.556 86.39C401.688 85.74 402.309 84.88 402.309 83.98C402.309 83.08 401.688 82.22 400.546 81.57L379.155 69.25C376.721 67.85 372.753 67.84 370.309 69.25L348.918 81.58C347.786 82.23 347.155 83.09 347.155 83.99C347.155 84.89 347.776 85.75 348.918 86.4L370.319 98.71Z" fill="#5351AF"/>
<path d="M407.93 87.3299L380.558 103.1C377.352 104.95 372.142 104.95 368.936 103.1L341.564 87.3199C340.132 86.4899 339.34 85.4399 339.19 84.3599C339 85.6999 339.791 87.0699 341.564 88.0999L368.936 103.88C372.142 105.73 377.352 105.73 380.558 103.88L407.93 88.0999C409.703 87.0799 410.495 85.6999 410.304 84.3599C410.154 85.4499 409.362 86.4999 407.93 87.3299Z" fill="white"/>
<g opacity="0.3">
<path opacity="0.3" d="M411.105 225.12V220.934L409.944 220.29C409.617 222.27 407.286 223.569 405.339 223.84L392.075 231.585L386.281 233.668L367.804 224.148L368.235 223.905C366.653 223.167 365.801 221.485 364.95 219.944L363.705 220.682L362.965 220.887V225.185C362.965 226.007 363.508 226.829 364.594 227.446L383.108 238.115C385.28 239.367 388.799 239.367 390.971 238.115L409.486 227.446C410.553 226.829 411.095 226.026 411.114 225.222C411.114 225.194 411.105 225.157 411.105 225.12Z" fill="url(#paint13_linear)"/>
<path opacity="0.3" d="M405.339 223.84L392.076 231.585L387.04 233.397V239.059C388.462 239.059 389.885 238.751 390.971 238.125L409.486 227.455C410.553 226.839 411.096 226.035 411.114 225.232C411.114 225.195 411.114 225.157 411.114 225.12V220.934L410.057 220.346H409.944C409.579 222.289 407.277 223.569 405.339 223.84Z" fill="#0F054C"/>
<g opacity="0.3">
<path opacity="0.3" d="M383.108 233.864L364.594 223.195C362.422 221.943 362.422 219.916 364.594 218.664L383.108 207.995C385.28 206.743 388.799 206.743 390.971 207.995L409.485 218.664C411.657 219.916 411.657 221.943 409.485 223.195L390.971 233.864C388.799 235.116 385.271 235.116 383.108 233.864Z" fill="url(#paint14_linear)"/>
</g>
<g opacity="0.3">
<path opacity="0.3" d="M383.108 233.864L364.594 223.195C362.422 221.943 362.422 219.916 364.594 218.664L383.108 207.995C385.28 206.743 388.799 206.743 390.971 207.995L409.485 218.664C411.657 219.916 411.657 221.943 409.485 223.195L390.971 233.864C388.799 235.116 385.271 235.116 383.108 233.864Z" fill="#0F054C"/>
</g>
</g>
<path d="M387.04 220.383C385.776 220.383 384.512 220.103 383.548 219.552L365.034 208.882C364.069 208.331 363.545 207.584 363.545 206.78C363.545 205.977 364.079 205.229 365.034 204.678L383.548 194.009C385.476 192.907 388.603 192.897 390.531 194.009L409.045 204.678C410.01 205.229 410.534 205.977 410.534 206.78C410.534 207.584 410 208.331 409.045 208.882L390.531 219.552C389.567 220.103 388.303 220.383 387.04 220.383ZM387.04 193.495C385.832 193.495 384.625 193.757 383.707 194.289L365.193 204.959C364.332 205.454 363.864 206.098 363.864 206.78C363.864 207.462 364.332 208.107 365.193 208.602L383.707 219.271C385.542 220.327 388.528 220.327 390.362 219.271L408.877 208.602C409.729 208.107 410.206 207.462 410.206 206.78C410.206 206.098 409.738 205.454 408.877 204.959L390.362 194.289C389.445 193.757 388.238 193.495 387.04 193.495Z" fill="#98EF10"/>
<path opacity="0.4" d="M411.105 202.679V196.355L409.944 195.71C409.617 197.691 407.286 198.989 405.339 199.26L392.076 207.005L386.282 209.088L367.804 199.568L368.235 199.326C366.653 198.587 365.801 196.906 364.95 195.364L363.705 196.102L362.965 196.308V202.745C362.965 203.567 363.508 204.389 364.594 205.006L383.108 215.675C385.28 216.927 388.799 216.927 390.971 215.675L409.486 205.006C410.553 204.389 411.096 203.586 411.114 202.782C411.114 202.754 411.105 202.717 411.105 202.679Z" fill="#98EF10"/>
<path d="M411.105 197.055V192.869L409.944 192.225C409.617 194.205 407.286 195.504 405.339 195.775L392.076 203.52L386.282 205.603L367.804 196.083L368.235 195.84C366.653 195.102 365.801 193.42 364.95 191.879L363.705 192.617L362.965 192.823V197.12C362.965 197.942 363.508 198.764 364.594 199.381L383.108 210.05C385.28 211.302 388.799 211.302 390.971 210.05L409.486 199.381C410.553 198.764 411.096 197.961 411.114 197.157C411.114 197.129 411.105 197.092 411.105 197.055Z" fill="url(#paint15_linear)"/>
<path opacity="0.3" d="M405.339 195.774L392.075 203.519L387.039 205.332V210.993C388.462 210.993 389.885 210.685 390.971 210.059L409.485 199.39C410.552 198.773 411.095 197.97 411.114 197.166C411.114 197.129 411.114 197.092 411.114 197.054V192.869L410.056 192.28H409.944C409.579 194.224 407.276 195.503 405.339 195.774Z" fill="#0F054C"/>
<path d="M383.108 205.809L364.594 195.139C362.422 193.887 362.422 191.86 364.594 190.608L383.108 179.939C385.28 178.687 388.8 178.687 390.971 179.939L409.486 190.608C411.657 191.86 411.657 193.887 409.486 195.139L390.971 205.809C388.8 207.051 385.271 207.051 383.108 205.809Z" fill="url(#paint16_linear)"/>
<path d="M409.485 195.14L390.971 205.809C388.799 207.061 385.28 207.061 383.108 205.809L364.594 195.14C363.62 194.579 363.087 193.869 362.984 193.131C362.853 194.037 363.396 194.962 364.594 195.653L383.108 206.323C385.28 207.574 388.799 207.574 390.971 206.323L409.485 195.653C410.684 194.962 411.217 194.028 411.095 193.131C410.983 193.86 410.45 194.579 409.485 195.14Z" fill="white"/>
<g opacity="0.3">
<path opacity="0.3" d="M328.678 250.019V245.833L327.518 245.188C327.19 247.169 324.859 248.468 322.912 248.739L309.649 256.484L303.855 258.567L285.378 249.047L285.808 248.804C284.226 248.066 283.375 246.384 282.523 244.843L281.278 245.581L280.539 245.786V250.084C280.539 250.906 281.081 251.728 282.167 252.345L300.682 263.014C302.853 264.266 306.373 264.266 308.544 263.014L327.059 252.345C328.126 251.728 328.669 250.925 328.688 250.121C328.678 250.093 328.669 250.056 328.678 250.019Z" fill="url(#paint17_linear)"/>
<path opacity="0.3" d="M322.912 248.738L309.649 256.483L304.613 258.296V263.957C306.036 263.957 307.459 263.649 308.544 263.023L327.059 252.354C328.126 251.737 328.669 250.934 328.688 250.13C328.688 250.093 328.688 250.056 328.688 250.018V245.833L327.63 245.244H327.518C327.143 247.187 324.841 248.467 322.912 248.738Z" fill="#0F054C"/>
<g opacity="0.3">
<path opacity="0.3" d="M300.673 258.772L282.158 248.103C279.986 246.851 279.986 244.824 282.158 243.572L300.673 232.903C302.844 231.651 306.364 231.651 308.535 232.903L327.05 243.572C329.221 244.824 329.221 246.851 327.05 248.103L308.535 258.772C306.364 260.015 302.835 260.015 300.673 258.772Z" fill="url(#paint18_linear)"/>
</g>
<g opacity="0.3">
<path opacity="0.3" d="M300.673 258.772L282.158 248.103C279.986 246.851 279.986 244.824 282.158 243.572L300.673 232.903C302.844 231.651 306.364 231.651 308.535 232.903L327.05 243.572C329.221 244.824 329.221 246.851 327.05 248.103L308.535 258.772C306.364 260.015 302.835 260.015 300.673 258.772Z" fill="#0F054C"/>
</g>
</g>
<path d="M304.604 243.245C303.34 243.245 302.077 242.965 301.113 242.414L282.598 231.744C281.634 231.193 281.11 230.446 281.11 229.642C281.11 228.839 281.643 228.091 282.598 227.54L301.113 216.871C303.041 215.759 306.167 215.759 308.095 216.871L326.61 227.54C327.574 228.091 328.098 228.839 328.098 229.642C328.098 230.446 327.565 231.193 326.61 231.744L308.095 242.414C307.131 242.974 305.868 243.245 304.604 243.245ZM301.272 242.133C303.106 243.189 306.092 243.189 307.927 242.133L326.442 231.464C327.303 230.969 327.771 230.324 327.771 229.642C327.771 228.96 327.303 228.316 326.442 227.82L307.927 217.151C306.092 216.096 303.106 216.096 301.272 217.151L282.757 227.82C281.896 228.316 281.428 228.96 281.428 229.642C281.428 230.324 281.896 230.969 282.757 231.464L301.272 242.133Z" fill="#98EF10"/>
<path opacity="0.4" d="M328.679 225.551V219.226L327.518 218.581C327.19 220.562 324.86 221.86 322.913 222.131L309.649 229.876L303.855 231.96L285.378 222.44L285.809 222.197C284.227 221.459 283.375 219.777 282.523 218.235L281.279 218.973L280.539 219.179V225.616C280.539 226.438 281.082 227.26 282.168 227.877L300.682 238.546C302.854 239.798 306.373 239.798 308.545 238.546L327.059 227.877C328.126 227.26 328.669 226.457 328.688 225.653C328.679 225.616 328.669 225.579 328.679 225.551Z" fill="#98EF10"/>
<path d="M328.679 219.917V215.732L327.518 215.087C327.19 217.068 324.86 218.366 322.913 218.637L309.649 226.382L303.855 228.465L285.378 218.945L285.809 218.702C284.227 217.964 283.375 216.283 282.523 214.741L281.279 215.479L280.539 215.685V219.982C280.539 220.805 281.082 221.627 282.168 222.243L300.682 232.913C302.854 234.164 306.373 234.164 308.545 232.913L327.059 222.243C328.126 221.627 328.669 220.823 328.688 220.02C328.679 219.992 328.669 219.954 328.679 219.917Z" fill="url(#paint19_linear)"/>
<path opacity="0.3" d="M322.913 218.637L309.65 226.382L304.614 228.194V233.856C306.036 233.856 307.459 233.547 308.545 232.922L327.06 222.252C328.127 221.636 328.67 220.832 328.688 220.029C328.688 219.991 328.688 219.954 328.688 219.917V215.731L327.631 215.143H327.518C327.144 217.086 324.841 218.375 322.913 218.637Z" fill="#0F054C"/>
<path d="M300.674 228.671L282.159 218.002C279.987 216.75 279.987 214.722 282.159 213.47L300.674 202.801C302.845 201.549 306.365 201.549 308.536 202.801L327.051 213.47C329.222 214.722 329.222 216.75 327.051 218.002L308.536 228.671C306.365 229.923 302.836 229.923 300.674 228.671Z" fill="url(#paint20_linear)"/>
<path d="M304.604 226.727C303.462 226.727 302.32 226.475 301.45 225.98L286.988 217.646C286.118 217.142 285.64 216.469 285.64 215.731C285.64 215.002 286.118 214.32 286.988 213.825L301.45 205.491C303.191 204.492 306.018 204.492 307.759 205.491L322.22 213.825C323.091 214.33 323.568 215.002 323.568 215.74C323.568 216.469 323.091 217.151 322.22 217.646L307.759 225.98C306.888 226.484 305.746 226.727 304.604 226.727ZM301.609 225.699C303.256 226.652 305.943 226.652 307.59 225.699L322.052 217.366C322.819 216.927 323.24 216.348 323.24 215.74C323.24 215.133 322.819 214.554 322.052 214.105L307.59 205.772C305.943 204.819 303.256 204.819 301.609 205.772L287.147 214.105C286.38 214.544 285.959 215.124 285.959 215.731C285.959 216.338 286.38 216.917 287.147 217.357L301.609 225.699Z" fill="#5351AF"/>
<path d="M327.05 218.001L308.535 228.671C306.364 229.922 302.844 229.922 300.673 228.671L282.158 218.001C281.185 217.441 280.651 216.731 280.548 215.993C280.417 216.899 280.96 217.824 282.158 218.515L300.673 229.184C302.844 230.436 306.364 230.436 308.535 229.184L327.05 218.515C328.248 217.824 328.782 216.89 328.66 215.993C328.548 216.731 328.014 217.441 327.05 218.001Z" fill="white"/>
<defs>
<radialGradient id="paint0_radial" cx="0" cy="0" r="1" gradientUnits="userSpaceOnUse" gradientTransform="translate(265 171) rotate(90) scale(171 265)">
<stop stop-color="#18153F"/>
<stop offset="1" stop-color="#0B062E" stop-opacity="0"/>
</radialGradient>
<radialGradient id="paint1_radial" cx="0" cy="0" r="1" gradientUnits="userSpaceOnUse" gradientTransform="translate(265.151 161.339) scale(91.0916 46.2872)">
<stop stop-color="#B8F907"/>
<stop offset="1" stop-color="#B8F907" stop-opacity="0"/>
</radialGradient>
<radialGradient id="paint2_radial" cx="0" cy="0" r="1" gradientUnits="userSpaceOnUse" gradientTransform="translate(263.834 176.66) scale(47.4574 47.3679)">
<stop offset="0.287589" stop-color="#B8F907"/>
<stop offset="1" stop-color="#0F054C"/>
</radialGradient>
<linearGradient id="paint3_linear" x1="119.293" y1="164.652" x2="175.718" y2="197.291" gradientUnits="userSpaceOnUse">
<stop stop-color="#BCBEFF"/>
<stop offset="0.2271" stop-color="#AAADF8"/>
<stop offset="0.6802" stop-color="#7C83E5"/>
<stop offset="1" stop-color="#5761D7"/>
</linearGradient>
<linearGradient id="paint4_linear" x1="112.211" y1="176.954" x2="183.395" y2="176.954" gradientUnits="userSpaceOnUse">
<stop stop-color="#E9E9FD"/>
<stop offset="0.3601" stop-color="#D3D2F9"/>
<stop offset="0.7062" stop-color="#C5C4F7"/>
<stop offset="1" stop-color="#C0BFF6"/>
</linearGradient>
<linearGradient id="paint5_linear" x1="119.293" y1="123.212" x2="175.718" y2="155.851" gradientUnits="userSpaceOnUse">
<stop stop-color="#BCBEFF"/>
<stop offset="0.2271" stop-color="#AAADF8"/>
<stop offset="0.6802" stop-color="#7C83E5"/>
<stop offset="1" stop-color="#5761D7"/>
</linearGradient>
<linearGradient id="paint6_linear" x1="194.714" y1="150.869" x2="130.248" y2="145.698" gradientUnits="userSpaceOnUse">
<stop stop-color="#42E8E0"/>
<stop offset="0.00467455" stop-color="#42E6DF"/>
<stop offset="0.1358" stop-color="#40B6CB"/>
<stop offset="0.2707" stop-color="#3E8DB9"/>
<stop offset="0.4074" stop-color="#3C6BAA"/>
<stop offset="0.5467" stop-color="#3B519F"/>
<stop offset="0.6893" stop-color="#3A3F97"/>
<stop offset="0.8375" stop-color="#393493"/>
<stop offset="1" stop-color="#393091"/>
</linearGradient>
<linearGradient id="paint7_linear" x1="112.211" y1="135.515" x2="183.395" y2="135.515" gradientUnits="userSpaceOnUse">
<stop stop-color="#E9E9FD"/>
<stop offset="0.3601" stop-color="#D3D2F9"/>
<stop offset="0.7062" stop-color="#C5C4F7"/>
<stop offset="1" stop-color="#C0BFF6"/>
</linearGradient>
<linearGradient id="paint8_linear" x1="346.232" y1="113.116" x2="402.657" y2="145.754" gradientUnits="userSpaceOnUse">
<stop stop-color="#BCBEFF"/>
<stop offset="0.2271" stop-color="#AAADF8"/>
<stop offset="0.6802" stop-color="#7C83E5"/>
<stop offset="1" stop-color="#5761D7"/>
</linearGradient>
<linearGradient id="paint9_linear" x1="339.151" y1="125.418" x2="410.335" y2="125.418" gradientUnits="userSpaceOnUse">
<stop stop-color="#E9E9FD"/>
<stop offset="0.3601" stop-color="#D3D2F9"/>
<stop offset="0.7062" stop-color="#C5C4F7"/>
<stop offset="1" stop-color="#C0BFF6"/>
</linearGradient>
<linearGradient id="paint10_linear" x1="346.232" y1="71.6757" x2="402.657" y2="104.314" gradientUnits="userSpaceOnUse">
<stop stop-color="#BCBEFF"/>
<stop offset="0.2271" stop-color="#AAADF8"/>
<stop offset="0.6802" stop-color="#7C83E5"/>
<stop offset="1" stop-color="#5761D7"/>
</linearGradient>
<linearGradient id="paint11_linear" x1="346.232" y1="71.6757" x2="402.657" y2="104.314" gradientUnits="userSpaceOnUse">
<stop stop-color="#B8F907"/>
<stop offset="0.00467455" stop-color="#42E6DF"/>
<stop offset="0.8375" stop-color="#393493"/>
<stop offset="1" stop-color="#393091"/>
</linearGradient>
<linearGradient id="paint12_linear" x1="339.151" y1="83.9782" x2="410.335" y2="83.9782" gradientUnits="userSpaceOnUse">
<stop stop-color="#E9E9FD"/>
<stop offset="0.3601" stop-color="#D3D2F9"/>
<stop offset="0.7062" stop-color="#C5C4F7"/>
<stop offset="1" stop-color="#C0BFF6"/>
</linearGradient>
<linearGradient id="paint13_linear" x1="367.754" y1="212.613" x2="405.917" y2="234.687" gradientUnits="userSpaceOnUse">
<stop stop-color="#BCBEFF"/>
<stop offset="0.2271" stop-color="#AAADF8"/>
<stop offset="0.6802" stop-color="#7C83E5"/>
<stop offset="1" stop-color="#5761D7"/>
</linearGradient>
<linearGradient id="paint14_linear" x1="362.964" y1="220.933" x2="411.109" y2="220.933" gradientUnits="userSpaceOnUse">
<stop stop-color="#E9E9FD"/>
<stop offset="0.3601" stop-color="#D3D2F9"/>
<stop offset="0.7062" stop-color="#C5C4F7"/>
<stop offset="1" stop-color="#C0BFF6"/>
</linearGradient>
<linearGradient id="paint15_linear" x1="367.754" y1="184.549" x2="405.917" y2="206.624" gradientUnits="userSpaceOnUse">
<stop stop-color="#BCBEFF"/>
<stop offset="0.2271" stop-color="#AAADF8"/>
<stop offset="0.6802" stop-color="#7C83E5"/>
<stop offset="1" stop-color="#5761D7"/>
</linearGradient>
<linearGradient id="paint16_linear" x1="362.964" y1="192.87" x2="411.109" y2="192.87" gradientUnits="userSpaceOnUse">
<stop stop-color="#E9E9FD"/>
<stop offset="0.3601" stop-color="#D3D2F9"/>
<stop offset="0.7062" stop-color="#C5C4F7"/>
<stop offset="1" stop-color="#C0BFF6"/>
</linearGradient>
<linearGradient id="paint17_linear" x1="285.319" y1="237.513" x2="323.482" y2="259.588" gradientUnits="userSpaceOnUse">
<stop stop-color="#BCBEFF"/>
<stop offset="0.2271" stop-color="#AAADF8"/>
<stop offset="0.6802" stop-color="#7C83E5"/>
<stop offset="1" stop-color="#5761D7"/>
</linearGradient>
<linearGradient id="paint18_linear" x1="280.529" y1="245.834" x2="328.674" y2="245.834" gradientUnits="userSpaceOnUse">
<stop stop-color="#E9E9FD"/>
<stop offset="0.3601" stop-color="#D3D2F9"/>
<stop offset="0.7062" stop-color="#C5C4F7"/>
<stop offset="1" stop-color="#C0BFF6"/>
</linearGradient>
<linearGradient id="paint19_linear" x1="285.32" y1="207.414" x2="323.482" y2="229.488" gradientUnits="userSpaceOnUse">
<stop stop-color="#BCBEFF"/>
<stop offset="0.2271" stop-color="#AAADF8"/>
<stop offset="0.6802" stop-color="#7C83E5"/>
<stop offset="1" stop-color="#5761D7"/>
</linearGradient>
<linearGradient id="paint20_linear" x1="280.53" y1="215.734" x2="328.675" y2="215.734" gradientUnits="userSpaceOnUse">
<stop stop-color="#E9E9FD"/>
<stop offset="0.3601" stop-color="#D3D2F9"/>
<stop offset="0.7062" stop-color="#C5C4F7"/>
<stop offset="1" stop-color="#C0BFF6"/>
</linearGradient>
</defs>
</svg>
