<svg width="530" height="282" viewBox="0 0 530 282" fill="none" xmlns="http://www.w3.org/2000/svg">
<path d="M190.21 181.05C184.62 177.38 175.99 166.53 178.92 162.07C181.85 157.6 195.24 161.22 200.83 164.88C206.42 168.55 208.57 175.14 205.64 179.61C202.7 184.08 195.8 184.72 190.21 181.05Z" fill="url(#paint0_radial)"/>
<path d="M190.21 181.05C184.62 177.38 175.99 166.53 178.92 162.07C181.85 157.6 195.24 161.22 200.83 164.88C206.42 168.55 208.57 175.14 205.64 179.61C202.7 184.08 195.8 184.72 190.21 181.05Z" fill="url(#paint1_linear)"/>
<path d="M222.7 194.16C222.19 194.16 221.68 194.01 221.23 193.71L201.37 180.26C200.17 179.45 199.86 177.82 200.67 176.63C201.48 175.43 203.11 175.12 204.3 175.93L224.16 189.38C225.36 190.19 225.67 191.82 224.86 193.01C224.36 193.76 223.54 194.16 222.7 194.16Z" fill="#2FD3C7"/>
<path d="M317.86 254.44C316.82 254.44 315.85 253.82 315.43 252.8L301.04 217.24C300.5 215.9 301.14 214.37 302.48 213.83C303.82 213.28 305.34 213.93 305.89 215.27L320.28 250.83C320.82 252.17 320.18 253.7 318.84 254.24C318.52 254.38 318.19 254.44 317.86 254.44Z" fill="#2FD3C7"/>
<path d="M228.86 208.11C236.57 208.11 242.82 201.86 242.82 194.15C242.82 186.44 236.57 180.19 228.86 180.19C221.15 180.19 214.9 186.44 214.9 194.15C214.9 201.86 221.15 208.11 228.86 208.11Z" fill="url(#paint2_radial)"/>
<path d="M228.86 208.11C236.57 208.11 242.82 201.86 242.82 194.15C242.82 186.44 236.57 180.19 228.86 180.19C221.15 180.19 214.9 186.44 214.9 194.15C214.9 201.86 221.15 208.11 228.86 208.11Z" fill="url(#paint3_linear)"/>
<path d="M298.5 219.51C298.5 246.62 282.36 268.59 262.44 268.59C242.52 268.59 226.38 246.62 226.38 219.51C226.38 192.4 242.52 184.28 262.44 184.28C282.36 184.28 298.5 192.4 298.5 219.51Z" fill="url(#paint4_radial)"/>
<path d="M298.5 219.51C298.5 246.62 282.36 268.59 262.44 268.59C242.52 268.59 226.38 246.62 226.38 219.51C226.38 192.4 242.52 184.28 262.44 184.28C282.36 184.28 298.5 192.4 298.5 219.51Z" fill="url(#paint5_linear)"/>
<path d="M279.84 208.9C270.23 214.45 254.65 214.45 245.04 208.9C235.43 203.35 235.43 194.36 245.04 188.81C254.65 183.26 270.23 183.26 279.84 188.81C289.45 194.36 289.45 203.35 279.84 208.9Z" fill="#393091"/>
<path d="M245.04 192.59C254.65 187.04 270.23 187.04 279.84 192.59C283.81 194.88 286.13 197.76 286.82 200.74C287.8 196.5 285.48 192.06 279.84 188.8C270.23 183.25 254.65 183.25 245.04 188.8C239.4 192.06 237.07 196.5 238.06 200.74C238.75 197.76 241.07 194.88 245.04 192.59Z" fill="#42E8E0"/>
<path d="M251.71 146.36C251.71 152.98 247.06 161.03 241.33 164.34C235.6 167.65 230.95 164.97 230.95 158.35C230.95 151.73 235.6 143.68 241.33 140.37C247.06 137.06 251.71 139.74 251.71 146.36Z" fill="#BCBEFF"/>
<path d="M263.87 201.71C284.178 201.71 300.64 185.247 300.64 164.94C300.64 144.632 284.178 128.17 263.87 128.17C243.563 128.17 227.1 144.632 227.1 164.94C227.1 185.247 243.563 201.71 263.87 201.71Z" fill="url(#paint6_radial)"/>
<path d="M263.87 201.71C284.178 201.71 300.64 185.247 300.64 164.94C300.64 144.632 284.178 128.17 263.87 128.17C243.563 128.17 227.1 144.632 227.1 164.94C227.1 185.247 243.563 201.71 263.87 201.71Z" fill="url(#paint7_linear)"/>
<path d="M252.4 182.36C251.46 189.59 246 191.86 240.21 187.43C234.42 183 230.48 173.55 231.42 166.32C232.36 159.09 237.82 156.82 243.61 161.25C249.4 165.68 253.34 175.13 252.4 182.36Z" fill="#393091"/>
<path d="M247.61 176.1C247.27 178.73 245.29 179.55 243.18 177.94C241.07 176.33 239.64 172.89 239.99 170.27C240.33 167.64 242.32 166.82 244.42 168.43C246.53 170.04 247.96 173.47 247.61 176.1Z" fill="#42E8E0"/>
<path d="M242.99 186.38C237.2 181.95 233.26 172.5 234.2 165.27C234.58 162.32 235.72 160.2 237.32 159.02C234.29 159.3 232 161.87 231.42 166.33C230.48 173.56 234.42 183.01 240.21 187.44C243.64 190.06 246.95 190.34 249.28 188.62C247.39 188.79 245.22 188.08 242.99 186.38Z" fill="#453C9E"/>
<path d="M240.71 187.2C234.92 182.77 230.98 173.32 231.92 166.09C232.35 162.74 233.76 160.46 235.72 159.41C233.5 160.32 231.9 162.7 231.43 166.32C230.49 173.55 234.43 183 240.22 187.43C243.33 189.81 246.34 190.25 248.61 189.03C246.4 189.94 243.59 189.41 240.71 187.2Z" fill="#42E8E0"/>
<path d="M303.47 230.22C311.18 230.22 317.43 223.97 317.43 216.26C317.43 208.55 311.18 202.3 303.47 202.3C295.76 202.3 289.51 208.55 289.51 216.26C289.51 223.97 295.76 230.22 303.47 230.22Z" fill="url(#paint8_radial)"/>
<path d="M303.47 230.22C311.18 230.22 317.43 223.97 317.43 216.26C317.43 208.55 311.18 202.3 303.47 202.3C295.76 202.3 289.51 208.55 289.51 216.26C289.51 223.97 295.76 230.22 303.47 230.22Z" fill="url(#paint9_linear)"/>
<path d="M325.74 262.53C324.95 269.17 319.09 281.73 313.78 281.1C308.48 280.47 305.74 266.87 306.53 260.24C307.32 253.6 312.26 248.74 317.57 249.37C322.87 250 326.53 255.89 325.74 262.53Z" fill="url(#paint10_radial)"/>
<path d="M325.74 262.53C324.95 269.17 319.09 281.73 313.78 281.1C308.48 280.47 305.74 266.87 306.53 260.24C307.32 253.6 312.26 248.74 317.57 249.37C322.87 250 326.53 255.89 325.74 262.53Z" fill="url(#paint11_linear)"/>
<path d="M176.89 184.24C175.02 184.24 173.16 183.83 171.74 183.01L144.42 167.23C143 166.41 142.22 165.31 142.22 164.12C142.22 162.93 143 161.83 144.42 161.01L171.74 145.23C174.58 143.59 179.2 143.59 182.04 145.23L209.36 161.01C210.78 161.83 211.56 162.93 211.56 164.12C211.56 165.31 210.78 166.41 209.36 167.23L182.04 183.01C180.62 183.83 178.76 184.24 176.89 184.24ZM171.98 182.6C174.69 184.16 179.09 184.16 181.8 182.6L209.12 166.82C210.38 166.09 211.08 165.13 211.08 164.12C211.08 163.11 210.38 162.15 209.12 161.42L181.8 145.64C179.09 144.08 174.69 144.08 171.98 145.64L144.66 161.42C143.4 162.15 142.7 163.11 142.7 164.12C142.7 165.13 143.4 166.09 144.66 166.82L171.98 182.6Z" fill="#B8F907"/>
<path d="M176.8 142.61L143.76 123.53V161.69L176.8 180.77L209.85 161.69V123.53L176.8 142.61Z" fill="#42E8E0"/>
<path d="M176.8 180.77L143.76 161.69V123.53L176.8 142.61V180.77Z" fill="#262876"/>
<path d="M209.85 161.69L176.8 180.77V142.61L209.85 123.53V161.69Z" fill="#326C9E"/>
<path d="M176.8 142.61L143.76 123.53L176.8 104.46L209.85 123.54L176.8 142.61Z" fill="#42E8E0"/>
<path d="M176.8 155.85C176.76 155.85 176.71 155.84 176.67 155.82L174.4 154.51C174.28 154.44 174.24 154.29 174.31 154.17C174.38 154.05 174.53 154.01 174.65 154.08L176.79 155.32L178.93 154.08C179.05 154.01 179.2 154.05 179.27 154.17C179.34 154.29 179.3 154.44 179.18 154.51L176.91 155.82C176.89 155.84 176.85 155.85 176.8 155.85Z" fill="#293922"/>
<path d="M169.9 151.86C169.86 151.86 169.81 151.85 169.77 151.83L165.13 149.15C165.01 149.08 164.97 148.93 165.04 148.81C165.11 148.69 165.26 148.65 165.38 148.72L170.02 151.4C170.14 151.47 170.18 151.62 170.11 151.74C170.07 151.82 169.99 151.86 169.9 151.86ZM160.63 146.51C160.59 146.51 160.54 146.5 160.5 146.48L155.86 143.8C155.74 143.73 155.7 143.58 155.77 143.46C155.84 143.34 155.99 143.3 156.11 143.37L160.75 146.05C160.87 146.12 160.91 146.27 160.84 146.39C160.8 146.46 160.71 146.51 160.63 146.51ZM151.35 141.16C151.31 141.16 151.26 141.15 151.22 141.13L146.58 138.45C146.46 138.38 146.42 138.23 146.49 138.11C146.56 137.99 146.71 137.95 146.83 138.02L151.47 140.7C151.59 140.77 151.63 140.92 151.56 141.04C151.52 141.11 151.44 141.16 151.35 141.16ZM142.08 135.8C142.04 135.8 141.99 135.79 141.95 135.77L137.31 133.09C137.19 133.02 137.15 132.87 137.22 132.75C137.29 132.63 137.44 132.59 137.56 132.66L142.2 135.34C142.32 135.41 142.36 135.56 142.29 135.68C142.25 135.76 142.17 135.8 142.08 135.8ZM132.81 130.45C132.77 130.45 132.72 130.44 132.68 130.42L128.04 127.74C127.92 127.67 127.88 127.52 127.95 127.4C128.02 127.28 128.17 127.24 128.29 127.31L132.93 129.99C133.05 130.06 133.09 130.21 133.02 130.33C132.98 130.4 132.89 130.45 132.81 130.45Z" fill="#293922"/>
<path d="M123.53 125.09C123.49 125.09 123.44 125.08 123.4 125.06L121.13 123.75C121.05 123.71 121 123.62 121 123.53C121 123.44 121.05 123.36 121.13 123.31L123.4 122C123.52 121.93 123.67 121.97 123.74 122.09C123.81 122.21 123.77 122.36 123.65 122.43L121.76 123.52L123.65 124.61C123.77 124.68 123.81 124.83 123.74 124.95C123.7 125.05 123.62 125.09 123.53 125.09Z" fill="#293922"/>
<path d="M128.17 119.8C128.08 119.8 128 119.76 127.95 119.67C127.88 119.55 127.92 119.4 128.04 119.33L132.68 116.65C132.8 116.58 132.95 116.62 133.02 116.74C133.09 116.86 133.05 117.01 132.93 117.08L128.29 119.76C128.26 119.79 128.21 119.8 128.17 119.8ZM137.44 114.45C137.35 114.45 137.27 114.41 137.22 114.32C137.15 114.2 137.19 114.05 137.31 113.98L141.95 111.3C142.07 111.23 142.22 111.27 142.29 111.39C142.36 111.51 142.32 111.66 142.2 111.73L137.56 114.41C137.53 114.43 137.49 114.45 137.44 114.45ZM146.72 109.09C146.63 109.09 146.55 109.05 146.5 108.96C146.43 108.84 146.47 108.69 146.59 108.62L151.23 105.94C151.35 105.87 151.5 105.91 151.57 106.03C151.64 106.15 151.6 106.3 151.48 106.37L146.84 109.05C146.8 109.08 146.76 109.09 146.72 109.09ZM155.99 103.74C155.9 103.74 155.82 103.7 155.77 103.61C155.7 103.49 155.74 103.34 155.86 103.27L160.5 100.59C160.62 100.52 160.77 100.56 160.84 100.68C160.91 100.8 160.87 100.95 160.75 101.02L156.11 103.7C156.08 103.73 156.03 103.74 155.99 103.74ZM165.26 98.38C165.17 98.38 165.09 98.34 165.04 98.25C164.97 98.13 165.01 97.98 165.13 97.91L169.77 95.23C169.89 95.16 170.04 95.2 170.11 95.32C170.18 95.44 170.14 95.59 170.02 95.66L165.38 98.34C165.35 98.37 165.31 98.38 165.26 98.38Z" fill="#293922"/>
<path d="M179.07 93.03C179.03 93.03 178.98 93.02 178.94 93L176.8 91.76L174.66 93C174.54 93.07 174.39 93.03 174.32 92.91C174.25 92.79 174.29 92.64 174.41 92.57L176.68 91.26C176.76 91.22 176.85 91.22 176.93 91.26L179.2 92.57C179.32 92.64 179.36 92.79 179.29 92.91C179.24 92.99 179.16 93.03 179.07 93.03Z" fill="#293922"/>
<path d="M225.44 119.8C225.4 119.8 225.35 119.79 225.31 119.77L220.67 117.09C220.55 117.02 220.51 116.87 220.58 116.75C220.65 116.63 220.8 116.59 220.92 116.66L225.56 119.34C225.68 119.41 225.72 119.56 225.65 119.68C225.61 119.75 225.52 119.8 225.44 119.8ZM216.16 114.45C216.12 114.45 216.07 114.44 216.03 114.42L211.39 111.74C211.27 111.67 211.23 111.52 211.3 111.4C211.37 111.28 211.52 111.24 211.64 111.31L216.28 113.99C216.4 114.06 216.44 114.21 216.37 114.33C216.33 114.4 216.25 114.45 216.16 114.45ZM206.89 109.09C206.85 109.09 206.8 109.08 206.76 109.06L202.12 106.38C202 106.31 201.96 106.16 202.03 106.04C202.1 105.92 202.25 105.88 202.37 105.95L207.01 108.63C207.13 108.7 207.17 108.85 207.1 108.97C207.06 109.05 206.98 109.09 206.89 109.09ZM197.62 103.74C197.58 103.74 197.53 103.73 197.49 103.71L192.85 101.03C192.73 100.96 192.69 100.81 192.76 100.69C192.83 100.57 192.98 100.53 193.1 100.6L197.74 103.28C197.86 103.35 197.9 103.5 197.83 103.62C197.79 103.69 197.7 103.74 197.62 103.74ZM188.34 98.38C188.3 98.38 188.25 98.37 188.21 98.35L183.57 95.67C183.45 95.6 183.41 95.45 183.48 95.33C183.55 95.21 183.7 95.17 183.82 95.24L188.46 97.92C188.58 97.99 188.62 98.14 188.55 98.26C188.51 98.34 188.43 98.38 188.34 98.38Z" fill="#293922"/>
<path d="M230.07 125.09C229.98 125.09 229.9 125.05 229.85 124.96C229.78 124.84 229.82 124.69 229.94 124.62L231.83 123.53L229.94 122.44C229.82 122.37 229.78 122.22 229.85 122.1C229.92 121.98 230.07 121.94 230.19 122.01L232.46 123.32C232.54 123.36 232.59 123.45 232.59 123.54C232.59 123.63 232.54 123.71 232.46 123.76L230.19 125.07C230.16 125.08 230.12 125.09 230.07 125.09Z" fill="#293922"/>
<path d="M183.71 151.86C183.62 151.86 183.54 151.82 183.49 151.73C183.42 151.61 183.46 151.46 183.58 151.39L188.22 148.71C188.34 148.64 188.49 148.68 188.56 148.8C188.63 148.92 188.59 149.07 188.47 149.14L183.83 151.82C183.79 151.85 183.75 151.86 183.71 151.86ZM192.98 146.51C192.89 146.51 192.81 146.47 192.76 146.38C192.69 146.26 192.73 146.11 192.85 146.04L197.49 143.36C197.61 143.29 197.76 143.33 197.83 143.45C197.9 143.57 197.86 143.72 197.74 143.79L193.1 146.47C193.07 146.5 193.02 146.51 192.98 146.51ZM202.25 141.16C202.16 141.16 202.08 141.12 202.03 141.03C201.96 140.91 202 140.76 202.12 140.69L206.76 138.01C206.88 137.94 207.03 137.98 207.1 138.1C207.17 138.22 207.13 138.37 207.01 138.44L202.37 141.12C202.34 141.14 202.3 141.16 202.25 141.16ZM211.53 135.8C211.44 135.8 211.36 135.76 211.31 135.67C211.24 135.55 211.28 135.4 211.4 135.33L216.04 132.65C216.16 132.58 216.31 132.62 216.38 132.74C216.45 132.86 216.41 133.01 216.29 133.08L211.65 135.76C211.61 135.79 211.57 135.8 211.53 135.8ZM220.8 130.45C220.71 130.45 220.63 130.41 220.58 130.32C220.51 130.2 220.55 130.05 220.67 129.98L225.31 127.3C225.43 127.23 225.58 127.27 225.65 127.39C225.72 127.51 225.68 127.66 225.56 127.73L220.92 130.41C220.89 130.44 220.84 130.45 220.8 130.45Z" fill="#293922"/>
<path d="M176.8 142.61L143.76 123.53V125.19L176.8 144.27L209.85 125.19V123.53L176.8 142.61Z" fill="#293922"/>
<path d="M294.91 178.39L281.59 186.09V170.7L294.91 163.01V178.39Z" fill="#251C72"/>
<path opacity="0.8" d="M292.93 164.16V177.32L281.59 183.87V186.09L294.91 178.39V163.01L292.93 164.16Z" fill="url(#paint12_radial)"/>
<path d="M284.13 174.91L282.94 175.6V174.22L284.13 173.53V174.91Z" fill="#42E8E0"/>
<path d="M286.66 173.45L285.47 174.13V172.76L286.66 172.07V173.45Z" fill="#42E8E0"/>
<path d="M289.2 171.98L288 172.67V171.29L289.2 170.6V171.98Z" fill="#42E8E0"/>
<path d="M289.2 175.6L288 176.28V174.91L289.2 174.22V175.6Z" fill="#42E8E0"/>
<path d="M287.67 178.37L286.48 179.06V177.69L287.67 177V178.37Z" fill="#42E8E0"/>
<path d="M291.81 174.09L290.61 174.78V173.4L291.81 172.71V174.09Z" fill="#42E8E0"/>
<path d="M298.5 178.34C298.45 178.34 298.41 178.33 298.36 178.3L297.23 177.57C297.11 177.49 297.08 177.34 297.16 177.22C297.24 177.1 297.39 177.07 297.51 177.15L298.51 177.8L301.79 175.99C301.91 175.92 302.06 175.97 302.13 176.09C302.2 176.21 302.15 176.36 302.03 176.43L298.62 178.31C298.58 178.33 298.54 178.34 298.5 178.34ZM292.98 174.75C292.93 174.75 292.89 174.74 292.84 174.71L288.45 171.85C288.33 171.77 288.3 171.62 288.38 171.5C288.46 171.38 288.61 171.35 288.73 171.43L293.12 174.29C293.24 174.37 293.27 174.52 293.19 174.64C293.15 174.71 293.07 174.75 292.98 174.75ZM306.49 173.93C306.4 173.93 306.32 173.88 306.27 173.8C306.2 173.68 306.25 173.53 306.37 173.46L310.95 170.93C311.07 170.86 311.22 170.91 311.29 171.03C311.36 171.15 311.31 171.3 311.19 171.37L306.61 173.9C306.57 173.92 306.53 173.93 306.49 173.93ZM315.65 168.88C315.56 168.88 315.48 168.83 315.43 168.75C315.36 168.63 315.41 168.48 315.53 168.41L320.11 165.88C320.23 165.81 320.38 165.86 320.45 165.98C320.52 166.1 320.47 166.25 320.35 166.32L315.77 168.85C315.74 168.87 315.7 168.88 315.65 168.88ZM324.82 163.82C324.73 163.82 324.65 163.77 324.6 163.69C324.53 163.57 324.58 163.42 324.7 163.35L329.28 160.82C329.4 160.75 329.55 160.8 329.62 160.92C329.69 161.04 329.64 161.19 329.52 161.26L324.94 163.79C324.9 163.81 324.86 163.82 324.82 163.82ZM333.99 158.77C333.9 158.77 333.82 158.72 333.77 158.64C333.7 158.52 333.75 158.37 333.87 158.3L335.63 157.33L333.59 156.25C333.47 156.18 333.42 156.03 333.49 155.91C333.56 155.79 333.71 155.74 333.83 155.81L336.27 157.11C336.35 157.15 336.4 157.24 336.4 157.33C336.4 157.42 336.35 157.51 336.27 157.55L334.11 158.74C334.07 158.76 334.03 158.77 333.99 158.77ZM329.09 153.82C329.05 153.82 329.01 153.81 328.97 153.79L324.35 151.33C324.23 151.26 324.18 151.11 324.25 150.99C324.32 150.87 324.47 150.82 324.59 150.89L329.21 153.35C329.33 153.42 329.38 153.57 329.31 153.69C329.26 153.77 329.18 153.82 329.09 153.82ZM319.85 148.89C319.81 148.89 319.77 148.88 319.73 148.86L315.11 146.4C314.99 146.33 314.94 146.18 315.01 146.06C315.08 145.94 315.23 145.89 315.35 145.96L319.97 148.42C320.09 148.49 320.14 148.64 320.07 148.76C320.02 148.85 319.94 148.89 319.85 148.89ZM310.61 143.97C310.57 143.97 310.53 143.96 310.49 143.94L305.87 141.48C305.75 141.41 305.7 141.26 305.77 141.14C305.84 141.02 305.99 140.97 306.11 141.04L310.73 143.5C310.85 143.57 310.9 143.72 310.83 143.84C310.79 143.92 310.7 143.97 310.61 143.97ZM301.37 139.05C301.33 139.05 301.29 139.04 301.25 139.02L296.63 136.56C296.51 136.49 296.46 136.34 296.53 136.22C296.59 136.1 296.75 136.05 296.87 136.12L301.49 138.58C301.61 138.65 301.66 138.8 301.59 138.92C301.55 139 301.46 139.05 301.37 139.05ZM292.13 134.13C292.09 134.13 292.05 134.12 292.01 134.1L287.39 131.64C287.27 131.57 287.22 131.42 287.29 131.3C287.36 131.18 287.51 131.13 287.63 131.2L292.25 133.66C292.37 133.73 292.42 133.88 292.35 134C292.31 134.08 292.22 134.13 292.13 134.13ZM282.89 129.21C282.85 129.21 282.81 129.2 282.77 129.18L278.15 126.72C278.03 126.65 277.98 126.5 278.05 126.38C278.12 126.26 278.27 126.21 278.39 126.28L283.01 128.74C283.13 128.81 283.18 128.96 283.11 129.08C283.07 129.16 282.98 129.21 282.89 129.21ZM273.65 124.29C273.61 124.29 273.57 124.28 273.53 124.26L268.91 121.8C268.79 121.74 268.74 121.58 268.81 121.46C268.88 121.34 269.03 121.29 269.15 121.36L273.77 123.82C273.89 123.88 273.94 124.04 273.87 124.16C273.83 124.24 273.74 124.29 273.65 124.29ZM264.41 119.36C264.37 119.36 264.33 119.35 264.29 119.33L259.67 116.87C259.55 116.8 259.5 116.65 259.57 116.53C259.63 116.41 259.79 116.36 259.91 116.43L264.53 118.89C264.65 118.96 264.7 119.11 264.63 119.23C264.59 119.32 264.5 119.36 264.41 119.36ZM255.17 114.44C255.13 114.44 255.09 114.43 255.05 114.41L250.43 111.95C250.31 111.88 250.26 111.73 250.33 111.61C250.4 111.49 250.55 111.44 250.67 111.51L255.29 113.97C255.41 114.04 255.46 114.19 255.39 114.31C255.35 114.39 255.26 114.44 255.17 114.44ZM245.93 109.52C245.89 109.52 245.85 109.51 245.81 109.49L241.19 107.03C241.07 106.96 241.02 106.81 241.09 106.69C241.16 106.57 241.31 106.52 241.43 106.59L246.05 109.05C246.17 109.12 246.22 109.27 246.15 109.39C246.11 109.47 246.02 109.52 245.93 109.52ZM204.73 107.27C204.64 107.27 204.56 107.23 204.51 107.15C204.44 107.03 204.48 106.88 204.6 106.81L209.12 104.18C209.24 104.11 209.39 104.15 209.46 104.27C209.53 104.39 209.49 104.54 209.37 104.61L204.85 107.24C204.81 107.26 204.77 107.27 204.73 107.27ZM236.69 104.6C236.65 104.6 236.61 104.59 236.57 104.57L231.95 102.11C231.83 102.04 231.78 101.89 231.85 101.77C231.92 101.65 232.07 101.6 232.19 101.67L236.81 104.13C236.93 104.2 236.98 104.35 236.91 104.47C236.87 104.55 236.78 104.6 236.69 104.6ZM213.78 102.01C213.69 102.01 213.61 101.97 213.56 101.89C213.49 101.77 213.53 101.62 213.65 101.55L218.17 98.92C218.29 98.85 218.44 98.89 218.51 99.01C218.58 99.13 218.54 99.28 218.42 99.35L213.9 101.98C213.86 102 213.82 102.01 213.78 102.01ZM227.45 99.68C227.41 99.68 227.37 99.67 227.33 99.65L222.71 97.19C222.59 97.12 222.54 96.97 222.61 96.85C222.68 96.73 222.83 96.68 222.95 96.75L227.57 99.21C227.69 99.28 227.74 99.43 227.67 99.55C227.63 99.63 227.54 99.68 227.45 99.68Z" fill="#293922"/>
<path d="M305.64 174.34L307.1 171.81L305.64 170.97L292.32 178.66V194.05L293.78 194.88L295.24 192.36L305.64 186.35V174.34Z" fill="url(#paint13_linear)"/>
<path d="M307.1 187.19L293.78 194.88V179.5L307.1 171.81V187.19Z" fill="url(#paint14_linear)"/>
<path d="M307.1 187.19L293.78 194.88V179.5L307.1 171.81V187.19Z" fill="url(#paint15_linear)"/>
<g opacity="0.3">
<path opacity="0.3" d="M211.206 142.792V136.808L209.549 135.886C209.082 138.718 205.756 140.575 202.977 140.962L184.049 152.036L175.78 155.015L149.411 141.403L150.025 141.056C147.768 140 146.552 137.596 145.337 135.392L143.56 136.447L142.505 136.741V142.886C142.505 144.061 143.28 145.237 144.829 146.118L171.252 161.373C174.351 163.163 179.373 163.163 182.472 161.373L208.895 146.118C210.418 145.237 211.192 144.088 211.219 142.939C211.206 142.886 211.206 142.846 211.206 142.792Z" fill="url(#paint16_linear)"/>
<g opacity="0.3">
<path opacity="0.3" d="M164.967 151.602L138.544 136.347C135.445 134.557 135.445 131.658 138.544 129.868L164.967 114.613C168.066 112.823 173.088 112.823 176.188 114.613L202.61 129.868C205.709 131.658 205.709 134.557 202.61 136.347L176.188 151.602C173.102 153.392 168.066 153.392 164.967 151.602Z" fill="url(#paint17_linear)"/>
</g>
<g opacity="0.3">
<path opacity="0.3" d="M171.238 155.295L144.816 140.04C141.717 138.25 141.717 135.352 144.816 133.562L171.238 118.307C174.337 116.517 179.36 116.517 182.459 118.307L208.882 133.562C211.981 135.352 211.981 138.25 208.882 140.04L182.459 155.295C179.373 157.085 174.337 157.085 171.238 155.295Z" fill="#0F054C"/>
</g>
</g>
<path d="M211.207 128.569V122.584L209.55 121.662C209.083 124.494 205.757 126.351 202.978 126.739L184.036 137.812L175.768 140.791L149.399 127.179L150.013 126.832C147.756 125.777 146.54 123.372 145.325 121.168L143.548 122.224L142.493 122.517V128.662C142.493 129.838 143.267 131.013 144.817 131.895L171.239 147.163C174.338 148.953 179.361 148.953 182.46 147.163L208.883 131.908C210.405 131.027 211.18 129.878 211.207 128.729C211.207 128.675 211.207 128.622 211.207 128.569Z" fill="url(#paint18_linear)"/>
<path opacity="0.3" d="M202.978 126.739L184.036 137.813L176.849 140.404V148.5C178.88 148.5 180.91 148.059 182.46 147.164L208.882 131.909C210.405 131.027 211.18 129.878 211.206 128.729C211.206 128.676 211.206 128.623 211.206 128.569V122.585L209.697 121.743H209.537C209.016 124.522 205.73 126.352 202.978 126.739Z" fill="#0F054C"/>
<path d="M150.013 126.832L175.046 112.379C176.034 111.804 177.651 111.804 178.639 112.379L203.245 126.578L202.978 126.739C205.756 126.351 209.082 124.495 209.55 121.663L181.939 106.301L173.91 104.177L167.365 108.024L145.324 121.168C146.539 123.372 147.755 125.777 150.013 126.832Z" fill="url(#paint19_linear)"/>
<path opacity="0.3" d="M176.849 104.965L173.897 104.191L167.352 108.038L145.311 121.182C146.526 123.373 147.742 125.791 150 126.846L175.033 112.393C175.527 112.112 176.182 111.965 176.836 111.965V104.965H176.849Z" fill="#0F054C"/>
<path d="M171.239 141.072L144.816 125.817C141.717 124.027 141.717 121.128 144.816 119.338L171.239 104.083C174.338 102.293 179.36 102.293 182.46 104.083L208.882 119.338C211.981 121.128 211.981 124.027 208.882 125.817L182.46 141.072C179.374 142.862 174.338 142.862 171.239 141.072ZM178.652 106.288C177.664 105.713 176.048 105.713 175.059 106.288L148.637 121.543C147.648 122.117 147.648 123.039 148.637 123.613L175.059 138.868C176.048 139.442 177.664 139.442 178.652 138.868L205.075 123.613C206.063 123.039 206.063 122.117 205.075 121.543L178.652 106.288Z" fill="url(#paint20_linear)"/>
<path d="M205.075 121.542L178.653 106.287C177.664 105.713 176.048 105.713 175.059 106.287L148.637 121.542C147.982 121.93 147.755 122.464 147.982 122.958C148.089 122.718 148.316 122.491 148.637 122.29L175.059 107.035C176.048 106.461 177.664 106.461 178.653 107.035L205.075 122.29C205.409 122.477 205.623 122.704 205.73 122.958C205.943 122.464 205.73 121.93 205.075 121.542Z" fill="white"/>
<path d="M208.882 125.817L182.46 141.072C179.36 142.862 174.338 142.862 171.239 141.072L144.816 125.817C143.427 125.016 142.666 124 142.519 122.945C142.332 124.241 143.106 125.563 144.816 126.552L171.239 141.82C174.338 143.61 179.36 143.61 182.46 141.82L208.882 126.565C210.592 125.577 211.353 124.241 211.18 122.958C211.033 124 210.271 125.029 208.882 125.817Z" fill="white"/>
<path d="M171.987 140.645L145.564 125.39C142.879 123.84 142.879 121.316 145.564 119.766L171.987 104.511C174.672 102.961 179.04 102.961 181.711 104.511L208.134 119.766C210.819 121.316 210.819 123.84 208.134 125.376L181.711 140.631C179.026 142.194 174.672 142.194 171.987 140.645ZM179.387 105.86C177.984 105.045 175.7 105.045 174.298 105.86L147.875 121.115C146.473 121.93 146.473 123.239 147.875 124.054L174.298 139.309C175.7 140.124 177.984 140.124 179.387 139.309L205.809 124.054C207.212 123.239 207.212 121.93 205.809 121.115L179.387 105.86Z" fill="url(#paint21_linear)"/>
<path opacity="0.4" d="M178.652 106.288C177.664 105.714 176.047 105.714 175.059 106.288L148.637 121.543C147.648 122.117 147.648 123.039 148.637 123.613L175.059 138.868C176.047 139.443 177.664 139.443 178.652 138.868L205.075 123.613C206.063 123.039 206.063 122.117 205.075 121.543L178.652 106.288Z" fill="#98EF10"/>
<path opacity="0.5" d="M205.81 122.558V28.3159H147.889V122.558C147.875 122.945 148.129 123.319 148.623 123.613L175.046 138.868C176.034 139.442 177.651 139.442 178.639 138.868L205.062 123.613C205.569 123.332 205.823 122.945 205.81 122.558Z" fill="url(#paint22_linear)"/>
<path d="M176.807 125.156C169.504 125.156 162.201 123.553 156.646 120.336C151.091 117.118 148.21 112.997 148.21 108.514C148.21 104.031 151.211 99.8374 156.646 96.6921C167.757 90.2812 185.845 90.2691 196.968 96.6921C202.414 99.8374 205.403 104.031 205.403 108.514C205.403 112.997 202.402 117.19 196.968 120.336C191.364 123.565 184.134 125.156 176.807 125.156ZM176.807 92.5226C169.9 92.3863 163.072 94.0165 156.971 97.2585C151.741 100.283 148.849 104.284 148.849 108.526C148.849 112.768 151.729 116.769 156.971 119.793C167.913 126.108 185.7 126.108 196.642 119.793C201.872 116.769 204.764 112.768 204.764 108.538C204.764 104.308 201.884 100.295 196.642 97.2706C190.542 94.0285 183.714 92.3983 176.807 92.5346V92.5226Z" fill="#98EF10"/>
<path opacity="0.5" d="M176.807 108.851C169.504 108.851 162.201 107.248 156.646 104.031C151.091 100.813 148.21 96.6796 148.21 92.2088C148.21 87.738 151.211 83.5203 156.646 80.3871C167.757 73.9641 185.845 73.9641 196.968 80.3871C202.414 83.5323 205.403 87.726 205.403 92.2088C205.403 96.6917 202.402 100.885 196.968 104.031C191.533 107.176 184.134 108.851 176.807 108.851ZM176.807 76.2175C169.9 76.0812 163.072 77.7114 156.971 80.9535C151.741 83.9782 148.849 87.979 148.849 92.2208C148.849 96.4627 151.729 100.464 156.971 103.488C167.913 109.803 185.7 109.803 196.642 103.488C201.872 100.464 204.764 96.4627 204.764 92.2208C204.764 87.979 201.884 83.9782 196.642 80.9535C190.543 77.7072 183.715 76.0729 176.807 76.2055V76.2175Z" fill="#98EF10"/>
<path opacity="0.3" d="M176.807 92.5223C169.504 92.5223 162.201 90.9196 156.646 87.702C151.091 84.4845 148.21 80.3632 148.21 75.8803C148.21 71.3975 151.211 67.2038 156.646 64.0586C167.757 57.6356 185.845 57.6476 196.968 64.0586C202.414 67.2038 205.403 71.3975 205.403 75.8803C205.403 80.3632 202.402 84.5568 196.968 87.702C191.533 90.8473 184.134 92.5223 176.807 92.5223ZM176.807 59.889C169.9 59.7528 163.072 61.3829 156.971 64.625C151.741 67.6497 148.849 71.6505 148.849 75.8924C148.849 80.1342 151.729 84.135 156.971 87.1598C167.913 93.4743 185.7 93.4743 196.642 87.1598C201.872 84.135 204.764 80.1342 204.764 75.8924C204.764 71.6505 201.884 67.6497 196.642 64.625C190.542 61.3829 183.714 59.7528 176.807 59.889Z" fill="#98EF10"/>
<path opacity="0.1" d="M176.807 76.1935C169.504 76.1935 162.201 74.5907 156.646 71.3732C151.091 68.1556 148.21 64.0343 148.21 59.5515C148.21 55.0686 151.211 50.875 156.646 47.7297C167.757 41.3067 185.845 41.3188 196.968 47.7297C202.414 50.875 205.403 55.0686 205.403 59.5515C205.403 64.0343 202.402 68.228 196.968 71.3732C191.533 74.5184 184.134 76.1935 176.807 76.1935ZM176.807 43.5602C169.9 43.4239 163.072 45.0541 156.971 48.2961C151.741 51.3208 148.849 55.3217 148.849 59.5635C148.849 63.8054 151.729 67.8062 156.971 70.8309C167.913 77.1455 185.7 77.1455 196.642 70.8309C201.872 67.8062 204.764 63.8054 204.764 59.5635C204.764 55.3217 201.884 51.3208 196.642 48.2961C190.542 45.0541 183.714 43.4239 176.807 43.5602Z" fill="#98EF10"/>
<path d="M149.681 105.308C150.453 105.308 151.078 104.682 151.078 103.91C151.078 103.138 150.453 102.512 149.681 102.512C148.909 102.512 148.283 103.138 148.283 103.91C148.283 104.682 148.909 105.308 149.681 105.308Z" fill="#68A213"/>
<path d="M193.424 96.788C194.197 96.788 194.822 96.1621 194.822 95.3901C194.822 94.618 194.197 93.9922 193.424 93.9922C192.652 93.9922 192.027 94.618 192.027 95.3901C192.027 96.1621 192.652 96.788 193.424 96.788Z" fill="#68A213"/>
<path d="M178.964 77.2782C179.736 77.2782 180.362 76.6523 180.362 75.8803C180.362 75.1083 179.736 74.4824 178.964 74.4824C178.192 74.4824 177.566 75.1083 177.566 75.8803C177.566 76.6523 178.192 77.2782 178.964 77.2782Z" fill="#68A213"/>
<path d="M156.983 65.6612C157.755 65.6612 158.381 65.0354 158.381 64.2634C158.381 63.4913 157.755 62.8655 156.983 62.8655C156.211 62.8655 155.586 63.4913 155.586 64.2634C155.586 65.0354 156.211 65.6612 156.983 65.6612Z" fill="#68A213"/>
<path d="M202.077 53.671C202.849 53.671 203.475 53.0452 203.475 52.2731C203.475 51.5011 202.849 50.8752 202.077 50.8752C201.305 50.8752 200.679 51.5011 200.679 52.2731C200.679 53.0452 201.305 53.671 202.077 53.671Z" fill="#68A213"/>
<path d="M184.618 54.796C185.39 54.796 186.015 54.1702 186.015 53.3981C186.015 52.6261 185.39 52.0002 184.618 52.0002C183.846 52.0002 183.22 52.6261 183.22 53.3981C183.22 54.1702 183.846 54.796 184.618 54.796Z" fill="#68A213"/>
<mask id="mask0" mask-type="alpha" maskUnits="userSpaceOnUse" x="159" y="6" width="23" height="39">
<path d="M170.408 15.6863L164.828 6L159.236 15.6863L164.79 25.3726L170.343 35.0588L175.935 44.7451L181.528 35.0588L175.961 25.3726L170.408 15.6863Z" fill="#C4C4C4"/>
</mask>
<g mask="url(#mask0)">
<rect x="142.446" y="61.4053" width="55.793" height="55.793" transform="rotate(-90 142.446 61.4053)" fill="#FF4646"/>
<rect x="142.446" y="61.4053" width="55.793" height="55.793" transform="rotate(-90 142.446 61.4053)" fill="url(#paint23_linear)"/>
</g>
<mask id="mask1" mask-type="alpha" maskUnits="userSpaceOnUse" x="181" y="6" width="23" height="39">
<path d="M192.88 15.6863L187.301 6L181.708 15.6863L187.262 25.3726L192.815 35.0588L198.408 44.7451L204 35.0588L198.433 25.3726L192.88 15.6863Z" fill="#C4C4C4"/>
</mask>
<g mask="url(#mask1)">
<path d="M148.387 61.4053L148.387 5.61231L204.18 5.61231L204.18 61.4053L148.387 61.4053Z" fill="#FF4646"/>
<path d="M148.387 61.4053L148.387 5.61231L204.18 5.61231L204.18 61.4053L148.387 61.4053Z" fill="url(#paint24_linear)"/>
</g>
<mask id="mask2" mask-type="alpha" maskUnits="userSpaceOnUse" x="148" y="25" width="12" height="20">
<path d="M159.185 35.0588L153.592 25.3726L148 35.0588L153.592 44.7451L159.185 35.0588Z" fill="#C4C4C4"/>
</mask>
<g mask="url(#mask2)">
<rect x="148" y="49.3943" width="55.793" height="55.793" transform="rotate(-90 148 49.3943)" fill="#FF4646"/>
<rect x="148" y="49.3943" width="55.793" height="55.793" transform="rotate(-90 148 49.3943)" fill="url(#paint25_linear)"/>
</g>
<defs>
<radialGradient id="paint0_radial" cx="0" cy="0" r="1" gradientUnits="userSpaceOnUse" gradientTransform="translate(212.94 188.524) rotate(123.285) scale(24.7662 40.8003)">
<stop stop-color="#C0BFF6"/>
<stop offset="1" stop-color="#393091"/>
</radialGradient>
<linearGradient id="paint1_linear" x1="199.102" y1="182.845" x2="193.92" y2="161.398" gradientUnits="userSpaceOnUse">
<stop stop-color="#42E8E0"/>
<stop offset="0.00467455" stop-color="#42E6DF"/>
<stop offset="0.1358" stop-color="#40B6CB"/>
<stop offset="0.2707" stop-color="#3E8DB9"/>
<stop offset="0.4074" stop-color="#3C6BAA"/>
<stop offset="0.5467" stop-color="#3B519F"/>
<stop offset="0.6893" stop-color="#3A3F97"/>
<stop offset="0.8375" stop-color="#393493"/>
<stop offset="1" stop-color="#393091"/>
</linearGradient>
<radialGradient id="paint2_radial" cx="0" cy="0" r="1" gradientUnits="userSpaceOnUse" gradientTransform="translate(295.648 149.536) rotate(11.1976) scale(80.6102)">
<stop stop-color="#C0BFF6"/>
<stop offset="1" stop-color="#393091"/>
</radialGradient>
<linearGradient id="paint3_linear" x1="221.354" y1="205.93" x2="236.358" y2="182.373" gradientUnits="userSpaceOnUse">
<stop stop-color="#42E8E0"/>
<stop offset="0.00467455" stop-color="#42E6DF"/>
<stop offset="0.1358" stop-color="#40B6CB"/>
<stop offset="0.2707" stop-color="#3E8DB9"/>
<stop offset="0.4074" stop-color="#3C6BAA"/>
<stop offset="0.5467" stop-color="#3B519F"/>
<stop offset="0.6893" stop-color="#3A3F97"/>
<stop offset="0.8375" stop-color="#393493"/>
<stop offset="1" stop-color="#393091"/>
</linearGradient>
<radialGradient id="paint4_radial" cx="0" cy="0" r="1" gradientUnits="userSpaceOnUse" gradientTransform="translate(283.714 212.154) scale(61.9631 84.3481)">
<stop stop-color="#C0BFF6"/>
<stop offset="1" stop-color="#393091"/>
</radialGradient>
<linearGradient id="paint5_linear" x1="262.441" y1="268.592" x2="262.441" y2="184.279" gradientUnits="userSpaceOnUse">
<stop stop-color="#42E8E0"/>
<stop offset="0.00467455" stop-color="#42E6DF"/>
<stop offset="0.1358" stop-color="#40B6CB"/>
<stop offset="0.2707" stop-color="#3E8DB9"/>
<stop offset="0.4074" stop-color="#3C6BAA"/>
<stop offset="0.5467" stop-color="#3B519F"/>
<stop offset="0.6893" stop-color="#3A3F97"/>
<stop offset="0.8375" stop-color="#393493"/>
<stop offset="1" stop-color="#393091"/>
</linearGradient>
<radialGradient id="paint6_radial" cx="0" cy="0" r="1" gradientUnits="userSpaceOnUse" gradientTransform="translate(286.82 159.495) scale(62.153)">
<stop stop-color="#C0BFF6"/>
<stop offset="1" stop-color="#393091"/>
</radialGradient>
<linearGradient id="paint7_linear" x1="258.752" y1="201.363" x2="268.989" y2="128.524" gradientUnits="userSpaceOnUse">
<stop stop-color="#42E8E0"/>
<stop offset="0.00467455" stop-color="#42E6DF"/>
<stop offset="0.1358" stop-color="#40B6CB"/>
<stop offset="0.2707" stop-color="#3E8DB9"/>
<stop offset="0.4074" stop-color="#3C6BAA"/>
<stop offset="0.5467" stop-color="#3B519F"/>
<stop offset="0.6893" stop-color="#3A3F97"/>
<stop offset="0.8375" stop-color="#393493"/>
<stop offset="1" stop-color="#393091"/>
</linearGradient>
<radialGradient id="paint8_radial" cx="0" cy="0" r="1" gradientUnits="userSpaceOnUse" gradientTransform="translate(311.74 207.148) rotate(11.1976) scale(29.1343)">
<stop stop-color="#C0BFF6"/>
<stop offset="1" stop-color="#393091"/>
</radialGradient>
<linearGradient id="paint9_linear" x1="292.168" y1="224.471" x2="314.763" y2="208.054" gradientUnits="userSpaceOnUse">
<stop stop-color="#42E8E0"/>
<stop offset="0.00467455" stop-color="#42E6DF"/>
<stop offset="0.1358" stop-color="#40B6CB"/>
<stop offset="0.2707" stop-color="#3E8DB9"/>
<stop offset="0.4074" stop-color="#3C6BAA"/>
<stop offset="0.5467" stop-color="#3B519F"/>
<stop offset="0.6893" stop-color="#3A3F97"/>
<stop offset="0.8375" stop-color="#393493"/>
<stop offset="1" stop-color="#393091"/>
</linearGradient>
<radialGradient id="paint10_radial" cx="0" cy="0" r="1" gradientUnits="userSpaceOnUse" gradientTransform="translate(329.366 251.442) rotate(6.80285) scale(24.7684 40.8006)">
<stop stop-color="#C0BFF6"/>
<stop offset="1" stop-color="#393091"/>
</radialGradient>
<linearGradient id="paint11_linear" x1="306.07" y1="264.09" x2="325.278" y2="266.381" gradientUnits="userSpaceOnUse">
<stop stop-color="#42E8E0"/>
<stop offset="0.00467455" stop-color="#42E6DF"/>
<stop offset="0.1358" stop-color="#40B6CB"/>
<stop offset="0.2707" stop-color="#3E8DB9"/>
<stop offset="0.4074" stop-color="#3C6BAA"/>
<stop offset="0.5467" stop-color="#3B519F"/>
<stop offset="0.6893" stop-color="#3A3F97"/>
<stop offset="0.8375" stop-color="#393493"/>
<stop offset="1" stop-color="#393091"/>
</linearGradient>
<radialGradient id="paint12_radial" cx="0" cy="0" r="1" gradientUnits="userSpaceOnUse" gradientTransform="translate(285.761 148.302) scale(24.5248 31.507)">
<stop stop-color="#2B237C"/>
<stop offset="0.31" stop-color="#251C72"/>
<stop offset="1" stop-color="#0F054C"/>
</radialGradient>
<linearGradient id="paint13_linear" x1="305.048" y1="181.306" x2="270.177" y2="191.911" gradientUnits="userSpaceOnUse">
<stop stop-color="#BCBEFF"/>
<stop offset="0.151" stop-color="#A3A7F5"/>
<stop offset="0.3866" stop-color="#8289E8"/>
<stop offset="0.6124" stop-color="#6A73DF"/>
<stop offset="0.8221" stop-color="#5C66D9"/>
<stop offset="1" stop-color="#5761D7"/>
</linearGradient>
<linearGradient id="paint14_linear" x1="299.012" y1="183.519" x2="251.229" y2="189.212" gradientUnits="userSpaceOnUse">
<stop stop-color="#BCBEFF"/>
<stop offset="0.151" stop-color="#A3A7F5"/>
<stop offset="0.3866" stop-color="#8289E8"/>
<stop offset="0.6124" stop-color="#6A73DF"/>
<stop offset="0.8221" stop-color="#5C66D9"/>
<stop offset="1" stop-color="#5761D7"/>
</linearGradient>
<linearGradient id="paint15_linear" x1="291.845" y1="197.567" x2="316.742" y2="156.387" gradientUnits="userSpaceOnUse">
<stop stop-color="#42E8E0"/>
<stop offset="0.1188" stop-color="#42E2DE"/>
<stop offset="0.2699" stop-color="#41D3D7"/>
<stop offset="0.4386" stop-color="#40B9CC"/>
<stop offset="0.6201" stop-color="#3E94BC"/>
<stop offset="0.8101" stop-color="#3C66A8"/>
<stop offset="1" stop-color="#393091"/>
</linearGradient>
<linearGradient id="paint16_linear" x1="149.331" y1="124.906" x2="203.845" y2="156.379" gradientUnits="userSpaceOnUse">
<stop stop-color="#BCBEFF"/>
<stop offset="0.2271" stop-color="#AAADF8"/>
<stop offset="0.6802" stop-color="#7C83E5"/>
<stop offset="1" stop-color="#5761D7"/>
</linearGradient>
<linearGradient id="paint17_linear" x1="136.224" y1="133.109" x2="204.933" y2="133.109" gradientUnits="userSpaceOnUse">
<stop stop-color="#E9E9FD"/>
<stop offset="0.3601" stop-color="#D3D2F9"/>
<stop offset="0.7062" stop-color="#C5C4F7"/>
<stop offset="1" stop-color="#C0BFF6"/>
</linearGradient>
<linearGradient id="paint18_linear" x1="149.332" y1="110.686" x2="203.847" y2="142.16" gradientUnits="userSpaceOnUse">
<stop stop-color="#BCBEFF"/>
<stop offset="0.2271" stop-color="#AAADF8"/>
<stop offset="0.6802" stop-color="#7C83E5"/>
<stop offset="1" stop-color="#5761D7"/>
</linearGradient>
<linearGradient id="paint19_linear" x1="152.603" y1="108.567" x2="201.219" y2="136.635" gradientUnits="userSpaceOnUse">
<stop offset="0.2421" stop-color="#5761D7"/>
<stop offset="0.3923" stop-color="#7A82E5"/>
<stop offset="0.5463" stop-color="#979CF0"/>
<stop offset="0.7" stop-color="#ACAFF8"/>
<stop offset="0.8519" stop-color="#B8BAFD"/>
<stop offset="1" stop-color="#BCBEFF"/>
</linearGradient>
<linearGradient id="paint20_linear" x1="142.496" y1="122.583" x2="211.205" y2="122.583" gradientUnits="userSpaceOnUse">
<stop stop-color="#E9E9FD"/>
<stop offset="0.3601" stop-color="#D3D2F9"/>
<stop offset="0.7062" stop-color="#C5C4F7"/>
<stop offset="1" stop-color="#C0BFF6"/>
</linearGradient>
<linearGradient id="paint21_linear" x1="143.551" y1="122.583" x2="210.15" y2="122.583" gradientUnits="userSpaceOnUse">
<stop stop-color="#E9E9FD"/>
<stop offset="0.3601" stop-color="#D3D2F9"/>
<stop offset="0.7062" stop-color="#C5C4F7"/>
<stop offset="1" stop-color="#C0BFF6"/>
</linearGradient>
<linearGradient id="paint22_linear" x1="176.849" y1="139.305" x2="176.849" y2="28.3222" gradientUnits="userSpaceOnUse">
<stop stop-color="#98EF10"/>
<stop offset="0.963542" stop-color="#98EF10" stop-opacity="0"/>
</linearGradient>
<linearGradient id="paint23_linear" x1="170.343" y1="61.4053" x2="170.343" y2="117.198" gradientUnits="userSpaceOnUse">
<stop stop-color="#46D329"/>
<stop offset="1" stop-color="#B8F907"/>
</linearGradient>
<linearGradient id="paint24_linear" x1="148.387" y1="33.5088" x2="204.18" y2="33.5088" gradientUnits="userSpaceOnUse">
<stop stop-color="#46D329"/>
<stop offset="1" stop-color="#B8F907"/>
</linearGradient>
<linearGradient id="paint25_linear" x1="175.896" y1="49.3943" x2="175.896" y2="105.187" gradientUnits="userSpaceOnUse">
<stop stop-color="#46D329"/>
<stop offset="1" stop-color="#B8F907"/>
</linearGradient>
</defs>
</svg>
