<svg width="10" height="10" viewBox="0 0 10 10" fill="none" xmlns="http://www.w3.org/2000/svg">
<path fill-rule="evenodd" clip-rule="evenodd" d="M9 8V9C9 9.553 8.553 10 8 10H1C0.425 10 0 9.516 0 9V2C0 1.448 0.448 1 1 1H2C3.03693 1 3.04053 2.5 2 2.5C1.82217 2.50502 1.64704 2.5 1.5 2.5V8.5H7.5C7.5 8.5 7.5 8.17779 7.5 8C7.5 7 9 7 9 8ZM5.25 0.75C5.25 0.335786 5.58579 0 6 0H10V4C10 4.41421 9.66421 4.75 9.25 4.75C8.83579 4.75 8.5 4.41421 8.5 4V2.56066L5.28033 5.78033C4.98744 6.07322 4.51256 6.07322 4.21967 5.78033C3.92678 5.48744 3.92678 5.01256 4.21967 4.71967L7.43934 1.5H6C5.58579 1.5 5.25 1.16421 5.25 0.75Z" fill="white"/>
</svg>
