<svg width="16" height="16" fill="none" xmlns="http://www.w3.org/2000/svg"><path d="M1.773 11.498a1.409 1.409 0 011.166-.453l.153.014A5.768 5.768 0 012.219 8c0-.82.172-1.624.504-2.363l.25.251a.469.469 0 00.799-.289l.25-2.744a.469.469 0 00-.51-.51l-2.745.25a.469.469 0 00-.289.798l.598.598a8.019 8.019 0 00-.171 7.708c.15.288.319.566.504.834a1.41 1.41 0 01.364-1.035zm10.64 3.096a1.409 1.409 0 01-1.4-1.533l.013-.133A5.77 5.77 0 018 13.78a5.77 5.77 0 01-2.363-.504l.25-.25a.469.469 0 00-.288-.799l-2.745-.25a.469.469 0 00-.51.51l.25 2.745a.47.47 0 00.799.289l.597-.598a8.02 8.02 0 007.698.177 8.11 8.11 0 00.847-.512c-.04.004-.081.005-.122.005zm2.499-2.564a8.018 8.018 0 00.183-7.728 7.948 7.948 0 00-.504-.835 1.41 1.41 0 01-1.402 1.494 1.42 1.42 0 01-.128-.006l-.153-.014c.563.903.873 1.957.873 3.059 0 .83-.176 1.64-.514 2.384l-.272-.272a.469.469 0 00-.798.289l-.25 2.745a.469.469 0 00.51.509l2.744-.25a.469.469 0 00.29-.798l-.579-.578zm-1.257-8.518l-.25-2.745a.469.469 0 00-.798-.289l-.597.598A8.018 8.018 0 004.302.905c-.288.15-.567.319-.834.504.03-.002.058-.004.088-.004a1.409 1.409 0 011.4 1.534l-.015.153a5.768 5.768 0 013.06-.873 5.77 5.77 0 012.362.504l-.25.25a.469.469 0 00.288.799l2.745.25a.469.469 0 00.51-.51zM8 7.531A1.017 1.017 0 018 5.5c.56 0 1.016.456 1.016 1.016a.469.469 0 00.937 0c0-.916-.633-1.686-1.484-1.896v-.37a.469.469 0 00-.938 0v.37c-.851.21-1.484.98-1.484 1.896 0 1.077.876 1.953 1.953 1.953A1.017 1.017 0 018 10.5c-.56 0-1.016-.456-1.016-1.016a.469.469 0 00-.937 0c0 .916.633 1.686 1.484 1.896v.37a.469.469 0 10.938 0v-.37a1.956 1.956 0 001.484-1.896A1.955 1.955 0 008 7.531z" fill="#FFA63F"/></svg>