<svg width="440" height="316" viewBox="0 0 440 316" fill="none" xmlns="http://www.w3.org/2000/svg">
<mask id="mask0" mask-type="alpha" maskUnits="userSpaceOnUse" x="113" y="0" width="19" height="31">
<path d="M122.606 7.61065L118.222 0L113.828 7.61065L118.192 15.2213L122.555 22.8319L126.949 30.4426L131.343 22.8319L126.969 15.2213L122.606 7.61065Z" fill="#C4C4C4"/>
</mask>
<g mask="url(#mask0)">
<rect x="100.637" y="43.5327" width="43.8373" height="43.8373" transform="rotate(-90 100.637 43.5327)" fill="#FF4646"/>
<rect x="100.637" y="43.5327" width="43.8373" height="43.8373" transform="rotate(-90 100.637 43.5327)" fill="url(#paint0_linear)"/>
</g>
<mask id="mask1" mask-type="alpha" maskUnits="userSpaceOnUse" x="131" y="0" width="18" height="31">
<path d="M140.263 7.61065L135.879 0L131.485 7.61065L135.849 15.2213L140.212 22.8319L144.606 30.4426L149 22.8319L144.626 15.2213L140.263 7.61065Z" fill="#C4C4C4"/>
</mask>
<g mask="url(#mask1)">
<path d="M105.304 43.5327L105.304 -0.304611L149.142 -0.304611L149.142 43.5327L105.304 43.5327Z" fill="#FF4646"/>
<path d="M105.304 43.5327L105.304 -0.304611L149.142 -0.304611L149.142 43.5327L105.304 43.5327Z" fill="url(#paint1_linear)"/>
</g>
<mask id="mask2" mask-type="alpha" maskUnits="userSpaceOnUse" x="105" y="15" width="9" height="16">
<path d="M113.788 22.8318L109.394 15.2212L105 22.8318L109.394 30.4425L113.788 22.8318Z" fill="#C4C4C4"/>
</mask>
<g mask="url(#mask2)">
<rect x="105" y="34.0952" width="43.8373" height="43.8373" transform="rotate(-90 105 34.0952)" fill="#FF4646"/>
<rect x="105" y="34.0952" width="43.8373" height="43.8373" transform="rotate(-90 105 34.0952)" fill="url(#paint2_linear)"/>
</g>
<defs>
<linearGradient id="paint0_linear" x1="122.555" y1="43.5327" x2="122.555" y2="87.37" gradientUnits="userSpaceOnUse">
<stop stop-color="#46D329"/>
<stop offset="1" stop-color="#B8F907"/>
</linearGradient>
<linearGradient id="paint1_linear" x1="105.304" y1="21.6141" x2="149.142" y2="21.6141" gradientUnits="userSpaceOnUse">
<stop stop-color="#46D329"/>
<stop offset="1" stop-color="#B8F907"/>
</linearGradient>
<linearGradient id="paint2_linear" x1="126.919" y1="34.0952" x2="126.919" y2="77.9325" gradientUnits="userSpaceOnUse">
<stop stop-color="#46D329"/>
<stop offset="1" stop-color="#B8F907"/>
</linearGradient>
</defs>
</svg>
