<svg width="16" height="16" fill="none" xmlns="http://www.w3.org/2000/svg"><g clip-path="url(#clip0)" fill="#FFA63F"><path d="M7.243 11.726a.469.469 0 100-.937.469.469 0 000 .937zm0-5a.469.469 0 100-.937.469.469 0 000 .937z"/><path d="M12.622 4.483a.469.469 0 01-.663.663l-.552-.553-.553-.552a.469.469 0 11.663-.663l.221.22 1.81-1.809-5.53-.425a.469.469 0 00-.368.135L.137 9.014a.469.469 0 000 .662l6.187 6.188a.469.469 0 00.663 0L14.5 8.35a.469.469 0 00.136-.368l-.425-5.53-1.81 1.81.221.22zm-5.379.368c.775 0 1.406.63 1.406 1.406 0 .775-.63 1.406-1.406 1.406a1.407 1.407 0 010-2.812zm0 7.812c-.775 0-1.406-.63-1.406-1.406 0-.775.63-1.406 1.406-1.406.775 0 1.406.63 1.406 1.406 0 .775-.63 1.406-1.406 1.406zm3.125-3.437h-6.25a.469.469 0 010-.938h6.25a.469.469 0 110 .938z"/><path d="M15.863.138a.469.469 0 00-.663 0l-1.652 1.651.215.017c.23.018.414.2.431.431l.017.215L15.863.8a.469.469 0 000-.662z"/></g><defs><clipPath id="clip0"><path fill="#fff" d="M0 0h16v16H0z"/></clipPath></defs></svg>