<svg width="24" height="24" viewBox="0 0 24 24" fill="none" xmlns="http://www.w3.org/2000/svg">
<rect width="24" height="24" rx="12" fill="#5A5A89"/>
<path d="M9.03168 18.0008C15.0694 18.0008 18.3718 12.9986 18.3718 8.66067C18.3718 8.51859 18.3718 8.37715 18.3622 8.23635C19.0047 7.77166 19.5593 7.19628 20 6.53715C19.4009 6.80275 18.7654 6.97686 18.1146 7.05363C18.7999 6.64342 19.3128 5.99815 19.5578 5.23795C18.9134 5.62036 18.2084 5.88984 17.4733 6.03475C16.9783 5.50847 16.3237 5.15998 15.6108 5.04321C14.8978 4.92644 14.1663 5.0479 13.5293 5.38879C12.8923 5.72968 12.3855 6.271 12.0872 6.92898C11.7888 7.58697 11.7157 8.32493 11.879 9.02867C10.5739 8.9632 9.29717 8.62403 8.13164 8.03316C6.9661 7.44228 5.93784 6.61293 5.1136 5.59891C4.69382 6.32158 4.56525 7.17706 4.75407 7.99119C4.94288 8.80532 5.43489 9.51688 6.12992 9.98099C5.60749 9.96568 5.09643 9.82475 4.64 9.57011V9.61171C4.64021 10.3696 4.90257 11.1041 5.38258 11.6906C5.86259 12.2771 6.53071 12.6796 7.2736 12.8296C6.79032 12.9615 6.28325 12.9807 5.79136 12.886C6.00121 13.5382 6.40962 14.1085 6.95949 14.5172C7.50937 14.926 8.17322 15.1527 8.85824 15.1656C8.17763 15.7006 7.39821 16.0962 6.56458 16.3296C5.73096 16.5631 4.85948 16.6299 4 16.5263C5.50122 17.4896 7.24795 18.0006 9.03168 17.9983" fill="#05050F"/>
</svg>
