<svg width="16" height="15" viewBox="0 0 16 15" fill="none" xmlns="http://www.w3.org/2000/svg">
<path d="M11.7484 11.3758C10.9817 11.3758 10.3579 10.7521 10.3579 9.98537V7.67622C10.3579 6.90953 10.9817 6.2858 11.7484 6.2858H15.3714C15.3934 6.2858 15.4152 6.28646 15.4369 6.28744V3.98716C15.4369 3.39504 14.9569 2.91504 14.3648 2.91504H1.07215C0.480002 2.915 0 3.39501 0 3.98712V13.6744C0 14.2666 0.480002 14.7466 1.07215 14.7466H14.3648C14.9569 14.7466 15.4369 14.2666 15.4369 13.6744V11.3742C15.4152 11.3752 15.3934 11.3758 15.3714 11.3758H11.7484Z" fill="white"/>
<path d="M15.3715 7.04688H11.7484C11.4013 7.04688 11.1199 7.3283 11.1199 7.67542V9.98457C11.1199 10.3317 11.4013 10.6131 11.7484 10.6131H15.3715C15.7186 10.6131 16 10.3317 16 9.98457V7.67542C16 7.32826 15.7186 7.04688 15.3715 7.04688ZM12.9969 9.73717C12.4958 9.73717 12.0896 9.331 12.0896 8.82996C12.0896 8.32892 12.4958 7.92275 12.9969 7.92275C13.4979 7.92275 13.9041 8.32892 13.9041 8.82996C13.9041 9.331 13.4979 9.73717 12.9969 9.73717Z" fill="white"/>
<path d="M12.4983 0.950499C12.2584 0.224494 11.4754 -0.169599 10.7494 0.0702622L5.30273 1.86971H12.8019L12.4983 0.950499Z" fill="white"/>
</svg>
