<svg width="16" height="16" viewBox="0 0 16 16" fill="none" xmlns="http://www.w3.org/2000/svg">
<g clip-path="url(#clip0)">
<path d="M1.625 16H0.46875C0.209875 16 0 15.7901 0 15.5312V9.90625C0 9.64737 0.209875 9.4375 0.46875 9.4375H1.625C1.88388 9.4375 2.09375 9.64737 2.09375 9.90625V15.5312C2.09375 15.7901 1.88388 16 1.625 16Z" fill="#FFA63F"/>
<path d="M15.4141 10.9004C15.0528 10.7014 14.6117 10.715 14.2633 10.9358L12.5483 12.0219C12.4964 12.4644 12.3016 12.875 11.9842 13.2C11.5984 13.595 11.0825 13.8125 10.5312 13.8125H8.20075C7.94834 13.8125 7.73116 13.6185 7.71928 13.3664C7.70659 13.0972 7.92109 12.875 8.1875 12.875H10.5312C11.1431 12.875 11.6392 12.3699 11.6247 11.7548C11.6106 11.1578 11.108 10.6875 10.5107 10.6875H7.875L7.56925 10.4582C6.96034 10.0015 6.20584 9.75 5.44469 9.75C4.80306 9.75 4.17309 9.9245 3.62287 10.2546L3.03125 10.6096V15.375H10.9102C11.3658 15.375 11.8115 15.2422 12.1928 14.9929L15.4878 12.8385C15.8085 12.6288 16 12.2747 16 11.8915C16 11.479 15.7755 11.0993 15.4141 10.9004Z" fill="#FFA63F"/>
<path d="M6.625 0C4.47109 0 2.71875 1.75234 2.71875 3.90625C2.71875 6.06016 4.47109 7.8125 6.625 7.8125C8.77891 7.8125 10.5312 6.06016 10.5312 3.90625C10.5312 1.75234 8.77891 0 6.625 0ZM7.09375 5.84597V5.9375C7.09375 6.19637 6.88387 6.40625 6.625 6.40625C6.36613 6.40625 6.15625 6.19637 6.15625 5.9375V5.84556C5.77744 5.69131 5.48513 5.35569 5.40013 4.93703C5.34862 4.68334 5.5125 4.43591 5.76622 4.38434C6.01987 4.33291 6.26737 4.49675 6.31891 4.75044C6.34825 4.89503 6.47703 4.99997 6.62503 4.99997C6.79734 4.99997 6.93753 4.85978 6.93753 4.68747C6.93753 4.51516 6.79734 4.37497 6.62503 4.37497C5.93578 4.37497 5.37503 3.81422 5.37503 3.12497C5.37503 2.60147 5.69869 2.15234 6.15628 1.9665V1.875C6.15628 1.61612 6.36616 1.40625 6.62503 1.40625C6.88391 1.40625 7.09378 1.61612 7.09378 1.875V1.96694C7.47259 2.12119 7.76491 2.45681 7.84991 2.87547C7.90141 3.12916 7.7375 3.37659 7.48381 3.42816C7.23016 3.47966 6.98269 3.31575 6.93113 3.06206C6.90175 2.91744 6.773 2.8125 6.625 2.8125C6.45269 2.8125 6.3125 2.95269 6.3125 3.125C6.3125 3.29731 6.45269 3.4375 6.625 3.4375C7.31425 3.4375 7.875 3.99825 7.875 4.6875C7.875 5.211 7.55134 5.66012 7.09375 5.84597Z" fill="#FFA63F"/>
<path d="M15.9556 6.30626C15.8785 6.14154 15.713 6.03632 15.5311 6.03632H14.8488C14.4345 4.40007 13.5005 2.91932 12.1908 1.83467C11.5815 1.3301 10.9028 0.922634 10.1807 0.620728C10.9796 1.48473 11.4686 2.63929 11.4686 3.90607C11.4686 4.2957 11.4221 4.67457 11.3348 5.03779C11.5524 5.34973 11.7365 5.68463 11.8812 6.03632H11.4686C11.2868 6.03632 11.1213 6.14154 11.0441 6.30626C10.967 6.47098 10.9921 6.66545 11.1085 6.80516L13.1398 9.24267C13.2288 9.34954 13.3607 9.41132 13.4999 9.41132C13.639 9.41132 13.7709 9.34951 13.86 9.24267L15.8912 6.80516C16.0076 6.66545 16.0328 6.47095 15.9556 6.30626Z" fill="#FFA63F"/>
</g>
<defs>
<clipPath id="clip0">
<rect width="16" height="16" fill="white"/>
</clipPath>
</defs>
</svg>
