<svg version="1.0" xmlns="http://www.w3.org/2000/svg" width="666.667" height="666.667" viewBox="0 0 500 500"><g fill="#AE0A22"><path d="M308.4 12.5c-45.7 10.6-81.8 33.9-107 69.1-3.4 4.9-8 12.1-10.1 16.1l-3.8 7.2-8.7 3.7c-10.4 4.3-26.8 13.9-37.6 21.9-10.8 8.1-30.5 28.3-38.4 39.5-16.9 23.9-27.2 48.7-32.4 78-2.8 15.8-2.6 46.3.4 62.5 8.4 44.9 32.7 85.1 68.2 112.9 3.5 2.7 6.1 4.5 5.9 4-.2-.5-7.1-14.3-15.3-30.6-8.3-16.4-14.7-30-14.5-30.3.3-.3 2.8 2.8 5.5 6.8 7.6 11.3 28 31 40.7 39.5 19.2 12.8 41.7 22 63.2 25.8 14 2.5 43.2 2.5 57 0 20.3-3.7 43.3-12.8 60-23.7 16.7-10.9 34.4-27.7 44.1-42 2.6-3.8 5-6.7 5.3-6.4.2.3-6.2 13.9-14.5 30.3-8.2 16.3-15.1 30.1-15.3 30.6-.9 2.1 13-9.6 22.4-18.9 30.2-29.9 48.7-68.6 53.4-111.7 6.2-56.2-15-113.3-56.7-152.9-17.1-16.2-38.2-29.8-59.1-37.9-10.7-4.2-11-4.4-10.4-6.9 1.2-5.3 7.4-19.7 11.8-27.3l4.4-7.9-3.2.7c-12.5 2.7-37.4 15.7-47.8 25.1l-4.2 3.8.7-3c1.2-5 8.6-21.6 12.9-29 9.2-15.9 21.6-32.8 33.6-45.7 5.3-5.8 5.3-5.8 2.5-5.7-1.6 0-7.4 1.1-13 2.4zM265 176c70.5 8.7 111.7 84.4 80.2 147.5-13.8 27.7-37 46.4-67.7 54.8-11.6 3.1-37.4 3.1-49 0-20.7-5.7-36.4-14.9-50.5-29.9-51.8-55-28-145.4 44.4-168.5 13.8-4.4 27.9-5.7 42.6-3.9z"/><path d="M238.8 232.9C218.7 239.5 206 257 206 278c0 26.6 20.4 47 47 47s47-20.4 47-47c0-7.4-2.9-20.2-4.8-21.4-.5-.3-1.6.8-2.5 2.4-2 3.3-9 7-13.3 7-4.1-.1-10.7-3.3-13.2-6.5-5.5-6.9-5-15.8 1.1-22.2l3-3.2-2.9-1.2c-1.6-.7-7.4-1.4-12.9-1.6-7.8-.2-11.3.1-15.7 1.6zM177 457.1c28.8 26 75.2 35 113.2 22 11.3-3.9 16.7-6.4 23.5-10.7 6.4-4 19.6-14.5 19-15-.2-.2-5 1.2-10.8 3.2-25.1 8.5-44.5 11.8-68.9 11.8-24.4 0-43.8-3.3-68.9-11.9-5.8-1.9-10.7-3.5-11-3.5-.4.1 1.4 1.9 3.9 4.1z"/></g></svg>