<svg width="20" height="20" fill="none" xmlns="http://www.w3.org/2000/svg"><path d="M10 0C4.473 0 0 4.473 0 10s4.473 10 10 10 10-4.473 10-10S15.527 0 10 0zm0 18.828A8.823 8.823 0 011.172 10 8.823 8.823 0 0110 1.172 8.823 8.823 0 0118.828 10 8.823 8.823 0 0110 18.828z" fill="#fff"/><path d="M10 3.906A6.1 6.1 0 003.906 10c0 3.34 2.712 6.094 6.094 6.094 3.376 0 6.094-2.748 6.094-6.094 0-3.348-2.721-6.094-6.094-6.094zm.586 1.207a4.923 4.923 0 013.351 1.937l-2.406 1.39a2.188 2.188 0 00-.945-.547v-2.78zm-1.172 0v2.78c-.36.1-.685.291-.945.546L6.063 7.05a4.924 4.924 0 013.351-1.937zm-3.939 6.823A4.894 4.894 0 015.078 10c0-.687.142-1.341.397-1.936l2.407 1.39a2.185 2.185 0 000 1.092l-2.407 1.39zm3.94 2.95a4.923 4.923 0 01-3.352-1.936l2.406-1.39c.26.256.584.447.945.547v2.78zM8.984 10a1.017 1.017 0 012.03 0 1.017 1.017 0 01-2.03 0zm1.6 4.887v-2.78c.362-.1.686-.291.946-.546l2.406 1.389a4.924 4.924 0 01-3.351 1.937zm1.533-4.34a2.184 2.184 0 000-1.093l2.407-1.39a4.906 4.906 0 010 3.872l-2.407-1.39z" fill="#fff"/></svg>