<?xml version="1.0" encoding="UTF-8"?>
<svg width="886px" height="639px" viewBox="0 0 886 639" version="1.1" xmlns="http://www.w3.org/2000/svg" xmlns:xlink="http://www.w3.org/1999/xlink">
    <title>Group 6</title>
    <defs>
        <linearGradient x1="101.999998%" y1="33.6867549%" x2="0%" y2="66.3132451%" id="linearGradient-1">
            <stop stop-color="#19FFF3" offset="0%"></stop>
            <stop stop-color="#00A4FF" offset="100%"></stop>
        </linearGradient>
        <linearGradient x1="51.0417873%" y1="0%" x2="48.9982814%" y2="100%" id="linearGradient-2">
            <stop stop-color="#19FFF3" offset="0%"></stop>
            <stop stop-color="#00A4FF" offset="100%"></stop>
        </linearGradient>
        <polygon id="path-3" points="0.685545246 0.532534562 39.1515182 0.532534562 39.1515182 30.119966 0.685545246 30.119966"></polygon>
        <linearGradient x1="101.999998%" y1="33.6867549%" x2="0%" y2="66.3132451%" id="linearGradient-5">
            <stop stop-color="#19FFF3" offset="0%"></stop>
            <stop stop-color="#00A4FF" offset="100%"></stop>
        </linearGradient>
        <linearGradient x1="51.0417873%" y1="0%" x2="48.9982814%" y2="100%" id="linearGradient-6">
            <stop stop-color="#19FFF3" offset="0%"></stop>
            <stop stop-color="#00A4FF" offset="100%"></stop>
        </linearGradient>
    </defs>
    <g id="Page-1" stroke="none" stroke-width="1" fill="none" fill-rule="evenodd">
        <g id="VR-Blockchain-Data" transform="translate(-157.000000, -130.000000)">
            <g id="Group-6" transform="translate(157.000000, 131.000000)">
                <g id="Group-9" opacity="0.200000003" transform="translate(382.565217, 388.000000) scale(-1, -1) translate(-382.565217, -388.000000) translate(88.000000, 138.000000)">
                    <line x1="101.407226" y1="205.587268" x2="257.230418" y2="294.592856" id="Path-4" stroke="#FFFFFF" opacity="0.300000012"></line>
                    <line x1="144.885487" y1="229.500311" x2="206.329279" y2="264.596762" id="Path-4" stroke="url(#linearGradient-1)" stroke-linecap="round" stroke-linejoin="round"></line>
                    <line x1="458.999035" y1="295.087473" x2="537.709627" y2="250.23274" id="Path-5" stroke="#FFFFFF" opacity="0.300000012"></line>
                    <line x1="256.260209" y1="413.208846" x2="177.521081" y2="455.099051" id="Path-6" stroke="#FFFFFF" opacity="0.300000012"></line>
                    <line x1="359.839205" y1="234.032859" x2="359.839205" y2="114.179976" id="Path-7" stroke="#FFFFFF" opacity="0.300000012" stroke-linecap="round" stroke-linejoin="round"></line>
                    <line x1="359.839205" y1="190.554598" x2="359.839205" y2="159.837208" id="Path-7" stroke="url(#linearGradient-2)" stroke-linecap="round" stroke-linejoin="round"></line>
                    <g id="Block" transform="translate(252.173913, 232.608696)" stroke="#00DFFF">
                        <path d="M107.708492,1.9972859 L210.142374,62.3727239 L107.708553,120.452196 L3.55061917,62.3726892 L107.708492,1.9972859 Z" id="Path-2"></path>
                        <path d="M107.708492,119.38859 L210.142374,179.764028 L107.708553,237.8435 L3.55061917,179.763994 L107.708492,119.38859 Z" id="Path-2"></path>
                        <line x1="3.99907475" y1="63.000272" x2="3.99907475" y2="178.695927" id="Path-3" stroke-linecap="round" stroke-linejoin="round"></line>
                        <line x1="208.695652" y1="63.0434783" x2="208.695652" y2="178.739133" id="Path-3" stroke-linecap="round" stroke-linejoin="round"></line>
                        <line x1="106.521739" y1="4.34782609" x2="106.521739" y2="235.260872" id="Path-3" stroke-linecap="round" stroke-linejoin="round"></line>
                    </g>
                    <g id="Block" transform="translate(0.000000, 115.217391)" stroke="#FAA800">
                        <path d="M53.8531933,1.28821661 L104.571722,31.1821669 L53.8532538,59.9392882 L2.28108792,31.1821322 L53.8531933,1.28821661 Z" id="Path-2"></path>
                        <path d="M53.8531933,59.9838688 L104.571722,89.877819 L53.8532538,118.63494 L2.28108792,89.8777843 L53.8531933,59.9838688 Z" id="Path-2"></path>
                        <line x1="1.99953737" y1="31.500136" x2="1.99953737" y2="89.3479634" id="Path-3" stroke-linecap="round" stroke-linejoin="round"></line>
                        <line x1="104.347826" y1="31.5217391" x2="104.347826" y2="89.3695665" id="Path-3" stroke-linecap="round" stroke-linejoin="round"></line>
                        <line x1="53.2608696" y1="2.17391304" x2="53.2608696" y2="117.630436" id="Path-3" stroke-linecap="round" stroke-linejoin="round"></line>
                    </g>
                    <g id="Block" transform="translate(306.521739, 0.000000)" stroke="#9C73FF">
                        <path d="M53.8531933,1.28821661 L104.571722,31.1821669 L53.8532538,59.9392882 L2.28108792,31.1821322 L53.8531933,1.28821661 Z" id="Path-2"></path>
                        <path d="M53.8531933,59.9838688 L104.571722,89.877819 L53.8532538,118.63494 L2.28108792,89.8777843 L53.8531933,59.9838688 Z" id="Path-2"></path>
                        <line x1="1.99953737" y1="31.500136" x2="1.99953737" y2="89.3479634" id="Path-3" stroke-linecap="round" stroke-linejoin="round"></line>
                        <line x1="104.347826" y1="31.5217391" x2="104.347826" y2="89.3695665" id="Path-3" stroke-linecap="round" stroke-linejoin="round"></line>
                        <line x1="53.2608696" y1="2.17391304" x2="53.2608696" y2="117.630436" id="Path-3" stroke-linecap="round" stroke-linejoin="round"></line>
                    </g>
                    <g id="Block" transform="translate(126.086957, 439.130435)" stroke="#EE70A7">
                        <path d="M26.9255438,0.933681961 L51.7863954,15.5868883 L26.9256043,29.6828344 L1.64632229,15.5868536 L26.9255438,0.933681961 Z" id="Path-2"></path>
                        <path d="M26.9255438,30.281508 L51.7863954,44.9347144 L26.9256043,59.0306605 L1.64632229,44.9346797 L26.9255438,30.281508 Z" id="Path-2"></path>
                        <line x1="0.999768686" y1="15.750068" x2="0.999768686" y2="44.6739817" id="Path-3" stroke-linecap="round" stroke-linejoin="round"></line>
                        <line x1="52.173913" y1="15.7608696" x2="52.173913" y2="44.6847833" id="Path-3" stroke-linecap="round" stroke-linejoin="round"></line>
                        <line x1="26.6304348" y1="1.08695652" x2="26.6304348" y2="58.8152181" id="Path-3" stroke-linecap="round" stroke-linejoin="round"></line>
                    </g>
                    <g id="Block" transform="translate(534.782609, 204.347826)" stroke="#00FFC3">
                        <path d="M26.9255438,0.933681961 L51.7863954,15.5868883 L26.9256043,29.6828344 L1.64632229,15.5868536 L26.9255438,0.933681961 Z" id="Path-2"></path>
                        <path d="M26.9255438,30.281508 L51.7863954,44.9347144 L26.9256043,59.0306605 L1.64632229,44.9346797 L26.9255438,30.281508 Z" id="Path-2"></path>
                        <line x1="0.999768686" y1="15.750068" x2="0.999768686" y2="44.6739817" id="Path-3" stroke-linecap="round" stroke-linejoin="round"></line>
                        <line x1="52.173913" y1="15.7608696" x2="52.173913" y2="44.6847833" id="Path-3" stroke-linecap="round" stroke-linejoin="round"></line>
                        <line x1="26.6304348" y1="1.08695652" x2="26.6304348" y2="58.8152181" id="Path-3" stroke-linecap="round" stroke-linejoin="round"></line>
                    </g>
                </g>
                <g id="Group-7" opacity="0.600000024" transform="translate(0.000000, 76.000000)">
                    <path d="M742.02709,447.821131 L742.02709,447.821131 C664.75902,493.950018 539.542962,493.75937 462.338441,447.392172 L57.8785805,205.952291 C-19.333884,159.585094 -19.286222,84.5968568 57.9818482,38.4759134 C135.234031,-7.66091726 260.458032,-7.46232553 337.670497,38.8969279 L742.130358,280.344753 C819.326935,326.704006 819.287216,401.6843 742.02709,447.821131" id="Fill-85" fill="#000045" transform="translate(400.000000, 243.146536) scale(-1, 1) translate(-400.000000, -243.146536) "></path>
                    <path d="M742.02709,443.821131 L742.02709,443.821131 C664.75902,489.950018 539.542962,489.75937 462.338441,443.392172 L57.8785805,201.952291 C-19.333884,155.585094 -19.286222,80.5968568 57.9818482,34.4759134 C135.234031,-11.6609173 260.458032,-11.4623255 337.670497,34.8969279 L742.130358,276.344753 C819.326935,322.704006 819.287216,397.6843 742.02709,443.821131" id="Fill-85" fill="#000167" transform="translate(400.000000, 239.146536) scale(-1, 1) translate(-400.000000, -239.146536) "></path>
                </g>
                <g id="Group" transform="translate(105.000000, 0.000000)">
                    <g id="Group-5" transform="translate(221.000000, 0.000000)" stroke-linecap="round" stroke-linejoin="round">
                        <g id="Page-1">
                            <path d="M0.324675325,116.628372 C0.324675325,123.001998 5.48951049,131.153846 11.8631369,134.83017 L121.503497,198.166833 C127.887113,201.843157 133.041958,199.665335 133.041958,193.291708 L133.041958,83.6513487 C133.041958,77.2777223 127.887113,69.1258741 121.503497,65.4395604 L11.8631369,2.11288711 C5.48951049,-1.57342657 0.324675325,0.614385614 0.324675325,6.98801199 L0.324675325,116.628372 Z" id="Stroke-1" stroke="#FFFFFF"></path>
                            <line x1="8.97802198" y1="23.5284715" x2="124.392607" y2="90.1918082" id="Stroke-3" stroke="#FFFFFF"></line>
                            <line x1="11.8651349" y1="13.6503497" x2="17.6293706" y2="16.977023" id="Stroke-5" stroke="#FFFFFF"></line>
                            <line x1="23.4065934" y1="20.3186813" x2="29.1708292" y2="23.6453546" id="Stroke-7" stroke="#FFFFFF"></line>
                            <line x1="115.736264" y1="73.6493506" x2="121.5005" y2="76.976024" id="Stroke-9" stroke="#FFFFFF"></line>
                            <line x1="113.961039" y1="118.989011" x2="142.822178" y2="135.652348" id="Stroke-11" stroke="#FFFFFF"></line>
                            <line x1="113.961039" y1="130.53047" x2="154.360639" y2="153.857143" id="Stroke-13" stroke="#FFFFFF"></line>
                            <line x1="113.961039" y1="142.071928" x2="154.360639" y2="165.398601" id="Stroke-15" stroke="#FFFFFF"></line>
                            <polygon id="Stroke-17" stroke="#009DFF" points="151.471528 198.358641 116.846154 178.358641 116.846154 155.281718 151.471528 175.271728"></polygon>
                            <line x1="108.194805" y1="170.475524" x2="38.9440559" y2="130.475524" id="Stroke-19" stroke="#009DFF"></line>
                            <line x1="108.194805" y1="158.935065" x2="67.7952048" y2="135.608392" id="Stroke-21" stroke="#009DFF"></line>
                            <line x1="56.2547453" y1="128.935065" x2="62.028971" y2="132.261738" id="Stroke-23" stroke="#009DFF"></line>
                            <line x1="44.7132867" y1="122.271728" x2="50.4875125" y2="125.598402" id="Stroke-25" stroke="#009DFF"></line>
                            <polygon id="Stroke-27" stroke="#61E8FF" points="95.3176823 131.305694 31.8411588 94.6423576 31.8411588 42.7042957 95.3176823 79.3676324"></polygon>
                            <polyline id="Stroke-29" stroke="#FAA800" points="40.4985015 88.1018981 54.9240759 82.007992 66.4725275 100.20979 80.8881119 108.541459 86.6623377 117.652348"></polyline>
                            <path d="M83.7762238,90.018981 C83.7762238,93.2057942 81.1888112,94.2947053 78.011988,92.4565435 C74.8251748,90.6183816 72.2377622,86.5324675 72.2377622,83.3556444 C72.2377622,80.1688312 74.8251748,79.0699301 78.011988,80.9080919 C81.1888112,82.7562438 83.7762238,86.8321678 83.7762238,90.018981 Z" id="Stroke-31" stroke="#FFFFFF"></path>
                            <polygon id="Stroke-33" stroke="#1E00FF" points="141.481518 117.579421 106.856144 97.5794206 106.856144 86.040959 141.481518 106.040959"></polygon>
                        </g>
                        <g id="Page-1" transform="translate(49.000000, 200.000000)">
                            <polyline id="Stroke-1" stroke="#009DFF" points="32.7035573 42.3050889 24.1437747 37.3619071 24.1437747 45.9216897"></polyline>
                            <polyline id="Stroke-2" stroke="#009DFF" points="105.475791 92.9056324 105.475791 84.3458498 96.9160079 79.3952569"></polyline>
                            <polyline id="Stroke-3" stroke="#009DFF" points="96.9137846 143.610672 105.473567 148.553854 105.473567 139.994071"></polyline>
                            <polyline id="Stroke-5" stroke="#009DFF" points="24.1422925 93.013834 24.1422925 101.573617 32.7020751 106.516798"></polyline>
                            <g id="Group-26" transform="translate(0.000000, 0.389575)">
                                <g id="Group-2" stroke="#FFFFFF">
                                    <path d="M0.758152174,86.533115 C0.758152174,91.2611506 4.58967391,97.3082933 9.31793478,100.042847 L90.6543972,147.019363 C95.3900692,149.746506 99.2141798,148.13097 99.2141798,143.402935 L99.2141798,62.070348 C99.2141798,57.3423124 95.3900692,51.2951697 90.6543972,48.5606163 L9.31793478,1.5840999 C4.58967391,-1.15045359 0.758152174,0.472492789 0.758152174,5.20052835 L0.758152174,86.533115 Z" id="Stroke-6"></path>
                                    <line x1="7.17761858" y1="17.4704476" x2="92.7976779" y2="66.9221424" id="Stroke-8"></line>
                                    <line x1="9.3201581" y1="10.1464389" x2="13.5963439" y2="12.6142067" id="Stroke-10"></line>
                                    <line x1="17.8814229" y1="15.0893852" x2="22.1576087" y2="17.557153" id="Stroke-12"></line>
                                    <line x1="86.3759881" y1="54.6507411" x2="90.6521739" y2="57.1259195" id="Stroke-14"></line>
                                </g>
                                <path d="M79.6311759,67.0295978 C71.0713933,62.0866515 68.9295949,69.408437 68.9295949,69.408437 L68.9295949,73.6251333 C68.9295949,82.1400437 73.7171443,91.4404899 79.6311759,94.8568291 C85.5452075,98.2657575 90.3327569,94.5011148 90.3327569,85.9936151 L90.3327569,81.769508 C90.3327569,81.769508 88.1909585,71.9725441 79.6311759,67.0295978 Z" id="Stroke-16" stroke="#EE70A7"></path>
                                <path d="M98.8969862,135.947756 L98.8969862,118.821596 C98.8969862,114.093561 95.0580534,108.046418 90.3372036,105.319275 C90.3372036,105.319275 83.9192194,101.606507 83.9192194,95.188829" id="Stroke-18" stroke="#EE70A7"></path>
                                <path d="M75.3535079,90.2421774 C75.3535079,96.6598558 68.9281126,92.9544988 68.9281126,92.9544988 C64.1998518,90.227356 60.36833,91.8428917 60.36833,96.5709272 L60.36833,113.697087" id="Stroke-20" stroke="#EE70A7"></path>
                                <line x1="68.9266304" y1="103.656311" x2="68.9266304" y2="118.633364" id="Stroke-22" stroke="#EE70A7"></line>
                                <line x1="90.3349802" y1="116.020346" x2="90.3349802" y2="130.997399" id="Stroke-24" stroke="#EE70A7"></line>
                            </g>
                        </g>
                        <g id="Page-1" transform="translate(216.000000, 100.000000)">
                            <g id="Group-3" opacity="0.5" stroke="#FFFFFF">
                                <path d="M0,52.9194745 C0,55.8194745 2.35,59.5285654 5.25,61.2058382 L55.1363636,90.0194745 C58.0409091,91.6967473 60.3863636,90.7012927 60.3863636,87.8012927 L60.3863636,37.9149291 C60.3863636,35.0149291 58.0409091,31.3058382 55.1363636,29.6285654 L5.25,0.814929076 C2.35,-0.862343651 0,0.133110894 0,3.03311089 L0,52.9194745 Z" id="Stroke-1"></path>
                                <line x1="3" y1="11" x2="55.5136364" y2="41.3318182" id="Stroke-3"></line>
                                <line x1="5" y1="7" x2="7.62272727" y2="8.51363636" id="Stroke-5"></line>
                                <line x1="10" y1="10" x2="12.6227273" y2="11.5181818" id="Stroke-7"></line>
                                <line x1="52" y1="34" x2="54.6227273" y2="35.5181818" id="Stroke-9"></line>
                            </g>
                            <path d="M37.8772727,45.8248424 C37.8772727,48.0021151 36.1136364,48.7430242 33.9409091,47.4884787 C31.7636364,46.2293878 30,43.4521151 30,41.2748424 C30,39.1021151 31.7636364,38.3521151 33.9409091,39.611206 C36.1136364,40.8657515 37.8772727,43.6475696 37.8772727,45.8248424 Z" id="Stroke-11" stroke="#9C73FF"></path>
                            <path d="M74.8772727,66.8228224 C74.8772727,69.0000951 73.1136364,69.7455497 70.9409091,68.4864588 C68.7636364,67.2319133 67,64.4500951 67,62.2728224 C67,60.1000951 68.7636364,59.3546406 70.9409091,60.609186 C73.1136364,61.8682769 74.8772727,64.6455497 74.8772727,66.8228224 Z" id="Stroke-13" stroke="#9C73FF"></path>
                            <path d="M56.8727273,55.8248424 C56.8727273,58.0021151 55.1090909,58.7475696 52.9363636,57.4884787 C50.7590909,56.2293878 49,53.4521151 49,51.2748424 C49,49.1021151 50.7590909,48.3521151 52.9363636,49.611206 C55.1090909,50.8702969 56.8727273,53.6475696 56.8727273,55.8248424 Z" id="Stroke-15" stroke="#9C73FF"></path>
                            <path d="M37.8772727,59.8228224 C37.8772727,62.0000951 36.1136364,62.7455497 33.9409091,61.4864588 C31.7636364,60.2319133 30,57.4500951 30,55.2728224 C30,53.1000951 31.7636364,52.3546406 33.9409091,53.609186 C36.1136364,54.8682769 37.8772727,57.6455497 37.8772727,59.8228224 Z" id="Stroke-17" stroke="#9C73FF"></path>
                            <path d="M74.8772727,80.8248424 C74.8772727,83.0021151 73.1136364,83.7430242 70.9409091,82.4884787 C68.7636364,81.2293878 67,78.4521151 67,76.2748424 C67,74.1021151 68.7636364,73.3521151 70.9409091,74.611206 C73.1136364,75.8657515 74.8772727,78.6475696 74.8772727,80.8248424 Z" id="Stroke-19" stroke="#9C73FF"></path>
                            <path d="M56.8727273,70.8248424 C56.8727273,73.0021151 55.1090909,73.7430242 52.9363636,72.4884787 C50.7590909,71.2293878 49,68.4521151 49,66.2748424 C49,64.1021151 50.7590909,63.3521151 52.9363636,64.611206 C55.1090909,65.8657515 56.8727273,68.6475696 56.8727273,70.8248424 Z" id="Stroke-21" stroke="#9C73FF"></path>
                            <path d="M37.8772727,74.8248424 C37.8772727,77.0021151 36.1136364,77.7430242 33.9409091,76.4884787 C31.7636364,75.2293878 30,72.4521151 30,70.2748424 C30,68.1021151 31.7636364,67.3521151 33.9409091,68.611206 C36.1136364,69.8657515 37.8772727,72.6475696 37.8772727,74.8248424 Z" id="Stroke-23" stroke="#9C73FF"></path>
                            <path d="M74.8772727,95.8228224 C74.8772727,98.0000951 73.1136364,98.7455497 70.9409091,97.4864588 C68.7636364,96.2319133 67,93.4500951 67,91.2728224 C67,89.1000951 68.7636364,88.3546406 70.9409091,89.609186 C73.1136364,90.8682769 74.8772727,93.6455497 74.8772727,95.8228224 Z" id="Stroke-25" stroke="#9C73FF"></path>
                            <path d="M56.8727273,84.8248424 C56.8727273,87.0021151 55.1090909,87.7475696 52.9363636,86.4884787 C50.7590909,85.2339333 49,82.4521151 49,80.2748424 C49,78.1021151 50.7590909,77.3521151 52.9363636,78.611206 C55.1090909,79.8702969 56.8727273,82.6475696 56.8727273,84.8248424 Z" id="Stroke-27" stroke="#9C73FF"></path>
                            <line x1="38" y1="45" x2="48.5045455" y2="51.0636364" id="Stroke-29" stroke="#9C73FF"></line>
                            <line x1="52" y1="58" x2="52" y2="64.5636364" id="Stroke-31" stroke="#9C73FF"></line>
                            <line x1="48.5045455" y1="66.0681818" x2="38" y2="60" id="Stroke-33" stroke="#9C73FF"></line>
                            <line x1="34" y1="62" x2="34" y2="68.5636364" id="Stroke-35" stroke="#9C73FF"></line>
                            <line x1="38" y1="74" x2="48.5045455" y2="80.0636364" id="Stroke-37" stroke="#9C73FF"></line>
                            <line x1="56" y1="85" x2="66.5045455" y2="91.0636364" id="Stroke-39" stroke="#9C73FF"></line>
                        </g>
                        <g id="Page-1" transform="translate(291.000000, 5.000000)">
                            <g id="Group-4" opacity="0.300000012" stroke="#FFFFFF">
                                <path d="M0.485714286,55.9266667 C0.485714286,58.9647619 2.95238095,62.8504762 5.98571429,64.6028571 L58.252381,94.7933333 C61.2904762,96.5457143 63.752381,95.507619 63.752381,92.4695238 L63.752381,40.207619 C63.752381,37.1695238 61.2904762,33.2838095 58.252381,31.5266667 L5.98571429,1.34095238 C2.95238095,-0.416190476 0.485714286,0.626666667 0.485714286,3.66 L0.485714286,55.9266667 Z" id="Stroke-1"></path>
                                <line x1="4.61047619" y1="11.5466667" x2="59.6247619" y2="43.3228571" id="Stroke-3"></line>
                                <line x1="5.98714286" y1="6.84047619" x2="8.73952381" y2="8.42619048" id="Stroke-5"></line>
                                <line x1="11.4880952" y1="10.0190476" x2="14.2404762" y2="11.6047619" id="Stroke-7"></line>
                                <line x1="55.4985714" y1="35.4395238" x2="58.2509524" y2="37.0252381" id="Stroke-9"></line>
                            </g>
                            <line x1="14.1342857" y1="41.9014286" x2="30.6390476" y2="51.4347619" id="Stroke-11" stroke="#FFFFFF"></line>
                            <line x1="18.2638095" y1="60.7885714" x2="21.0114286" y2="62.3742857" id="Stroke-13" stroke="#FFFFFF"></line>
                            <line x1="23.7652381" y1="63.9671429" x2="26.5128571" y2="65.5528571" id="Stroke-15" stroke="#FFFFFF"></line>
                            <line x1="14.1342857" y1="47.402381" x2="30.6390476" y2="56.9357143" id="Stroke-17" stroke="#FFFFFF"></line>
                            <line x1="14.1342857" y1="52.9038095" x2="30.6390476" y2="62.4371429" id="Stroke-19" stroke="#FFFFFF"></line>
                            <line x1="33.3909524" y1="53.022381" x2="49.8957143" y2="62.5557143" id="Stroke-21" stroke="#FFFFFF"></line>
                            <line x1="37.5161905" y1="71.9095238" x2="40.2685714" y2="73.5" id="Stroke-23" stroke="#FFFFFF"></line>
                            <line x1="43.0171429" y1="75.0880952" x2="45.7695238" y2="76.6738095" id="Stroke-25" stroke="#FFFFFF"></line>
                            <line x1="33.3909524" y1="58.5238095" x2="49.8957143" y2="68.0571429" id="Stroke-27" stroke="#FFFFFF"></line>
                            <line x1="33.3909524" y1="64.0252381" x2="49.8957143" y2="73.5585714" id="Stroke-29" stroke="#FFFFFF"></line>
                            <line x1="54.02" y1="64.9390476" x2="70.5247619" y2="74.472381" id="Stroke-31" stroke="#FFFFFF"></line>
                            <line x1="58.1447619" y1="83.8261905" x2="60.8971429" y2="85.4119048" id="Stroke-33" stroke="#FFFFFF"></line>
                            <line x1="63.6461905" y1="87.0047619" x2="66.3985714" y2="88.5904762" id="Stroke-35" stroke="#FFFFFF"></line>
                            <line x1="54.02" y1="70.44" x2="70.5247619" y2="79.9733333" id="Stroke-37" stroke="#FFFFFF"></line>
                            <line x1="54.02" y1="75.9414286" x2="70.5247619" y2="85.4747619" id="Stroke-39" stroke="#FFFFFF"></line>
                            <path d="M38.79,41.7457143 C38.79,45.5409524 35.7138095,46.8409524 31.9138095,44.6504762 C28.1138095,42.4552381 25.0328571,37.5980952 25.0328571,33.8028571 C25.0328571,30.0028571 28.1138095,28.7028571 31.9138095,30.8980952 C35.7138095,33.0885714 38.79,37.9457143 38.79,41.7457143 Z" id="Stroke-41" stroke="#00DFFF"></path>
                            <path d="M77.2990476,63.9880952 C77.2990476,67.7880952 74.2228571,69.0880952 70.4228571,66.8928571 C66.6228571,64.697619 63.5419048,59.8404762 63.5419048,56.0452381 C63.5419048,52.2452381 66.6228571,50.9452381 70.4228571,53.1404762 C74.2228571,55.3357143 77.2990476,60.1928571 77.2990476,63.9880952 Z" id="Stroke-43" stroke="#B4EE73"></path>
                            <path d="M58.042381,52.8666667 C58.042381,56.6619048 54.9661905,57.9666667 51.1661905,55.7714286 C47.3709524,53.5761905 44.29,48.7190476 44.29,44.9238095 C44.29,41.1238095 47.3709524,39.8238095 51.1661905,42.0190476 C54.9661905,44.2142857 58.042381,49.0714286 58.042381,52.8666667 Z" id="Stroke-45" stroke="#EE70A7"></path>
                        </g>
                    </g>
                    <g id="Boy-&amp;-VR" transform="translate(0.000000, 150.000000)">
                        <path d="M132.245419,60.6780829 C132.245419,60.6780829 139.900811,58.7047189 142.760074,58.7694194 C145.620166,58.8341198 154.82588,59.9290507 156.482378,59.7241659 C158.139705,59.5184516 156.547908,62.1172535 154.370488,62.3130138 C152.193899,62.5079447 147.87224,62.5402949 147.87224,62.5402949 C147.87224,62.5402949 151.945051,63.016424 153.244037,64.0566083 C154.543853,65.0959631 155.323576,65.7454562 156.450028,66.2224147 C157.576479,66.6985438 156.190396,67.7387281 154.543853,67.6955945 C152.897309,67.6524608 152.031318,66.1361475 151.208461,66.0490507 C150.384774,65.9627834 146.919152,65.6160553 146.919152,65.6160553 C146.919152,65.6160553 150.255373,65.8756866 151.165327,66.6554101 C152.074452,67.4351336 153.265604,68.1285899 154.110857,68.355871 C154.955281,68.5831521 153.461364,70.0787281 151.478876,69.2658249 C149.497217,68.4537512 149.724498,68.1609401 146.280442,68.22647 C148.00247,68.7133825 149.561917,69.6556866 150.17906,70.9231521 C150.797032,72.189788 150.894083,72.0927373 151.153714,72.3523687 C151.414175,72.6128295 150.17906,73.7168848 148.814544,72.5804793 C147.450028,71.4432442 146.085512,70.2728295 144.297954,70.8252719 C142.446525,71.767576 138.270028,73.750894 133.989843,73.0848111 C133.380995,67.4790968 132.245419,60.6780829 132.245419,60.6780829" id="Fill-1" fill="#FA9CAF"></path>
                        <path d="M130.727364,59.9396682 C129.761834,60.0491613 128.204046,60.3087926 126.295382,60.6621567 C128.118608,61.6177327 130.09612,63.3381014 130.933078,66.7854747 C131.676304,69.8446452 131.632341,72.268424 131.094,74.5934931 C131.877041,74.3388387 132.657594,74.0850138 133.458055,73.8204055 C136.187917,70.1814194 139.564783,63.7088848 130.727364,59.9396682" id="Fill-3" fill="#FFFFFF"></path>
                        <path d="M131.366488,66.6554101 C130.52953,63.2080369 128.23847,61.3590968 126.414415,60.4026912 C117.007963,62.1396498 98.8744147,66.1792811 98.8744147,66.1792811 L81.3936774,39.4248111 C81.3936774,39.4248111 64.9531244,66.0490507 62.8735853,79.3060092 C62.8735853,81.3623226 61.2320184,97.9024147 131.211373,75.1402949 C131.749714,72.8152258 132.109714,69.7145806 131.366488,66.6554101" id="Fill-5" fill="#39376B"></path>
                        <g id="Group-197" transform="translate(139.354839, 38.453641)">
                            <polygon id="Fill-7" fill="#474080" points="44.8278802 82.1131797 0.81 32.3245161 36.7718433 0.530046083 80.7897235 50.3187097"></polygon>
                            <path d="M56.3403318,27.6404516 L51.3036498,21.9434931 L44.1509309,28.2667189 L44.4030968,28.5520645 C45.9426359,27.5110507 47.9583041,27.6520645 49.1112995,28.9560276 C50.2642949,30.2608203 50.1572903,32.2781475 48.935447,33.6783318 L49.1876129,33.9636774 L56.3403318,27.6404516 Z" id="Fill-9" fill="#6FA9F9"></path>
                            <path d="M49.1113825,28.9563594 C47.9575576,27.6515668 45.9427189,27.5113825 44.4031797,28.5523963 L48.93553,33.6778341 C50.1573733,32.2784793 50.2643779,30.2611521 49.1113825,28.9563594" id="Fill-11" fill="#FFFFFF"></path>
                            <path d="M49.2750415,27.9988756 L48.4978065,28.6856959 C48.24647,28.9088295 48.2224147,29.2937143 48.4455484,29.5450507 C48.668682,29.7972166 49.0527373,29.8212719 49.3049032,29.5981382 L50.0821382,28.911318 L49.2750415,27.9988756 Z" id="Fill-13" fill="#FED2B9"></path>
                            <path d="M49.3191705,26.6728479 C49.3191705,26.6728479 49.3589862,26.0980092 49.7828571,25.888977 C49.8848848,25.8475023 49.9570507,26.0216959 49.8981567,26.1527558 C49.8384332,26.2921106 49.3191705,26.6728479 49.3191705,26.6728479" id="Fill-15" fill="#FED2B9"></path>
                            <path d="M51.3807926,29.0049677 C51.3807926,29.0049677 51.9564608,29.035659 52.2152627,28.6408203 C52.2691797,28.5437696 52.1057696,28.4516959 51.9680737,28.494 C51.8229124,28.5363041 51.3807926,29.0049677 51.3807926,29.0049677" id="Fill-17" fill="#FED2B9"></path>
                            <path d="M51.8457235,28.6201659 C51.8681198,28.5969401 51.8896866,28.5737143 51.910424,28.551318 L53.0742028,27.3925161 C52.1567834,27.1843134 51.1613917,25.6140829 50.9747558,25.308 L49.8342028,26.2021935 C49.8084885,26.2204424 49.7827742,26.2386912 49.7570599,26.2577696 C49.6998249,26.3017327 49.6425899,26.3473548 49.5870138,26.3962949 C48.7376129,27.1469862 48.7417604,28.0909493 49.3224055,28.7470783 C49.9022212,29.4032074 50.8387189,29.5226544 51.6872903,28.7727926 C51.7428664,28.7238525 51.7959539,28.672424 51.8457235,28.6201659" id="Fill-19" fill="#FDDCC9"></path>
                            <path d="M53.0746175,27.3925991 L52.9020829,27.5643041 C53.0654931,27.523659 53.3101935,27.4506636 53.437106,27.3519539 C53.2579355,27.4282673 53.0746175,27.3925991 53.0746175,27.3925991" id="Fill-21" fill="#F2C56B"></path>
                            <path d="M53.9777696,26.8647926 C53.7745438,26.875576 53.5456037,26.6748387 53.2138065,26.1414747 C52.6174009,25.2190783 51.7422857,24.5347465 50.8771244,25.0067281 C50.0127926,25.4787097 49.7573088,26.2584332 49.7573088,26.2584332 C49.783023,26.2393548 49.8087373,26.2202765 49.8344516,26.2028571 L50.9750046,25.3078341 C51.1616406,25.6139171 52.1570323,27.1841475 53.0744516,27.3923502 C53.0744516,27.3923502 53.2577696,27.4280184 53.4377696,27.3517051 C53.3100276,27.4504147 53.0653272,27.5234101 52.9027465,27.5640553 L51.9106728,28.5511521 C51.889106,28.5743779 51.8683687,28.5967742 51.8459724,28.62 L51.8459724,28.62 C53.6061567,27.7697696 53.867447,27.2040553 53.9777696,26.8647926" id="Fill-23" fill="#FFD986"></path>
                            <path d="M72.6008848,47.6021198 L61.8166452,35.404424 L46.5033733,48.9434101 L47.0433733,49.5539171 C50.3389493,47.3258986 54.6531429,47.6270046 57.1225438,50.4199078 C59.5927742,53.2136406 59.3630046,57.5328111 56.7476129,60.5297696 L57.2876129,61.141106 L72.6008848,47.6021198 Z" id="Fill-25" fill="#6FA9F9"></path>
                            <path d="M57.1227926,50.4203226 C54.6533917,47.6265899 50.3391982,47.3254839 47.0436221,49.5543318 L56.7470323,60.5301843 C59.3632535,57.5323963 59.593023,53.2132258 57.1227926,50.4203226" id="Fill-27" fill="#FFFFFF"></path>
                            <path d="M57.474,48.3696498 L55.8108664,49.840341 C55.2708664,50.3172995 55.2202673,51.1409862 55.6972258,51.6809862 C56.1741843,52.2201567 56.9987005,52.2707558 57.537871,51.7937972 L59.2010046,50.323106 L57.474,48.3696498 Z" id="Fill-29" fill="#FED2B9"></path>
                            <path d="M57.5679816,45.5308756 C57.5679816,45.5308756 57.6542488,44.2990783 58.5608848,43.8528111 C58.779871,43.7640553 58.9341567,44.1356682 58.8080737,44.4168664 C58.6795023,44.7146544 57.5679816,45.5308756 57.5679816,45.5308756" id="Fill-31" fill="#FED2B9"></path>
                            <path d="M61.9819631,50.5235945 C61.9819631,50.5235945 63.2154194,50.5891244 63.7695207,49.743871 C63.8839908,49.5373272 63.5339447,49.3382488 63.2394747,49.4294931 C62.9284147,49.5199078 61.9819631,50.5235945 61.9819631,50.5235945" id="Fill-33" fill="#FED2B9"></path>
                            <path d="M62.9782673,49.6997419 C63.0255484,49.6508018 63.0711705,49.6010323 63.1167926,49.5512627 L65.6085899,47.0719078 C63.6443502,46.6248111 61.512553,43.2637051 61.1135668,42.607576 L58.6715392,44.5237051 C58.6159631,44.5618618 58.5612166,44.6016774 58.50647,44.6423226 C58.3828756,44.7352258 58.2609401,44.8339355 58.1414931,44.9392811 C56.3240737,46.5468387 56.3323687,48.5674839 57.5741198,49.9726452 C58.815871,51.376977 60.8207558,51.6332903 62.6390046,50.0265622 C62.7576221,49.9212166 62.8712627,49.8117235 62.9782673,49.6997419" id="Fill-35" fill="#C36886"></path>
                            <path d="M65.6089217,47.0719908 L65.2397972,47.4386267 C65.5890138,47.3523594 66.112424,47.1955853 66.3861567,46.9840645 C66.0012719,47.1474747 65.6089217,47.0719908 65.6089217,47.0719908" id="Fill-37" fill="#F2C56B"></path>
                            <path d="M67.5421382,45.9419724 C67.1083134,45.9651982 66.6189124,45.5355207 65.9063779,44.3933088 C64.629788,42.4174562 62.7559631,40.9542304 60.9045346,41.9637235 C59.053106,42.9732166 58.50647,44.6421567 58.50647,44.6421567 L58.50647,44.6429862 C58.5612166,44.602341 58.6159631,44.5616959 58.6715392,44.5235392 L61.1135668,42.6074101 C61.512553,43.2635392 63.6443502,46.6254747 65.6085899,47.0717419 C65.6085899,47.0717419 66.0017696,47.1480553 66.3858249,46.9838157 C66.1120922,47.1961659 65.588682,47.3521106 65.2402949,47.4392074 L63.1167926,49.5519263 C63.0711705,49.6016959 63.0255484,49.6506359 62.9782673,49.699576 L62.9782673,49.7004055 C66.7474839,47.8788387 67.3057327,46.6677788 67.5421382,45.9419724" id="Fill-39" fill="#FFD986"></path>
                            <path d="M50.3147281,20.8250876 L45.2780461,15.128129 L38.1261567,21.4513548 L38.3783226,21.7367005 C39.9170323,20.6956866 41.9327005,20.8367005 43.0856959,22.1414931 C44.2395207,23.4462857 44.1316866,25.4627834 42.9106728,26.8629677 L43.1628387,27.1483134 L50.3147281,20.8250876 Z" id="Fill-41" fill="#6FA9F9"></path>
                            <path d="M43.0858618,22.1414101 C41.9320369,20.8366175 39.9171982,20.6956037 38.3784885,21.7366175 L42.9108387,26.8628848 C44.1318525,25.4627005 44.2396866,23.4462028 43.0858618,22.1414101" id="Fill-43" fill="#FFFFFF"></path>
                            <path d="M43.2498525,21.1835115 L42.4726175,21.8703318 C42.2204516,22.0934654 42.1972258,22.4783502 42.4203594,22.7296866 C42.6426636,22.9818525 43.0275484,23.0059078 43.2797143,22.7827742 L44.0569493,22.0959539 L43.2498525,21.1835115 Z" id="Fill-45" fill="#FED2B9"></path>
                            <path d="M43.2936498,19.8578986 C43.2936498,19.8578986 43.3334654,19.2822304 43.7573364,19.0740276 C43.8601935,19.032553 43.9323594,19.2059171 43.8726359,19.3378065 C43.8129124,19.4763318 43.2936498,19.8578986 43.2936498,19.8578986" id="Fill-47" fill="#FED2B9"></path>
                            <path d="M45.3551889,22.1896037 C45.3551889,22.1896037 45.9308571,22.2202949 46.189659,21.8254562 C46.243576,21.729235 46.0801659,21.6363318 45.94247,21.6786359 C45.7973088,21.7209401 45.3551889,22.1896037 45.3551889,22.1896037" id="Fill-49" fill="#FED2B9"></path>
                            <path d="M44.0996682,19.1636129 C44.0996682,19.1636129 44.4497143,18.4029677 44.9167189,18.1109862 C45.382894,17.8190046 45.7080553,17.9376221 46.0647373,18.4029677 C46.4205899,18.8683134 46.8552442,18.8135668 47.0302673,19.2963318 C47.2044608,19.7790968 47.6648295,20.536424 47.2957051,20.9511705 C46.9257512,21.3659171 46.1476866,21.4795576 46.1476866,21.4795576 L44.0996682,19.1636129 Z" id="Fill-51" fill="#501F51"></path>
                            <path d="M45.823023,21.8076221 C45.8445899,21.7843963 45.8669862,21.7611705 45.8877235,21.7387742 L47.0515023,20.5799724 C46.1340829,20.3717696 45.1386912,18.8015392 44.9520553,18.4954562 L43.8115023,19.3896498 C43.785788,19.4078986 43.7600737,19.4261475 43.7343594,19.4452258 C43.6771244,19.4891889 43.6198894,19.5348111 43.5643134,19.5837512 C42.7149124,20.3352719 42.7190599,21.279235 43.2988756,21.9345346 C43.8786912,22.5906636 44.8151889,22.7101106 45.6645899,21.9602488 C45.7201659,21.9113088 45.772424,21.8598802 45.823023,21.8076221" id="Fill-53" fill="#FDDCC9"></path>
                            <path d="M44.3475207,18.9696774 C44.3475207,18.9696774 44.6901014,18.6835023 45.1869677,18.8576959 C45.4748018,18.8137327 46.5780276,20.3665438 46.5780276,20.3665438 C46.5780276,20.3665438 46.8094562,20.6933641 46.3706544,21.2574194 C46.7231889,21.0782488 47.2797788,20.5647926 47.2797788,20.5647926 L45.0642028,18.1658986 L44.3475207,18.9696774 Z" id="Fill-55" fill="#501F51"></path>
                            <path d="M42.1538433,28.0405991 L37.1171613,22.3436406 L29.9644424,28.6668664 L30.2166083,28.952212 C31.7561475,27.9111982 33.7718157,28.052212 34.9248111,29.3561751 C36.0778065,30.6609677 35.9708018,32.6782949 34.7489585,34.0784793 L35.0011244,34.3638249 L42.1538433,28.0405991 Z" id="Fill-57" fill="#6FA9F9"></path>
                            <path d="M34.9245622,29.3565069 C33.7715668,28.0517143 31.7558986,27.91153 30.2171889,28.9517143 L34.7495392,34.0779816 C35.970553,32.6786267 36.0783871,30.6612995 34.9245622,29.3565069" id="Fill-59" fill="#FFFFFF"></path>
                            <path d="M35.0886359,28.399023 L34.3114009,29.0858433 C34.0600645,29.3081475 34.0360092,29.6938618 34.2591429,29.9451982 C34.481447,30.1973641 34.8663318,30.2205899 35.1184977,29.9982857 L35.8957327,29.3114654 L35.0886359,28.399023 Z" id="Fill-61" fill="#DD8D74"></path>
                            <path d="M35.1323502,27.0729954 C35.1323502,27.0729954 35.1729954,26.4981567 35.5960369,26.2891244 C35.698894,26.2476498 35.7710599,26.4218433 35.7113364,26.5529032 C35.6516129,26.6922581 35.1323502,27.0729954 35.1323502,27.0729954" id="Fill-63" fill="#DD8D74"></path>
                            <path d="M37.1943041,29.4047005 C37.1943041,29.4047005 37.7699724,29.4353917 38.0287742,29.040553 C38.0826912,28.9443318 37.9192811,28.8514286 37.7815853,28.8937327 C37.636424,28.9360369 37.1943041,29.4047005 37.1943041,29.4047005" id="Fill-65" fill="#DD8D74"></path>
                            <path d="M35.6763318,26.7019631 C35.6763318,26.7019631 35.5825991,26.0599355 36.5730138,25.1740369 C37.5625991,24.2873088 40.0129217,26.2001198 38.8906175,27.7944055 C39.1154101,27.8582765 39.2506175,28.2879539 37.6961475,28.9855576 C37.030894,28.3709032 35.6763318,26.7019631 35.6763318,26.7019631" id="Fill-67" fill="#535758"></path>
                            <path d="M37.6613088,29.0223871 C37.6828756,28.9991613 37.7052719,28.9759355 37.7260092,28.9535392 L38.889788,27.7947373 C37.9723687,27.5865346 36.976977,26.0163041 36.790341,25.7102212 L35.649788,26.6044147 C35.6240737,26.6226636 35.5983594,26.6409124 35.5726452,26.6599908 C35.5154101,26.7039539 35.4581751,26.749576 35.4025991,26.7985161 C34.5531982,27.5500369 34.5573456,28.494 35.1371613,29.1492995 C35.716977,29.8054286 36.6534747,29.9248756 37.5028756,29.1750138 C37.5584516,29.1260737 37.6107097,29.0746452 37.6613088,29.0223871" id="Fill-69" fill="#ECA68C"></path>
                            <path d="M48.1790323,34.8555484 L43.1423502,29.1585899 L35.9904608,35.4818157 L36.2426267,35.7671613 C37.7813364,34.7261475 39.7970046,34.8671613 40.95,36.1719539 C42.1038249,37.4767465 41.9959908,39.4932442 40.774977,40.8934286 L41.0263134,41.1787742 L48.1790323,34.8555484 Z" id="Fill-71" fill="#6FA9F9"></path>
                            <path d="M40.9501659,36.171871 C39.796341,34.8670783 37.7815023,34.7260645 36.2427926,35.7670783 L40.7751429,40.8933456 C41.9961567,39.4931613 42.1039908,37.4766636 40.9501659,36.171871" id="Fill-73" fill="#FFFFFF"></path>
                            <path d="M41.1137419,35.2140553 L40.3365069,35.9008756 C40.0851705,36.1240092 40.0611152,36.508894 40.2842488,36.7602304 C40.5073825,37.0123963 40.8914378,37.0364516 41.1436037,36.813318 L41.9208387,36.1264977 L41.1137419,35.2140553 Z" id="Fill-75" fill="#DD879C"></path>
                            <path d="M43.0716774,35.572894 C43.0716774,35.572894 43.7701106,36.5948295 44.8393272,35.6500369 C45.1097419,35.5579631 45.7725069,35.0163041 45.3536129,34.492894 C45.6231982,34.2838618 45.8330599,33.9081014 45.4722304,33.4502212 C45.5153641,33.2511429 45.40753,31.969576 44.1790507,32.1039539 C44.0546267,31.8476406 43.8240276,31.5531705 43.2077143,31.850129 C42.9920461,31.6883779 42.3193272,31.6236774 41.8133364,32.393447 C41.5943502,32.5435853 41.1613548,33.0147373 41.7619078,33.7272719 C42.3317696,34.4547373 43.0716774,35.572894 43.0716774,35.572894" id="Fill-77" fill="#222558"></path>
                            <path d="M41.1579539,33.8883594 C41.1579539,33.8883594 41.1977696,33.3126912 41.6216406,33.1044885 C41.7236682,33.0630138 41.7966636,33.2363779 41.7369401,33.3682673 C41.6772166,33.5067926 41.1579539,33.8883594 41.1579539,33.8883594" id="Fill-79" fill="#DD879C"></path>
                            <path d="M43.2194931,36.2200645 C43.2194931,36.2200645 43.7951613,36.2507558 44.0539631,35.8559171 C44.1078802,35.7596959 43.94447,35.6667926 43.8067742,35.7090968 C43.6616129,35.7514009 43.2194931,36.2200645 43.2194931,36.2200645" id="Fill-81" fill="#DD879C"></path>
                            <path d="M43.6905622,35.8422304 C43.712129,35.8190046 43.7345253,35.7957788 43.7552627,35.772553 L44.9190415,34.6145806 C44.0016221,34.4063779 43.0062304,32.8361475 42.8195945,32.529235 L41.6790415,33.4242581 C41.6533272,33.4425069 41.6276129,33.4607558 41.6018986,33.4798341 C41.5446636,33.5237972 41.4874286,33.5694194 41.4318525,33.6183594 C40.5824516,34.3690507 40.5865991,35.3130138 41.1664147,35.9691429 C41.7462304,36.6252719 42.6835576,36.7447189 43.532129,35.9948571 C43.5877051,35.9450876 43.6399631,35.8944885 43.6905622,35.8422304" id="Fill-83" fill="#FA9CAF"></path>
                            <path d="M40.0178157,42.0711429 L34.9811336,36.3741843 L27.8292442,42.6974101 L28.0814101,42.9827558 C29.6201198,41.9417419 31.635788,42.0827558 32.7887834,43.3867189 C33.9426083,44.6915115 33.8347742,46.7088387 32.6137604,48.109023 L32.8659263,48.3943687 L40.0178157,42.0711429 Z" id="Fill-85" fill="#6FA9F9"></path>
                            <path d="M32.7888664,43.3870507 C31.6350415,42.0822581 29.6202028,41.9420737 28.0814931,42.9830876 L32.6138433,48.1085253 C33.8348571,46.7091705 33.9426912,44.6918433 32.7888664,43.3870507" id="Fill-87" fill="#FFFFFF"></path>
                            <path d="M32.9529401,42.4295668 L32.1757051,43.1163871 C31.9235392,43.3386912 31.9003134,43.7244055 32.123447,43.9757419 C32.3457512,44.2279078 32.7306359,44.2511336 32.9828018,44.0288295 L33.7600369,43.3420092 L32.9529401,42.4295668 Z" id="Fill-89" fill="#FED2B9"></path>
                            <path d="M32.9966544,41.1035392 C32.9966544,41.1035392 33.03647,40.5287005 33.460341,40.3196682 C33.5631982,40.2781935 33.6353641,40.4523871 33.5756406,40.583447 C33.5159171,40.7228018 32.9966544,41.1035392 32.9966544,41.1035392" id="Fill-91" fill="#FED2B9"></path>
                            <path d="M35.0581935,43.4352442 C35.0581935,43.4352442 35.6338618,43.4659355 35.8926636,43.0710968 C35.9465806,42.9748756 35.7831705,42.8819724 35.6454747,42.9242765 C35.5003134,42.9665806 35.0581935,43.4352442 35.0581935,43.4352442" id="Fill-93" fill="#FED2B9"></path>
                            <path d="M35.5236221,43.0508571 C35.5451889,43.0276313 35.5675853,43.0044055 35.5883226,42.9811797 L36.7521014,41.8232074 C35.834682,41.6150046 34.8392903,40.0447742 34.6526544,39.7386912 L33.5121014,40.6328848 C33.4863871,40.6511336 33.4606728,40.6693825 33.4349585,40.6884608 C33.3777235,40.732424 33.3204885,40.7780461 33.2649124,40.8269862 C32.4155115,41.5776774 32.419659,42.5216406 32.9994747,43.1777696 C33.5792903,43.8338986 34.5166175,43.9533456 35.3651889,43.2034839 C35.420765,43.1545438 35.473023,43.1031152 35.5236221,43.0508571" id="Fill-95" fill="#FDDCC9"></path>
                            <path d="M36.7524332,41.8232074 L36.5798986,41.9949124 C36.7433088,41.9542673 36.9871797,41.8812719 37.1149217,41.7825622 C36.9357512,41.8580461 36.7524332,41.8232074 36.7524332,41.8232074" id="Fill-97" fill="#F2C56B"></path>
                            <path d="M37.6552535,41.2954839 C37.4520276,41.3062673 37.2239171,41.10553 36.8912903,40.5721659 C36.2948848,39.6497696 35.4197696,38.9654378 34.5554378,39.4374194 C33.6902765,39.9094009 33.4356221,40.6891244 33.4356221,40.6891244 C33.4605069,40.6700461 33.4862212,40.6509677 33.5119355,40.6335484 L34.6524885,39.7385253 C34.8391244,40.0446083 35.8353456,41.6148387 36.752765,41.8230415 C36.752765,41.8230415 36.9352535,41.8587097 37.1152535,41.7823963 C36.9875115,41.881106 36.7428111,41.9541014 36.5802304,41.9947465 L35.5881567,42.9810138 C35.5674194,43.0050691 35.5458525,43.0274654 35.5234562,43.0506912 C37.2836406,42.2004608 37.5449309,41.6347465 37.6552535,41.2954839" id="Fill-99" fill="#FFD986"></path>
                            <path d="M33.9926267,35.2556959 L28.9559447,29.5587373 L21.8032258,35.8819631 L22.0553917,36.1673088 C23.5949309,35.1262949 25.6105991,35.2673088 26.7635945,36.5721014 C27.9165899,37.876894 27.8095853,39.8933917 26.5877419,41.293576 L26.8399078,41.5789217 L33.9926267,35.2556959 Z" id="Fill-101" fill="#6FA9F9"></path>
                            <path d="M26.7636774,36.5721014 C25.6098525,35.2673088 23.5950138,35.1262949 22.0554747,36.1673088 L26.5878249,41.293576 C27.8096682,39.8933917 27.9166728,37.876894 26.7636774,36.5721014" id="Fill-103" fill="#FFFFFF"></path>
                            <path d="M26.9273364,35.6142028 L26.1501014,36.301023 C25.898765,36.5241567 25.8747097,36.9090415 26.0978433,37.1603779 C26.320977,37.4125438 26.7050323,37.4365991 26.9571982,37.2134654 L27.7344332,36.5266452 L26.9273364,35.6142028 Z" id="Fill-105" fill="#FED2B9"></path>
                            <path d="M26.9714654,34.2885069 C26.9714654,34.2885069 27.0112811,33.7128387 27.4351521,33.5046359 C27.5371797,33.4631613 27.6093456,33.6365253 27.5504516,33.7684147 C27.4907281,33.9069401 26.9714654,34.2885069 26.9714654,34.2885069" id="Fill-107" fill="#FED2B9"></path>
                            <path d="M29.0330876,36.6202949 C29.0330876,36.6202949 29.6087558,36.6509862 29.8675576,36.2561475 C29.9214747,36.1599263 29.7580645,36.067023 29.6203687,36.1093272 C29.4752074,36.1516313 29.0330876,36.6202949 29.0330876,36.6202949" id="Fill-109" fill="#FED2B9"></path>
                            <path d="M27.7774839,33.5943041 C27.7774839,33.5943041 28.1267005,32.833659 28.5937051,32.5416774 C29.0607097,32.2496959 29.385871,32.3683134 29.742553,32.833659 C30.0984055,33.2990046 30.5330599,33.2442581 30.7072535,33.727023 C30.8822765,34.209788 31.3426452,34.9671152 30.9735207,35.3818618 C30.6035668,35.7966083 29.8246728,35.9102488 29.8246728,35.9102488 L27.7774839,33.5943041 Z" id="Fill-111" fill="#501F51"></path>
                            <path d="M29.5005069,36.2383134 C29.5229032,36.2150876 29.54447,36.1918618 29.5652074,36.1694654 L30.7289862,35.0106636 C29.8115668,34.8024608 28.8161751,33.2322304 28.6295392,32.9261475 L27.4889862,33.820341 C27.4632719,33.8385899 27.4375576,33.8568387 27.4118433,33.8759171 C27.3546083,33.9198802 27.2973733,33.9655023 27.2417972,34.0144424 C26.3923963,34.7651336 26.3965438,35.7090968 26.9771889,36.3652258 C27.5570046,37.0213548 28.4935023,37.1408018 29.3420737,36.3909401 C29.3976498,36.342 29.4507373,36.2905714 29.5005069,36.2383134" id="Fill-113" fill="#FDDCC9"></path>
                            <path d="M28.0249217,33.4002857 C28.0249217,33.4002857 28.3683318,33.1141106 28.8643687,33.2883041 C29.1522028,33.244341 30.2554286,34.7971521 30.2554286,34.7971521 C30.2554286,34.7971521 30.4876866,35.1239724 30.0480553,35.6880276 C30.4005899,35.5088571 30.9571797,34.9954009 30.9571797,34.9954009 L28.7416037,32.5965069 L28.0249217,33.4002857 Z" id="Fill-115" fill="#501F51"></path>
                            <path d="M25.8313272,42.4712903 L20.7946452,36.7743318 L13.6427558,43.0975576 L13.8949217,43.3829032 C15.4336313,42.3418894 17.4492995,42.4829032 18.6022949,43.7868664 C19.7561198,45.091659 19.6482857,47.1089862 18.4272719,48.5091705 L18.6794378,48.7945161 L25.8313272,42.4712903 Z" id="Fill-117" fill="#6FA9F9"></path>
                            <path d="M18.6024608,43.7871982 C17.4486359,42.4824055 15.4337972,42.3413917 13.8950876,43.3824055 L18.4274378,48.5086728 C19.6484516,47.109318 19.7562857,45.0919908 18.6024608,43.7871982" id="Fill-119" fill="#FFFFFF"></path>
                            <path d="M18.7664516,42.8292995 L17.9892166,43.5161198 C17.7370507,43.7392535 17.7138249,44.1241382 17.9369585,44.3763041 C18.1592627,44.6276406 18.5441475,44.6516959 18.7963134,44.4285622 L19.5727189,43.7417419 L18.7664516,42.8292995 Z" id="Fill-121" fill="#DD8D74"></path>
                            <path d="M18.8102488,41.5036866 C18.8102488,41.5036866 18.8500645,40.9280184 19.2739355,40.7198157 C19.3767926,40.678341 19.4489585,40.8517051 19.389235,40.9835945 C19.3295115,41.1229493 18.8102488,41.5036866 18.8102488,41.5036866" id="Fill-123" fill="#DD8D74"></path>
                            <path d="M20.871788,43.8353917 C20.871788,43.8353917 21.4474562,43.8660829 21.7062581,43.4712442 C21.7601751,43.375023 21.596765,43.2821198 21.4590691,43.324424 C21.3139078,43.3667281 20.871788,43.8353917 20.871788,43.8353917" id="Fill-125" fill="#DD8D74"></path>
                            <path d="M19.3541475,41.1326544 C19.3541475,41.1326544 19.2604147,40.4906267 20.2508295,39.6047281 C21.2395853,38.718 23.6907373,40.6308111 22.5676037,42.2250968 C22.7932258,42.2889677 22.9284332,42.7186452 21.3731336,43.4162488 C20.7087097,42.8015945 19.3541475,41.1326544 19.3541475,41.1326544" id="Fill-127" fill="#535758"></path>
                            <path d="M21.3387926,43.4530783 C21.3611889,43.4298525 21.3827558,43.4066267 21.4034931,43.3842304 L22.5672719,42.2254286 C21.6498525,42.0172258 20.6544608,40.4469954 20.4678249,40.1409124 L19.3272719,41.035106 C19.3015576,41.0533548 19.2758433,41.0716037 19.250129,41.090682 C19.192894,41.1346452 19.135659,41.1802673 19.0800829,41.2292074 C18.230682,41.9798986 18.2348295,42.9238618 18.8154747,43.5799908 C19.3952903,44.2361198 20.331788,44.3555668 21.1803594,43.6057051 C21.2359355,43.556765 21.289023,43.5053364 21.3387926,43.4530783" id="Fill-129" fill="#ECA68C"></path>
                            <path d="M31.8569309,49.2862396 L26.8202488,43.5892811 L19.66753,49.9125069 L19.9196959,50.1978525 C21.459235,49.1568387 23.4749032,49.2978525 24.6278986,50.6026452 C25.780894,51.9074378 25.6738894,53.9239355 24.4520461,55.3241198 L24.704212,55.6094654 L31.8569309,49.2862396 Z" id="Fill-131" fill="#6FA9F9"></path>
                            <path d="M24.6275668,50.6025622 C23.4745714,49.2977696 21.4589032,49.1567558 19.9201935,50.1977696 L24.4525438,55.3240369 C25.6735576,53.9238525 25.7813917,51.9073548 24.6275668,50.6025622" id="Fill-133" fill="#FFFFFF"></path>
                            <path d="M24.7916406,49.6446636 L24.0144055,50.3314839 C23.7630691,50.5546175 23.7390138,50.9395023 23.9621475,51.1908387 C24.1844516,51.4430046 24.5693364,51.4670599 24.8215023,51.2439263 L25.5987373,50.557106 L24.7916406,49.6446636 Z" id="Fill-135" fill="#DD879C"></path>
                            <path d="M26.7491613,50.0035023 C26.7491613,50.0035023 27.448424,51.0254378 28.5168111,50.0806452 C28.7872258,49.9885714 29.4499908,49.4469124 29.0310968,48.9235023 C29.300682,48.71447 29.5105438,48.3387097 29.1497143,47.8808295 C29.1928479,47.6817512 29.0850138,46.4001843 27.8565346,46.5345622 C27.7329401,46.2782488 27.5015115,45.9837788 26.8851982,46.2799078 C26.66953,46.1189862 25.9968111,46.0542857 25.4908203,46.8240553 C25.2718341,46.9741935 24.8388387,47.4453456 25.4402212,48.1578802 C26.0092535,48.8853456 26.7491613,50.0035023 26.7491613,50.0035023" id="Fill-137" fill="#222558"></path>
                            <path d="M24.8353548,48.3190507 C24.8353548,48.3190507 24.876,47.7433825 25.2990415,47.5351797 C25.4018986,47.4937051 25.4740645,47.6670691 25.414341,47.7989585 C25.3546175,47.9374839 24.8353548,48.3190507 24.8353548,48.3190507" id="Fill-139" fill="#DD879C"></path>
                            <path d="M26.8973917,50.6507558 C26.8973917,50.6507558 27.4730599,50.681447 27.7318618,50.2866083 C27.7857788,50.1903871 27.6223687,50.0974839 27.4846728,50.139788 C27.3395115,50.1820922 26.8973917,50.6507558 26.8973917,50.6507558" id="Fill-141" fill="#DD879C"></path>
                            <path d="M27.3683779,50.2725069 C27.3899447,50.2501106 27.4115115,50.2268848 27.4330783,50.203659 L28.5968571,49.0456866 C27.6794378,48.8366544 26.6840461,47.266424 26.4974101,46.960341 L25.3568571,47.8553641 C25.3311429,47.8727834 25.3054286,47.8918618 25.2797143,47.9109401 C25.2216498,47.9540737 25.1652442,47.9996959 25.1088387,48.0494654 C24.2602673,48.8001567 24.2644147,49.7441198 24.8442304,50.4002488 C25.4240461,51.0563779 26.3605438,51.1758249 27.2099447,50.4251336 C27.2655207,50.3761935 27.3177788,50.324765 27.3683779,50.2725069" id="Fill-143" fill="#FA9CAF"></path>
                            <path d="M8.2443318,34.9127005 L8.10497696,34.7550968 C7.95400922,34.5842212 7.96976959,34.3212719 8.14064516,34.1694747 L37.3446083,8.35067281 C37.5154839,8.19970507 37.7784332,8.21546544 37.9302304,8.38634101 L38.0695853,8.5439447 C38.220553,8.71482028 38.2039631,8.97859908 38.0330876,9.12956682 L8.82995392,34.9483687 C8.65907834,35.1001659 8.39529954,35.083576 8.2443318,34.9127005" id="Fill-145" fill="#F1F2F6"></path>
                            <path d="M35.3125991,12.5179631 C34.7767465,12.9916037 33.9596959,12.9410046 33.4860553,12.4059816 C33.0132442,11.870129 33.0638433,11.0530783 33.5988664,10.5794378 C34.1338894,10.1066267 34.9517696,10.1563963 35.4245806,10.6914194 C35.8982212,11.2272719 35.8476221,12.0451521 35.3125991,12.5179631" id="Fill-147" fill="#F1F2F6"></path>
                            <path d="M54.2240461,63.2734009 L44.0113272,51.7218802 C43.854553,51.5443687 43.8711429,51.2698065 44.0486544,51.1130323 L44.212894,50.967871 C44.3904055,50.8110968 44.6649677,50.8276866 44.8217419,51.0051982 L55.0344608,62.5567189 C55.1920645,62.7350599 55.1746452,63.0087926 54.9971336,63.1663963 L54.832894,63.3107281 C54.6553825,63.4675023 54.3808203,63.4509124 54.2240461,63.2734009" id="Fill-149" fill="#F1F2F6"></path>
                            <path d="M52.584553,64.723023 L42.3718341,53.1715023 C42.2150599,52.9939908 42.2316498,52.7194286 42.4091613,52.5626544 L42.5734009,52.4174931 C42.7509124,52.2607189 43.0254747,52.2773088 43.1822488,52.4548203 L53.3949677,64.006341 C53.5525714,64.184682 53.5351521,64.4584147 53.3576406,64.6160184 L53.1934009,64.7603502 C53.0158894,64.9171244 52.7413272,64.9005346 52.584553,64.723023" id="Fill-151" fill="#F1F2F6"></path>
                            <path d="M49.3430599,64.3608664 L40.7320922,54.6209585 C40.575318,54.443447 40.5919078,54.1688848 40.7694194,54.0121106 L40.933659,53.8669493 C41.1111705,53.7101751 41.3849032,53.726765 41.5425069,53.905106 L50.1534747,63.6441843 C50.3110783,63.8225253 50.293659,64.0962581 50.1161475,64.2538618 L49.9519078,64.3981935 C49.7743963,64.5549677 49.4998341,64.5383779 49.3430599,64.3608664" id="Fill-153" fill="#F1F2F6"></path>
                            <path d="M38.1299724,57.5969309 L37.9217696,57.3605253 C37.6944885,57.104212 37.7185438,56.7093733 37.9748571,56.4829217 L38.6658249,55.8715853 C38.9221382,55.6451336 39.3178065,55.6700184 39.5442581,55.9263318 L39.7532903,56.1627373 C39.9797419,56.4190507 39.9556866,56.8138894 39.6993733,57.040341 L39.0084055,57.6508479 C38.7520922,57.8772995 38.356424,57.8532442 38.1299724,57.5969309" id="Fill-155" fill="#00FFDB"></path>
                            <path d="M43.0056498,63.1118157 L42.7966175,62.8754101 C42.5701659,62.6190968 42.5942212,62.2242581 42.8505346,61.9978065 L43.5415023,61.38647 C43.7978157,61.1600184 44.1934839,61.1849032 44.4199355,61.4403871 L44.6289677,61.6776221 C44.8545899,61.9339355 44.8305346,62.3287742 44.5742212,62.5552258 L43.8840829,63.1657327 C43.6277696,63.3921843 43.2321014,63.368129 43.0056498,63.1118157" id="Fill-157" fill="#00FFDB"></path>
                            <path d="M40.5677696,60.3544147 L40.3587373,60.1180092 C40.1322857,59.8616959 40.156341,59.4668571 40.4126544,59.2404055 L41.1036221,58.6290691 C41.3599355,58.4026175 41.7556037,58.4275023 41.9820553,58.6838157 L42.1910876,58.9202212 C42.4175392,59.1765346 42.3926544,59.5713733 42.1371705,59.7978249 L41.4462028,60.4083318 C41.1898894,60.6347834 40.7942212,60.6107281 40.5677696,60.3544147" id="Fill-159" fill="#00FFDB"></path>
                            <path d="M39.3490783,58.9756313 L39.1400461,58.7392258 C38.9135945,58.4829124 38.9376498,58.0880737 39.1939631,57.8616221 L39.8849309,57.2502857 C40.1412442,57.0238341 40.5360829,57.0487189 40.7633641,57.3050323 L40.9723963,57.5414378 C41.1980184,57.7977512 41.1739631,58.1925899 40.9176498,58.4190415 L40.2275115,59.0295484 C39.9711982,59.256 39.57553,59.2319447 39.3490783,58.9756313" id="Fill-161" fill="#00FFDB"></path>
                            <path d="M41.7869585,61.7331152 L41.5779263,61.4967097 C41.3514747,61.2403963 41.37553,60.8455576 41.6318433,60.619106 L42.3228111,60.0077696 C42.5791244,59.781318 42.9739631,59.8062028 43.2012442,60.0625161 L43.409447,60.2989217 C43.6358986,60.555235 43.6118433,60.9500737 43.35553,61.1765253 L42.6653917,61.7870323 C42.4090783,62.0134839 42.0134101,61.9894286 41.7869585,61.7331152" id="Fill-163" fill="#00FFDB"></path>
                            <path d="M44.2247558,64.4905161 L44.0157235,64.2541106 C43.7892719,63.9977972 43.8133272,63.6029585 44.0696406,63.3765069 L44.7606083,62.7651705 C45.0169217,62.5387189 45.4117604,62.5627742 45.638212,62.8190876 L45.8472442,63.0563226 C46.0736959,63.3126359 46.0496406,63.7074747 45.7933272,63.9339263 L45.1031889,64.5444332 C44.8468756,64.7708848 44.4512074,64.7468295 44.2247558,64.4905161" id="Fill-165" fill="#00FFDB"></path>
                            <path d="M45.44353,65.8692166 L45.2344977,65.6328111 C45.0080461,65.3764977 45.0321014,64.981659 45.2884147,64.7552074 L45.9793825,64.143871 C46.2356959,63.9174194 46.6305346,63.9414747 46.8578157,64.197788 L47.0668479,64.435023 C47.29247,64.6913364 47.2684147,65.0861751 47.0121014,65.3126267 L46.3219631,65.9231336 C46.0656498,66.1495853 45.6699816,66.12553 45.44353,65.8692166" id="Fill-167" fill="#00FFDB"></path>
                            <path d="M35.8905899,59.5770968 L35.6815576,59.3406912 C35.455106,59.0843779 35.4791613,58.6895392 35.7354747,58.4622581 L36.4264424,57.8517512 C36.6827558,57.6252995 37.0775945,57.6493548 37.3048756,57.9056682 L37.5139078,58.1429032 C37.73953,58.3983871 37.7154747,58.7940553 37.4591613,59.0205069 L36.769023,59.6310138 C36.5127097,59.8574654 36.1170415,59.8334101 35.8905899,59.5770968" id="Fill-169" fill="#00FFDB"></path>
                            <path d="M45.64153,70.6063687 L45.4333272,70.3699631 C45.2060461,70.1136498 45.2301014,69.7188111 45.4864147,69.4923594 L46.1773825,68.881023 C46.4336959,68.6545714 46.8293641,68.6794562 47.0558157,68.9357696 L47.2648479,69.1721751 C47.4912995,69.4284885 47.4672442,69.8233272 47.2109309,70.0497788 L46.5199631,70.6602857 C46.2636498,70.8867373 45.8679816,70.862682 45.64153,70.6063687" id="Fill-171" fill="#00FFDB"></path>
                            <path d="M40.7662673,65.0919816 L40.557235,64.855576 C40.3307834,64.5992627 40.3548387,64.204424 40.6111521,63.9771429 L41.3021198,63.3666359 C41.5584332,63.1401843 41.9532719,63.1642396 42.180553,63.420553 L42.3895853,63.6569585 C42.6152074,63.9132719 42.5911521,64.3089401 42.3348387,64.5353917 L41.6447005,65.1458986 C41.3883871,65.3723502 40.9927189,65.3482949 40.7662673,65.0919816" id="Fill-173" fill="#00FFDB"></path>
                            <path d="M38.3283871,62.3345806 L38.1193548,62.0981751 C37.8929032,61.8418618 37.9169585,61.447023 38.1732719,61.2197419 L38.8642396,60.609235 C39.120553,60.3827834 39.5153917,60.4068387 39.7426728,60.6631521 L39.9517051,60.8995576 C40.1773272,61.155871 40.1532719,61.5515392 39.8969585,61.7779908 L39.2068203,62.3884977 C38.9505069,62.6149493 38.5548387,62.590894 38.3283871,62.3345806" id="Fill-175" fill="#00FFDB"></path>
                            <path d="M37.1092811,60.9558802 L36.9010783,60.7194747 C36.6737972,60.4631613 36.6978525,60.0683226 36.9541659,59.8410415 L37.6451336,59.2305346 C37.901447,59.0040829 38.2971152,59.0281382 38.5235668,59.2844516 L38.7325991,59.5208571 C38.9590507,59.7771705 38.9349954,60.1728387 38.678682,60.3992903 L37.9877143,61.0097972 C37.7314009,61.2362488 37.3357327,61.2121935 37.1092811,60.9558802" id="Fill-177" fill="#00FFDB"></path>
                            <path d="M39.5471613,63.7132811 L39.3389585,63.4768756 C39.1116774,63.2205622 39.1357327,62.8257235 39.3920461,62.5984424 L40.0830138,61.9879355 C40.3393272,61.7614839 40.7349954,61.7855392 40.961447,62.0418525 L41.1704793,62.2782581 C41.3969309,62.5345714 41.3728756,62.9302396 41.1165622,63.1566912 L40.4255945,63.7671982 C40.1692811,63.9936498 39.7736129,63.9695945 39.5471613,63.7132811" id="Fill-179" fill="#00FFDB"></path>
                            <path d="M41.9849585,66.470682 L41.7759263,66.2342765 C41.5494747,65.9779631 41.57353,65.5831244 41.8298433,65.3558433 L42.5208111,64.7453364 C42.7771244,64.5188848 43.1727926,64.5429401 43.3992442,64.7992535 L43.6082765,65.035659 C43.8347281,65.2919724 43.8098433,65.6876406 43.5543594,65.9140922 L42.8633917,66.5245991 C42.6070783,66.7510507 42.2114101,66.7269954 41.9849585,66.470682" id="Fill-181" fill="#00FFDB"></path>
                            <path d="M44.4228387,69.2276682 L44.2138065,68.9912627 C43.9873548,68.7349493 44.0114101,68.3401106 44.2677235,68.113659 L44.9586912,67.5023226 C45.2150046,67.275871 45.6098433,67.3007558 45.8371244,67.5570691 L46.0461567,67.7934747 C46.2717788,68.049788 46.2477235,68.4446267 45.9914101,68.6710783 L45.3012719,69.2815853 C45.0449585,69.5080369 44.6492903,69.4839816 44.4228387,69.2276682" id="Fill-183" fill="#00FFDB"></path>
                            <path d="M43.2041475,67.8493825 L42.9951152,67.612977 C42.7686636,67.3566636 42.7927189,66.9618249 43.0490323,66.7345438 L43.74,66.1240369 C43.9963134,65.8975853 44.3911521,65.9216406 44.6184332,66.1779539 L44.8266359,66.4143594 C45.0530876,66.6706728 45.0290323,67.066341 44.7727189,67.2927926 L44.0825806,67.9032995 C43.8262673,68.1297512 43.4305991,68.1056959 43.2041475,67.8493825" id="Fill-185" fill="#00FFDB"></path>
                            <path d="M33.6512074,61.5569309 L33.4421751,61.3205253 C33.2157235,61.064212 33.2397788,60.6693733 33.4960922,60.4429217 L34.1870599,59.8315853 C34.4433733,59.6051336 34.838212,59.6300184 35.0654931,59.8863318 L35.2736959,60.1227373 C35.5001475,60.3790507 35.4760922,60.7738894 35.2197788,61.000341 L34.5296406,61.6108479 C34.2733272,61.8372995 33.877659,61.8132442 33.6512074,61.5569309" id="Fill-187" fill="#00FFDB"></path>
                            <path d="M38.52647,67.0717327 L38.3182673,66.8353272 C38.0909862,66.5790138 38.1150415,66.1841751 38.3713548,65.9577235 L39.0623226,65.3463871 C39.3186359,65.1199355 39.7143041,65.1439908 39.9407558,65.4003041 L40.149788,65.6375392 C40.3762396,65.8938525 40.3521843,66.2886912 40.095871,66.5151429 L39.4049032,67.1256498 C39.1485899,67.3521014 38.7529217,67.3280461 38.52647,67.0717327" id="Fill-189" fill="#00FFDB"></path>
                            <path d="M36.0890046,64.3143318 L35.8799724,64.0779263 C35.6535207,63.8216129 35.677576,63.4267742 35.9338894,63.2003226 L36.6248571,62.5889862 C36.8811705,62.3625346 37.2760092,62.3874194 37.5032903,62.6437327 L37.7114931,62.8801382 C37.9379447,63.1364516 37.9138894,63.5312903 37.657576,63.7577419 L36.9674378,64.3682488 C36.7111244,64.5947005 36.3154562,64.5706452 36.0890046,64.3143318" id="Fill-191" fill="#00FFDB"></path>
                            <path d="M34.8698986,62.9356313 L34.6608664,62.6992258 C34.4344147,62.4429124 34.45847,62.0480737 34.7147834,61.8216221 L35.4057512,61.2102857 C35.6620645,60.9838341 36.0577327,61.0087189 36.2841843,61.2650323 L36.4932166,61.5014378 C36.7188387,61.7577512 36.6947834,62.1525899 36.4392995,62.3790415 L35.7483318,62.9895484 C35.4920184,63.216 35.0963502,63.1919447 34.8698986,62.9356313" id="Fill-193" fill="#00FFDB"></path>
                            <path d="M37.3077788,65.6930323 L37.0987465,65.4566267 C36.8722949,65.2003134 36.8963502,64.8054747 37.1526636,64.579023 L37.8436313,63.9676866 C38.0999447,63.741235 38.4947834,63.7661198 38.7220645,64.0216037 L38.9310968,64.2588387 C39.1567189,64.5151521 39.1326636,64.9099908 38.8763502,65.1364424 L38.186212,65.7469493 C37.9298986,65.9734009 37.5342304,65.9493456 37.3077788,65.6930323" id="Fill-195" fill="#00FFDB"></path>
                        </g>
                        <path d="M145.229724,62.8866912 C145.229724,62.8866912 149.129171,63.0600553 150.688618,64.4030046 C152.248065,65.7459539 153.244286,66.6127742 154.15424,66.9586728 C155.063364,67.3054009 154.240507,68.9088111 151.035346,68.6483502 C149.475069,68.4749862 148.955806,65.6588571 145.056359,66.8724055 C141.156912,68.0851244 145.229724,62.8866912 145.229724,62.8866912" id="Fill-198" fill="#FA9CAF"></path>
                        <path d="M81.3288111,168.073963 C81.8364608,176.503272 82.1035576,189.127327 81.7626359,199.580599 C85.2207926,188.750737 89.1268756,176.002258 89.1268756,176.002258 C89.1268756,176.002258 83.9284424,172.752304 81.3288111,168.073963" id="Fill-200" fill="#39376B"></path>
                        <path d="M100.764,152.704369 C90.0768111,144.727134 77.123447,138.643631 67.6522949,134.788977 C67.0641843,136.990452 66.1749677,141.3287 65.8680553,148.220959 C69.9325714,151.415336 80.0241843,156.494323 100.764,152.704369" id="Fill-202" fill="#39376B"></path>
                        <path d="M177.331687,87.8403318 C177.34247,87.6205161 177.333346,87.22153 177.290212,86.7495484 L176.205235,86.4218986 L177.331687,87.8403318 Z" id="Fill-204" fill="#DD879C"></path>
                        <path d="M177.331687,87.8403318 L176.205235,86.4218986 L177.290212,86.7495484 C177.161641,85.3584885 176.730304,83.3237419 175.598876,83.2913917 C174.082562,83.2482581 172.219521,85.5011613 171.959889,84.9810691 C171.699429,84.460977 173.216571,82.0786728 173.735834,81.6888111 C174.255926,81.2989493 176.162101,81.7750783 177.591318,81.2989493 C179.021364,80.8219908 180.104682,78.8295484 178.544406,78.872682 C176.984959,78.9158157 173.172608,78.7855853 172.392885,78.9158157 C171.613161,79.0460461 168.27694,83.0101935 168.34247,82.359871 C170.032147,78.8511152 174.060995,75.9263226 174.970949,74.2374747 C175.880074,72.5469677 175.490212,70.7278894 173.735834,71.8974747 C167.562747,76.6413456 163.988461,80.5407926 163.013806,82.6850323 C162.364313,79.8912995 161.51906,77.2916682 160.609106,76.8362765 C159.699152,76.3817143 158.789198,76.5766452 159.439521,80.0207005 C160.089014,83.4647558 158.954267,90.2599631 158.954267,90.2599631 C158.954267,90.2599631 163.382101,99.7112074 167.756018,98.2388571 C172.129935,96.7665069 174.515558,89.0530507 174.515558,89.0530507 C174.515558,89.0530507 175.815373,91.3490876 177.288553,91.6095484 C178.761733,91.8691797 179.497493,90.6133272 178.891134,90.2599631 C178.284774,89.9082581 177.938046,88.5769217 177.331687,87.8403318" id="Fill-206" fill="#FA9CAF"></path>
                        <path d="M165.937935,92.3025069 C162.558581,88.0140276 157.773235,90.7546728 157.773235,90.7546728 C157.773235,90.7546728 157.253972,91.3535668 156.419502,92.3099724 C159.212406,93.3418618 164.053327,94.4450876 166.302083,101.715594 L167.619318,99.8251797 C167.619318,99.8251797 168.472037,95.4869309 165.937935,92.3025069" id="Fill-208" fill="#FFFFFF"></path>
                        <path d="M24.7070323,254.393834 C18.1648203,248.1013 14.5258341,252.942221 14.5258341,252.942221 C16.2155115,258.401115 21.1543134,263.860009 25.9628848,264.509502 C25.9744977,264.500378 25.9894286,264.487106 26.001871,264.477152 C26.4298894,264.111346 30.3948664,260.441668 24.7070323,254.393834" id="Fill-210" fill="#1F1F3A"></path>
                        <path d="M62.7110046,305.286968 C54.9087926,300.569641 52.281788,306.007797 51.8828018,306.989917 C51.864553,307.038028 51.8446452,307.091115 51.8263963,307.139226 C58.4548756,314.157567 61.8334009,315.976645 64.822894,316.237106 C66.1550599,314.320147 68.3971797,309.630194 62.7110046,305.286968" id="Fill-212" fill="#1F1F3A"></path>
                        <path d="M68.2023318,133.025806 C68.2023318,133.025806 67.9717327,133.594009 67.6515484,134.788479 C77.12353,138.643963 90.076894,144.727465 100.764083,152.7047 C80.0242673,156.494654 69.9318249,151.415668 65.8681382,148.220461 C65.7379078,151.158525 65.713023,154.558618 65.8631613,158.456406 C61.1408571,176.068203 60.0583687,199.847281 57.6312719,204.59447 C52.0861106,209.619539 18.1648203,245.923963 14.5258341,252.942304 C14.5258341,252.942304 18.1648203,248.101382 24.7070323,254.393917 C30.3948664,260.441751 26.4298894,264.111429 26.001871,264.477235 C32.6212258,259.02 75.4827926,216.029032 76.6498894,214.472074 C77.1326544,213.829217 79.337447,207.176682 81.7628848,199.581014 C82.1038065,189.126912 81.8367097,176.502857 81.3290599,168.073548 C83.9278618,172.752719 89.1271244,176.001843 89.1271244,176.001843 C89.1271244,176.001843 86.0074009,219.410876 84.7075853,230.717696 C77.5772627,245.498433 59.3267558,287.304055 51.8828848,306.989585 C52.281871,306.008295 54.9088756,300.570138 62.7110876,305.286636 C68.3972627,309.629862 66.1551429,314.319816 64.822977,316.236774 C68.2023318,313.767373 104.333392,241.765714 105.892839,236.30682 C107.452286,230.847926 124.415419,147.955853 124.415419,147.955853 L68.2023318,133.025806 Z" id="Fill-214" fill="#474080"></path>
                        <path d="M42.0380461,320.409871 C42.0380461,320.409871 43.3295668,318.982313 44.6293825,318.624802 C45.9291982,318.26729 51.1326083,310.214571 51.1326083,310.214571 C51.1326083,310.214571 54.1088295,308.021392 59.4656959,312.129041 C63.350212,315.413834 62.6567558,317.146645 62.6567558,317.146645 C62.6567558,317.146645 60.0139908,323.904525 59.624129,327.673742 C59.2342673,331.442959 60.5340829,341.840654 61.9632995,347.428949 C63.3933456,353.018074 61.7584147,356.774848 60.5722396,357.810055 C58.432977,354.425724 42.0380461,320.409871 42.0380461,320.409871" id="Fill-216" fill="#FFFFFF"></path>
                        <path d="M44.0898802,320.770286 C46.809788,322.194525 52.4080369,330.474525 53.8803871,337.492866 C55.3535668,344.511207 61.7655484,354.301714 60.6390968,357.681069 C59.9456406,359.673512 50.0688664,355.514433 47.3821382,340.178765 C47.1225069,336.539779 36.8119078,316.957935 44.0898802,320.770286" id="Fill-218" fill="#FF645D"></path>
                        <path d="M53.4257419,337.752664 C51.9533917,330.734323 46.3551429,322.455152 43.635235,321.030083 C42.6290599,320.503355 41.9687834,320.436166 41.5615023,320.699115 L41.5548664,320.685014 L39.8361567,321.701972 L41.6527465,325.439668 C43.1284147,330.606581 46.7740369,338.292664 46.9274931,340.438562 C48.7913641,351.077641 54.1133917,356.334138 57.4313641,357.892756 L58.1248203,359.318654 L59.8659263,358.288424 L59.8634378,358.284276 C60.0177235,358.206304 60.1305346,358.093493 60.1844516,357.940866 C61.3109032,354.561512 54.8989217,344.771005 53.4257419,337.752664" id="Fill-220" fill="#FFFFFF"></path>
                        <path d="M41.8351521,322.091917 C44.5550599,323.516986 50.1533088,331.796157 51.6264885,338.814498 C53.0996682,345.832839 59.5108203,355.623346 58.3843687,359.0027 C57.6917419,360.995143 47.8141382,356.836894 45.1282396,341.500396 C44.8677788,337.86141 34.5571797,318.279567 41.8351521,322.091917" id="Fill-222" fill="#1F1F3A"></path>
                        <path d="M51.8441475,309.880369 L52.9963134,307.572719 C52.9963134,307.572719 54.5557604,304.063134 57.8919816,304.366728 C61.2273733,304.669493 66.2524424,306.96553 64.736129,312.901382 C63.9995392,314.460829 62.6599078,316.363687 62.6599078,316.363687 L51.8441475,309.880369 Z" id="Fill-224" fill="#FA9CAF"></path>
                        <path d="M14.1880645,254.885558 L16.2153456,252.682424 C16.2153456,252.682424 19.0746083,251.382608 21.6734101,252.682424 C24.2730415,253.98224 26.8071429,257.970442 25.4426267,262.084728 C24.208341,263.534682 21.032212,267.766756 21.032212,267.766756 L14.1880645,254.885558 Z" id="Fill-226" fill="#FA9CAF"></path>
                        <path d="M3.67158525,261.923309 C3.67158525,261.923309 6.72743779,259.668747 8.61204608,258.855843 C10.4966544,258.04377 13.6885438,254.891696 13.6885438,254.891696 C13.6885438,254.891696 21.3489124,254.177502 21.218682,264.770129 C21.2203239,266.719438 20.8943502,268.863677 20.8943502,268.863677 C20.8943502,268.863677 17.5796959,273.217687 16.8646728,278.676581 C15.4354562,287.319069 17.5796959,296.871512 16.0849493,299.276212 C14.3952719,301.940544 13.5616313,302.508747 13.5616313,302.508747 L3.67158525,261.923309 Z" id="Fill-228" fill="#FFFFFF"></path>
                        <path d="M5.41235945,262.748737 C7.76646083,264.719613 11.4751244,273.999982 11.4212074,281.170949 C11.3664608,288.341917 15.548765,299.273806 13.7288571,302.335465 C12.6272903,304.135465 3.86120737,297.969843 4.49991705,282.41353 C5.02000922,278.802747 -0.888470046,257.47482 5.41235945,262.748737" id="Fill-230" fill="#FF645D"></path>
                        <path d="M10.921106,281.328885 C10.975023,274.157917 7.26718894,264.876719 4.91225806,262.905843 C4.04129032,262.176719 3.41087558,261.971005 2.95714286,262.141051 L2.95382488,262.12612 L1.05677419,262.754046 L2.03723502,266.792848 C2.37981567,272.155521 4.30672811,280.441327 3.99981567,282.570636 C3.55686636,293.362341 7.63880184,299.63082 10.5494931,301.859668 L10.9235945,303.400866 L12.843871,302.764645 L12.8430415,302.759668 C13.0105991,302.716535 13.144977,302.631097 13.2295853,302.492571 C15.0486636,299.430912 10.8671889,288.499853 10.921106,281.328885" id="Fill-232" fill="#FFFFFF"></path>
                        <path d="M2.9279447,263.560396 C5.28287558,265.531272 8.99070968,274.81247 8.93679263,281.983438 C8.88287558,289.154406 13.0643502,300.085465 11.2444424,303.147124 C10.1437051,304.947124 1.37679263,298.781502 2.0155023,283.225189 C2.53559447,279.614406 -3.3720553,258.287309 2.9279447,263.560396" id="Fill-234" fill="#1F1F3A"></path>
                        <path d="M126.947696,106.599069 C126.947696,106.599069 124.997558,123.495014 124.737926,130.252894 C124.478295,137.011604 130.976544,152.737963 112.00106,156.116488 C93.025576,159.495843 80.6794009,135.321926 80.6794009,135.321926 L126.947696,106.599069 Z" id="Fill-236" fill="#FFFFFF"></path>
                        <path d="M89.2567742,136.751641 C83.9637788,136.855327 86.3220276,146.839935 83.2247005,152.78823 C86.8047926,153.741318 90.6486636,154.178461 94.7156682,153.907217 C108.557419,152.983991 116.646636,140.830258 121.261106,129.074682 C115.78894,132.718645 105.172258,137.76777 89.2567742,136.751641" id="Fill-238" fill="#1F1F3A"></path>
                        <path d="M148.051576,100.996341 L148.051576,100.995512 C146.67047,102.510995 145.405493,103.867217 144.493051,104.779659 L145.987797,106.728968 C145.987797,106.728968 146.606599,103.516341 148.051576,100.996341" id="Fill-240" fill="#39376B"></path>
                        <path d="M156.006664,92.0383963 C154.194221,94.115447 150.877078,97.8946175 148.051825,100.995263 L148.051825,100.996092 C146.606018,103.516092 145.988046,106.728719 145.988046,106.728719 L144.4933,104.77941 C139.684728,96.8511152 137.474959,90.093235 134.225834,81.6448479 C130.97671,73.1972903 114.470627,57.6011613 107.711917,52.2724977 C107.711917,52.2724977 93.5458341,37.1964608 90.6865714,36.4167373 C72.1009493,32.1274286 76.2600276,73.0670599 76.5204885,85.5442949 C76.7801198,98.0207005 66.7722857,105.169272 58.3247281,115.696369 C51.1355115,124.655724 62.7766175,147.343189 83.2244516,152.787982 C86.3226083,146.839687 83.96353,136.855078 89.2565253,136.751392 C105.172009,137.767521 115.789521,132.718396 121.260857,129.074433 C122.493484,125.934802 123.476433,122.825032 124.256157,119.963281 C125.376802,110.195171 123.915235,101.226691 123.915235,101.226691 L126.947862,106.599318 C134.225834,120.895631 138.124452,126.094065 143.193484,126.614157 C148.262516,127.134249 152.031733,123.105401 152.031733,123.105401 L166.569429,102.250286 C164.825834,94.5774747 159.239198,92.5568295 156.006664,92.0383963" id="Fill-242" fill="#474080"></path>
                        <path d="M95.7554378,68.2151889 C95.7554378,68.2151889 94.7160829,110.393253 77.3863134,129.074267 C86.9180184,120.202009 97.7304608,97.8753733 95.7554378,68.2151889" id="Fill-244" fill="#39376B"></path>
                        <path d="M124.256323,119.962949 C126.314295,112.411244 126.948028,106.598986 126.948028,106.598986 L123.914571,101.227189 C123.914571,101.227189 125.376968,110.194839 124.256323,119.962949" id="Fill-246" fill="#39376B"></path>
                        <path d="M102.15647,46.4887742 C102.15647,46.4887742 102.226147,46.8338433 102.161447,47.3680369 C102.105871,47.835871 101.940802,48.4488664 101.532691,49.1174378 C101.514442,49.1472995 101.502829,49.1755023 101.482922,49.2053641 C101.481263,49.207023 101.480433,49.208682 101.478774,49.210341 C100.689926,50.6602949 100.639327,52.8908018 103.987161,55.8247189 C108.925134,60.070894 113.43094,55.7384516 116.550664,57.2978986 C118.399604,58.2800184 119.215825,60.5860092 119.556747,62.0160553 L119.557576,62.0160553 C119.557576,62.0160553 120.089281,56.531447 123.612138,50.4529217 C127.134995,44.3743963 130.992968,48.1718157 134.751401,46.2382673 C138.509005,44.3038894 136.864949,40.7810323 138.314903,36.7057327 C139.765687,32.6296037 141.009097,24.5802028 141.009097,24.5802028 L102.15647,46.4887742 Z" id="Fill-248" fill="#FA9CAF"></path>
                        <path d="M142.505502,30.12047 C142.505502,30.12047 144.347806,26.8041567 145.222922,23.7192719 C145.47177,22.8408387 145.531493,21.5501475 145.490848,20.1549401 C144.862092,21.6944793 143.893244,23.6330046 142.505502,25.327659 L142.505502,30.12047 Z" id="Fill-250" fill="#334C62"></path>
                        <path d="M144.643687,12.4816313 L142.505253,18.338682 L142.505253,21.6325991 C143.73788,20.1270691 144.639539,18.4307558 145.265806,16.9915853 C145.011982,14.5470691 144.643687,12.4816313 144.643687,12.4816313" id="Fill-252" fill="#CCD1E5"></path>
                        <path d="M142.505502,21.632765 L142.505502,25.3273272 C143.893244,23.6326728 144.862092,21.6941475 145.490848,20.1554378 C145.460157,19.1169124 145.37306,18.0211521 145.266055,16.9917512 C144.639788,18.4309217 143.738129,20.127235 142.505502,21.632765" id="Fill-254" fill="#312F3C"></path>
                        <path d="M97.9287926,26.7125806 C97.3979171,25.9867742 96.9972719,25.2750691 96.7036313,24.5799539 C96.3087926,31.8222581 99.4658433,38.5519355 100.254691,39.8832719 C101.359576,41.7479724 101.975889,43.7487097 102.156719,46.4885253 C103.814046,49.113871 107.506949,51.9026267 113.378931,52.1091705 C117.937825,50.0370968 122.980313,43.474977 124.223724,38.7775576 C125.467134,34.4948848 127.262986,33.4588479 128.989991,33.2514747 C130.716995,33.0441014 131.614507,36.4292627 131.614507,36.4292627 C131.614507,36.4292627 132.236627,35.3932258 131.269438,32.491659 C130.639853,30.8575576 130.26824,29.186129 130.062525,27.5943318 C117.606857,33.1054839 102.390636,32.8184793 97.9287926,26.7125806" id="Fill-256" fill="#230849"></path>
                        <path d="M97.0539263,23.5724516 C96.6565991,22.7777972 96.3264608,21.8902396 96.0759539,20.8890415 C96.0759539,20.8890415 94.868212,29.5165991 96.0759539,31.5214839 C96.2667373,31.8391797 96.5786267,32.3053548 97.0539263,32.8403779 L97.0539263,32.2987189 L97.0539263,23.5724516 Z" id="Fill-258" fill="#55556D"></path>
                        <path d="M134.446728,24.5481014 C134.446728,24.5481014 118.645714,32.8339078 107.092535,30.4175945 C105.684885,29.997871 104.355207,29.5474562 103.132535,29.0041382 L103.132535,32.9981475 L103.132535,36.5881935 C107.544608,38.0174101 114.48,38.4462581 125.260092,35.5314194 C140.08977,30.4175945 143.42682,24.0645069 143.42682,24.0645069 L143.42682,17.0669032 L134.446728,24.5481014 Z" id="Fill-260" fill="#55556D"></path>
                        <path d="M99.3556866,31.5125253 C99.975318,32.0782396 101.278452,33.0769493 103.132369,33.5414654 L103.132369,29.5474562 C100.514488,28.3836774 98.3901567,26.7860737 97.0538433,24.115106 L97.0538433,32.8413733 L99.3556866,31.5125253 Z" id="Fill-262" fill="#444559"></path>
                        <path d="M116.016802,30.1225438 C119.955235,29.7642028 125.074037,28.8708387 129.96141,26.6884424 C129.932378,26.3840184 129.908323,26.0820829 129.891733,25.7867834 C125.448968,27.9285346 120.326018,29.498765 116.016802,30.1225438" id="Fill-264" fill="#230849"></path>
                        <path d="M98.5736406,21.4626359 C98.5197235,19.711576 98.7619355,18.2972903 99.1294009,17.1724977 C98.1439631,18.5287189 97.3476498,20.4390415 97.6529032,22.9366452 C98.3430415,28.600424 105.619355,30.3042028 110.223871,30.3506544 C110.370691,30.3523134 110.531613,30.3531429 110.705806,30.3539724 C103.007281,29.8264147 98.7519816,27.2267834 98.5736406,21.4626359" id="Fill-266" fill="#230849"></path>
                        <path d="M110.705724,30.3538065 C110.9413,30.3703963 111.179364,30.3844977 111.421576,30.3969401 C112.769502,30.4649585 114.330608,30.3662488 116.016968,30.1223779 C113.777336,30.3256037 111.919272,30.3571244 110.705724,30.3538065" id="Fill-268" fill="#656483"></path>
                        <path d="M101.692286,14.7647281 C101.036157,14.899106 100.427309,15.133023 99.8674009,15.4913641 C99.6011336,15.9591982 99.3439908,16.5166175 99.1299816,17.1719171 C100.080581,15.862977 101.207862,15.0683226 101.692286,14.7647281" id="Fill-270" fill="#656483"></path>
                        <path d="M134.124304,9.12110599 C132.632046,9.81290323 127.29177,10.8165899 121.377484,11.7779724 C127.659235,11.3715207 133.546977,11.1666359 135.736009,11.6079263 C141.262092,15.7985253 140.203659,17.1340092 139.558313,18.2397235 C137.907622,21.0666359 134.223014,23.697788 129.891401,25.7864516 C129.653336,21.7493088 130.371677,18.6080184 130.371677,18.6080184 C117.795733,20.8343779 107.7373,13.5240553 101.691954,14.764977 C100.705687,15.3837788 97.0542581,18.0282028 97.6523226,22.9363134 C98.3432903,28.6009217 105.618774,30.3047005 110.22412,30.3503226 C114.829465,30.3967742 133.203567,30.1578802 141.630387,16.9913364 C142.321355,15.5223041 137.394166,10.5951152 134.124304,9.12110599" id="Fill-272" fill="#3B3A48"></path>
                        <path d="M130.371346,18.6076037 C130.371346,18.6076037 129.653834,21.748894 129.891069,25.7868664 C134.222682,23.6982028 137.90729,21.0670507 139.558811,18.2393088 C140.203327,17.134424 141.26259,15.7989401 135.736507,11.608341 C133.546645,11.1662212 127.658903,11.3719355 121.377982,11.7775576 C112.328212,13.2490783 101.935493,14.6202304 101.935493,14.6202304 C101.935493,14.6202304 101.844249,14.6691705 101.692452,14.7645622 C107.736968,13.52447 117.79623,20.8339631 130.371346,18.6076037" id="Fill-274" fill="#FA9CAF"></path>
                        <path d="M99.6910507,15.8202581 C99.6777788,15.8468018 99.6645069,15.8733456 99.6504055,15.9007189 C99.6645069,15.8733456 99.6777788,15.8468018 99.6910507,15.8202581" id="Fill-276" fill="#230849"></path>
                        <path d="M115.232682,30.2249862 C115.100793,30.2407465 114.970562,30.2565069 114.840332,30.2706083 C114.765677,30.2780737 114.691853,30.2855392 114.617198,30.2930046 C114.50024,30.3046175 114.384111,30.3154009 114.268811,30.3261843 C114.191668,30.3319908 114.114525,30.3386267 114.038212,30.3444332 C113.927889,30.3527281 113.817567,30.361023 113.708903,30.3684885 C113.63176,30.3734654 113.556276,30.3776129 113.479963,30.3817604 C113.372129,30.3883963 113.265954,30.3933733 113.159779,30.3975207 C113.086783,30.4008387 113.012129,30.4041567 112.939134,30.4058157 C112.832129,30.4099631 112.726783,30.4116221 112.620608,30.4141106 C112.55259,30.4149401 112.483742,30.4157696 112.415724,30.4165991 C112.302083,30.4174286 112.190101,30.4165991 112.07812,30.4149401 C112.022544,30.4149401 111.965309,30.4149401 111.909733,30.4141106 C111.743834,30.4099631 111.581253,30.4049862 111.421161,30.3966912 C111.179779,30.3842488 110.941714,30.3701475 110.705309,30.3535576 C110.531945,30.3535576 110.371023,30.3518986 110.224203,30.3502396 C105.618857,30.3046175 98.3433733,28.6008387 97.6524055,22.9362304 C97.3479816,20.4394562 98.1442949,18.5291336 99.1297327,17.1720829 C99.1795023,17.0211152 99.2317604,16.8751244 99.2856774,16.7341106 C99.2939724,16.7125438 99.3014378,16.6918065 99.3097327,16.6702396 C99.3711152,16.5126359 99.4341567,16.3616682 99.4996866,16.2173364 C99.4225438,16.1244332 99.3470599,16.0307005 99.2757235,15.9328203 C97.591023,18.6875668 96.8618986,21.6745714 96.7034654,24.5802857 C96.9979355,25.2754009 97.3985806,25.987106 97.9286267,26.7129124 C102.3913,32.8188111 117.606691,33.1058157 130.062359,27.5946636 C130.023373,27.2894101 129.988535,26.9866452 129.961161,26.6880276 C125.073788,28.8712535 119.954986,29.7646175 116.016553,30.122129 C116.014894,30.122129 116.012406,30.1229585 116.009917,30.1229585 C115.812498,30.1519908 115.616737,30.1777051 115.423465,30.2025899 C115.358765,30.2108848 115.296553,30.2175207 115.232682,30.2249862" id="Fill-278" fill="#656483"></path>
                        <g id="Group-282" transform="translate(97.880184, 0.296959)">
                            <mask id="mask-4" fill="white">
                                <use xlink:href="#path-3"></use>
                            </mask>
                            <g id="Clip-281"></g>
                            <path d="M38.7783871,4.17890323 C38.3429032,2.33908756 37.6137788,0.911529954 37.0679724,0.532451613 C35.1120276,3.19429493 25.7014286,0.279456221 13.5145161,1.77503226 C3.95460829,2.94876498 1.93562212,10.8107005 1.50926267,14.1452627 C1.39230415,15.061023 1.39562212,15.6358618 1.39562212,15.6358618 C1.46695853,15.7337419 1.5424424,15.8274747 1.61958525,15.9203779 C1.66935484,15.8108848 1.71912442,15.7055392 1.770553,15.6035115 C1.71912442,15.7055392 1.66935484,15.8117143 1.61958525,15.9212074 C1.55488479,16.0655392 1.49101382,16.2156774 1.42963134,16.3732811 C1.42133641,16.3948479 1.41387097,16.4155853 1.40557604,16.4371521 C1.35165899,16.5789954 1.29940092,16.7241567 1.24963134,16.8751244 C0.881336406,17.9999171 0.639124424,19.4142028 0.693041475,21.1660922 C0.872211982,26.9302396 5.12668203,29.5290415 12.8252074,30.0565991 C13.0616129,30.0731889 13.2996774,30.0872903 13.5410599,30.0997327 C13.7011521,30.1080276 13.8637327,30.1130046 14.0296313,30.1171521 C14.0852074,30.1179816 14.1424424,30.1179816 14.1980184,30.1179816 C14.31,30.1196406 14.4219816,30.12047 14.5356221,30.1196406 C14.6028111,30.1188111 14.671659,30.1179816 14.7405069,30.1171521 C14.8458525,30.1146636 14.9520276,30.1130046 15.0590323,30.1088571 C15.1320276,30.1071982 15.206682,30.1038802 15.2796774,30.1005622 C15.3858525,30.0964147 15.4920276,30.0914378 15.5998618,30.0848018 C15.6753456,30.0806544 15.751659,30.0765069 15.8288018,30.07153 C15.9374654,30.0640645 16.047788,30.0557696 16.1581106,30.0474747 C16.234424,30.0416682 16.3115668,30.0350323 16.3887097,30.0292258 C16.5040092,30.0184424 16.6201382,30.007659 16.7370968,29.9960461 C16.8117512,29.9885806 16.8847465,29.9811152 16.9602304,29.9736498 C17.0904608,29.9595484 17.2206912,29.943788 17.3525806,29.9280276 C17.4164516,29.9205622 17.4786636,29.9139263 17.5433641,29.9056313 C17.7366359,29.8807465 17.9323963,29.8550323 18.1298157,29.826 C22.4406912,29.2030507 27.566129,27.6328203 32.0113825,25.4894101 C31.773318,21.4522673 32.4908295,18.310977 32.4908295,18.310977 C28.6154378,18.9969677 24.9781106,18.7763226 21.6236406,18.1799171 C26.072212,17.350424 30.334977,16.1874747 33.4206912,15.2965991 C36.4616129,14.4189954 38.0301843,12.5061843 38.7136866,10.3354009 C39.3557143,8.29484793 39.2163594,6.02867281 38.7783871,4.17890323" id="Fill-280" fill="#230849" mask="url(#mask-4)"></path>
                        </g>
                        <path d="M110.705724,30.3538065 L110.705724,30.3538065 C110.9413,30.3703963 111.179364,30.3844977 111.421576,30.3969401 C111.179364,30.3844977 110.9413,30.3703963 110.705724,30.3538065" id="Fill-283" fill="#656483"></path>
                        <path d="M99.1297327,17.1722488 C99.1795023,17.0204516 99.2317604,16.8761198 99.2856774,16.7342765 C99.2317604,16.8752903 99.1795023,17.0204516 99.1297327,17.1722488" id="Fill-285" fill="#656483"></path>
                        <path d="M112.620691,30.4136959 C112.726037,30.4120369 112.832212,30.4095484 112.939217,30.4062304 C112.832212,30.4095484 112.726037,30.4120369 112.620691,30.4136959" id="Fill-287" fill="#656483"></path>
                        <path d="M111.42141,30.3966912 C111.581502,30.4049862 111.744083,30.4099631 111.909982,30.4141106 C111.744083,30.4099631 111.581502,30.4049862 111.42141,30.3966912" id="Fill-289" fill="#656483"></path>
                        <path d="M99.3098986,16.6704055 C99.3712811,16.5128018 99.4343226,16.3626636 99.4998525,16.2183318 L99.4998525,16.2175023 C99.4343226,16.3618341 99.3712811,16.5128018 99.3098986,16.6704055" id="Fill-291" fill="#656483"></path>
                        <path d="M112.415724,30.4165991 C112.302083,30.4174286 112.190101,30.4165991 112.07812,30.4157696 C112.190101,30.4165991 112.302083,30.4174286 112.415724,30.4165991" id="Fill-293" fill="#656483"></path>
                        <path d="M113.160194,30.3975207 C113.265539,30.3933733 113.371714,30.3883963 113.479548,30.3817604 C113.372544,30.3883963 113.265539,30.3933733 113.160194,30.3975207" id="Fill-295" fill="#656483"></path>
                        <path d="M116.009917,30.1232903 C115.812498,30.1514931 115.616737,30.1780369 115.423465,30.2029217 C115.616737,30.1780369 115.812498,30.1514931 116.009917,30.1232903" id="Fill-297" fill="#656483"></path>
                        <path d="M114.840664,30.2703594 C114.970065,30.2562581 115.101124,30.2404977 115.233014,30.2247373 C115.101124,30.2404977 114.970065,30.2562581 114.840664,30.2703594" id="Fill-299" fill="#656483"></path>
                        <path d="M114.269143,30.3258525 C114.384442,30.3158986 114.500571,30.3042857 114.6167,30.2926728 C114.500571,30.3042857 114.384442,30.3158986 114.269143,30.3258525" id="Fill-301" fill="#656483"></path>
                        <path d="M113.708986,30.3683226 C113.81765,30.3608571 113.927972,30.3525622 114.038295,30.3442673 C113.927972,30.3525622 113.81765,30.3608571 113.708986,30.3683226" id="Fill-303" fill="#656483"></path>
                        <path d="M99.8676498,15.4917788 C99.8079263,15.5962949 99.7490323,15.7066175 99.6909677,15.8202581 C99.7490323,15.7066175 99.8079263,15.5962949 99.8676498,15.4917788" id="Fill-305" fill="#656483"></path>
                        <path d="M99.4999355,16.218 C99.5497051,16.1085069 99.5994747,16.0023318 99.6509032,15.9003041 C99.5994747,16.0031613 99.5497051,16.1076774 99.4999355,16.218 Z" id="Fill-307" fill="#656483"></path>
                        <path d="M96.7036313,24.5801198 C96.8620645,21.675235 97.5911889,18.6874009 99.2758894,15.9326544 C99.2758894,15.9326544 99.2725714,15.3578157 99.38953,14.4420553 C97.165659,16.7356037 94.9102673,20.3447281 96.7036313,24.5801198" id="Fill-309" fill="#656483"></path>
                        <path d="M136.658571,4.47586175 C137.096544,6.32563134 137.235899,8.59180645 136.593871,10.6323594 C139.389263,12.7094101 142.15977,15.8656313 141.630553,16.9912535 C138.64023,21.663788 134.396544,24.7071982 129.961244,26.6880276 C129.988618,26.9866452 130.022627,27.2894101 130.062442,27.5946636 C134.703456,25.5416682 138.962074,22.684894 142.137373,19.0218525 C147.088618,12.8330046 144.454977,6.96102304 136.658571,4.47586175" id="Fill-311" fill="#656483"></path>
                        <path d="M120.016037,61.0668664 C119.675115,59.6368203 118.399355,58.2805991 116.550415,57.2976498 C113.431521,55.7382028 108.924885,60.0706452 103.986912,55.8252995 C100.639908,52.890553 100.689677,50.6608756 101.478525,49.2109217 C101.495945,49.1785714 101.514194,49.1478802 101.532442,49.1171889 C101.940553,48.4486175 102.105622,47.8356221 102.162028,47.367788 C99.4686636,47.9318433 97.6329954,50.4145161 98.0079263,52.9660369 C100.780922,62.9299078 109.35871,64.0563594 113.691152,63.2285253 C118.023594,62.4006912 119.780461,63.2285253 119.780461,63.2285253 C119.780461,63.2285253 120.186083,61.7802304 120.016037,61.0668664" id="Fill-313" fill="#39376B"></path>
                    </g>
                </g>
                <g id="Group-9" transform="translate(532.000000, 163.000000)">
                    <line x1="60.8443355" y1="123.352361" x2="154.338251" y2="176.755714" id="Path-4" stroke="#FFFFFF" opacity="0.300000012"></line>
                    <line x1="86.931292" y1="137.700187" x2="123.797567" y2="158.758057" id="Path-4" stroke="url(#linearGradient-5)" stroke-linecap="round" stroke-linejoin="round"></line>
                    <line x1="275.399421" y1="177.052484" x2="322.625776" y2="150.139644" id="Path-5" stroke="#FFFFFF" opacity="0.300000012"></line>
                    <line x1="153.756125" y1="247.925308" x2="106.512649" y2="273.059431" id="Path-6" stroke="#FFFFFF" opacity="0.300000012"></line>
                    <line x1="215.903523" y1="140.419715" x2="215.903523" y2="68.5079859" id="Path-7" stroke="#FFFFFF" opacity="0.300000012" stroke-linecap="round" stroke-linejoin="round"></line>
                    <line x1="215.903523" y1="114.332759" x2="215.903523" y2="95.902325" id="Path-7" stroke="url(#linearGradient-6)" stroke-linecap="round" stroke-linejoin="round"></line>
                    <g id="Block" transform="translate(151.304348, 139.565217)" stroke="#00DFFF">
                        <path d="M64.624253,1.43003047 L125.685852,37.4202783 L64.6243136,72.0418697 L2.53499417,37.4202436 L64.624253,1.43003047 Z" id="Path-2"></path>
                        <path d="M64.624253,71.8648131 L125.685852,107.855061 L64.6243136,142.476652 L2.53499417,107.855026 L64.624253,71.8648131 Z" id="Path-2"></path>
                        <line x1="2.39944485" y1="37.8001632" x2="2.39944485" y2="107.217556" id="Path-3" stroke-linecap="round" stroke-linejoin="round"></line>
                        <line x1="125.217391" y1="37.826087" x2="125.217391" y2="107.24348" id="Path-3" stroke-linecap="round" stroke-linejoin="round"></line>
                        <line x1="63.9130435" y1="2.60869565" x2="63.9130435" y2="141.156523" id="Path-3" stroke-linecap="round" stroke-linejoin="round"></line>
                    </g>
                    <g id="Block" transform="translate(0.000000, 69.130435)" stroke="#FAA800">
                        <path d="M32.3110737,1.00458889 L62.3434606,18.705944 L32.3111342,35.7341252 L1.77327542,18.7059093 L32.3110737,1.00458889 Z" id="Path-2"></path>
                        <path d="M32.3110737,36.2219802 L62.3434606,53.9233354 L32.3111342,70.9515165 L1.77327542,53.9233006 L32.3110737,36.2219802 Z" id="Path-2"></path>
                        <line x1="1.19972242" y1="18.9000816" x2="1.19972242" y2="53.608778" id="Path-3" stroke-linecap="round" stroke-linejoin="round"></line>
                        <line x1="62.6086957" y1="18.9130435" x2="62.6086957" y2="53.6217399" id="Path-3" stroke-linecap="round" stroke-linejoin="round"></line>
                        <line x1="31.9565217" y1="1.30434783" x2="31.9565217" y2="70.5782617" id="Path-3" stroke-linecap="round" stroke-linejoin="round"></line>
                    </g>
                    <g id="Block" transform="translate(183.913043, 0.000000)" stroke="#9C73FF">
                        <path d="M32.3110737,1.00458889 L62.3434606,18.705944 L32.3111342,35.7341252 L1.77327542,18.7059093 L32.3110737,1.00458889 Z" id="Path-2"></path>
                        <path d="M32.3110737,36.2219802 L62.3434606,53.9233354 L32.3111342,70.9515165 L1.77327542,53.9233006 L32.3110737,36.2219802 Z" id="Path-2"></path>
                        <line x1="1.19972242" y1="18.9000816" x2="1.19972242" y2="53.608778" id="Path-3" stroke-linecap="round" stroke-linejoin="round"></line>
                        <line x1="62.6086957" y1="18.9130435" x2="62.6086957" y2="53.6217399" id="Path-3" stroke-linecap="round" stroke-linejoin="round"></line>
                        <line x1="31.9565217" y1="1.30434783" x2="31.9565217" y2="70.5782617" id="Path-3" stroke-linecap="round" stroke-linejoin="round"></line>
                    </g>
                    <g id="Block" transform="translate(75.652174, 263.478261)" stroke="#EE70A7">
                        <path d="M16.154484,0.791868102 L30.672265,9.34877693 L16.1545446,17.5802529 L1.39241604,9.34874222 L16.154484,0.791868102 Z" id="Path-2"></path>
                        <path d="M16.154484,18.4005638 L30.672265,26.9574726 L16.1545446,35.1889485 L1.39241604,26.9574379 L16.154484,18.4005638 Z" id="Path-2"></path>
                        <line x1="0.599861212" y1="9.4500408" x2="0.599861212" y2="26.804389" id="Path-3" stroke-linecap="round" stroke-linejoin="round"></line>
                        <line x1="31.3043478" y1="9.45652174" x2="31.3043478" y2="26.81087" id="Path-3" stroke-linecap="round" stroke-linejoin="round"></line>
                        <line x1="15.9782609" y1="0.652173913" x2="15.9782609" y2="35.2891308" id="Path-3" stroke-linecap="round" stroke-linejoin="round"></line>
                    </g>
                    <g id="Block" transform="translate(320.869565, 122.608696)" stroke="#00FFC3">
                        <path d="M16.154484,0.791868102 L30.672265,9.34877693 L16.1545446,17.5802529 L1.39241604,9.34874222 L16.154484,0.791868102 Z" id="Path-2"></path>
                        <path d="M16.154484,18.4005638 L30.672265,26.9574726 L16.1545446,35.1889485 L1.39241604,26.9574379 L16.154484,18.4005638 Z" id="Path-2"></path>
                        <line x1="0.599861212" y1="9.4500408" x2="0.599861212" y2="26.804389" id="Path-3" stroke-linecap="round" stroke-linejoin="round"></line>
                        <line x1="31.3043478" y1="9.45652174" x2="31.3043478" y2="26.81087" id="Path-3" stroke-linecap="round" stroke-linejoin="round"></line>
                        <line x1="15.9782609" y1="0.652173913" x2="15.9782609" y2="35.2891308" id="Path-3" stroke-linecap="round" stroke-linejoin="round"></line>
                    </g>
                </g>
            </g>
        </g>
    </g>
</svg>