<?xml version="1.0" encoding="UTF-8"?>
<svg width="658px" height="700px" viewBox="0 0 658 700" version="1.1" xmlns="http://www.w3.org/2000/svg" xmlns:xlink="http://www.w3.org/1999/xlink">
    <title>Group</title>
    <defs>
        <linearGradient x1="101.999998%" y1="35.8481316%" x2="0%" y2="64.1518684%" id="linearGradient-1">
            <stop stop-color="#19FFF3" offset="0%"></stop>
            <stop stop-color="#00A4FF" offset="100%"></stop>
        </linearGradient>
        <linearGradient x1="51.0417873%" y1="0%" x2="48.9982814%" y2="100%" id="linearGradient-2">
            <stop stop-color="#19FFF3" offset="0%"></stop>
            <stop stop-color="#00A4FF" offset="100%"></stop>
        </linearGradient>
        <polygon id="path-3" points="0.473028919 0.455 20.9924667 0.455 20.9924667 34.9315068 0.473028919 34.9315068"></polygon>
        <polygon id="path-5" points="5.07111111 7.88666667 14.4861111 7.88666667 14.4861111 17.6088889 5.07111111 17.6088889"></polygon>
    </defs>
    <g id="Page-1" stroke="none" stroke-width="1" fill="none" fill-rule="evenodd">
        <g id="VR-AR--Live-Blockchain" transform="translate(-270.000000, -100.000000)">
            <g id="Group" transform="translate(270.000000, 100.000000)">
                <g id="Group-9" opacity="0.300000012">
                    <line x1="128.971653" y1="351.240764" x2="50.9593483" y2="392.74429" id="Path-6" stroke="#FFFFFF"></line>
                    <line x1="103.125499" y1="364.163841" x2="82.1520156" y2="375.321998" id="Path-6" stroke="url(#linearGradient-1)" stroke-linecap="round" stroke-linejoin="round"></line>
                    <line x1="530.146736" y1="350.517434" x2="608.130768" y2="306.076745" id="Path-5" stroke="#FFFFFF"></line>
                    <line x1="330.671459" y1="582.949478" x2="330.671459" y2="464.202931" id="Path-7" stroke="#FFFFFF" stroke-linecap="round" stroke-linejoin="round"></line>
                    <line x1="330.671459" y1="539.872555" x2="330.671459" y2="509.438711" id="Path-7" stroke="url(#linearGradient-2)" stroke-linecap="round" stroke-linejoin="round"></line>
                    <g id="Block-3" transform="translate(329.538462, 234.769231) scale(1, -1) translate(-329.538462, -234.769231) translate(124.923077, 0.000000)" stroke="#B4EE73">
                        <path d="M206.320837,0.579147314 L408.231839,119.587282 L206.320897,234.069791 L1.01155667,119.587247 L206.320837,0.579147314 Z" id="Path-2"></path>
                        <polyline id="Path-6" stroke-linecap="round" stroke-linejoin="round" points="2.75120192 119.256611 205.982572 467.405649 408.284255 119.256611"></polyline>
                        <line x1="206.609375" y1="0.782451923" x2="206.609375" y2="467.683293" id="Path-7" stroke-linecap="round" stroke-linejoin="round"></line>
                    </g>
                    <g id="Block" transform="translate(144.307692, 116.307692)" stroke="#FAA800">
                        <path d="M53.3560674,1.28167135 L103.597223,30.894254 L53.356128,59.3807075 L2.26936917,30.8942193 L53.3560674,1.28167135 Z" id="Path-2"></path>
                        <path d="M53.3560674,59.4355175 L103.597223,89.0481002 L53.356128,117.534554 L2.26936917,89.0480655 L53.3560674,59.4355175 Z" id="Path-2"></path>
                        <line x1="1.9810801" y1="31.2093655" x2="1.9810801" y2="88.523213" id="Path-3" stroke-linecap="round" stroke-linejoin="round"></line>
                        <line x1="103.384615" y1="31.2307692" x2="103.384615" y2="88.5446167" id="Path-3" stroke-linecap="round" stroke-linejoin="round"></line>
                        <line x1="52.7692308" y1="2.15384615" x2="52.7692308" y2="116.544617" id="Path-3" stroke-linecap="round" stroke-linejoin="round"></line>
                    </g>
                    <g id="Block" transform="translate(277.846154, 581.538462)" stroke="#9C73FF">
                        <path d="M53.3560674,1.28167135 L103.597223,30.894254 L53.356128,59.3807075 L2.26936917,30.8942193 L53.3560674,1.28167135 Z" id="Path-2"></path>
                        <path d="M53.3560674,59.4355175 L103.597223,89.0481002 L53.356128,117.534554 L2.26936917,89.0480655 L53.3560674,59.4355175 Z" id="Path-2"></path>
                        <line x1="1.9810801" y1="31.2093655" x2="1.9810801" y2="88.523213" id="Path-3" stroke-linecap="round" stroke-linejoin="round"></line>
                        <line x1="103.384615" y1="31.2307692" x2="103.384615" y2="88.5446167" id="Path-3" stroke-linecap="round" stroke-linejoin="round"></line>
                        <line x1="52.7692308" y1="2.15384615" x2="52.7692308" y2="116.544617" id="Path-3" stroke-linecap="round" stroke-linejoin="round"></line>
                    </g>
                    <g id="Block" transform="translate(0.000000, 376.923077)" stroke="#EE70A7">
                        <path d="M26.6769809,0.930409333 L51.2991462,15.4429319 L26.6770414,29.4035441 L1.64046292,15.4428972 L26.6769809,0.930409333 Z" id="Path-2"></path>
                        <path d="M26.6769809,30.0073324 L51.2991462,44.519855 L26.6770414,58.4804671 L1.64046292,44.5198203 L26.6769809,30.0073324 Z" id="Path-2"></path>
                        <line x1="0.990540052" y1="15.6046828" x2="0.990540052" y2="44.2616065" id="Path-3" stroke-linecap="round" stroke-linejoin="round"></line>
                        <line x1="51.6923077" y1="15.6153846" x2="51.6923077" y2="44.2723083" id="Path-3" stroke-linecap="round" stroke-linejoin="round"></line>
                        <line x1="26.3846154" y1="1.07692308" x2="26.3846154" y2="58.2723083" id="Path-3" stroke-linecap="round" stroke-linejoin="round"></line>
                    </g>
                    <g id="Block" transform="translate(605.230769, 260.615385)" stroke="#00FFC3">
                        <path d="M26.6769809,0.930409333 L51.2991462,15.4429319 L26.6770414,29.4035441 L1.64046292,15.4428972 L26.6769809,0.930409333 Z" id="Path-2"></path>
                        <path d="M26.6769809,30.0073324 L51.2991462,44.519855 L26.6770414,58.4804671 L1.64046292,44.5198203 L26.6769809,30.0073324 Z" id="Path-2"></path>
                        <line x1="0.990540052" y1="15.6046828" x2="0.990540052" y2="44.2616065" id="Path-3" stroke-linecap="round" stroke-linejoin="round"></line>
                        <line x1="51.6923077" y1="15.6153846" x2="51.6923077" y2="44.2723083" id="Path-3" stroke-linecap="round" stroke-linejoin="round"></line>
                        <line x1="26.3846154" y1="1.07692308" x2="26.3846154" y2="58.2723083" id="Path-3" stroke-linecap="round" stroke-linejoin="round"></line>
                    </g>
                </g>
                <g id="Block" opacity="0.800000012" transform="translate(327.384615, 215.384615)" stroke="#00DFFF">
                    <path d="M106.71424,1.98419539 L208.193377,61.7968983 L106.714301,119.335034 L3.52718167,61.7968636 L106.71424,1.98419539 Z" id="Path-2"></path>
                    <path d="M106.71424,118.291888 L208.193377,178.104591 L106.714301,235.642727 L3.52718167,178.104556 L106.71424,118.291888 Z" id="Path-2"></path>
                    <line x1="3.96216021" y1="62.418731" x2="3.96216021" y2="177.046426" id="Path-3" stroke-linecap="round" stroke-linejoin="round"></line>
                    <line x1="206.769231" y1="62.4615385" x2="206.769231" y2="177.089233" id="Path-3" stroke-linecap="round" stroke-linejoin="round"></line>
                    <line x1="105.538462" y1="4.30769231" x2="105.538462" y2="233.089233" id="Path-3" stroke-linecap="round" stroke-linejoin="round"></line>
                </g>
                <g id="Page-1" transform="translate(116.666667, 175.000000)">
                    <path d="M268.764658,170.903425 C268.764658,170.903425 277.743425,180.20411 279.174247,181.778082 C280.605068,183.352055 279.174247,185.641781 279.174247,185.641781 C279.174247,185.641781 279.961233,188.289041 278.530411,189.647945 C278.530411,190.65 278.24411,192.509589 276.884521,192.939041 C276.383836,194.369863 272.020137,197.589726 272.020137,197.589726 L261.574247,178.844521 L259.570822,170.903425 L268.764658,170.903425 Z" id="Fill-1" fill="#D895AC"></path>
                    <path d="M157.762671,58.8639041 C157.762671,58.8639041 155.044178,43.0529452 160.194863,43.3385616 C160.194863,41.9077397 160.982534,40.8344521 163.701027,41.1926712 C163.701027,40.1193836 163.62911,39.3323973 166.634589,39.8330822 C166.634589,37.4721233 167.492808,29.6022603 168.351027,29.244726 C169.209932,28.8865068 169.925,30.7008904 169.853767,46.6070548 C170.711986,45.7714384 172.644178,43.4104795 173.788699,43.4104795 C174.933219,43.4104795 176.364726,44.0543151 175.577055,45.1276027 C174.790068,46.2008904 170.711986,48.6330822 169.639384,53.5700685 C169.781849,56.4317123 170.497603,58.1488356 170.497603,58.1488356 L168.994863,64.6591096 L160.839384,66.5193836 L157.762671,58.8639041 Z" id="Fill-3" fill="#D895AC"></path>
                    <path d="M271.58137,267.998767 C271.58137,267.998767 268.636849,271.467945 266.973151,272.970685 C265.310137,274.47274 264.740274,277.469315 268.549863,280.956986 C272.360137,284.445342 273.271781,284.283699 274.07726,287.07411 C274.88137,289.864521 275.096438,296.947397 286.042329,299.469315 C288.510822,299.737808 290.549863,296.786438 288.940274,293.459726 C287.33,290.133014 279.334795,276.664521 280.78411,270.869315 C272.251918,268.508356 271.58137,267.998767 271.58137,267.998767" id="Fill-5" fill="#222558"></path>
                    <path d="M271.501096,265.986438 C271.501096,265.986438 269.301096,270.654247 267.637397,272.156986 C265.974384,273.659726 265.759315,276.664521 269.569589,280.152192 C273.379178,283.639863 274.291507,283.479589 275.096301,286.269315 C275.901096,289.059726 276.115479,296.142603 287.062055,298.664521 C289.530548,298.933014 291.569589,295.981644 289.959315,292.654932 C288.350411,289.328219 280.355205,275.859726 281.803836,270.064521 C273.271644,267.703562 271.501096,265.986438 271.501096,265.986438" id="Fill-7" fill="#00D4FF"></path>
                    <g id="Group-11" transform="translate(260.171233, 314.843836)">
                        <mask id="mask-4" fill="white">
                            <use xlink:href="#path-3"></use>
                        </mask>
                        <g id="Clip-10"></g>
                        <path d="M10.3639726,0.455 C10.3639726,0.455 11.6516438,12.2597945 15.4612329,17.5186986 C19.2715068,22.7769178 23.8858904,31.6844521 18.6269863,34.5817123 C11.7057534,36.9967808 4.83726027,26.264589 3.71054795,22.0789726 C3.22767123,19.7186986 2.04684932,18.1084247 1.4030137,17.1960959 C0.759178082,16.2837671 -0.0456164384,13.4399315 0.920136986,10.1132192 C1.88589041,6.78650685 2.63726027,2.14541096 2.63726027,2.14541096 L10.3639726,0.455 Z" id="Fill-9" fill="#222558" mask="url(#mask-4)"></path>
                    </g>
                    <path d="M270.535205,313.850068 C270.535205,313.850068 271.822877,325.654863 275.632466,330.913767 C279.44274,336.171986 284.057123,345.079521 278.798219,347.976781 C271.876986,350.391849 265.008493,339.659658 263.881781,335.474041 C263.398904,333.113767 262.218082,331.503493 261.574247,330.591164 C260.930411,329.679521 260.125616,326.835 261.09137,323.508288 C262.057123,320.181575 260.072192,315.191164 260.072192,315.191164 L270.535205,313.850068 Z" id="Fill-12" fill="#00D4FF"></path>
                    <path d="M240.432671,209.32274 C240.432671,209.32274 251.915548,203.098767 253.310753,203.956986 C254.705959,204.815205 281.857329,230.142603 281.964178,231.32274 C282.071712,232.503562 269.730616,263.411096 269.730616,263.411096 L269.515548,266.200822 L278.423082,266.200822 L292.266918,225.313151 L252.023082,188.717945 L232.062123,193.596027 L240.432671,209.32274 Z" id="Fill-14" fill="#D6E1F1"></path>
                    <path d="M211.795616,202.525959 C211.795616,202.525959 237.749726,249.244452 240.325068,255.039658 C242.901096,260.834863 255.289452,311.703356 256.60726,315.567055 C257.996986,317.856096 269.086712,321.36226 271.805205,312.919795 C268.943562,299.111575 260.286027,256.006096 257.710685,247.420479 C255.135342,238.834863 238.751096,200.523219 238.751096,200.523219 C238.751096,200.523219 236.318904,196.802671 238.751096,195.943767 C241.183973,195.085548 249.340137,191.794452 252.631233,194.369795 C255.922329,196.945822 284.253836,227.710205 284.540137,229.999247 C284.826438,232.288973 269.515479,266.201301 269.515479,266.201301 C269.515479,266.201301 270.088082,271.638288 276.527123,272.640342 C280.676438,273.355411 282.966164,270.207466 282.966164,270.207466 L301.424384,231.001301 C301.424384,231.001301 303.570959,227.853356 300.279863,223.989658 C296.988767,220.125959 261.574384,178.844452 261.574384,178.844452 L258.381233,175.315 L233.631233,181.634863 L211.795616,202.525959 Z" id="Fill-16" fill="#FFFFFF"></path>
                    <path d="M199.328082,135.198014 C202.719178,136.491164 204.789726,138.015137 205.930137,138.600753 C205.619863,136.863082 205.941781,134.867877 206.50411,132.848014 C205.086986,134.255548 202.472603,135.202123 199.473288,135.202123 C199.424658,135.202123 199.376712,135.198699 199.328082,135.198014" id="Fill-18" fill="#FFFFFF"></path>
                    <path d="M256.358014,173.11774 C255.383356,173.169795 252.985411,173.643082 249.754589,174.497877 C239.270342,177.272534 220.012808,184.075274 212.09637,193.595822 C210.529932,195.480068 209.403219,197.469795 208.881301,199.557466 L211.795685,202.525959 C211.795685,202.525959 221.775822,190.029384 258.381301,175.315 L256.358014,173.11774 Z" id="Fill-20" fill="#4748FF"></path>
                    <path d="M251.199864,172.198237 C250.203311,170.177757 248.472104,167.100796 246.539664,165.614474 C240.512255,164.455158 235.179548,157.5 235.179548,157.5 C235.179548,157.5 219.182906,161.672651 211.086187,167.932367 C212.727874,172.8012 208.054357,182.074991 205.407979,186.479949 C205.871853,188.677249 207.684441,190.998101 209.198137,192.622032 C210.398884,193.911559 211.410973,194.763105 211.410973,194.763105 L211.411713,194.763105 C219.961949,184.478704 240.763797,177.130695 252.088402,174.133637 C252.088402,174.133637 251.757697,173.32944 251.199864,172.198237" id="Fill-22" fill="#C2CEDC"></path>
                    <path d="M191.474795,129.517192 C191.581644,129.202808 191.739863,128.898699 191.947397,128.609658 L191.946712,128.609658 C193.041233,126.613082 193.37411,123.68363 193.37411,123.68363 C193.37411,123.68363 206.091233,117.298699 205.500822,121.430205 C205.187808,123.624726 205.499452,125.354863 205.860411,126.500753 C205.860411,126.500753 207.454247,125.572671 209.416575,124.430205 C209.877534,122.882945 210.046712,121.632945 209.578904,120.893219 C207.111096,116.922671 202.347397,116.803493 197.452192,116.546644 C187.203562,116.010342 185.861781,122.556918 185.785753,126.098014 C185.756301,127.458973 185.913151,128.793219 186.261096,129.93226 C188.847397,129.810342 191.31726,129.550068 191.31726,129.550068 L191.474795,129.517192 Z" id="Fill-24" fill="#E15315"></path>
                    <path d="M225.623014,137.943242 C227.674384,141.574749 236.533288,153.253516 241.970959,157.474749 C246.977123,161.36105 256.716164,165.577489 256.606575,172.449406 C257.716164,170.210365 259.792192,167.668584 263.371644,168.340502 C263.854521,167.884338 263.946301,167.602831 263.834658,167.443927 C256.20863,160.872694 243.40863,151.065845 241.827808,149.318584 C239.788767,147.06516 231.310685,134.079543 226.910685,126.234338 C222.510685,118.389817 218.432603,120.343242 215.85726,121.845982 C214.473014,122.652831 211.695616,124.270639 209.416849,125.597352 C209.221644,126.252146 208.973014,126.963105 208.699726,127.70968 C213.298356,128.022009 222.21137,129.71379 225.623014,137.943242" id="Fill-26" fill="#A5B7CB"></path>
                    <path d="M263.371507,167.174041 C259.792055,166.502123 257.716712,169.043219 256.606438,171.282945 C256.596849,171.874726 256.522877,172.484315 256.357808,173.117877 C259.296164,176.28774 261.574247,178.844589 261.574247,178.844589 C260.716027,171.439795 266.581781,170.724726 268.764658,170.903493 C268.071507,170.103493 264.608493,168.309658 263.371507,167.174041" id="Fill-28" fill="#FFFFFF"></path>
                    <path d="M170.497804,67.6640411 L170.497804,58.1482877 C170.511438,59.1859589 168.351164,63.5140411 164.058699,63.2284247 C159.766233,62.9421233 157.762808,58.8640411 157.762808,58.8640411 L157.762808,67.4496575 C157.762808,67.4496575 163.718973,73.4592466 170.497804,67.6640411" id="Fill-30" fill="#FFFFFF"></path>
                    <path d="M205.860685,126.500548 C206.179178,127.511507 206.536027,128.068356 206.536027,128.068356 C206.536027,128.068356 206.179178,127.511507 205.860685,126.500548" id="Fill-32" fill="#D6E1F1"></path>
                    <path d="M191.31726,130.444589 C191.31726,130.285685 191.331644,130.128836 191.357671,129.974041 C191.331644,130.128836 191.31726,130.285685 191.31726,130.444589" id="Fill-34" fill="#D6E1F1"></path>
                    <path d="M256.606507,171.283014 C256.353767,171.792603 256.151027,172.286438 255.992123,172.723425 C256.116096,172.856301 256.236644,172.986438 256.357877,173.117945 C256.522945,172.484384 256.596918,171.874795 256.606507,171.283014" id="Fill-36" fill="#D6E1F1"></path>
                    <path d="M187.469863,132.200753 C187.341781,132.062397 187.221918,131.911712 187.108904,131.750068 C187.222603,131.911712 187.341781,132.063082 187.469863,132.200753" id="Fill-38" fill="#D6E1F1"></path>
                    <path d="M187.855822,132.555274 C187.729795,132.455274 187.609247,132.345685 187.494863,132.224452 C187.609247,132.345685 187.729795,132.455274 187.855822,132.555274" id="Fill-40" fill="#D6E1F1"></path>
                    <path d="M187.068562,131.686712 C186.973356,131.545616 186.882945,131.396986 186.798699,131.240822 C186.882945,131.396986 186.973356,131.545616 187.068562,131.686712" id="Fill-42" fill="#D6E1F1"></path>
                    <path d="M188.779521,133.046849 C188.664452,133.010548 188.551438,132.968767 188.442534,132.918082 C188.551438,132.968767 188.663767,133.010548 188.779521,133.046849" id="Fill-44" fill="#D6E1F1"></path>
                    <path d="M186.740137,131.126507 C186.66274,130.975137 186.589452,130.816918 186.521644,130.653219 C186.589452,130.816918 186.66274,130.975137 186.740137,131.126507" id="Fill-46" fill="#D6E1F1"></path>
                    <path d="M189.457123,133.181301 C189.274247,133.169658 189.100274,133.138151 188.931781,133.095685 C189.100274,133.138151 189.274247,133.169658 189.457123,133.181301" id="Fill-48" fill="#D6E1F1"></path>
                    <path d="M188.287603,132.838836 C188.181438,132.781301 188.078699,132.715548 187.979384,132.644315 C188.078699,132.715548 188.181438,132.781301 188.287603,132.838836" id="Fill-50" fill="#D6E1F1"></path>
                    <path d="M186.477603,130.547603 C186.399521,130.349658 186.326233,130.146233 186.261164,129.933219 C186.326233,130.146233 186.399521,130.349658 186.477603,130.547603" id="Fill-52" fill="#D6E1F1"></path>
                    <path d="M205.860685,126.500548 C206.179178,127.511507 206.536027,128.068356 206.536027,128.068356 L206.533288,128.069726 C207.025753,128.566301 207.362055,129.120411 207.521644,129.709452 C207.783973,128.986164 208.053151,128.275205 208.31137,127.588219 C208.444932,127.232055 208.574384,126.884795 208.699726,126.543014 C208.973014,125.796438 209.221644,125.085479 209.416849,124.430685 C207.454521,125.573151 205.860685,126.500548 205.860685,126.500548" id="Fill-54" fill="#FFFFFF"></path>
                    <path d="M191.31726,130.444589 C191.31726,130.127466 191.37274,129.817192 191.474795,129.517192 L191.31726,129.550068 C191.31726,129.550068 188.847397,129.810342 186.261096,129.93226 C186.81863,131.759658 187.870685,133.08226 189.456986,133.181575 C190.883699,133.260342 192.191233,133.417192 193.411781,133.619932 C192.113836,132.777466 191.31726,131.666507 191.31726,130.444589" id="Fill-56" fill="#FFFFFF"></path>
                    <path d="M199.473219,135.202329 C199.424589,135.202329 199.376644,135.198904 199.328014,135.198219 C202.71911,136.49137 204.789658,138.014658 205.930068,138.600959 C205.619795,136.862603 205.941712,134.868082 206.504041,132.848219 C205.086918,134.255068 202.472534,135.202329 199.473219,135.202329" id="Fill-58" fill="#FFFFFF"></path>
                    <path d="M256.607424,171.283014 C256.716096,164.410411 246.977055,160.194658 241.97089,156.308356 C236.533219,152.087123 227.674315,140.407671 225.622945,136.776849 C222.211301,128.546712 213.298973,126.854932 208.699658,126.542603 C208.574315,126.885068 208.444863,127.232329 208.311301,127.588493 C209.198288,127.989178 210.283904,128.487808 211.481849,129.051507 C210.555822,134.011096 207.807877,138.329589 207.200342,141.57 C203.909247,140.496712 199.186644,139.137123 194.393493,139.495342 C189.600342,139.852877 184.015411,137.491918 184.160616,131.983014 C184.177055,131.365205 184.180479,130.694658 184.187329,129.991918 C182.47363,130.005616 181.005137,129.903562 180.57089,129.550137 C178.195548,127.547397 172.930479,106.799452 172.214726,100.990548 C171.499658,95.1809589 171.320205,72.2247945 171.42774,69.8638356 C171.535274,67.5028767 170.497603,67.6638356 170.497603,67.6638356 C163.718836,73.4590411 157.762671,67.4494521 157.762671,67.4494521 C156.403082,67.7357534 155.044178,88.77 159.622945,112.420685 C164.201712,136.070685 189.993493,176.161781 193.964041,189.469315 C197.935274,202.776164 207.915411,203.527534 208.881164,199.556986 C209.403082,197.47 210.530479,195.480274 212.096918,193.596027 L212.096233,193.596027 C212.096233,193.596027 211.158562,192.807671 210.046918,191.614521 C208.646233,190.110411 206.968151,187.962466 206.538699,185.927534 C208.988699,181.849452 213.315411,173.264521 211.795548,168.756986 C219.291438,162.961781 234.101027,159.098082 234.101027,159.098082 C234.101027,159.098082 239.038014,165.537123 244.618151,166.610411 C246.407192,167.987123 248.009932,170.835068 248.932534,172.706301 C249.448973,173.752877 249.755137,174.497397 249.755137,174.497397 C252.985274,173.642603 255.383219,173.169315 256.357877,173.117945 C256.236644,172.986438 256.116096,172.856301 255.992123,172.723425 C256.151027,172.286438 256.353767,171.792603 256.607424,171.283014" id="Fill-60" fill="#D6E1F1"></path>
                    <path d="M206.53589,128.068082 C206.53589,128.068082 206.179041,127.511233 205.860548,126.500274 C205.499589,125.355068 205.18726,123.624932 205.500959,121.430411 C206.09137,117.298219 193.374247,123.683836 193.374247,123.683836 C193.374247,123.683836 193.04137,126.613288 191.946849,128.609863 L191.947534,128.609863 C191.742055,128.896164 191.603014,129.200959 191.496164,129.512603 L191.474932,129.517397 C191.423562,129.667397 191.384521,129.819452 191.357808,129.974247 C191.331781,130.129041 191.317397,130.28589 191.317397,130.444795 C191.317397,131.666712 192.113288,132.776986 193.411233,133.619452 C195.724932,134.004384 197.685205,134.571507 199.328356,135.198219 C199.376986,135.198904 199.424247,135.202329 199.472877,135.202329 C202.472877,135.202329 205.08726,134.255068 206.503699,132.848219 C206.796164,131.797534 207.147534,130.74137 207.521507,129.709178 C207.362603,129.120822 207.025616,128.566712 206.533151,128.069452 L206.53589,128.068082 Z" id="Fill-62" fill="#D895AC"></path>
                    <path d="M188.44274,132.917808 C188.39,132.893151 188.33863,132.866438 188.28726,132.839041 C188.33863,132.866438 188.39,132.893151 188.44274,132.917808" id="Fill-64" fill="#F06B32"></path>
                    <path d="M186.521438,130.653288 C186.507055,130.618356 186.491986,130.583425 186.477603,130.547808 C186.491986,130.583425 186.507055,130.618356 186.521438,130.653288" id="Fill-66" fill="#F06B32"></path>
                    <path d="M188.932055,133.095342 C188.88,133.082329 188.830685,133.063151 188.779315,133.046712 C188.830685,133.063151 188.88,133.082329 188.932055,133.095342" id="Fill-68" fill="#F06B32"></path>
                    <path d="M187.109041,131.749932 C187.094658,131.730068 187.082329,131.707466 187.06863,131.686918 C187.082329,131.707466 187.094658,131.730068 187.109041,131.749932" id="Fill-70" fill="#F06B32"></path>
                    <path d="M186.79863,131.240548 C186.778767,131.202877 186.759589,131.164521 186.740411,131.126164 C186.759589,131.164521 186.778767,131.202877 186.79863,131.240548" id="Fill-72" fill="#F06B32"></path>
                    <path d="M187.979589,132.644521 C187.938493,132.615068 187.896027,132.586986 187.855616,132.555479 C187.896027,132.586986 187.938493,132.615068 187.979589,132.644521" id="Fill-74" fill="#F06B32"></path>
                    <path d="M187.494658,132.224521 C187.486438,132.216301 187.478219,132.209452 187.47,132.200548 C187.478219,132.209452 187.486438,132.216301 187.494658,132.224521" id="Fill-76" fill="#F06B32"></path>
                    <path d="M206.503836,132.848219 C205.941507,134.868082 205.619589,136.862603 205.930548,138.600959 C204.789452,138.014658 202.719589,136.49137 199.327808,135.198219 C197.685342,134.571507 195.725068,134.004384 193.41137,133.619452 C192.191507,133.417397 190.883288,133.260548 189.45726,133.181096 C189.274384,133.170137 189.100411,133.137945 188.931918,133.095479 C188.879863,133.082466 188.830548,133.062603 188.779863,133.046849 C188.66411,133.010548 188.551096,132.968767 188.442877,132.918082 C188.390137,132.89274 188.338767,132.866712 188.287397,132.83863 C188.181233,132.781096 188.079178,132.716027 187.979863,132.644795 C187.938767,132.614658 187.896301,132.58726 187.85589,132.555068 C187.729863,132.455068 187.609315,132.345479 187.494932,132.224247 C187.486712,132.216027 187.477808,132.209178 187.469589,132.200959 C187.341507,132.063288 187.222329,131.911233 187.109315,131.749589 C187.094932,131.729726 187.082603,131.707123 187.068904,131.686575 C186.973014,131.546164 186.883288,131.396849 186.798356,131.240685 C186.778493,131.203014 186.759315,131.164658 186.740137,131.126301 C186.66274,130.974932 186.589452,130.817397 186.521644,130.653014 C186.506575,130.618082 186.491507,130.583151 186.477808,130.547534 C186.399041,130.350274 186.326438,130.146164 186.26137,129.933151 C185.913425,128.793425 185.756575,127.458493 185.785342,126.098219 C185.862055,122.557123 187.203151,116.010548 197.452466,116.546849 C202.347671,116.803699 207.110685,116.922877 209.579178,120.893425 C210.51137,122.366712 208.915479,125.863288 207.521644,129.709178 C207.147671,130.74137 206.796301,131.797534 206.503836,132.848219 M211.420959,122.610548 C209.632603,114.955068 196.941507,115.38726 192.462055,115.885205 C184.457945,116.774932 184.237397,124.430411 184.186712,129.992055 C184.180548,130.69411 184.177123,131.365342 184.160685,131.983151 C184.015479,137.492055 189.600411,139.853014 194.393562,139.495479 C199.186712,139.13726 203.90863,140.496849 207.200411,141.570137 C207.807945,138.329041 210.55589,134.010548 211.481918,129.051644 C211.86411,127.003014 211.944247,124.848219 211.420959,122.610548" id="Fill-78" fill="#F06B32"></path>
                    <path d="M184.90137,108.802397 C184.90137,108.802397 178.29589,98.4640411 186.988356,90.3078767 C195.681507,82.1517123 210.991781,84.0839041 209.346575,91.7030822 C211.456849,90.6297945 218.608904,95.3010274 213.369178,107.346233 C210.061644,106.405822 184.90137,108.802397 184.90137,108.802397" id="Fill-80" fill="#222558"></path>
                    <path d="M209.346575,91.7031507 C209.346575,91.7031507 204.839041,96.2106849 184.162329,96.7113699 C184.162329,101.362055 183.661644,125.901781 198.4,125.901781 C213.138356,125.901781 214.354795,100.002466 214.354795,100.002466 C214.354795,100.002466 213.138356,94.8510959 209.346575,91.7031507" id="Fill-82" fill="#E3A7BC"></path>
                    <path d="M184.558562,106.234247 C184.558562,106.234247 183.102397,104.321918 181.102397,106.234247 C179.102397,108.146575 183.238699,111.782192 185.37089,111.40411 C187.501712,111.026712 184.558562,106.234247 184.558562,106.234247" id="Fill-84" fill="#A95689"></path>
                    <path d="M213.682877,106.234247 C213.682877,106.234247 215.139041,104.321918 217.139041,106.234247 C219.139041,108.146575 215.00274,111.782192 212.871233,111.40411 C210.739726,111.026712 213.682877,106.234247 213.682877,106.234247" id="Fill-86" fill="#A95689"></path>
                    <path d="M214.510274,105.37 L214.362329,105.37 L214.362329,104.456986 C214.362329,102.415205 212.691096,100.744658 210.649315,100.744658 C210.649315,100.744658 206.318493,100.401507 201.149315,100.315205 C201.111644,100.030959 200.881507,99.8069863 200.589041,99.7932877 C200.570548,86.2343836 199.783562,85.039863 199.783562,85.039863 L198.873288,85.0919178 L197.932877,85.200137 C197.932877,85.200137 197.176712,86.2535616 197.158219,99.7932877 C196.866438,99.8076712 196.636301,100.030959 196.599315,100.315205 C191.430137,100.401507 187.09863,100.744658 187.09863,100.744658 C185.056849,100.744658 183.386301,102.415205 183.386301,104.456986 L183.386301,105.37 L183.238356,105.37 C183.031507,105.37 182.862329,105.539178 182.862329,105.745342 L182.862329,107.988493 C182.862329,108.195342 183.031507,108.363836 183.238356,108.363836 L183.386301,108.363836 L183.386301,109.087123 C183.386301,111.128904 185.056849,112.799452 187.09863,112.799452 C187.09863,112.799452 193.994521,113.438493 198.873973,113.438493 C203.75411,113.438493 210.649315,112.799452 210.649315,112.799452 C212.691096,112.799452 214.362329,111.128904 214.362329,109.087123 L214.362329,108.363836 L214.510274,108.363836 C214.717123,108.363836 214.885616,108.195342 214.885616,107.988493 L214.885616,105.745342 C214.885616,105.539178 214.717123,105.37 214.510274,105.37" id="Fill-88" fill="#55556D"></path>
                    <path d="M209.405411,112.172877 C209.405411,112.172877 203.238288,112.74411 198.874589,112.74411 C194.510205,112.74411 188.343082,112.172877 188.343082,112.172877 C186.517055,112.172877 185.023219,110.679041 185.023219,108.853014 L185.023219,104.711918 C185.023219,102.88589 186.517055,101.392055 188.343082,101.392055 C188.343082,101.392055 193.41226,100.99 198.874589,100.99 C204.336233,100.99 209.405411,101.392055 209.405411,101.392055 C211.231438,101.392055 212.725274,102.88589 212.725274,104.711918 L212.725274,108.853014 C212.725274,110.679041 211.231438,112.172877 209.405411,112.172877 Z" id="Stroke-90" stroke="#FFFFFF" stroke-width="0.313"></path>
                    <path d="M208.825479,111.880548 C208.825479,111.880548 202.998082,112.420274 198.87411,112.420274 C194.750137,112.420274 188.92274,111.880548 188.92274,111.880548 C187.197397,111.880548 185.785753,110.468904 185.785753,108.743562 L185.785753,104.830548 C185.785753,103.104521 187.197397,101.692877 188.92274,101.692877 C188.92274,101.692877 193.713151,101.313425 198.87411,101.313425 C204.035068,101.313425 208.825479,101.692877 208.825479,101.692877 C210.550822,101.692877 211.962466,103.104521 211.962466,104.830548 L211.962466,108.743562 C211.962466,110.468904 210.550822,111.880548 208.825479,111.880548" id="Fill-92" fill="#444559"></path>
                    <g id="Group-2" transform="translate(0.000000, 166.833333)">
                        <polygon id="Fill-94" fill="#00FFC3" opacity="0.100000001" points="192.155822 86.7880137 50.7301859 138.262084 0.719422701 51.6407534 142.145059 0.166682975"></polygon>
                        <path d="M63.5556262,48.8425636 L56.6720646,51.3494129 C55.9029843,50.5773973 54.6818493,50.2427593 53.6705969,50.6096869 L48.2562133,52.5808219 C47.0336106,53.0255382 46.5742172,54.3259295 47.2332192,55.4707436 L48.5659002,57.7765166 L49.1544521,58.7980431 L52.757681,65.0372798 C53.6705969,66.6180039 55.7987769,67.4090998 57.4881115,66.7941292 L71.0659002,61.8523483 C72.7552348,61.2373777 73.3907534,59.4409002 72.4778376,57.8601761 L68.2860568,50.5994129 C67.3731409,49.0186888 65.2449609,48.227593 63.5556262,48.8425636" id="Fill-96" fill="#FAA800"></path>
                        <path d="M92.1558708,38.4331213 L85.2723092,40.9385029 C84.503229,40.167955 83.2820939,39.8318493 82.2708415,40.2002446 L76.8564579,42.1713796 C75.6338552,42.6160959 75.1744618,43.9164873 75.8334638,45.0598337 L77.1661448,47.3670744 L77.7546967,48.3886008 L81.3579256,54.6278376 C82.2708415,56.2085616 84.3990215,56.9981898 86.0883562,56.3832192 L99.6661448,51.4429061 C101.355479,50.8279354 101.990998,49.0314579 101.078082,47.4507339 L96.8863014,40.1899706 C95.9733855,38.6092466 93.8452055,37.8181507 92.1558708,38.4331213" id="Fill-98" fill="#E4A6E0"></path>
                        <path d="M120.755528,28.0236791 L113.871967,30.5290607 C113.102886,29.757045 111.881751,29.422407 110.871967,29.7908023 L105.456115,31.7619374 C104.233513,32.2066536 103.774119,33.507045 104.434589,34.6503914 L105.76727,36.9576321 L106.355822,37.9791585 L109.959051,44.2183953 C110.871967,45.7991194 113.000147,46.5887476 114.688014,45.9737769 L128.26727,41.0319961 C129.956605,40.4170254 130.590656,38.6220157 129.679207,37.0412916 L125.487427,29.7790607 C124.574511,28.1998043 122.444863,27.4087084 120.755528,28.0236791" id="Fill-100" fill="#9C73FF"></path>
                        <path d="M75.6664384,69.8183464 L68.7828767,72.3251957 C68.0137965,71.55318 66.7926614,71.2185421 65.781409,71.5854697 L60.3655577,73.5566047 C59.1444227,74.0013209 58.6835616,75.3017123 59.3440313,76.4465264 L60.6767123,78.7522994 L61.2652642,79.7738258 L64.8684932,86.0130626 C65.781409,87.5937867 67.909589,88.3848826 69.5989237,87.7699119 L83.1767123,82.8281311 C84.866047,82.2131605 85.5015656,80.416683 84.5886497,78.8359589 L80.3968689,71.5751957 C79.483953,69.9944716 77.355773,69.2048434 75.6664384,69.8183464" id="Fill-102" fill="#00FFC3"></path>
                        <path d="M104.266683,59.4089041 L97.3831213,61.9142857 C96.6140411,61.1437378 95.3929061,60.8090998 94.3816536,61.1760274 L88.9658023,63.1471624 C87.7446673,63.5918787 87.2838063,64.8922701 87.9442759,66.0356164 L89.2769569,68.3428571 L89.8655088,69.3643836 L93.4687378,75.6036204 C94.3816536,77.1843444 96.5098337,77.9739726 98.1991683,77.3604697 L111.776957,72.4186888 C113.466292,71.8037182 114.10181,70.0072407 113.188894,68.4265166 L108.997114,61.1657534 C108.084198,59.5850294 105.956018,58.7939335 104.266683,59.4089041" id="Fill-104" fill="#4748FF"></path>
                        <path d="M132.866928,48.9994618 L125.983366,51.5048434 C125.214286,50.7342955 123.993151,50.3981898 122.981898,50.7665851 L117.566047,52.7377202 C116.343444,53.1824364 115.885519,54.4828278 116.544521,55.6261742 L117.877202,57.9334149 L118.465753,58.9549413 L122.068982,65.1941781 C122.981898,66.7749022 125.110078,67.5645303 126.799413,66.9495597 L140.377202,62.0077789 C142.066536,61.3928082 142.702055,59.5977984 141.789139,58.0170744 L137.597358,50.7563112 C136.684442,49.1755871 134.554795,48.3844912 132.866928,48.9994618" id="Fill-106" fill="#B4EE73"></path>
                        <path d="M87.7765166,90.794863 L80.892955,93.3002446 C80.1238748,92.528229 78.9027397,92.193591 77.8914873,92.5619863 L72.4771037,94.5331213 C71.254501,94.9778376 70.7951076,96.278229 71.4541096,97.4215753 L72.7867906,99.728816 L73.3753425,100.750342 L76.9785714,106.989579 C77.8914873,108.570303 80.0196673,109.359932 81.709002,108.744961 L95.2867906,103.80318 C96.977593,103.188209 97.6116438,101.3932 96.7001957,99.8124755 L92.5069472,92.5502446 C91.5940313,90.9709883 89.4658513,90.1798924 87.7765166,90.794863" id="Fill-108" fill="#D5E9FF"></path>
                        <path d="M116.376761,80.3846869 L109.4932,82.8915362 C108.724119,82.1195205 107.502984,81.7848826 106.491732,82.1518102 L101.077348,84.1229452 C99.8547456,84.5676614 99.3953523,85.8680528 100.054354,87.0128669 L101.387035,89.3186399 L101.975587,90.3401663 L105.578816,96.5794031 C106.491732,98.1601272 108.62138,98.9512231 110.309247,98.3362524 L123.887035,93.3944716 C125.577838,92.779501 126.211888,90.9830235 125.298973,89.4022994 L121.108659,82.1415362 C120.195744,80.5608121 118.066096,79.7697162 116.376761,80.3846869" id="Fill-110" fill="#FAEC00"></path>
                        <path d="M144.977006,69.9752446 L138.093444,72.4806262 C137.324364,71.7100783 136.103229,71.3754403 135.091977,71.7423679 L129.676125,73.7135029 C128.45499,74.1582192 127.995597,75.4586106 128.656067,76.6019569 L129.98728,78.9091977 L130.575832,79.9307241 L134.180528,86.1699609 C135.091977,87.7506849 137.221624,88.5403131 138.909491,87.9253425 L152.48728,82.9850294 C154.178082,82.3700587 154.812133,80.5735812 153.899217,78.9928571 L149.708904,71.7320939 C148.795988,70.1513699 146.666341,69.360274 144.977006,69.9752446" id="Fill-112" fill="#61E8FF"></path>
                        <path d="M171.357192,79.9001957 L171.357192,79.9001957 C170.822945,80.0939335 170.150734,79.8444227 169.861595,79.3454012 L134.695254,18.433953 C134.407583,17.9349315 134.608659,17.3683953 135.141438,17.1731898 C135.674217,16.9794521 136.346429,17.2289628 136.635568,17.7279843 L171.803376,78.6394325 C172.091047,79.138454 171.889971,79.7064579 171.357192,79.9001957" id="Fill-114" fill="#D6E1F1"></path>
                        <path d="M138.885421,20.4106654 C139.349217,21.2149706 139.029256,22.1205479 138.170646,22.4331703 C137.310568,22.7457926 136.237671,22.3465753 135.773875,21.5422701 C135.308611,20.7394325 135.628571,19.8338552 136.48865,19.5212329 C137.34726,19.2086106 138.421624,19.6063601 138.885421,20.4106654" id="Fill-116" fill="#FFFFFF"></path>
                        <polygon id="Fill-118" fill="#D6E1F1" opacity="0.100000001" points="78.1439335 128.285176 50.7300391 138.262671 0.72074364 51.6413405 28.1331703 41.6638454"></polygon>
                    </g>
                    <polygon id="Fill-120" fill="#D6E1F1" opacity="0.100000001" points="205.760342 38.1925342 144.155548 60.615137 122.500068 23.1069178 184.104863 0.684315068"></polygon>
                    <line x1="133.327534" y1="41.8610274" x2="195.158356" y2="19.8295205" id="Stroke-123" stroke="#FFFFFF" stroke-width="0.865"></line>
                    <path d="M173.732808,27.154726 C176.598562,32.1177397 174.621849,37.7060959 169.318425,39.6362329 C164.015,41.5663699 157.393082,39.1081507 154.527329,34.145137 C151.66226,29.1814384 153.638973,23.5937671 158.941712,21.6636301 C164.245137,19.7334932 170.867055,22.1917123 173.732808,27.154726" id="Fill-125" fill="#FAA800"></path>
                    <path d="M149.568219,35.950137 C150.725068,37.9542466 149.927123,40.210411 147.785342,40.989863 C145.644247,41.77 142.969589,40.7768493 141.81274,38.7727397 C140.65589,36.7686301 141.453836,34.5117808 143.595616,33.7323288 C145.736712,32.9535616 148.41137,33.9460274 149.568219,35.950137" id="Fill-127" fill="#B99CFA"></path>
                    <path d="M180.811164,24.5785616 C181.137877,25.1443151 180.912534,25.7806164 180.308425,26.0011644 C179.70363,26.2203425 178.949521,25.9408904 178.622808,25.375137 C178.296096,24.8093836 178.521438,24.1723973 179.125548,23.9525342 C179.730342,23.7326712 180.484452,24.0128082 180.811164,24.5785616" id="Fill-129" fill="#B99CFA"></path>
                </g>
                <g id="Page-1" transform="translate(595.000000, 119.000000)" stroke-linecap="round" stroke-linejoin="round">
                    <line x1="9.0265" y1="14.1650833" x2="25.844" y2="23.8484167" id="Stroke-1" stroke="#FFFFFF"></line>
                    <line x1="9.04925" y1="20.93" x2="12.40925" y2="22.8666667" id="Stroke-2" stroke="#FFFFFF"></line>
                    <line x1="15.7768333" y1="24.8033333" x2="19.1368333" y2="26.74" id="Stroke-3" stroke="#FFFFFF"></line>
                    <g id="Group-14" transform="translate(0.000000, 0.174417)">
                        <path d="M0.777583333,56.5075 L0.596733034,2.38583333 C0.590916667,0.513333333 2.09008333,-0.134166667 3.94508333,0.939166667 L47.6659167,26.11 L61.16425,47.3841667 L61.1934167,57.5341667" id="Stroke-4" stroke="#FFFFFF"></path>
                        <path d="M54.4401667,43.5131667 L51.0743333,41.5765 C49.2135,40.509 47.7085,38.1231667 47.7026667,36.2565 L47.6676667,26.1123333" id="Stroke-8" stroke="#FFFFFF"></path>
                        <path d="M61.2698333,79.52175 L61.369017,108.27425 C61.3748333,110.14675 59.8756667,110.788417 58.0148333,109.720917 L4.214,78.7400833 C2.34733333,77.6725833 0.842333333,75.28675 0.8365,73.4200833 L0.824833333,70.0425833" id="Stroke-6" stroke="#FFFFFF"></path>
                        <polyline id="Stroke-10" stroke="#B4EE73" stroke-width="2" points="0.669666667 63.01575 9.08716667 67.9040833 24.2538333 61.5399167 41.1063333 71.3165833 59.633 63.54075"></polyline>
                        <polyline id="Stroke-12" stroke="#B4EE73" stroke-width="2" points="49.5238333 57.6724167 59.633 63.54075 59.633 73.6499167"></polyline>
                    </g>
                </g>
                <g id="Page-1" transform="translate(533.166667, 161.000000)" stroke-linecap="round" stroke-linejoin="round">
                    <line x1="5.40995" y1="8.498" x2="15.52145" y2="14.364" id="Stroke-1" stroke="#FFFFFF"></line>
                    <line x1="5.40995" y1="12.5412" x2="7.43295" y2="13.7137" id="Stroke-2" stroke="#FFFFFF"></line>
                    <line x1="9.4535" y1="14.8876" x2="11.4765" y2="16.0601" id="Stroke-3" stroke="#FFFFFF"></line>
                    <g id="Group-14" transform="translate(0.000000, 0.119000)">
                        <path d="M0.3584,28.69685 L0.3584,1.40385 C0.3584,0.28735 1.2649,-0.09415 2.3779,0.55335 L28.6629,15.80635 L36.7479,28.58485 L36.7479,34.65035" id="Stroke-4" stroke="#FFFFFF"></path>
                        <path d="M36.7493,42.7378 L36.7493,64.9768 C36.7493,66.0933 35.8428,66.4748 34.7263,65.8273 L2.3793,47.0533 C1.2628,46.4058 0.3598,44.9778 0.3598,43.8578 L0.3598,41.8383" id="Stroke-6" stroke="#FFFFFF"></path>
                        <path d="M32.7061,26.2395 L30.6831,25.067 C29.5701,24.4195 28.6636,22.988 28.6636,21.8715 L28.6636,15.806" id="Stroke-8" stroke="#FFFFFF"></path>
                        <polyline id="Stroke-10" stroke="#FF7362" stroke-width="2" points="36.7493 38.6946 31.6953 35.7616 22.5953 39.5801 12.4873 33.7141 1.3678 38.3831"></polyline>
                        <polyline id="Stroke-12" stroke="#FF7362" stroke-width="2" points="7.43365 41.9006 1.36815 38.3831 1.36815 32.3141"></polyline>
                    </g>
                </g>
                <g id="Page-1" transform="translate(0.000000, 31.500000)">
                    <path d="M0.993611111,113.549722 L0.993611111,110.74 C0.993611111,99.2872222 9.57833333,84.8983333 20.6519444,77.1205556 C20.6519444,77.0622222 20.6422222,77.0038889 20.6422222,76.9358333 C20.6422222,64.5302778 30.7047222,48.6733333 43.12,41.5080556 L45.92,39.8941667 C45.92,27.4886111 55.9825,11.6316667 68.3783333,4.46638889 C80.7936111,-2.68916667 90.8561111,1.55944444 90.8561111,13.9747222 C90.8561111,14.0330556 90.8463889,14.1011111 90.8366667,14.1691667 C101.92,9.1525 110.504722,13.6441667 110.504722,25.0969444 C110.504722,25.165 110.495,25.2330556 110.495,25.2913889 C121.578333,20.2844444 130.163056,24.7663889 130.163056,36.2191667 L130.163056,39.0288889" id="Stroke-1" stroke="#97D0FF" stroke-linecap="round" stroke-linejoin="round"></path>
                    <path d="M57.1481944,33.4123611 C57.1481944,27.2095833 62.1843056,19.27625 68.3773611,15.6984722" id="Stroke-3" stroke="#97D0FF" stroke-linecap="round" stroke-linejoin="round"></path>
                    <path d="M79.6113889,123.64625 C81.1669444,122.751806 82.4211111,120.768472 82.4211111,119.212917 L82.4211111,91.1351389 L74.0016667,87.5768056 L51.5336111,100.536528 C49.9877778,101.430972 48.7238889,103.414306 48.7238889,104.960139 L48.7238889,138.657361 C48.7238889,140.212917 49.9877778,140.737917 51.5336111,139.853194 L79.6113889,123.64625 Z" id="Stroke-5" stroke="#009DFF" stroke-linecap="round" stroke-linejoin="round"></path>
                    <polyline id="Stroke-7" stroke="#009DFF" stroke-linecap="round" stroke-linejoin="round" points="74.0006944 87.5729167 74.0006944 96.0020833 82.4201389 91.1409722"></polyline>
                    <path d="M127.349444,96.1031944 C128.905,95.20875 130.159167,93.2254167 130.159167,91.6795833 L130.159167,63.6018056 L121.739722,60.03375 L99.2716667,72.9934722 C97.7161111,73.8879167 96.4619444,75.87125 96.4619444,77.4268056 L96.4619444,111.114306 C96.4619444,112.669861 97.7161111,113.204583 99.2716667,112.310139 L127.349444,96.1031944 Z" id="Stroke-9" stroke="#009DFF" stroke-linecap="round" stroke-linejoin="round"></path>
                    <g id="Group-13" transform="translate(116.666667, 52.148056)">
                        <mask id="mask-6" fill="white">
                            <use xlink:href="#path-5"></use>
                        </mask>
                        <g id="Clip-12"></g>
                        <polyline id="Stroke-11" stroke="#009DFF" stroke-linecap="round" stroke-linejoin="round" mask="url(#mask-6)" points="5.07111111 7.88666667 5.07111111 16.3061111 13.4905556 11.4547222"></polyline>
                    </g>
                    <path d="M31.8830556,151.185417 C33.4288889,150.290972 34.6830556,148.307639 34.6830556,146.761806 L34.6830556,118.684028 L26.2636111,115.115972 L3.79555556,128.075694 C2.24972222,128.970139 0.995555556,130.953472 0.995555556,132.509028 L0.995555556,166.196528 C0.995555556,167.752083 2.24972222,168.286806 3.79555556,167.392361 L31.8830556,151.185417 Z" id="Stroke-14" stroke="#009DFF" stroke-linecap="round" stroke-linejoin="round"></path>
                    <polyline id="Stroke-16" stroke="#009DFF" stroke-linecap="round" stroke-linejoin="round" points="26.2626389 115.115972 26.2626389 123.535417 34.6820833 118.684028"></polyline>
                    <line x1="9.415" y1="141.685833" x2="20.6441667" y2="135.201111" id="Stroke-18" stroke="#009DFF" stroke-linecap="round" stroke-linejoin="round"></line>
                    <line x1="9.415" y1="152.917917" x2="26.2636111" y2="143.195694" id="Stroke-20" stroke="#009DFF" stroke-linecap="round" stroke-linejoin="round"></line>
                    <line x1="57.1481944" y1="114.142778" x2="68.3773611" y2="107.658056" id="Stroke-22" stroke="#009DFF" stroke-linecap="round" stroke-linejoin="round"></line>
                    <line x1="57.1481944" y1="125.374861" x2="73.9968056" y2="115.652639" id="Stroke-24" stroke="#009DFF" stroke-linecap="round" stroke-linejoin="round"></line>
                    <line x1="104.885278" y1="86.6045833" x2="116.114444" y2="80.1198611" id="Stroke-26" stroke="#009DFF" stroke-linecap="round" stroke-linejoin="round"></line>
                    <line x1="104.885278" y1="97.8366667" x2="121.733889" y2="88.1144444" id="Stroke-28" stroke="#009DFF" stroke-linecap="round" stroke-linejoin="round"></line>
                    <path d="M68.3793056,57.12 L68.3793056,65.5394444 C68.3793056,65.5394444 68.3793056,71.1588889 62.7695833,74.3963889 C57.1501389,77.6338889 26.2626389,95.4547222 26.2626389,95.4547222 C26.2626389,95.4547222 20.6431944,98.7019444 20.6431944,104.311667 L20.6431944,109.931111" id="Stroke-30" stroke="#1E00FF" stroke-linecap="round" stroke-linejoin="round"></path>
                    <path d="M74.0006944,67.9194444 L104.888194,50.0986111 C104.888194,50.0986111 110.507639,46.8513889 110.507639,52.4708333 L110.507639,58.0902778" id="Stroke-32" stroke="#1E00FF" stroke-linecap="round" stroke-linejoin="round"></path>
                    <path d="M76.8104167,35.41125 C76.8104167,40.0681944 73.0381944,46.0084722 68.38125,48.6918056 C63.7243056,51.3848611 59.9618056,49.7904167 59.9618056,45.1334722 C59.9618056,40.4765278 63.7243056,34.53625 68.38125,31.8431944 C73.0381944,29.1598611 76.8104167,30.7543056 76.8104167,35.41125 Z" id="Stroke-34" stroke="#1E00FF" stroke-linecap="round" stroke-linejoin="round"></path>
                    <line x1="76.8104167" y1="35.41125" x2="90.8493056" y2="27.3126389" id="Stroke-36" stroke="#1E00FF" stroke-linecap="round" stroke-linejoin="round"></line>
                    <line x1="45.9161111" y1="53.2320833" x2="59.955" y2="45.1334722" id="Stroke-38" stroke="#1E00FF" stroke-linecap="round" stroke-linejoin="round"></line>
                </g>
                <g id="Page-1" transform="translate(67.666667, 525.000000)" stroke-linecap="round" stroke-linejoin="round">
                    <polyline id="Stroke-1" stroke="#9C73FF" points="78.2894 5.37355 73.0394 2.33555 36.5554 23.30055"></polyline>
                    <polygon id="Stroke-2" stroke="#9C73FF" points="3.2921 48.44735 0.7161 53.96335 10.2921 52.49335 93.4031 4.76035 86.3961 0.71435"></polygon>
                    <line x1="72.2092" y1="8.86725" x2="79.2092" y2="12.90625" id="Stroke-4" stroke="#9C73FF"></line>
                    <line x1="62.8166" y1="38.45975" x2="80.3236" y2="48.56775" id="Stroke-5" stroke="#EE70A7"></line>
                    <g id="Group-20" transform="translate(0.000000, 0.344050)">
                        <path d="M23.5305,50.8305 C34.2895,53.5605 47.3445,53.2245 59.1045,49.9765 L68.1625,55.2125" id="Stroke-6" stroke="#EE70A7"></path>
                        <path d="M59.3747,3.7786 C45.3957,2.1756 29.2957,4.9406 17.2907,11.8286 C5.3487,18.6956 0.4907,27.9076 3.1717,35.9366" id="Stroke-8" stroke="#EE70A7"></path>
                        <path d="M92.4875,41.2398 L83.4295,36.0108 C89.0925,29.2418 89.7085,21.7308 85.0045,15.5288" id="Stroke-10" stroke="#EE70A7"></path>
                        <polyline id="Stroke-12" stroke="#D1D1D1" points="86.4997 58.7944 91.7497 61.8254 103.9157 54.8394 98.6587 51.8084"></polyline>
                        <polyline id="Stroke-14" stroke="#D1D1D1" points="73.4153 58.2407 80.4153 62.2867 104.7403 48.3147 97.7403 44.2687"></polyline>
                        <line x1="67.3351" y1="61.7337" x2="103.8191" y2="40.7757" id="Stroke-16" stroke="#D1D1D1"></line>
                        <path d="M55.2594,38.423 C53.3274,37.303 49.9464,37.443 47.7064,38.731 C45.4664,40.019 45.2144,41.965 47.1534,43.078 C49.0854,44.191 52.4734,44.058 54.7064,42.77 L70.9254,33.46 C73.1654,32.165 73.4104,30.226 71.4784,29.106 C69.5464,27.993 66.1584,28.126 63.9184,29.414 C61.6784,30.695 61.4334,32.648 63.3654,33.761" id="Stroke-18" stroke="#EE70A7"></path>
                    </g>
                </g>
                <g id="Page-1" transform="translate(228.666667, 539.000000)" stroke-linecap="round" stroke-linejoin="round">
                    <line x1="9.82261538" y1="19.0952821" x2="20.2185128" y2="13.1255385" id="Stroke-1" stroke="#D1D1D1"></line>
                    <line x1="13.4159487" y1="21.1669231" x2="15.4944103" y2="19.9751282" id="Stroke-2" stroke="#D1D1D1"></line>
                    <line x1="17.5735897" y1="18.7797436" x2="19.6520513" y2="17.5879487" id="Stroke-3" stroke="#D1D1D1"></line>
                    <g id="Group-16" transform="translate(0.000000, 0.622821)">
                        <path d="M76.1664615,19.6606667 C77.1572308,20.2350256 77.0315897,21.2329744 75.8828718,21.8934872 L42.6203077,40.9981026 C41.4715897,41.6586154 39.7377436,41.7268205 38.7469744,41.1560513 L1.03312821,19.3842564 C0.0423589744,18.8134872 0.171589744,17.8119487 1.31671795,17.1550256 L28.3438974,1.62938462 L43.8444103,1.00117949 L76.1664615,19.6606667 Z" id="Stroke-4" stroke="#D1D1D1"></path>
                        <path d="M39.6853333,3.38764103 L37.6068718,4.58302564 C36.4581538,5.24353846 34.7243077,5.31174359 33.7299487,4.74097436 L28.3417436,1.62866667" id="Stroke-6" stroke="#D1D1D1"></path>
                        <path d="M25.7962564,21.7078974 L23.7177949,22.8996923 C22.5690769,23.5637949 22.4398462,24.5617436 23.4342051,25.1325128 L37.800359,33.4284103 C38.7911282,33.9991795 40.5285641,33.9273846 41.6736923,33.2704615 L62.4618974,21.3309744 C63.6106154,20.6704615 63.7398462,19.6725128 62.7454872,19.0945641 L48.3829231,10.8022564 C47.3885641,10.2314872 45.6547179,10.2996923 44.506,10.9602051 L40.3490769,13.3473846" id="Stroke-8" stroke="#009DFF"></path>
                        <polyline id="Stroke-10" stroke="#FAA800" points="36.8440513 32.8734359 37.9712308 23.9852308 51.5943077 23.4324103"></polyline>
                        <polyline id="Stroke-12" stroke="#FAA800" points="46.0671795 21.4379487 46.4907692 18.0923077 60.0205128 17.5430769"></polyline>
                        <path d="M37.0877949,16.2568718 C38.5775385,17.1148205 38.3836923,18.6117436 36.6642051,19.6025128 C34.9411282,20.5896923 32.3385641,20.6937949 30.8524103,19.8358462 C29.3626667,18.9778974 29.5529231,17.4809744 31.276,16.4902051 C32.9990769,15.5030256 35.5980513,15.3989231 37.0877949,16.2568718 Z" id="Stroke-14" stroke="#FAA800"></path>
                    </g>
                </g>
                <g id="Page-1" transform="translate(459.666667, 416.500000)" stroke-linecap="round" stroke-linejoin="round">
                    <path d="M71.1912963,63.1510185 L44.9801852,78.2723148 C43.9496296,78.8686111 43.1135185,80.1908333 43.1135185,81.2213889 L43.1135185,92.4537963 C43.1135185,93.4908333 43.9496296,93.8408333 44.9801852,93.2510185 L54.3394444,87.845463 L54.3394444,95.3315741 L61.832037,83.5287963 L71.1912963,78.1297222 C72.2218519,77.5269444 73.0644444,76.2112037 73.0644444,75.1741667 L73.0644444,63.9417593 C73.0644444,62.9047222 72.2218519,62.5547222 71.1912963,63.1510185 Z" id="Stroke-1" stroke="#97D0FF"></path>
                    <path d="M17.7696296,48.4575 C10.2835185,52.7806481 8.41037037,61.3426852 8.41037037,61.3426852 L8.41037037,65.0371296 C8.41037037,72.4778704 12.5974074,75.7769444 17.7696296,72.7889815 C22.9418519,69.8075 27.1288889,61.6797222 27.1288889,54.2325 L27.1288889,50.544537 C27.1288889,50.544537 25.2557407,44.1343519 17.7696296,48.4575 Z" id="Stroke-17" stroke="#9C73FF"></path>
                    <path d="M34.6188889,89.2798148 L34.6188889,74.3011111 C34.6188889,70.1659259 31.2614815,68.752963 27.1327778,71.1381481 C27.1327778,71.1381481 21.5133333,74.3788889 21.5133333,68.7594444" id="Stroke-19" stroke="#9C73FF"></path>
                    <path d="M14.022037,73.0793519 C14.022037,78.6987963 8.40907407,81.939537 8.40907407,81.939537 C4.27388889,84.3247222 0.922962963,89.6071296 0.922962963,93.7423148 L0.922962963,108.721019" id="Stroke-21" stroke="#9C73FF"></path>
                    <line x1="8.40777778" y1="91.2955556" x2="8.40777778" y2="104.401111" id="Stroke-23" stroke="#9C73FF"></line>
                    <line x1="27.1308333" y1="80.4941667" x2="27.1308333" y2="93.5997222" id="Stroke-25" stroke="#9C73FF"></line>
                    <path d="M29.8653704,46.0807407 L29.8653704,38.5946296 C29.8653704,37.5640741 30.707963,36.2353704 31.7385185,35.6455556 L91.6403704,1.07981481 C92.6709259,0.483518519 93.5135185,0.84 93.5135185,1.87055556 L93.5135185,20.5890741 C93.5135185,21.6261111 92.6709259,22.9483333 91.6403704,23.5446296 L54.2033333,45.1474074 L46.7172222,58.8233333 L46.7172222,49.4640741 L39.2246296,53.7872222" id="Stroke-27" stroke="#1E00FF"></path>
                    <line x1="86.0274074" y1="19.2966667" x2="50.457037" y2="39.817037" id="Stroke-29" stroke="#1E00FF"></line>
                    <line x1="86.0274074" y1="11.8092593" x2="37.3514815" y2="39.8935185" id="Stroke-31" stroke="#1E00FF"></line>
                </g>
                <g id="Page-1" transform="translate(410.666667, 547.166667)" stroke-linecap="round" stroke-linejoin="round">
                    <g id="Group-16" transform="translate(0.000000, 0.979018)">
                        <path d="M34.6453333,22.5940351 C34.6453333,31.9961404 27.0214737,44.0164912 17.6193684,49.4396491 C8.21726316,54.8677193 0.593403509,51.6403509 0.593403509,42.2382456 C0.593403509,32.8361404 8.21726316,20.8157895 17.6193684,15.3926316" id="Stroke-8" stroke="#009DFF"></path>
                        <path d="M14.7825263,32.6342456 C14.7825263,33.4202105 15.4162105,33.6854737 16.2021754,33.2335439 L21.8758596,29.9619649 C22.6618246,29.5100351 23.2955088,28.5079298 23.2955088,27.7219649 L23.2955088,24.8875789 C23.2955088,24.101614 22.6618246,23.8314386 21.8758596,24.2833684 L16.2021754,27.5598596 C15.4162105,28.0117895 14.7825263,29.0138947 14.7825263,29.7949474 L14.7825263,32.6342456 Z" id="Stroke-10" stroke="#B4EE73"></path>
                        <path d="M28.9701754,18.7752281 C28.9701754,19.5562807 29.6038596,19.8264561 30.3898246,19.3745263 L36.0635088,16.1029474 C36.8494737,15.6461053 37.4831579,14.6489123 37.4831579,13.8629474 L37.4831579,11.0236491 C37.4831579,10.2425965 36.8494737,9.97242105 36.0635088,10.4243509 L30.3898246,13.7008421 C29.6038596,14.1527719 28.9701754,15.1548772 28.9701754,15.9359298 L28.9701754,18.7752281 Z" id="Stroke-12" stroke="#B4EE73"></path>
                        <polyline id="Stroke-14" stroke="#B4EE73" points="23.2955088 26.3047719 23.2955088 9.27880702 37.4821754 1.09494737 37.4821754 12.4423158"></polyline>
                    </g>
                </g>
                <g id="Page-1" transform="translate(527.333333, 535.500000)" stroke-linecap="round" stroke-linejoin="round">
                    <path d="M67.1657067,42.635816 L67.1657067,5.16345581 C67.1657067,2.19755048 64.7651771,1.18728898 61.8085402,2.89268454 L8.27394902,33.7751738 C5.31731215,35.4898378 2.91678252,39.2713671 2.91678252,42.228004 L2.91678252,79.7003641" id="Stroke-8" stroke="#FFFFFF"></path>
                    <line x1="0.240979808" y1="91.9514068" x2="48.427673" y2="64.1553128" id="Stroke-10" stroke="#3062FF"></line>
                    <line x1="69.8452168" y1="51.7949024" x2="64.4880503" y2="54.8812976" id="Stroke-12" stroke="#3062FF"></line>
                    <line x1="59.1373717" y1="57.9769613" x2="53.7802052" y2="61.0633565" id="Stroke-14" stroke="#3062FF"></line>
                    <line x1="27.0147633" y1="68.4762661" x2="27.0147633" y2="84.5384972" id="Stroke-16" stroke="#3062FF"></line>
                    <polygon id="Stroke-18" stroke="#FF7362" points="29.6887123 53.5466402 29.6887123 37.4844091 45.7509434 36.2517047"></polygon>
                </g>
                <g id="$" transform="translate(397.833333, 102.666667)" stroke="#B4EE73" stroke-linecap="round" stroke-linejoin="round">
                    <path d="M23.9847222,22.1585 L23.9847222,21.0346111 C23.9847222,20.4162778 23.4791667,19.6190556 22.8608333,19.2573889 L18.3691667,16.6440556 C17.7469444,16.2823889 17.2452778,16.4923889 17.2452778,17.1107222 L17.2452778,19.3585 C17.2452778,19.9768333 17.7469444,20.7740556 18.3691667,21.1357222 L20.6169444,22.4423889" id="Stroke-1"></path>
                    <path d="M17.2437222,22.7282222 L17.2437222,23.8521111 C17.2437222,24.4704444 17.7492778,25.2676667 18.3676111,25.6293333 L22.8592778,28.2426667 C23.4815,28.6043333 23.9831667,28.3943333 23.9831667,27.7721111 L23.9831667,25.5282222 C23.9831667,24.9098889 23.4815,24.1126667 22.8592778,23.751 L20.6153889,22.4443333" id="Stroke-3"></path>
                    <line x1="20.6161667" y1="17.9507222" x2="20.6161667" y2="14.5790556" id="Stroke-5"></line>
                    <line x1="20.6161667" y1="30.3065" x2="20.6161667" y2="26.9348333" id="Stroke-7"></line>
                    <path d="M0.397055556,19.6598889 C0.397055556,20.9004444 1.40427778,22.491 2.64483333,23.2143333 L38.5859444,44.1365556 C39.8265,44.8598889 40.8298333,44.4398889 40.8298333,43.1993333 L40.8298333,25.2287778 C40.8298333,23.9843333 39.8265,22.3976667 38.5859444,21.6743333 L2.64483333,0.752111111 C1.40427778,0.0287777778 0.397055556,0.448777778 0.397055556,1.68933333 L0.397055556,19.6598889 Z" id="Stroke-9"></path>
                    <path d="M31.8461111,28.9811667 C31.8461111,35.1839444 26.8177778,37.2878333 20.615,33.6750556 C14.4122222,30.0622778 9.38388889,22.1095 9.38388889,15.9067222 C9.38388889,9.70005556 14.4122222,7.60005556 20.615,11.2128333 C26.8177778,14.8217222 31.8461111,22.7783889 31.8461111,28.9811667 Z" id="Stroke-11"></path>
                    <line x1="3.76561111" y1="12.6357778" x2="6.01338889" y2="13.9424444" id="Stroke-13"></line>
                    <line x1="35.2146667" y1="30.9427222" x2="37.4624444" y2="32.2493889" id="Stroke-15"></line>
                </g>
                <g id="$" transform="translate(467.833333, 79.333333)" stroke="#B4EE73" stroke-linecap="round" stroke-linejoin="round">
                    <path d="M23.9847222,22.1585 L23.9847222,21.0346111 C23.9847222,20.4162778 23.4791667,19.6190556 22.8608333,19.2573889 L18.3691667,16.6440556 C17.7469444,16.2823889 17.2452778,16.4923889 17.2452778,17.1107222 L17.2452778,19.3585 C17.2452778,19.9768333 17.7469444,20.7740556 18.3691667,21.1357222 L20.6169444,22.4423889" id="Stroke-1"></path>
                    <path d="M17.2437222,22.7282222 L17.2437222,23.8521111 C17.2437222,24.4704444 17.7492778,25.2676667 18.3676111,25.6293333 L22.8592778,28.2426667 C23.4815,28.6043333 23.9831667,28.3943333 23.9831667,27.7721111 L23.9831667,25.5282222 C23.9831667,24.9098889 23.4815,24.1126667 22.8592778,23.751 L20.6153889,22.4443333" id="Stroke-3"></path>
                    <line x1="20.6161667" y1="17.9507222" x2="20.6161667" y2="14.5790556" id="Stroke-5"></line>
                    <line x1="20.6161667" y1="30.3065" x2="20.6161667" y2="26.9348333" id="Stroke-7"></line>
                    <path d="M0.397055556,19.6598889 C0.397055556,20.9004444 1.40427778,22.491 2.64483333,23.2143333 L38.5859444,44.1365556 C39.8265,44.8598889 40.8298333,44.4398889 40.8298333,43.1993333 L40.8298333,25.2287778 C40.8298333,23.9843333 39.8265,22.3976667 38.5859444,21.6743333 L2.64483333,0.752111111 C1.40427778,0.0287777778 0.397055556,0.448777778 0.397055556,1.68933333 L0.397055556,19.6598889 Z" id="Stroke-9"></path>
                    <path d="M31.8461111,28.9811667 C31.8461111,35.1839444 26.8177778,37.2878333 20.615,33.6750556 C14.4122222,30.0622778 9.38388889,22.1095 9.38388889,15.9067222 C9.38388889,9.70005556 14.4122222,7.60005556 20.615,11.2128333 C26.8177778,14.8217222 31.8461111,22.7783889 31.8461111,28.9811667 Z" id="Stroke-11"></path>
                    <line x1="3.76561111" y1="12.6357778" x2="6.01338889" y2="13.9424444" id="Stroke-13"></line>
                    <line x1="35.2146667" y1="30.9427222" x2="37.4624444" y2="32.2493889" id="Stroke-15"></line>
                </g>
                <g id="$" transform="translate(424.666667, 176.500000)" stroke="#B4EE73" stroke-linecap="round" stroke-linejoin="round">
                    <path d="M23.9847222,22.1585 L23.9847222,21.0346111 C23.9847222,20.4162778 23.4791667,19.6190556 22.8608333,19.2573889 L18.3691667,16.6440556 C17.7469444,16.2823889 17.2452778,16.4923889 17.2452778,17.1107222 L17.2452778,19.3585 C17.2452778,19.9768333 17.7469444,20.7740556 18.3691667,21.1357222 L20.6169444,22.4423889" id="Stroke-1"></path>
                    <path d="M17.2437222,22.7282222 L17.2437222,23.8521111 C17.2437222,24.4704444 17.7492778,25.2676667 18.3676111,25.6293333 L22.8592778,28.2426667 C23.4815,28.6043333 23.9831667,28.3943333 23.9831667,27.7721111 L23.9831667,25.5282222 C23.9831667,24.9098889 23.4815,24.1126667 22.8592778,23.751 L20.6153889,22.4443333" id="Stroke-3"></path>
                    <line x1="20.6161667" y1="17.9507222" x2="20.6161667" y2="14.5790556" id="Stroke-5"></line>
                    <line x1="20.6161667" y1="30.3065" x2="20.6161667" y2="26.9348333" id="Stroke-7"></line>
                    <path d="M0.397055556,19.6598889 C0.397055556,20.9004444 1.40427778,22.491 2.64483333,23.2143333 L38.5859444,44.1365556 C39.8265,44.8598889 40.8298333,44.4398889 40.8298333,43.1993333 L40.8298333,25.2287778 C40.8298333,23.9843333 39.8265,22.3976667 38.5859444,21.6743333 L2.64483333,0.752111111 C1.40427778,0.0287777778 0.397055556,0.448777778 0.397055556,1.68933333 L0.397055556,19.6598889 Z" id="Stroke-9"></path>
                    <path d="M31.8461111,28.9811667 C31.8461111,35.1839444 26.8177778,37.2878333 20.615,33.6750556 C14.4122222,30.0622778 9.38388889,22.1095 9.38388889,15.9067222 C9.38388889,9.70005556 14.4122222,7.60005556 20.615,11.2128333 C26.8177778,14.8217222 31.8461111,22.7783889 31.8461111,28.9811667 Z" id="Stroke-11"></path>
                    <line x1="3.76561111" y1="12.6357778" x2="6.01338889" y2="13.9424444" id="Stroke-13"></line>
                    <line x1="35.2146667" y1="30.9427222" x2="37.4624444" y2="32.2493889" id="Stroke-15"></line>
                </g>
            </g>
        </g>
    </g>
</svg>